G04 #@! TF.FileFunction,Copper,L1,Top,Signal*
%FSLAX46Y46*%
G04 Gerber Fmt 4.6, Leading zero omitted, Abs format (unit mm)*
G04 Created by KiCad (PCBNEW 4.0.6) date 06/05/17 08:14:13*
%MOMM*%
%LPD*%
G01*
G04 APERTURE LIST*
%ADD10C,0.100000*%
%ADD11R,1.700000X1.700000*%
%ADD12O,1.700000X1.700000*%
%ADD13R,0.800000X0.750000*%
%ADD14R,0.750000X0.800000*%
%ADD15R,1.200000X1.200000*%
%ADD16R,0.450000X0.600000*%
%ADD17R,0.800000X0.900000*%
%ADD18R,0.900000X0.800000*%
%ADD19R,0.500000X0.900000*%
%ADD20R,0.900000X0.500000*%
%ADD21R,3.800000X2.000000*%
%ADD22R,1.500000X2.000000*%
%ADD23R,2.180000X1.600000*%
%ADD24C,1.520000*%
%ADD25C,2.700000*%
%ADD26R,0.899160X1.498600*%
%ADD27R,1.498600X0.899160*%
%ADD28R,4.000000X4.000000*%
%ADD29R,0.299720X0.599440*%
%ADD30R,0.599440X0.299720*%
%ADD31R,3.299460X3.299460*%
%ADD32R,0.434340X0.434340*%
%ADD33R,1.200000X1.400000*%
%ADD34R,1.000000X1.400000*%
%ADD35C,0.600000*%
%ADD36C,1.000000*%
%ADD37C,0.250000*%
%ADD38C,0.500000*%
%ADD39C,0.750000*%
%ADD40C,0.203200*%
G04 APERTURE END LIST*
D10*
D11*
X165100000Y-129540000D03*
D12*
X167640000Y-129540000D03*
X170180000Y-129540000D03*
X172720000Y-129540000D03*
X175260000Y-129540000D03*
X177800000Y-129540000D03*
D13*
X120408000Y-103378000D03*
X121908000Y-103378000D03*
X120408000Y-105410000D03*
X121908000Y-105410000D03*
D14*
X130683000Y-109970000D03*
X130683000Y-108470000D03*
D15*
X121242000Y-116840000D03*
X119042000Y-116840000D03*
D16*
X117602000Y-110456000D03*
X117602000Y-112556000D03*
D11*
X156210000Y-81280000D03*
D12*
X153670000Y-81280000D03*
X151130000Y-81280000D03*
X148590000Y-81280000D03*
X146050000Y-81280000D03*
X143510000Y-81280000D03*
X140970000Y-81280000D03*
X138430000Y-81280000D03*
X135890000Y-81280000D03*
X133350000Y-81280000D03*
D11*
X177800000Y-81280000D03*
D12*
X175260000Y-81280000D03*
X172720000Y-81280000D03*
X170180000Y-81280000D03*
X167640000Y-81280000D03*
X165100000Y-81280000D03*
X162560000Y-81280000D03*
X160020000Y-81280000D03*
D11*
X142240000Y-129540000D03*
D12*
X144780000Y-129540000D03*
X147320000Y-129540000D03*
X149860000Y-129540000D03*
X152400000Y-129540000D03*
X154940000Y-129540000D03*
X157480000Y-129540000D03*
X160020000Y-129540000D03*
D17*
X132953800Y-111979200D03*
X131053800Y-111979200D03*
X132003800Y-113979200D03*
D18*
X127270000Y-112715000D03*
X127270000Y-114615000D03*
X129270000Y-113665000D03*
D19*
X124194000Y-116840000D03*
X122694000Y-116840000D03*
D20*
X131953000Y-117463000D03*
X131953000Y-115963000D03*
D19*
X132981000Y-99187000D03*
X134481000Y-99187000D03*
X127266000Y-111252000D03*
X128766000Y-111252000D03*
X127266000Y-115951000D03*
X128766000Y-115951000D03*
D20*
X130302000Y-117463000D03*
X130302000Y-115963000D03*
X129540000Y-87491000D03*
X129540000Y-85991000D03*
D11*
X154940000Y-127000000D03*
D12*
X157480000Y-127000000D03*
X160020000Y-127000000D03*
D21*
X122682000Y-114402000D03*
D22*
X122682000Y-108102000D03*
X120382000Y-108102000D03*
X124982000Y-108102000D03*
D23*
X140734000Y-126238000D03*
X131554000Y-126238000D03*
X125367000Y-83820000D03*
X116187000Y-83820000D03*
D24*
X123190000Y-92710000D03*
X123190000Y-95250000D03*
X121190000Y-95250000D03*
X121190000Y-92710000D03*
D25*
X118490000Y-87980000D03*
X118490000Y-99980000D03*
D16*
X124206000Y-122140000D03*
X124206000Y-124240000D03*
D11*
X121920000Y-124460000D03*
D12*
X121920000Y-121920000D03*
D14*
X126492000Y-122440000D03*
X126492000Y-123940000D03*
D26*
X156893260Y-114409220D03*
X158163260Y-114409220D03*
X159433260Y-114409220D03*
X160703260Y-114409220D03*
X161973260Y-114409220D03*
X163243260Y-114409220D03*
X164513260Y-114409220D03*
X165780720Y-114409220D03*
X167050720Y-114409220D03*
X168320720Y-114409220D03*
X169590720Y-114409220D03*
X170860720Y-114409220D03*
X172130720Y-114409220D03*
X173400720Y-114409220D03*
D27*
X174891700Y-111125000D03*
X174891700Y-109855000D03*
X174891700Y-108585000D03*
X174891700Y-107315000D03*
X174891700Y-106045000D03*
X174891700Y-104775000D03*
X174891700Y-103505000D03*
X174891700Y-102235000D03*
X174891700Y-100965000D03*
X174891700Y-99695000D03*
D26*
X173400720Y-96410780D03*
X172130720Y-96410780D03*
X170860720Y-96410780D03*
X169590720Y-96410780D03*
X168320720Y-96410780D03*
X167050720Y-96410780D03*
X165780720Y-96410780D03*
X164513260Y-96410780D03*
X163243260Y-96410780D03*
X161973260Y-96410780D03*
X160703260Y-96410780D03*
X159433260Y-96410780D03*
X158163260Y-96410780D03*
X156893260Y-96410780D03*
D28*
X164092000Y-106045000D03*
D14*
X127254000Y-109970000D03*
X127254000Y-108470000D03*
D13*
X158357000Y-117221000D03*
X156857000Y-117221000D03*
D14*
X129032000Y-109970000D03*
X129032000Y-108470000D03*
X126492000Y-99302000D03*
X126492000Y-97802000D03*
X127889000Y-99302000D03*
X127889000Y-97802000D03*
D13*
X158357000Y-115951000D03*
X156857000Y-115951000D03*
D16*
X133604000Y-85945000D03*
X133604000Y-88045000D03*
X138938000Y-85945000D03*
X138938000Y-88045000D03*
D11*
X180340000Y-114300000D03*
D12*
X180340000Y-116840000D03*
X180340000Y-119380000D03*
D11*
X177800000Y-101600000D03*
D12*
X180340000Y-101600000D03*
X177800000Y-104140000D03*
X180340000Y-104140000D03*
X177800000Y-106680000D03*
X180340000Y-106680000D03*
D19*
X133235000Y-103632000D03*
X134735000Y-103632000D03*
X133235000Y-102108000D03*
X134735000Y-102108000D03*
D29*
X130149600Y-101587300D03*
X129649220Y-101587300D03*
X129148840Y-101587300D03*
X128651000Y-101587300D03*
X128153160Y-101587300D03*
X127652780Y-101587300D03*
X127152400Y-101587300D03*
D30*
X126352300Y-102387400D03*
X126352300Y-102887780D03*
X126352300Y-103388160D03*
X126352300Y-103886000D03*
X126352300Y-104383840D03*
X126352300Y-104884220D03*
X126352300Y-105384600D03*
D29*
X127152400Y-106184700D03*
X127652780Y-106184700D03*
X128153160Y-106184700D03*
X128651000Y-106184700D03*
X129148840Y-106184700D03*
X129649220Y-106184700D03*
X130149600Y-106184700D03*
D30*
X130949700Y-105384600D03*
X130949700Y-104884220D03*
X130949700Y-104383840D03*
X130949700Y-103886000D03*
X130949700Y-103388160D03*
X130949700Y-102887780D03*
X130949700Y-102387400D03*
D31*
X128651000Y-103886000D03*
D32*
X130751580Y-101785420D03*
D33*
X126611000Y-95080000D03*
D34*
X128331000Y-95080000D03*
X128331000Y-92880000D03*
X126431000Y-92880000D03*
D20*
X135509000Y-87491000D03*
X135509000Y-85991000D03*
X137160000Y-87491000D03*
X137160000Y-85991000D03*
D13*
X118098000Y-81153000D03*
X116598000Y-81153000D03*
D11*
X157480000Y-83820000D03*
D12*
X154940000Y-83820000D03*
X152400000Y-83820000D03*
X149860000Y-83820000D03*
X147320000Y-83820000D03*
X144780000Y-83820000D03*
X142240000Y-83820000D03*
X139700000Y-83820000D03*
X137160000Y-83820000D03*
X134620000Y-83820000D03*
D11*
X137160000Y-106680000D03*
D12*
X137160000Y-109220000D03*
X137160000Y-111760000D03*
X137160000Y-114300000D03*
D11*
X118110000Y-124968000D03*
D12*
X118110000Y-121468000D03*
D35*
X130302000Y-122428000D03*
X125095000Y-102362000D03*
X118364000Y-105410000D03*
X127889000Y-96520000D03*
X121666000Y-101409500D03*
X156908500Y-92583000D03*
X119951500Y-115506500D03*
X115824000Y-116840000D03*
X139446000Y-129984500D03*
X128651000Y-125285500D03*
X125984000Y-96520000D03*
X129794000Y-105029000D03*
X128651000Y-103886000D03*
X129794000Y-107188000D03*
X128143000Y-107315000D03*
X127635000Y-104902000D03*
X124206000Y-80772000D03*
X179324000Y-92075000D03*
X172085000Y-118491000D03*
X176403000Y-118110000D03*
X139700000Y-91059000D03*
X129413000Y-90170000D03*
X130048000Y-100584000D03*
X133604000Y-89154000D03*
X176047400Y-111404400D03*
X156845000Y-122682000D03*
X139674600Y-89128600D03*
X156972000Y-112903000D03*
X156972000Y-98171000D03*
X165481000Y-107442000D03*
X165481000Y-106172000D03*
X165481000Y-104648000D03*
X164084000Y-104648000D03*
X164084000Y-106045000D03*
X162814000Y-107442000D03*
X162814000Y-106172000D03*
X162814000Y-104648000D03*
X164084000Y-107442000D03*
X131953000Y-118745000D03*
X142684500Y-126428500D03*
X131953000Y-123253500D03*
X131572000Y-87122000D03*
X131572000Y-99695000D03*
X126111000Y-101219000D03*
X131699000Y-109982000D03*
X176047400Y-105029000D03*
X135128000Y-91059000D03*
X135128000Y-88392000D03*
X140271500Y-85915500D03*
X131826000Y-85979000D03*
X157734000Y-87312500D03*
X159004000Y-87757000D03*
X136652000Y-93726000D03*
X136398000Y-91186000D03*
X138176000Y-89916000D03*
X148590000Y-89916000D03*
X148590000Y-85852000D03*
X171450000Y-91503500D03*
X172148500Y-92773500D03*
X143827500Y-86868000D03*
X169037000Y-89154000D03*
X174244000Y-89154000D03*
X174942500Y-115252500D03*
X173482000Y-108585000D03*
X175082200Y-114223800D03*
X175082200Y-112090200D03*
X177393600Y-111988600D03*
X176149000Y-103073200D03*
X176123600Y-102235000D03*
X149161500Y-124142500D03*
X147320000Y-127000000D03*
X150876000Y-125984000D03*
X132461000Y-88900000D03*
X130683000Y-88900000D03*
X134112000Y-100584000D03*
X134366000Y-105410000D03*
X133731000Y-115443000D03*
X130302000Y-114935000D03*
X178206400Y-111963200D03*
X178206400Y-113411000D03*
X162483800Y-120459500D03*
X150876000Y-126809500D03*
X173355000Y-94996000D03*
X148717000Y-124968000D03*
X176784000Y-89154000D03*
X163957000Y-89154000D03*
X168275000Y-124714000D03*
X170688000Y-124714000D03*
X163576000Y-124714000D03*
X165735000Y-124714000D03*
X172974000Y-124714000D03*
X175387000Y-124714000D03*
X170815000Y-115824000D03*
X161163000Y-88265000D03*
X161417000Y-93345000D03*
X161417000Y-89154000D03*
X166497000Y-89154000D03*
X171704000Y-89154000D03*
X172148500Y-115824000D03*
X171323000Y-89916000D03*
X170307000Y-94742000D03*
X153733500Y-85217000D03*
X173609000Y-109982000D03*
X155752800Y-86309200D03*
X174371000Y-94996000D03*
X159004000Y-89154000D03*
X159004000Y-91313000D03*
X173355000Y-115824000D03*
X135509000Y-103632000D03*
X135128000Y-100584000D03*
X158750000Y-94742000D03*
X160274000Y-94742000D03*
X161925000Y-94742000D03*
X159131000Y-92964000D03*
X126492000Y-91567000D03*
X128397000Y-91567000D03*
X131699000Y-102108000D03*
X131699000Y-106299000D03*
X132588000Y-104394000D03*
X125984000Y-114554000D03*
X133350000Y-105410000D03*
X132969000Y-100584000D03*
D36*
X126492000Y-122440000D02*
X130290000Y-122440000D01*
X130290000Y-122440000D02*
X130302000Y-122428000D01*
X124206000Y-122140000D02*
X126192000Y-122140000D01*
X126192000Y-122140000D02*
X126492000Y-122440000D01*
X124206000Y-122140000D02*
X122140000Y-122140000D01*
X122140000Y-122140000D02*
X121920000Y-121920000D01*
X118110000Y-121468000D02*
X121468000Y-121468000D01*
X121468000Y-121468000D02*
X121920000Y-121920000D01*
D37*
X125120400Y-102387400D02*
X126352300Y-102387400D01*
X125095000Y-102362000D02*
X125120400Y-102387400D01*
D36*
X120408000Y-105410000D02*
X118364000Y-105410000D01*
X127889000Y-96520000D02*
X128331000Y-96332000D01*
X128331000Y-96332000D02*
X128331000Y-95080000D01*
X120408000Y-105410000D02*
X120408000Y-108076000D01*
X120408000Y-108076000D02*
X120382000Y-108102000D01*
X120408000Y-103378000D02*
X120408000Y-105410000D01*
X120408000Y-103378000D02*
X120408000Y-102667500D01*
X120408000Y-102667500D02*
X121666000Y-101409500D01*
D38*
X120396000Y-103366000D02*
X120408000Y-103378000D01*
D36*
X121666000Y-101409500D02*
X121678000Y-101421500D01*
D38*
X120382000Y-108102000D02*
X118212000Y-108102000D01*
X118212000Y-108102000D02*
X117602000Y-108712000D01*
X117602000Y-108712000D02*
X117602000Y-110456000D01*
D37*
X120408000Y-108076000D02*
X120382000Y-108102000D01*
X156893260Y-96410780D02*
X156893260Y-92598240D01*
X156893260Y-92598240D02*
X156908500Y-92583000D01*
D36*
X119951500Y-115506500D02*
X119042000Y-116416000D01*
X119042000Y-116416000D02*
X119042000Y-116840000D01*
X119042000Y-116840000D02*
X115824000Y-116840000D01*
D39*
X128651000Y-125285500D02*
X127837500Y-125285500D01*
X127837500Y-125285500D02*
X126492000Y-123940000D01*
X124206000Y-124240000D02*
X126192000Y-124240000D01*
X126192000Y-124240000D02*
X126492000Y-123940000D01*
X124206000Y-124240000D02*
X122140000Y-124240000D01*
D36*
X122140000Y-124240000D02*
X121920000Y-124460000D01*
X115824000Y-102870000D02*
X115824000Y-116268500D01*
X115824000Y-116268500D02*
X115824000Y-122682000D01*
X118490000Y-100204000D02*
X115824000Y-102870000D01*
X115824000Y-122682000D02*
X118110000Y-124968000D01*
X131554000Y-126238000D02*
X129603500Y-126238000D01*
X129603500Y-126238000D02*
X128651000Y-125285500D01*
X126611000Y-95080000D02*
X126611000Y-95893000D01*
X126611000Y-95893000D02*
X125984000Y-96520000D01*
D37*
X129794000Y-105029000D02*
X128651000Y-103886000D01*
X129032000Y-107950000D02*
X129032000Y-108470000D01*
X129794000Y-107188000D02*
X129032000Y-107950000D01*
X127254000Y-108470000D02*
X127254000Y-108204000D01*
X127254000Y-108204000D02*
X128143000Y-107315000D01*
X127635000Y-104902000D02*
X128651000Y-103886000D01*
X124206000Y-80772000D02*
X123063000Y-79629000D01*
X123063000Y-79629000D02*
X118122000Y-79629000D01*
X118122000Y-79629000D02*
X116598000Y-81153000D01*
X176403000Y-118110000D02*
X172466000Y-118110000D01*
X172466000Y-118110000D02*
X172085000Y-118491000D01*
D38*
X139674600Y-89128600D02*
X139674600Y-91033600D01*
X139674600Y-91033600D02*
X139700000Y-91059000D01*
D37*
X130751580Y-101785420D02*
X130751580Y-100779580D01*
X130751580Y-100779580D02*
X130556000Y-100584000D01*
X130556000Y-100584000D02*
X130048000Y-100584000D01*
X129540000Y-100584000D02*
X130048000Y-100584000D01*
X129148840Y-100975160D02*
X129540000Y-100584000D01*
X129148840Y-101587300D02*
X129148840Y-100975160D01*
D39*
X126492000Y-97802000D02*
X121793000Y-97790000D01*
X121793000Y-97790000D02*
X121190000Y-97280000D01*
X121190000Y-97280000D02*
X121190000Y-95250000D01*
X127889000Y-97802000D02*
X126492000Y-97802000D01*
D37*
X116598000Y-81153000D02*
X116586000Y-81153000D01*
X116586000Y-81153000D02*
X116187000Y-81552000D01*
X116187000Y-81552000D02*
X116187000Y-83820000D01*
D39*
X116217000Y-83790000D02*
X116187000Y-83820000D01*
D38*
X133604000Y-89154000D02*
X133604000Y-88045000D01*
X139674600Y-89128600D02*
X139674600Y-88781600D01*
X139674600Y-88781600D02*
X138938000Y-88045000D01*
D37*
X121190000Y-95250000D02*
X121190000Y-94964000D01*
X129148840Y-101587300D02*
X129148840Y-103388160D01*
X129148840Y-103388160D02*
X128651000Y-103886000D01*
X174891700Y-111125000D02*
X175996600Y-111353600D01*
X175996600Y-111353600D02*
X176047400Y-111404400D01*
D39*
X156845000Y-122682000D02*
X156845000Y-117233000D01*
X156845000Y-117233000D02*
X156857000Y-117221000D01*
D37*
X174891700Y-111125000D02*
X164465000Y-111125000D01*
X164092000Y-110752000D02*
X164092000Y-106045000D01*
X164465000Y-111125000D02*
X164092000Y-110752000D01*
D39*
X124982000Y-108102000D02*
X126886000Y-108102000D01*
X126886000Y-108102000D02*
X127254000Y-108470000D01*
X129032000Y-108470000D02*
X127254000Y-108470000D01*
X130683000Y-108470000D02*
X129032000Y-108470000D01*
D38*
X142210500Y-83849500D02*
X142240000Y-83820000D01*
D39*
X156893260Y-114409220D02*
X156893260Y-112981740D01*
X156893260Y-112981740D02*
X156972000Y-112903000D01*
D37*
X156893260Y-112981740D02*
X156972000Y-112903000D01*
D39*
X156857000Y-115951000D02*
X156857000Y-114445480D01*
X156857000Y-114445480D02*
X156893260Y-114409220D01*
X156857000Y-117221000D02*
X156857000Y-115951000D01*
D38*
X121190000Y-95250000D02*
X121190000Y-94964000D01*
D39*
X118490000Y-99980000D02*
X122395500Y-99980000D01*
X123126500Y-102159500D02*
X121908000Y-103378000D01*
X123126500Y-100711000D02*
X123126500Y-102159500D01*
X122395500Y-99980000D02*
X123126500Y-100711000D01*
D37*
X156893260Y-96410780D02*
X156893260Y-98092260D01*
X156893260Y-98092260D02*
X156972000Y-98171000D01*
X165481000Y-107442000D02*
X164203000Y-106045000D01*
X164203000Y-106045000D02*
X164084000Y-106045000D01*
X165481000Y-106172000D02*
X165354000Y-106045000D01*
X165354000Y-106045000D02*
X164084000Y-106045000D01*
X165481000Y-104648000D02*
X164203000Y-106045000D01*
X164203000Y-106045000D02*
X164084000Y-106045000D01*
X164084000Y-104648000D02*
X164092000Y-104656000D01*
X164092000Y-104656000D02*
X164084000Y-106045000D01*
X162814000Y-107442000D02*
X164084000Y-106164000D01*
X164084000Y-106164000D02*
X164084000Y-106045000D01*
X162814000Y-106172000D02*
X162941000Y-106045000D01*
X162941000Y-106045000D02*
X164084000Y-106045000D01*
X162814000Y-104648000D02*
X164084000Y-105926000D01*
X164084000Y-105926000D02*
X164084000Y-106045000D01*
X164084000Y-107442000D02*
X164092000Y-107434000D01*
X164092000Y-107434000D02*
X164084000Y-106045000D01*
X165227000Y-104648000D02*
X164084000Y-105910000D01*
D38*
X124172000Y-124206000D02*
X124206000Y-124240000D01*
D37*
X118490000Y-99980000D02*
X118490000Y-100204000D01*
X127279400Y-108304200D02*
X127279400Y-108280200D01*
X121908000Y-105410000D02*
X124206000Y-105410000D01*
X124206000Y-105410000D02*
X124982000Y-106186000D01*
X124982000Y-106186000D02*
X124982000Y-108102000D01*
X121908000Y-103378000D02*
X121908000Y-105410000D01*
D38*
X121190000Y-95250000D02*
X121190000Y-97280000D01*
D36*
X121190000Y-97280000D02*
X118490000Y-99980000D01*
X116187000Y-83820000D02*
X116255800Y-86156800D01*
X116255800Y-86156800D02*
X118490000Y-87980000D01*
X118490000Y-87980000D02*
X118490000Y-99980000D01*
D38*
X140970000Y-81280000D02*
X141583253Y-82629158D01*
X141583253Y-82629158D02*
X142240000Y-83820000D01*
D37*
X164084000Y-104648000D02*
X164592000Y-104140000D01*
X164076000Y-105918000D02*
X163822000Y-105918000D01*
X174853600Y-111163100D02*
X174891700Y-111125000D01*
X174891700Y-111125000D02*
X174891700Y-111239300D01*
D38*
X157480000Y-129540000D02*
X154940000Y-129540000D01*
D36*
X131953000Y-118745000D02*
X131953000Y-118872000D01*
D38*
X131826000Y-118872000D02*
X131953000Y-118872000D01*
X131953000Y-118872000D02*
X131826000Y-118872000D01*
X131826000Y-118872000D02*
X131953000Y-118872000D01*
D36*
X131953000Y-117463000D02*
X131953000Y-118872000D01*
X131953000Y-118872000D02*
X131953000Y-123253500D01*
X149860000Y-127000000D02*
X149860000Y-129540000D01*
X148272500Y-125984000D02*
X149860000Y-127000000D01*
X143764000Y-125984000D02*
X148272500Y-125984000D01*
X142684500Y-126428500D02*
X143764000Y-125984000D01*
X158357000Y-122846400D02*
X158352098Y-122846400D01*
X158352098Y-122846400D02*
X157373498Y-123825000D01*
X157373498Y-123825000D02*
X151066500Y-123825000D01*
X151066500Y-123825000D02*
X149860000Y-125031500D01*
X149860000Y-125031500D02*
X149860000Y-129540000D01*
X158357000Y-117221000D02*
X158357000Y-122846400D01*
X121920000Y-109982000D02*
X121348500Y-109982000D01*
X121348500Y-109982000D02*
X120967500Y-110363000D01*
X120967500Y-110363000D02*
X120967500Y-113220500D01*
X120967500Y-113220500D02*
X122149000Y-114402000D01*
X122149000Y-114402000D02*
X122682000Y-114402000D01*
X122682000Y-108102000D02*
X122682000Y-109220000D01*
X122682000Y-109220000D02*
X121920000Y-109982000D01*
X121920000Y-109982000D02*
X121856500Y-110045500D01*
X121856500Y-110045500D02*
X121856500Y-113576500D01*
X121856500Y-113576500D02*
X122682000Y-114402000D01*
X124702000Y-109970000D02*
X124702000Y-109994000D01*
X124702000Y-109994000D02*
X124206000Y-110490000D01*
X124206000Y-110490000D02*
X124206000Y-112878000D01*
X124206000Y-112878000D02*
X122682000Y-114402000D01*
X123622500Y-109970000D02*
X123622500Y-113461500D01*
X123622500Y-113461500D02*
X122682000Y-114402000D01*
X124702000Y-109970000D02*
X124702000Y-113423000D01*
X124702000Y-113423000D02*
X124650500Y-113474500D01*
D38*
X122682000Y-108102000D02*
X122682000Y-109029500D01*
X122682000Y-109029500D02*
X123622500Y-109970000D01*
X123622500Y-109970000D02*
X124702000Y-109970000D01*
X124702000Y-109970000D02*
X124968000Y-110236000D01*
X124968000Y-110236000D02*
X124968000Y-113538000D01*
X124968000Y-113538000D02*
X124294500Y-114402000D01*
X124294500Y-114402000D02*
X122682000Y-114402000D01*
X122682000Y-108102000D02*
X122682000Y-108648500D01*
X122682000Y-108648500D02*
X121602500Y-109728000D01*
X121602500Y-109728000D02*
X120840500Y-109728000D01*
X120840500Y-109728000D02*
X120459500Y-110109000D01*
X120459500Y-110109000D02*
X120459500Y-113538000D01*
X120459500Y-113538000D02*
X121323500Y-114402000D01*
X121323500Y-114402000D02*
X122682000Y-114402000D01*
D36*
X122682000Y-108102000D02*
X122682000Y-109029500D01*
X122682000Y-109029500D02*
X123622500Y-109970000D01*
X123622500Y-109970000D02*
X127254000Y-109970000D01*
D38*
X117602000Y-112556000D02*
X117602000Y-113792000D01*
X117602000Y-113792000D02*
X118212000Y-114402000D01*
X118212000Y-114402000D02*
X122682000Y-114402000D01*
D36*
X122682000Y-108102000D02*
X122682000Y-108839000D01*
X122682000Y-108102000D02*
X122682000Y-109728000D01*
X122682000Y-108102000D02*
X122682000Y-109728000D01*
X122682000Y-108102000D02*
X122682000Y-108966000D01*
X122682000Y-108102000D02*
X122682000Y-108966000D01*
X122682000Y-108102000D02*
X122682000Y-108966000D01*
D37*
X135509000Y-87491000D02*
X134608000Y-87491000D01*
X134608000Y-87491000D02*
X134239000Y-87122000D01*
X134239000Y-87122000D02*
X131572000Y-87122000D01*
D39*
X131572000Y-99695000D02*
X131572000Y-87122000D01*
D37*
X127652780Y-101587300D02*
X127652780Y-99538220D01*
X127652780Y-99538220D02*
X127889000Y-99302000D01*
X127152400Y-101587300D02*
X127652780Y-101587300D01*
D39*
X126492000Y-99302000D02*
X127889000Y-99302000D01*
X126111000Y-101219000D02*
X126111000Y-99949000D01*
X126111000Y-99949000D02*
X126492000Y-99441000D01*
X126492000Y-99441000D02*
X126492000Y-99302000D01*
X131699000Y-109982000D02*
X130695000Y-109982000D01*
D38*
X130695000Y-109982000D02*
X130683000Y-109970000D01*
D37*
X137160000Y-87491000D02*
X135509000Y-87491000D01*
D36*
X124194000Y-116840000D02*
X124194000Y-117082000D01*
X124194000Y-117082000D02*
X124575000Y-117463000D01*
X124575000Y-117463000D02*
X130302000Y-117463000D01*
X124194000Y-116840000D02*
X124194000Y-115914000D01*
X124194000Y-115914000D02*
X122682000Y-114402000D01*
D39*
X127254000Y-109970000D02*
X129032000Y-109970000D01*
X129032000Y-109970000D02*
X130683000Y-109970000D01*
D37*
X158163260Y-114409220D02*
X158163260Y-113286540D01*
X179044600Y-102895400D02*
X180340000Y-101600000D01*
X179044600Y-112064800D02*
X179044600Y-102895400D01*
X178384200Y-112725200D02*
X179044600Y-112064800D01*
X158724600Y-112725200D02*
X178384200Y-112725200D01*
X158163260Y-113286540D02*
X158724600Y-112725200D01*
D39*
X158163260Y-114409220D02*
X158163260Y-115757260D01*
X158163260Y-115757260D02*
X158357000Y-115951000D01*
X158357000Y-117221000D02*
X158357000Y-115951000D01*
D36*
X131953000Y-117463000D02*
X130302000Y-117463000D01*
X122682000Y-114046000D02*
X122682000Y-114402000D01*
X122682000Y-108102000D02*
X122682000Y-108331000D01*
X122682000Y-108102000D02*
X122682000Y-108458000D01*
X122682000Y-108102000D02*
X122682000Y-114402000D01*
D38*
X138430000Y-81280000D02*
X139065000Y-82423000D01*
X139065000Y-82423000D02*
X139700000Y-83820000D01*
D37*
X174891700Y-104775000D02*
X175793400Y-104775000D01*
X175793400Y-104775000D02*
X176047400Y-105029000D01*
X135128000Y-91059000D02*
X135128000Y-88392000D01*
X140271500Y-85915500D02*
X140242000Y-85945000D01*
X138938000Y-85945000D02*
X140242000Y-85945000D01*
X131826000Y-85979000D02*
X131814000Y-85991000D01*
X131814000Y-85991000D02*
X129540000Y-85991000D01*
X137160000Y-85991000D02*
X137160000Y-83820000D01*
X138938000Y-85945000D02*
X137206000Y-85945000D01*
X137206000Y-85945000D02*
X137160000Y-85991000D01*
X138938000Y-85979000D02*
X138938000Y-85970400D01*
X138938000Y-85979000D02*
X138938000Y-86995000D01*
X160274000Y-93726000D02*
X160274000Y-88138000D01*
X159433260Y-94566740D02*
X160274000Y-93726000D01*
X159004000Y-87757000D02*
X159893000Y-87757000D01*
X157353000Y-87503000D02*
X157734000Y-87312500D01*
X139446000Y-87503000D02*
X157353000Y-87503000D01*
X159893000Y-87757000D02*
X160274000Y-88138000D01*
X159433260Y-94566740D02*
X159433260Y-96410780D01*
X138938000Y-86995000D02*
X139446000Y-87503000D01*
D38*
X135890000Y-81280000D02*
X136398000Y-82550000D01*
X136398000Y-82550000D02*
X137160000Y-83820000D01*
D37*
X136652000Y-93726000D02*
X136652000Y-104648000D01*
X138176000Y-89916000D02*
X137731500Y-89916000D01*
X137731500Y-89916000D02*
X136398000Y-91186000D01*
X136271000Y-109220000D02*
X137160000Y-109220000D01*
X135636000Y-108585000D02*
X136271000Y-109220000D01*
X135636000Y-105664000D02*
X135636000Y-108585000D01*
X136652000Y-104648000D02*
X135636000Y-105664000D01*
X135509000Y-85991000D02*
X135509000Y-86487000D01*
X135509000Y-86487000D02*
X135763000Y-86741000D01*
X135763000Y-86741000D02*
X137668000Y-86741000D01*
X137668000Y-86741000D02*
X138176000Y-87249000D01*
X138176000Y-87249000D02*
X138176000Y-89916000D01*
X135509000Y-85991000D02*
X135509000Y-84709000D01*
X135509000Y-84709000D02*
X134620000Y-83820000D01*
X133604000Y-85945000D02*
X135463000Y-85945000D01*
X135463000Y-85945000D02*
X135509000Y-85991000D01*
X158115000Y-96362520D02*
X158115000Y-92456000D01*
X157734000Y-92075000D02*
X158115000Y-92456000D01*
X157734000Y-89789000D02*
X157734000Y-92075000D01*
X157480000Y-89535000D02*
X157734000Y-89789000D01*
X149421002Y-89535000D02*
X157480000Y-89535000D01*
X149040002Y-89916000D02*
X149421002Y-89535000D01*
X148590000Y-89916000D02*
X149040002Y-89916000D01*
X158115000Y-96362520D02*
X158163260Y-96410780D01*
D38*
X133350000Y-81280000D02*
X133985000Y-82550000D01*
X133985000Y-82550000D02*
X134620000Y-83820000D01*
D37*
X155378998Y-85667002D02*
X155378998Y-85730502D01*
X178111998Y-85979000D02*
X178111998Y-89858002D01*
X178111998Y-89858002D02*
X176784000Y-91186000D01*
X155378998Y-85667002D02*
X177800000Y-85667002D01*
X176784000Y-97917000D02*
X176784000Y-91186000D01*
X175895000Y-99695000D02*
X176784000Y-97917000D01*
X174891700Y-99695000D02*
X175895000Y-99695000D01*
X177800000Y-85667002D02*
X178111998Y-85979000D01*
X155257500Y-85852000D02*
X148590000Y-85852000D01*
X155378998Y-85730502D02*
X155257500Y-85852000D01*
X172180250Y-86582250D02*
X172466000Y-86868000D01*
X143827500Y-86868000D02*
X144589500Y-86931500D01*
X157276800Y-86588564D02*
X157276800Y-86588600D01*
X172130720Y-92791280D02*
X172130720Y-96410780D01*
X172148500Y-92773500D02*
X172130720Y-92791280D01*
X156921200Y-86944200D02*
X144589500Y-86931500D01*
X157276800Y-86588600D02*
X156921200Y-86944200D01*
X157276800Y-86588564D02*
X172180250Y-86582250D01*
X172466000Y-90487500D02*
X171450000Y-91503500D01*
X172466000Y-86868000D02*
X172466000Y-90487500D01*
X143827500Y-86918800D02*
X143827500Y-86868000D01*
X168320720Y-89870280D02*
X168320720Y-96410780D01*
X169037000Y-89154000D02*
X168320720Y-89870280D01*
X174244000Y-89154000D02*
X174244000Y-90741500D01*
X174244000Y-90741500D02*
X174244000Y-91694000D01*
X171450000Y-92456000D02*
X171450000Y-94615000D01*
X171704000Y-92138500D02*
X171450000Y-92456000D01*
X173799500Y-92138500D02*
X171704000Y-92138500D01*
X174244000Y-91694000D02*
X173799500Y-92138500D01*
X170860720Y-95204280D02*
X170860720Y-96410780D01*
X171450000Y-94615000D02*
X170860720Y-95204280D01*
X170942000Y-96492060D02*
X170860720Y-96410780D01*
X177800000Y-115252500D02*
X178054000Y-115506500D01*
X174942500Y-115252500D02*
X177800000Y-115252500D01*
X174891700Y-108585000D02*
X173482000Y-108585000D01*
X178498500Y-119380000D02*
X180340000Y-119380000D01*
X178054000Y-118935500D02*
X178498500Y-119380000D01*
X178054000Y-115506500D02*
X178054000Y-118935500D01*
X174891700Y-107315000D02*
X175945800Y-107315000D01*
X179273200Y-116840000D02*
X180340000Y-116840000D01*
X178739800Y-116306600D02*
X179273200Y-116840000D01*
X178739800Y-114706400D02*
X178739800Y-116306600D01*
X178358800Y-114325400D02*
X178739800Y-114706400D01*
X175183800Y-114325400D02*
X178358800Y-114325400D01*
X175082200Y-114223800D02*
X175183800Y-114325400D01*
X176301400Y-112090200D02*
X175082200Y-112090200D01*
X176943598Y-111448002D02*
X176301400Y-112090200D01*
X176943598Y-108795398D02*
X176943598Y-111448002D01*
X176123600Y-107975400D02*
X176943598Y-108795398D01*
X176123600Y-107492800D02*
X176123600Y-107975400D01*
X175945800Y-107315000D02*
X176123600Y-107492800D01*
X174891700Y-106045000D02*
X175666400Y-106045000D01*
X177393600Y-108254800D02*
X177393600Y-111988600D01*
X176580800Y-107518200D02*
X177393600Y-108254800D01*
X176580800Y-106553000D02*
X176580800Y-107518200D01*
X175666400Y-106045000D02*
X176580800Y-106553000D01*
X174891700Y-106045000D02*
X175539400Y-106045000D01*
X176098200Y-103022400D02*
X174891700Y-103505000D01*
X176149000Y-103073200D02*
X176098200Y-103022400D01*
X174891700Y-102235000D02*
X176123600Y-102235000D01*
X149161500Y-124142500D02*
X134683500Y-124142500D01*
X133731000Y-123190000D02*
X133731000Y-115443000D01*
X134683500Y-124142500D02*
X133731000Y-123190000D01*
X147320000Y-127000000D02*
X147320000Y-129540000D01*
X159433260Y-114409220D02*
X159433260Y-124233940D01*
X159004000Y-124714000D02*
X159433260Y-124233940D01*
X154559000Y-124714000D02*
X159004000Y-124714000D01*
X153098500Y-125984000D02*
X154559000Y-124714000D01*
X150876000Y-125984000D02*
X153098500Y-125984000D01*
X134112000Y-100584000D02*
X134112000Y-100330000D01*
X134112000Y-100330000D02*
X133731000Y-99949000D01*
X133731000Y-99949000D02*
X133731000Y-90932000D01*
X133731000Y-90932000D02*
X132461000Y-89662000D01*
X132461000Y-89662000D02*
X132461000Y-88900000D01*
X134112000Y-100584000D02*
X134112000Y-100457000D01*
X130683000Y-88900000D02*
X130556000Y-88773000D01*
X130556000Y-88773000D02*
X130556000Y-87122000D01*
X130556000Y-87122000D02*
X130175000Y-86741000D01*
X130175000Y-86741000D02*
X125984000Y-86741000D01*
X125984000Y-86741000D02*
X125367000Y-86124000D01*
X125367000Y-86124000D02*
X125367000Y-83820000D01*
X133731000Y-115443000D02*
X133731000Y-106045000D01*
X133731000Y-106045000D02*
X134366000Y-105410000D01*
X118098000Y-81153000D02*
X118110000Y-83312000D01*
X118110000Y-83312000D02*
X118618000Y-83820000D01*
X118618000Y-83820000D02*
X125367000Y-83820000D01*
X130302000Y-114935000D02*
X130159000Y-114935000D01*
X130318000Y-114919000D02*
X130302000Y-114935000D01*
X177800000Y-106680000D02*
X177800000Y-107416600D01*
X177800000Y-107416600D02*
X178206400Y-108077000D01*
X178206400Y-108077000D02*
X178206400Y-111963200D01*
X178206400Y-113411000D02*
X177241200Y-113258600D01*
X177241200Y-113258600D02*
X159791400Y-113258600D01*
X159791400Y-113258600D02*
X159433260Y-113616740D01*
X159433260Y-113616740D02*
X159433260Y-114409220D01*
X130302000Y-114935000D02*
X130302000Y-115963000D01*
X125367000Y-83820000D02*
X125519400Y-83990400D01*
X125519400Y-83990400D02*
X125933200Y-84404200D01*
X130159000Y-114935000D02*
X129270000Y-113665000D01*
X129286000Y-113649000D02*
X129270000Y-113665000D01*
X132953800Y-111979200D02*
X132953800Y-112537200D01*
X128244600Y-115429600D02*
X128766000Y-115951000D01*
X128244600Y-112979200D02*
X128244600Y-115429600D01*
X128651000Y-112572800D02*
X128244600Y-112979200D01*
X129819400Y-112572800D02*
X128651000Y-112572800D01*
X130200400Y-112953800D02*
X129819400Y-112572800D01*
X132537200Y-112953800D02*
X130200400Y-112953800D01*
X132953800Y-112537200D02*
X132537200Y-112953800D01*
X128839000Y-116024000D02*
X128766000Y-115951000D01*
X140734000Y-126238000D02*
X135509000Y-126238000D01*
X132727000Y-115963000D02*
X131953000Y-115963000D01*
X133096000Y-116332000D02*
X132727000Y-115963000D01*
X133096000Y-123825000D02*
X133096000Y-116332000D01*
X135509000Y-126238000D02*
X133096000Y-123825000D01*
X148717000Y-124968000D02*
X142811500Y-124968000D01*
X150876000Y-126809500D02*
X150876000Y-127825500D01*
X150876000Y-127825500D02*
X151511035Y-128305377D01*
X151511035Y-128305377D02*
X161480515Y-128300281D01*
X162483800Y-127304800D02*
X162483800Y-120459500D01*
X161480515Y-128300281D02*
X162483800Y-127304800D01*
X142811500Y-124968000D02*
X140734000Y-126238000D01*
X132003800Y-113979200D02*
X132003800Y-115912200D01*
X132003800Y-115912200D02*
X131953000Y-115963000D01*
X173355000Y-94996000D02*
X173418500Y-94996000D01*
X175704500Y-90233500D02*
X176784000Y-89154000D01*
X175704500Y-94170500D02*
X175704500Y-90233500D01*
X175514000Y-94361000D02*
X175704500Y-94170500D01*
X174053500Y-94361000D02*
X175514000Y-94361000D01*
X173418500Y-94996000D02*
X174053500Y-94361000D01*
X173400720Y-95041720D02*
X173355000Y-94996000D01*
X173400720Y-95041720D02*
X173400720Y-96410780D01*
X131969000Y-115947000D02*
X131953000Y-115963000D01*
X127266000Y-111252000D02*
X127266000Y-112711000D01*
X127266000Y-112711000D02*
X127270000Y-112715000D01*
X134481000Y-99187000D02*
X134481000Y-92849000D01*
X134481000Y-92849000D02*
X135382000Y-91948000D01*
X135382000Y-91948000D02*
X139827000Y-91948000D01*
X139827000Y-91948000D02*
X140335000Y-91440000D01*
X140335000Y-91440000D02*
X140335000Y-88392000D01*
X140335000Y-88392000D02*
X140716000Y-88011000D01*
X140716000Y-88011000D02*
X142875000Y-88011000D01*
X163957000Y-89154000D02*
X163957000Y-87416295D01*
X158115000Y-88011000D02*
X142875000Y-88011000D01*
X158369000Y-87884000D02*
X158115000Y-88011000D01*
X158369000Y-87312500D02*
X158369000Y-87884000D01*
X158750000Y-87058500D02*
X158369000Y-87312500D01*
X163599205Y-87058500D02*
X158750000Y-87058500D01*
X163957000Y-87416295D02*
X163599205Y-87058500D01*
X163957000Y-89154000D02*
X163957000Y-91948000D01*
X165780720Y-93644720D02*
X165780720Y-96410780D01*
X163957000Y-91948000D02*
X165780720Y-93644720D01*
X165780720Y-114409220D02*
X165780720Y-123489720D01*
X167513000Y-124079000D02*
X168275000Y-124714000D01*
X166370000Y-124079000D02*
X167513000Y-124079000D01*
X165780720Y-123489720D02*
X166370000Y-124079000D01*
X167050720Y-123235720D02*
X167386000Y-123571000D01*
X167386000Y-123571000D02*
X168910000Y-123571000D01*
X168910000Y-123571000D02*
X169545000Y-124206000D01*
X169545000Y-124206000D02*
X170180000Y-124206000D01*
X170180000Y-124206000D02*
X170688000Y-124714000D01*
X167050720Y-123235720D02*
X167050720Y-114409220D01*
X163576000Y-124714000D02*
X163449000Y-124714000D01*
X163243260Y-124127260D02*
X163243260Y-114409220D01*
X163449000Y-124714000D02*
X163243260Y-124127260D01*
X165735000Y-124714000D02*
X164973000Y-124714000D01*
X164465000Y-124079000D02*
X164513260Y-114409220D01*
X164973000Y-124714000D02*
X164465000Y-124079000D01*
X168320720Y-114409220D02*
X168320720Y-122727720D01*
X172593000Y-124206000D02*
X172974000Y-124714000D01*
X172085000Y-124206000D02*
X172593000Y-124206000D01*
X171577000Y-123698000D02*
X172085000Y-124206000D01*
X169741002Y-123698000D02*
X171577000Y-123698000D01*
X169106002Y-123063000D02*
X169741002Y-123698000D01*
X168656000Y-123063000D02*
X169106002Y-123063000D01*
X168320720Y-122727720D02*
X168656000Y-123063000D01*
X169590720Y-114409220D02*
X169590720Y-122727720D01*
X174625000Y-123698000D02*
X175387000Y-124714000D01*
X172281002Y-123698000D02*
X174625000Y-123698000D01*
X171773002Y-123190000D02*
X172281002Y-123698000D01*
X170053000Y-123190000D02*
X171773002Y-123190000D01*
X169590720Y-122727720D02*
X170053000Y-123190000D01*
X160729951Y-88720951D02*
X161163000Y-88287902D01*
X161163000Y-88287902D02*
X161163000Y-88265000D01*
X170860720Y-115778280D02*
X170815000Y-115824000D01*
X170860720Y-115778280D02*
X170860720Y-114409220D01*
X161417000Y-90170000D02*
X161417000Y-93345000D01*
X160729951Y-89597459D02*
X161417000Y-90170000D01*
X160729951Y-89597459D02*
X160729951Y-88720951D01*
X162176145Y-91569329D02*
X163263348Y-92902182D01*
X163263348Y-92902182D02*
X163243260Y-96410780D01*
X162170236Y-89907236D02*
X162176145Y-91569329D01*
X161417000Y-89154000D02*
X162170236Y-89907236D01*
X167050720Y-92628720D02*
X167050720Y-96410780D01*
X166497000Y-92075000D02*
X167050720Y-92628720D01*
X166497000Y-89154000D02*
X166497000Y-92075000D01*
X171704000Y-89154000D02*
X170014900Y-89154000D01*
X169590720Y-89578180D02*
X169590720Y-96410780D01*
X170014900Y-89154000D02*
X169590720Y-89578180D01*
X169773600Y-96227900D02*
X169590720Y-96410780D01*
X171323000Y-89916000D02*
X170688000Y-89916000D01*
X172130720Y-115806220D02*
X172148500Y-115824000D01*
X172130720Y-115806220D02*
X172130720Y-114409220D01*
X170307000Y-90297000D02*
X170307000Y-94742000D01*
X170688000Y-89916000D02*
X170307000Y-90297000D01*
X176022000Y-100965000D02*
X177292000Y-98298000D01*
X177292000Y-98298000D02*
X177292000Y-91567000D01*
X177292000Y-91567000D02*
X178562000Y-90043000D01*
X178562000Y-90043000D02*
X178562000Y-85598000D01*
X178562000Y-85598000D02*
X178181000Y-85217000D01*
X178181000Y-85217000D02*
X153733500Y-85217000D01*
X176022000Y-100965000D02*
X174891700Y-100965000D01*
X174891700Y-109855000D02*
X173532800Y-109905800D01*
X173532800Y-109905800D02*
X173609000Y-109982000D01*
X174371000Y-94996000D02*
X175958500Y-94996000D01*
X155752800Y-86309200D02*
X155930600Y-86131400D01*
X176244009Y-91086849D02*
X177661996Y-89482504D01*
X177661996Y-89482504D02*
X177661996Y-86423500D01*
X177661996Y-86423500D02*
X177342800Y-86131400D01*
X156845000Y-86131400D02*
X177342800Y-86131400D01*
X156845000Y-86131400D02*
X155930600Y-86131400D01*
X176244009Y-94710491D02*
X176244009Y-91086849D01*
X175958500Y-94996000D02*
X176244009Y-94710491D01*
X159004000Y-89154000D02*
X159004000Y-91313000D01*
X173355000Y-115824000D02*
X173355000Y-114454940D01*
X173355000Y-114454940D02*
X173400720Y-114409220D01*
X173400720Y-115778280D02*
X173355000Y-115824000D01*
X160703260Y-114409220D02*
X160703260Y-124640414D01*
X160629526Y-124714148D02*
X160121600Y-125145800D01*
X160121600Y-125145800D02*
X155257500Y-125145800D01*
X155257500Y-125145800D02*
X154948289Y-125485840D01*
X154948289Y-125485840D02*
X154940000Y-127000000D01*
X160703260Y-124640414D02*
X160629526Y-124714148D01*
X161973260Y-114409220D02*
X161973260Y-115597940D01*
X160799846Y-125712154D02*
X161528493Y-125058119D01*
X157480000Y-125958600D02*
X157480000Y-127000000D01*
X157860610Y-125712154D02*
X157480000Y-125958600D01*
X157860610Y-125712154D02*
X160799846Y-125712154D01*
X161528493Y-116042707D02*
X161528493Y-125058119D01*
X161973260Y-115597940D02*
X161528493Y-116042707D01*
D38*
X157480000Y-83820000D02*
X156895800Y-82651600D01*
X156895800Y-82651600D02*
X156210000Y-81280000D01*
D37*
X154940000Y-83820000D02*
X154940000Y-84582000D01*
X153670000Y-81280000D02*
X153670000Y-81534000D01*
D38*
X153670000Y-81534000D02*
X154398382Y-82747971D01*
X154398382Y-82747971D02*
X154940000Y-83820000D01*
X151130000Y-81280000D02*
X151765000Y-82550000D01*
X151765000Y-82550000D02*
X152400000Y-83820000D01*
D37*
X149860000Y-83820000D02*
X149860000Y-84074000D01*
D38*
X148590000Y-81280000D02*
X149174200Y-82448400D01*
X149174200Y-82448400D02*
X149860000Y-83820000D01*
D37*
X147320000Y-83820000D02*
X147320000Y-84074000D01*
D38*
X146050000Y-81280000D02*
X146659600Y-82499200D01*
X146659600Y-82499200D02*
X147320000Y-83820000D01*
X143510000Y-81280000D02*
X144119600Y-82499200D01*
X144119600Y-82499200D02*
X144780000Y-83820000D01*
D37*
X130949700Y-103886000D02*
X132080000Y-103886000D01*
X132080000Y-103886000D02*
X132334000Y-103632000D01*
X132334000Y-103632000D02*
X133235000Y-103632000D01*
X133235000Y-103632000D02*
X133223000Y-103632000D01*
X141351000Y-88519000D02*
X140843000Y-89027000D01*
X140843000Y-89027000D02*
X140843000Y-91821000D01*
X140843000Y-91821000D02*
X140716000Y-91948000D01*
X135128000Y-100584000D02*
X135128000Y-92964000D01*
X135128000Y-92964000D02*
X135636000Y-92456000D01*
X135636000Y-92456000D02*
X140208000Y-92456000D01*
X140208000Y-92456000D02*
X140716000Y-91948000D01*
X140716000Y-91948000D02*
X140843000Y-91821000D01*
X135509000Y-103632000D02*
X134735000Y-103632000D01*
X159766000Y-88900000D02*
X159385000Y-88519000D01*
X159385000Y-88519000D02*
X141351000Y-88519000D01*
X159766000Y-93472000D02*
X159766000Y-88900000D01*
X158750000Y-94234000D02*
X159766000Y-93472000D01*
X160703260Y-96410780D02*
X160703260Y-95171260D01*
X160703260Y-95171260D02*
X160274000Y-94742000D01*
X158750000Y-94742000D02*
X158750000Y-94234000D01*
X159766000Y-88900000D02*
X159766000Y-89027000D01*
X133235000Y-102108000D02*
X132842000Y-102108000D01*
X132842000Y-102108000D02*
X132461000Y-102489000D01*
X132461000Y-102489000D02*
X132461000Y-102743000D01*
X132461000Y-102743000D02*
X131815840Y-103388160D01*
X131815840Y-103388160D02*
X130949700Y-103388160D01*
X134735000Y-102108000D02*
X135636000Y-102108000D01*
X135636000Y-102108000D02*
X135890000Y-101854000D01*
X135890000Y-101854000D02*
X135890000Y-93345000D01*
X135890000Y-93345000D02*
X136144000Y-93091000D01*
X136144000Y-93091000D02*
X140462000Y-93091000D01*
X140462000Y-93091000D02*
X141351000Y-92202000D01*
X141351000Y-92202000D02*
X141351000Y-89535000D01*
X141351000Y-89535000D02*
X141859000Y-89027000D01*
X159131000Y-92202000D02*
X158369000Y-91694000D01*
X158369000Y-91694000D02*
X158369000Y-89408000D01*
X161973260Y-94790260D02*
X161925000Y-94742000D01*
X161973260Y-94790260D02*
X161973260Y-96410780D01*
X157988000Y-89027000D02*
X141859000Y-89027000D01*
X158369000Y-89408000D02*
X157988000Y-89027000D01*
X159131000Y-92964000D02*
X159131000Y-92202000D01*
X128778000Y-90932000D02*
X127762000Y-90932000D01*
X127762000Y-90932000D02*
X127381000Y-91313000D01*
X127381000Y-91313000D02*
X127381000Y-92456000D01*
X127381000Y-92456000D02*
X126957000Y-92880000D01*
X126957000Y-92880000D02*
X126431000Y-92880000D01*
X126492000Y-91567000D02*
X126492000Y-92819000D01*
X126492000Y-92819000D02*
X126431000Y-92880000D01*
X128651000Y-101587300D02*
X128651000Y-100711000D01*
X128651000Y-100711000D02*
X129921000Y-99441000D01*
X129921000Y-99441000D02*
X129921000Y-92075000D01*
X129921000Y-92075000D02*
X128778000Y-90932000D01*
X125984000Y-92433000D02*
X126431000Y-92880000D01*
X126365000Y-92814000D02*
X126431000Y-92880000D01*
X128397000Y-91567000D02*
X128397000Y-92814000D01*
X128397000Y-92814000D02*
X128331000Y-92880000D01*
X128153160Y-101587300D02*
X128143000Y-100457000D01*
X128143000Y-100457000D02*
X129413000Y-99187000D01*
X129413000Y-99187000D02*
X129413000Y-93091000D01*
X129413000Y-93091000D02*
X129202000Y-92880000D01*
X129202000Y-92880000D02*
X128331000Y-92880000D01*
X127889000Y-92438000D02*
X128331000Y-92880000D01*
X128270000Y-92819000D02*
X128331000Y-92880000D01*
X128397000Y-91567000D02*
X128397000Y-91618500D01*
D38*
X121242000Y-116840000D02*
X122694000Y-116840000D01*
D37*
X130949700Y-102387400D02*
X131419600Y-102387400D01*
X131419600Y-102387400D02*
X131699000Y-102108000D01*
X131699000Y-106299000D02*
X132715000Y-107315000D01*
X132715000Y-107315000D02*
X132715000Y-110318000D01*
X132715000Y-110318000D02*
X131053800Y-111979200D01*
X128766000Y-111252000D02*
X130326600Y-111252000D01*
X130326600Y-111252000D02*
X131053800Y-111979200D01*
X128766000Y-111252000D02*
X128766000Y-111113000D01*
X128635000Y-111383000D02*
X128766000Y-111252000D01*
X132588000Y-104394000D02*
X132969000Y-104775000D01*
X132969000Y-104775000D02*
X133731000Y-104775000D01*
X133731000Y-104775000D02*
X133985000Y-104521000D01*
X133985000Y-104521000D02*
X133985000Y-101473000D01*
X133985000Y-101473000D02*
X133731000Y-101219000D01*
X133731000Y-101219000D02*
X132080000Y-101219000D01*
X132080000Y-101219000D02*
X130429000Y-99568000D01*
X130429000Y-99568000D02*
X130429000Y-90043000D01*
X130429000Y-90043000D02*
X129540000Y-89154000D01*
X129540000Y-89154000D02*
X129540000Y-87491000D01*
X130949700Y-104383840D02*
X132577840Y-104383840D01*
X132577840Y-104383840D02*
X132588000Y-104394000D01*
X125984000Y-114554000D02*
X126045000Y-114615000D01*
X126045000Y-114615000D02*
X127270000Y-114615000D01*
X127270000Y-114615000D02*
X127137200Y-114615000D01*
X127270000Y-114615000D02*
X127270000Y-115947000D01*
X127270000Y-115947000D02*
X127266000Y-115951000D01*
X127266000Y-115951000D02*
X127266000Y-115558000D01*
X132981000Y-99187000D02*
X132981000Y-100572000D01*
X132981000Y-100572000D02*
X132969000Y-100584000D01*
X130949700Y-104884220D02*
X131808220Y-104884220D01*
X131808220Y-104884220D02*
X132334000Y-105410000D01*
X132334000Y-105410000D02*
X133350000Y-105410000D01*
D40*
G36*
X128347474Y-79491883D02*
X127753967Y-80084355D01*
X127432367Y-80858853D01*
X127431635Y-81697468D01*
X127751883Y-82472526D01*
X128344355Y-83066033D01*
X129118853Y-83387633D01*
X129957468Y-83388365D01*
X130732526Y-83068117D01*
X131326033Y-82475645D01*
X131647633Y-81701147D01*
X131648365Y-80862532D01*
X131328117Y-80087474D01*
X130735645Y-79493967D01*
X130357386Y-79336900D01*
X178842414Y-79336900D01*
X179757000Y-80251486D01*
X179757000Y-91440000D01*
X179801378Y-91663105D01*
X179927757Y-91852243D01*
X182267860Y-94192347D01*
X182267860Y-95665677D01*
X182128117Y-95327474D01*
X181535645Y-94733967D01*
X180761147Y-94412367D01*
X179922532Y-94411635D01*
X179147474Y-94731883D01*
X178553967Y-95324355D01*
X178232367Y-96098853D01*
X178231635Y-96937468D01*
X178551883Y-97712526D01*
X179144355Y-98306033D01*
X179918853Y-98627633D01*
X180757468Y-98628365D01*
X181532526Y-98308117D01*
X182126033Y-97715645D01*
X182267860Y-97374088D01*
X182267860Y-123605677D01*
X182128117Y-123267474D01*
X181535645Y-122673967D01*
X180761147Y-122352367D01*
X179922532Y-122351635D01*
X179147474Y-122671883D01*
X178553967Y-123264355D01*
X178232367Y-124038853D01*
X178231635Y-124877468D01*
X178551883Y-125652526D01*
X179144355Y-126246033D01*
X179918853Y-126567633D01*
X180757468Y-126568365D01*
X181532526Y-126248117D01*
X182126033Y-125655645D01*
X182267860Y-125314088D01*
X182267860Y-126787653D01*
X179927757Y-129127757D01*
X179801378Y-129316895D01*
X179801378Y-129316896D01*
X179757000Y-129540000D01*
X179757000Y-130568514D01*
X179121814Y-131203700D01*
X129587160Y-131203700D01*
X130056033Y-130735645D01*
X130377633Y-129961147D01*
X130378365Y-129122532D01*
X130058117Y-128347474D01*
X129465645Y-127753967D01*
X128691147Y-127432367D01*
X127852532Y-127431635D01*
X127077474Y-127751883D01*
X126483967Y-128344355D01*
X126162367Y-129118853D01*
X126161635Y-129957468D01*
X126481883Y-130732526D01*
X126952235Y-131203700D01*
X115518186Y-131203700D01*
X115161651Y-130847165D01*
X115143336Y-126542800D01*
X129854400Y-126542800D01*
X129854400Y-127159257D01*
X129947206Y-127383311D01*
X130118689Y-127554794D01*
X130342743Y-127647600D01*
X131249200Y-127647600D01*
X131401600Y-127495200D01*
X131401600Y-126390400D01*
X131706400Y-126390400D01*
X131706400Y-127495200D01*
X131858800Y-127647600D01*
X132765257Y-127647600D01*
X132989311Y-127554794D01*
X133160794Y-127383311D01*
X133253600Y-127159257D01*
X133253600Y-126542800D01*
X133101200Y-126390400D01*
X131706400Y-126390400D01*
X131401600Y-126390400D01*
X130006800Y-126390400D01*
X129854400Y-126542800D01*
X115143336Y-126542800D01*
X115137931Y-125272800D01*
X116650400Y-125272800D01*
X116650400Y-125939257D01*
X116743206Y-126163311D01*
X116914689Y-126334794D01*
X117138743Y-126427600D01*
X117805200Y-126427600D01*
X117957600Y-126275200D01*
X117957600Y-125120400D01*
X118262400Y-125120400D01*
X118262400Y-126275200D01*
X118414800Y-126427600D01*
X119081257Y-126427600D01*
X119305311Y-126334794D01*
X119476794Y-126163311D01*
X119569600Y-125939257D01*
X119569600Y-125272800D01*
X119417200Y-125120400D01*
X118262400Y-125120400D01*
X117957600Y-125120400D01*
X116802800Y-125120400D01*
X116650400Y-125272800D01*
X115137931Y-125272800D01*
X115132501Y-123996743D01*
X116650400Y-123996743D01*
X116650400Y-124663200D01*
X116802800Y-124815600D01*
X117957600Y-124815600D01*
X117957600Y-123660800D01*
X118262400Y-123660800D01*
X118262400Y-124815600D01*
X119417200Y-124815600D01*
X119468000Y-124764800D01*
X120460400Y-124764800D01*
X120460400Y-125431257D01*
X120553206Y-125655311D01*
X120724689Y-125826794D01*
X120948743Y-125919600D01*
X121615200Y-125919600D01*
X121767600Y-125767200D01*
X121767600Y-124612400D01*
X122072400Y-124612400D01*
X122072400Y-125767200D01*
X122224800Y-125919600D01*
X122891257Y-125919600D01*
X123115311Y-125826794D01*
X123286794Y-125655311D01*
X123379600Y-125431257D01*
X123379600Y-125316743D01*
X129854400Y-125316743D01*
X129854400Y-125933200D01*
X130006800Y-126085600D01*
X131401600Y-126085600D01*
X131401600Y-124980800D01*
X131706400Y-124980800D01*
X131706400Y-126085600D01*
X133101200Y-126085600D01*
X133253600Y-125933200D01*
X133253600Y-125316743D01*
X133160794Y-125092689D01*
X132989311Y-124921206D01*
X132765257Y-124828400D01*
X131858800Y-124828400D01*
X131706400Y-124980800D01*
X131401600Y-124980800D01*
X131249200Y-124828400D01*
X130342743Y-124828400D01*
X130118689Y-124921206D01*
X129947206Y-125092689D01*
X129854400Y-125316743D01*
X123379600Y-125316743D01*
X123379600Y-124764800D01*
X123227200Y-124612400D01*
X122072400Y-124612400D01*
X121767600Y-124612400D01*
X120612800Y-124612400D01*
X120460400Y-124764800D01*
X119468000Y-124764800D01*
X119569600Y-124663200D01*
X119569600Y-124542400D01*
X123371400Y-124542400D01*
X123371400Y-124661257D01*
X123464206Y-124885311D01*
X123635689Y-125056794D01*
X123859743Y-125149600D01*
X123941100Y-125149600D01*
X124093500Y-124997200D01*
X124093500Y-124390000D01*
X124318500Y-124390000D01*
X124318500Y-124997200D01*
X124470900Y-125149600D01*
X124552257Y-125149600D01*
X124776311Y-125056794D01*
X124947794Y-124885311D01*
X125040600Y-124661257D01*
X125040600Y-124542400D01*
X124888200Y-124390000D01*
X124318500Y-124390000D01*
X124093500Y-124390000D01*
X123523800Y-124390000D01*
X123371400Y-124542400D01*
X119569600Y-124542400D01*
X119569600Y-123996743D01*
X119476794Y-123772689D01*
X119305311Y-123601206D01*
X119081257Y-123508400D01*
X118414800Y-123508400D01*
X118262400Y-123660800D01*
X117957600Y-123660800D01*
X117805200Y-123508400D01*
X117138743Y-123508400D01*
X116914689Y-123601206D01*
X116743206Y-123772689D01*
X116650400Y-123996743D01*
X115132501Y-123996743D01*
X115103344Y-117144800D01*
X117832400Y-117144800D01*
X117832400Y-117561257D01*
X117925206Y-117785311D01*
X118096689Y-117956794D01*
X118320743Y-118049600D01*
X118737200Y-118049600D01*
X118889600Y-117897200D01*
X118889600Y-116992400D01*
X117984800Y-116992400D01*
X117832400Y-117144800D01*
X115103344Y-117144800D01*
X115098978Y-116118743D01*
X117832400Y-116118743D01*
X117832400Y-116535200D01*
X117984800Y-116687600D01*
X118889600Y-116687600D01*
X118889600Y-115782800D01*
X118737200Y-115630400D01*
X118320743Y-115630400D01*
X118096689Y-115723206D01*
X117925206Y-115894689D01*
X117832400Y-116118743D01*
X115098978Y-116118743D01*
X115037033Y-101561900D01*
X117383182Y-101561900D01*
X117442327Y-101681278D01*
X118173126Y-101952703D01*
X118952167Y-101923802D01*
X119537673Y-101681278D01*
X119596818Y-101561900D01*
X120088072Y-101561900D01*
X119695236Y-101954736D01*
X119476729Y-102281755D01*
X119399999Y-102667500D01*
X119400000Y-102667505D01*
X119400000Y-104402000D01*
X118364000Y-104402000D01*
X117978255Y-104478729D01*
X117651236Y-104697236D01*
X117432729Y-105024255D01*
X117356000Y-105410000D01*
X117432729Y-105795745D01*
X117651236Y-106122764D01*
X117978255Y-106341271D01*
X118364000Y-106418000D01*
X119400000Y-106418000D01*
X119400000Y-106647620D01*
X119270847Y-106730728D01*
X119154855Y-106900488D01*
X119114048Y-107102000D01*
X119114048Y-107344000D01*
X118212000Y-107344000D01*
X117921926Y-107401699D01*
X117676013Y-107566013D01*
X117066013Y-108176013D01*
X116901699Y-108421926D01*
X116844000Y-108712000D01*
X116844000Y-110456000D01*
X116859048Y-110531652D01*
X116859048Y-110756000D01*
X116894470Y-110944253D01*
X117005728Y-111117153D01*
X117175488Y-111233145D01*
X117377000Y-111273952D01*
X117827000Y-111273952D01*
X118015253Y-111238530D01*
X118188153Y-111127272D01*
X118304145Y-110957512D01*
X118344952Y-110756000D01*
X118344952Y-110531652D01*
X118360000Y-110456000D01*
X118360000Y-109025974D01*
X118525974Y-108860000D01*
X119114048Y-108860000D01*
X119114048Y-109102000D01*
X119149470Y-109290253D01*
X119260728Y-109463153D01*
X119430488Y-109579145D01*
X119632000Y-109619952D01*
X119892149Y-109619952D01*
X119759199Y-109818926D01*
X119701500Y-110109000D01*
X119701500Y-113538000D01*
X119722585Y-113644000D01*
X118525974Y-113644000D01*
X118360000Y-113478026D01*
X118360000Y-112556000D01*
X118344952Y-112480348D01*
X118344952Y-112256000D01*
X118309530Y-112067747D01*
X118198272Y-111894847D01*
X118028512Y-111778855D01*
X117827000Y-111738048D01*
X117377000Y-111738048D01*
X117188747Y-111773470D01*
X117015847Y-111884728D01*
X116899855Y-112054488D01*
X116859048Y-112256000D01*
X116859048Y-112480348D01*
X116844000Y-112556000D01*
X116844000Y-113792000D01*
X116901699Y-114082074D01*
X117066013Y-114327987D01*
X117676013Y-114937987D01*
X117921926Y-115102301D01*
X118212000Y-115160000D01*
X120264048Y-115160000D01*
X120264048Y-115402000D01*
X120299470Y-115590253D01*
X120410728Y-115763153D01*
X120427309Y-115774482D01*
X120280847Y-115868728D01*
X120198164Y-115989738D01*
X120158794Y-115894689D01*
X119987311Y-115723206D01*
X119763257Y-115630400D01*
X119346800Y-115630400D01*
X119194400Y-115782800D01*
X119194400Y-116687600D01*
X119214400Y-116687600D01*
X119214400Y-116992400D01*
X119194400Y-116992400D01*
X119194400Y-117897200D01*
X119346800Y-118049600D01*
X119763257Y-118049600D01*
X119987311Y-117956794D01*
X120158794Y-117785311D01*
X120198637Y-117689121D01*
X120270728Y-117801153D01*
X120440488Y-117917145D01*
X120642000Y-117957952D01*
X121842000Y-117957952D01*
X122030253Y-117922530D01*
X122203153Y-117811272D01*
X122236227Y-117762867D01*
X122242488Y-117767145D01*
X122444000Y-117807952D01*
X122944000Y-117807952D01*
X123132253Y-117772530D01*
X123305153Y-117661272D01*
X123349081Y-117596981D01*
X123481236Y-117794764D01*
X123862234Y-118175761D01*
X123862236Y-118175764D01*
X124136850Y-118359255D01*
X124189255Y-118394271D01*
X124575000Y-118471000D01*
X130945000Y-118471000D01*
X130945000Y-121668621D01*
X130687745Y-121496729D01*
X130302000Y-121419999D01*
X130241667Y-121432000D01*
X126909528Y-121432000D01*
X126904764Y-121427236D01*
X126577745Y-121208729D01*
X126192000Y-121131999D01*
X126191995Y-121132000D01*
X123021950Y-121132000D01*
X122906856Y-120959749D01*
X122466289Y-120665372D01*
X121946605Y-120562000D01*
X121893395Y-120562000D01*
X121891985Y-120562280D01*
X121853745Y-120536729D01*
X121468000Y-120459999D01*
X121467995Y-120460000D01*
X119025394Y-120460000D01*
X118656289Y-120213372D01*
X118136605Y-120110000D01*
X118083395Y-120110000D01*
X117563711Y-120213372D01*
X117123144Y-120507749D01*
X116828767Y-120948316D01*
X116725395Y-121468000D01*
X116828767Y-121987684D01*
X117123144Y-122428251D01*
X117563711Y-122722628D01*
X118083395Y-122826000D01*
X118136605Y-122826000D01*
X118656289Y-122722628D01*
X119025394Y-122476000D01*
X120663033Y-122476000D01*
X120933144Y-122880251D01*
X121112960Y-123000400D01*
X120948743Y-123000400D01*
X120724689Y-123093206D01*
X120553206Y-123264689D01*
X120460400Y-123488743D01*
X120460400Y-124155200D01*
X120612800Y-124307600D01*
X121767600Y-124307600D01*
X121767600Y-124287600D01*
X122072400Y-124287600D01*
X122072400Y-124307600D01*
X123227200Y-124307600D01*
X123290000Y-124244800D01*
X125507400Y-124244800D01*
X125507400Y-124461257D01*
X125600206Y-124685311D01*
X125771689Y-124856794D01*
X125995743Y-124949600D01*
X126187200Y-124949600D01*
X126339600Y-124797200D01*
X126339600Y-124092400D01*
X126644400Y-124092400D01*
X126644400Y-124797200D01*
X126796800Y-124949600D01*
X126988257Y-124949600D01*
X127212311Y-124856794D01*
X127383794Y-124685311D01*
X127476600Y-124461257D01*
X127476600Y-124244800D01*
X127324200Y-124092400D01*
X126644400Y-124092400D01*
X126339600Y-124092400D01*
X125659800Y-124092400D01*
X125507400Y-124244800D01*
X123290000Y-124244800D01*
X123379600Y-124155200D01*
X123379600Y-123945800D01*
X123523800Y-124090000D01*
X124093500Y-124090000D01*
X124093500Y-123482800D01*
X124318500Y-123482800D01*
X124318500Y-124090000D01*
X124888200Y-124090000D01*
X125040600Y-123937600D01*
X125040600Y-123818743D01*
X124947794Y-123594689D01*
X124776311Y-123423206D01*
X124552257Y-123330400D01*
X124470900Y-123330400D01*
X124318500Y-123482800D01*
X124093500Y-123482800D01*
X123941100Y-123330400D01*
X123859743Y-123330400D01*
X123635689Y-123423206D01*
X123464206Y-123594689D01*
X123379600Y-123798946D01*
X123379600Y-123488743D01*
X123286794Y-123264689D01*
X123170105Y-123148000D01*
X125646895Y-123148000D01*
X125600206Y-123194689D01*
X125507400Y-123418743D01*
X125507400Y-123635200D01*
X125659800Y-123787600D01*
X126339600Y-123787600D01*
X126339600Y-123767600D01*
X126644400Y-123767600D01*
X126644400Y-123787600D01*
X127324200Y-123787600D01*
X127476600Y-123635200D01*
X127476600Y-123448000D01*
X130289995Y-123448000D01*
X130290000Y-123448001D01*
X130675745Y-123371271D01*
X130945000Y-123191361D01*
X130945000Y-123253500D01*
X131021729Y-123639245D01*
X131240236Y-123966264D01*
X131567255Y-124184771D01*
X131953000Y-124261500D01*
X132338745Y-124184771D01*
X132512252Y-124068837D01*
X132648401Y-124272599D01*
X135061399Y-126685596D01*
X135061401Y-126685599D01*
X135208485Y-126783877D01*
X135266761Y-126822816D01*
X135509000Y-126871000D01*
X139126048Y-126871000D01*
X139126048Y-127038000D01*
X139161470Y-127226253D01*
X139272728Y-127399153D01*
X139442488Y-127515145D01*
X139644000Y-127555952D01*
X141824000Y-127555952D01*
X142012253Y-127520530D01*
X142185153Y-127409272D01*
X142243826Y-127323401D01*
X142296807Y-127358962D01*
X142682391Y-127436498D01*
X143068296Y-127360576D01*
X143963409Y-126992000D01*
X146512006Y-126992000D01*
X146511860Y-127160016D01*
X146634611Y-127457097D01*
X146687000Y-127509578D01*
X146687000Y-128334482D01*
X146359749Y-128553144D01*
X146065372Y-128993711D01*
X146050000Y-129070991D01*
X146034628Y-128993711D01*
X145740251Y-128553144D01*
X145299684Y-128258767D01*
X144780000Y-128155395D01*
X144260316Y-128258767D01*
X143819749Y-128553144D01*
X143607952Y-128870121D01*
X143607952Y-128690000D01*
X143572530Y-128501747D01*
X143461272Y-128328847D01*
X143291512Y-128212855D01*
X143090000Y-128172048D01*
X141390000Y-128172048D01*
X141201747Y-128207470D01*
X141028847Y-128318728D01*
X140912855Y-128488488D01*
X140872048Y-128690000D01*
X140872048Y-130390000D01*
X140907470Y-130578253D01*
X141018728Y-130751153D01*
X141188488Y-130867145D01*
X141390000Y-130907952D01*
X143090000Y-130907952D01*
X143278253Y-130872530D01*
X143451153Y-130761272D01*
X143567145Y-130591512D01*
X143607952Y-130390000D01*
X143607952Y-130209879D01*
X143819749Y-130526856D01*
X144260316Y-130821233D01*
X144780000Y-130924605D01*
X145299684Y-130821233D01*
X145740251Y-130526856D01*
X146034628Y-130086289D01*
X146050000Y-130009009D01*
X146065372Y-130086289D01*
X146359749Y-130526856D01*
X146800316Y-130821233D01*
X147320000Y-130924605D01*
X147839684Y-130821233D01*
X148280251Y-130526856D01*
X148574628Y-130086289D01*
X148590000Y-130009009D01*
X148605372Y-130086289D01*
X148899749Y-130526856D01*
X149340316Y-130821233D01*
X149860000Y-130924605D01*
X150379684Y-130821233D01*
X150820251Y-130526856D01*
X151114628Y-130086289D01*
X151130000Y-130009009D01*
X151145372Y-130086289D01*
X151439749Y-130526856D01*
X151880316Y-130821233D01*
X152400000Y-130924605D01*
X152919684Y-130821233D01*
X153360251Y-130526856D01*
X153630811Y-130121934D01*
X153781908Y-130428419D01*
X154210046Y-130803975D01*
X154562393Y-130949910D01*
X154787600Y-130838286D01*
X154787600Y-129692400D01*
X155092400Y-129692400D01*
X155092400Y-130838286D01*
X155317607Y-130949910D01*
X155669954Y-130803975D01*
X156098092Y-130428419D01*
X156210000Y-130201425D01*
X156321908Y-130428419D01*
X156750046Y-130803975D01*
X157102393Y-130949910D01*
X157327600Y-130838286D01*
X157327600Y-129692400D01*
X155092400Y-129692400D01*
X154787600Y-129692400D01*
X154767600Y-129692400D01*
X154767600Y-129387600D01*
X154787600Y-129387600D01*
X154787600Y-129367600D01*
X155092400Y-129367600D01*
X155092400Y-129387600D01*
X157327600Y-129387600D01*
X157327600Y-129367600D01*
X157632400Y-129367600D01*
X157632400Y-129387600D01*
X157652400Y-129387600D01*
X157652400Y-129692400D01*
X157632400Y-129692400D01*
X157632400Y-130838286D01*
X157857607Y-130949910D01*
X158209954Y-130803975D01*
X158638092Y-130428419D01*
X158789189Y-130121934D01*
X159059749Y-130526856D01*
X159500316Y-130821233D01*
X160020000Y-130924605D01*
X160539684Y-130821233D01*
X160980251Y-130526856D01*
X161274628Y-130086289D01*
X161378000Y-129566605D01*
X161378000Y-129513395D01*
X161274628Y-128993711D01*
X161234334Y-128933407D01*
X161480838Y-128933281D01*
X161600434Y-128909428D01*
X161720468Y-128886039D01*
X161721657Y-128885252D01*
X161723053Y-128884973D01*
X161824510Y-128817106D01*
X161926363Y-128749624D01*
X161986454Y-128690000D01*
X163732048Y-128690000D01*
X163732048Y-130390000D01*
X163767470Y-130578253D01*
X163878728Y-130751153D01*
X164048488Y-130867145D01*
X164250000Y-130907952D01*
X165950000Y-130907952D01*
X166138253Y-130872530D01*
X166311153Y-130761272D01*
X166427145Y-130591512D01*
X166467952Y-130390000D01*
X166467952Y-130209879D01*
X166679749Y-130526856D01*
X167120316Y-130821233D01*
X167640000Y-130924605D01*
X168159684Y-130821233D01*
X168600251Y-130526856D01*
X168894628Y-130086289D01*
X168910000Y-130009009D01*
X168925372Y-130086289D01*
X169219749Y-130526856D01*
X169660316Y-130821233D01*
X170180000Y-130924605D01*
X170699684Y-130821233D01*
X171140251Y-130526856D01*
X171434628Y-130086289D01*
X171450000Y-130009009D01*
X171465372Y-130086289D01*
X171759749Y-130526856D01*
X172200316Y-130821233D01*
X172720000Y-130924605D01*
X173239684Y-130821233D01*
X173680251Y-130526856D01*
X173974628Y-130086289D01*
X173990000Y-130009009D01*
X174005372Y-130086289D01*
X174299749Y-130526856D01*
X174740316Y-130821233D01*
X175260000Y-130924605D01*
X175779684Y-130821233D01*
X176220251Y-130526856D01*
X176514628Y-130086289D01*
X176530000Y-130009009D01*
X176545372Y-130086289D01*
X176839749Y-130526856D01*
X177280316Y-130821233D01*
X177800000Y-130924605D01*
X178319684Y-130821233D01*
X178760251Y-130526856D01*
X179054628Y-130086289D01*
X179158000Y-129566605D01*
X179158000Y-129513395D01*
X179054628Y-128993711D01*
X178760251Y-128553144D01*
X178319684Y-128258767D01*
X177800000Y-128155395D01*
X177280316Y-128258767D01*
X176839749Y-128553144D01*
X176545372Y-128993711D01*
X176530000Y-129070991D01*
X176514628Y-128993711D01*
X176220251Y-128553144D01*
X175779684Y-128258767D01*
X175260000Y-128155395D01*
X174740316Y-128258767D01*
X174299749Y-128553144D01*
X174005372Y-128993711D01*
X173990000Y-129070991D01*
X173974628Y-128993711D01*
X173680251Y-128553144D01*
X173239684Y-128258767D01*
X172720000Y-128155395D01*
X172200316Y-128258767D01*
X171759749Y-128553144D01*
X171465372Y-128993711D01*
X171450000Y-129070991D01*
X171434628Y-128993711D01*
X171140251Y-128553144D01*
X170699684Y-128258767D01*
X170180000Y-128155395D01*
X169660316Y-128258767D01*
X169219749Y-128553144D01*
X168925372Y-128993711D01*
X168910000Y-129070991D01*
X168894628Y-128993711D01*
X168600251Y-128553144D01*
X168159684Y-128258767D01*
X167640000Y-128155395D01*
X167120316Y-128258767D01*
X166679749Y-128553144D01*
X166467952Y-128870121D01*
X166467952Y-128690000D01*
X166432530Y-128501747D01*
X166321272Y-128328847D01*
X166151512Y-128212855D01*
X165950000Y-128172048D01*
X164250000Y-128172048D01*
X164061747Y-128207470D01*
X163888847Y-128318728D01*
X163772855Y-128488488D01*
X163732048Y-128690000D01*
X161986454Y-128690000D01*
X162929648Y-127754143D01*
X162930352Y-127753099D01*
X162931399Y-127752399D01*
X162999346Y-127650709D01*
X163067666Y-127549320D01*
X163067916Y-127548086D01*
X163068616Y-127547039D01*
X163092450Y-127427216D01*
X163116796Y-127307271D01*
X163116555Y-127306033D01*
X163116800Y-127304800D01*
X163116800Y-125397681D01*
X163117707Y-125398590D01*
X163414574Y-125521860D01*
X163736016Y-125522140D01*
X164033097Y-125399389D01*
X164260590Y-125172293D01*
X164352303Y-124951423D01*
X164478710Y-125109432D01*
X164505757Y-125132200D01*
X164525401Y-125161599D01*
X164599492Y-125211105D01*
X164667661Y-125268489D01*
X164701365Y-125279174D01*
X164730761Y-125298816D01*
X164818152Y-125316199D01*
X164903097Y-125343129D01*
X164938325Y-125340103D01*
X164973000Y-125347000D01*
X165225207Y-125347000D01*
X165276707Y-125398590D01*
X165573574Y-125521860D01*
X165895016Y-125522140D01*
X166192097Y-125399389D01*
X166419590Y-125172293D01*
X166542860Y-124875426D01*
X166543002Y-124712000D01*
X167283822Y-124712000D01*
X167466868Y-124864538D01*
X167466860Y-124874016D01*
X167589611Y-125171097D01*
X167816707Y-125398590D01*
X168113574Y-125521860D01*
X168435016Y-125522140D01*
X168732097Y-125399389D01*
X168959590Y-125172293D01*
X169082860Y-124875426D01*
X169083066Y-124639263D01*
X169097399Y-124653596D01*
X169097401Y-124653599D01*
X169302761Y-124790816D01*
X169334856Y-124797200D01*
X169545000Y-124839001D01*
X169545005Y-124839000D01*
X169879891Y-124839000D01*
X169879860Y-124874016D01*
X170002611Y-125171097D01*
X170229707Y-125398590D01*
X170526574Y-125521860D01*
X170848016Y-125522140D01*
X171145097Y-125399389D01*
X171372590Y-125172293D01*
X171495860Y-124875426D01*
X171496140Y-124553984D01*
X171466815Y-124483013D01*
X171637399Y-124653596D01*
X171637401Y-124653599D01*
X171842761Y-124790816D01*
X172085000Y-124839000D01*
X172165891Y-124839000D01*
X172165860Y-124874016D01*
X172288611Y-125171097D01*
X172515707Y-125398590D01*
X172812574Y-125521860D01*
X173134016Y-125522140D01*
X173431097Y-125399389D01*
X173658590Y-125172293D01*
X173781860Y-124875426D01*
X173782140Y-124553984D01*
X173690005Y-124331000D01*
X174308500Y-124331000D01*
X174579019Y-124691692D01*
X174578860Y-124874016D01*
X174701611Y-125171097D01*
X174928707Y-125398590D01*
X175225574Y-125521860D01*
X175547016Y-125522140D01*
X175844097Y-125399389D01*
X176071590Y-125172293D01*
X176194860Y-124875426D01*
X176195140Y-124553984D01*
X176072389Y-124256903D01*
X175845293Y-124029410D01*
X175583178Y-123920570D01*
X175131400Y-123318200D01*
X175097727Y-123288008D01*
X175072599Y-123250401D01*
X175006602Y-123206304D01*
X174947509Y-123153319D01*
X174904844Y-123138311D01*
X174867239Y-123113184D01*
X174789397Y-123097700D01*
X174714520Y-123071361D01*
X174669356Y-123073823D01*
X174625000Y-123065000D01*
X172543199Y-123065000D01*
X172220601Y-122742401D01*
X172015241Y-122605184D01*
X171773002Y-122556999D01*
X171772997Y-122557000D01*
X170315197Y-122557000D01*
X170223720Y-122465522D01*
X170223720Y-116375371D01*
X170356707Y-116508590D01*
X170653574Y-116631860D01*
X170975016Y-116632140D01*
X171272097Y-116509389D01*
X171481917Y-116299936D01*
X171690207Y-116508590D01*
X171987074Y-116631860D01*
X172308516Y-116632140D01*
X172605597Y-116509389D01*
X172751806Y-116363435D01*
X172896707Y-116508590D01*
X173193574Y-116631860D01*
X173515016Y-116632140D01*
X173812097Y-116509389D01*
X174039590Y-116282293D01*
X174162860Y-115985426D01*
X174163140Y-115663984D01*
X174129486Y-115582536D01*
X174188832Y-115544348D01*
X174257111Y-115709597D01*
X174484207Y-115937090D01*
X174781074Y-116060360D01*
X175102516Y-116060640D01*
X175399597Y-115937889D01*
X175452078Y-115885500D01*
X177421000Y-115885500D01*
X177421000Y-118935495D01*
X177420999Y-118935500D01*
X177469184Y-119177739D01*
X177606401Y-119383099D01*
X178050901Y-119827599D01*
X178256261Y-119964816D01*
X178296452Y-119972810D01*
X178498500Y-120013001D01*
X178498505Y-120013000D01*
X179134482Y-120013000D01*
X179353144Y-120340251D01*
X179793711Y-120634628D01*
X180313395Y-120738000D01*
X180366605Y-120738000D01*
X180886289Y-120634628D01*
X181326856Y-120340251D01*
X181621233Y-119899684D01*
X181724605Y-119380000D01*
X181621233Y-118860316D01*
X181326856Y-118419749D01*
X180886289Y-118125372D01*
X180809009Y-118110000D01*
X180886289Y-118094628D01*
X181326856Y-117800251D01*
X181621233Y-117359684D01*
X181724605Y-116840000D01*
X181621233Y-116320316D01*
X181326856Y-115879749D01*
X181009879Y-115667952D01*
X181190000Y-115667952D01*
X181378253Y-115632530D01*
X181551153Y-115521272D01*
X181667145Y-115351512D01*
X181707952Y-115150000D01*
X181707952Y-113450000D01*
X181672530Y-113261747D01*
X181561272Y-113088847D01*
X181391512Y-112972855D01*
X181190000Y-112932048D01*
X179490000Y-112932048D01*
X179301747Y-112967470D01*
X179128847Y-113078728D01*
X179013262Y-113247892D01*
X178938250Y-113066348D01*
X179492196Y-112512401D01*
X179492199Y-112512399D01*
X179629416Y-112307039D01*
X179648221Y-112212499D01*
X179677601Y-112064800D01*
X179677600Y-112064795D01*
X179677600Y-107949519D01*
X179962391Y-108089921D01*
X180187600Y-107979234D01*
X180187600Y-106832400D01*
X180492400Y-106832400D01*
X180492400Y-107979234D01*
X180717609Y-108089921D01*
X181228419Y-107838092D01*
X181603975Y-107409954D01*
X181749910Y-107057607D01*
X181638286Y-106832400D01*
X180492400Y-106832400D01*
X180187600Y-106832400D01*
X180167600Y-106832400D01*
X180167600Y-106527600D01*
X180187600Y-106527600D01*
X180187600Y-106507600D01*
X180492400Y-106507600D01*
X180492400Y-106527600D01*
X181638286Y-106527600D01*
X181749910Y-106302393D01*
X181603975Y-105950046D01*
X181228419Y-105521908D01*
X180921934Y-105370811D01*
X181326856Y-105100251D01*
X181621233Y-104659684D01*
X181724605Y-104140000D01*
X181621233Y-103620316D01*
X181326856Y-103179749D01*
X180886289Y-102885372D01*
X180809009Y-102870000D01*
X180886289Y-102854628D01*
X181326856Y-102560251D01*
X181621233Y-102119684D01*
X181724605Y-101600000D01*
X181621233Y-101080316D01*
X181326856Y-100639749D01*
X180886289Y-100345372D01*
X180366605Y-100242000D01*
X180313395Y-100242000D01*
X179793711Y-100345372D01*
X179353144Y-100639749D01*
X179167952Y-100916909D01*
X179167952Y-100750000D01*
X179132530Y-100561747D01*
X179021272Y-100388847D01*
X178851512Y-100272855D01*
X178650000Y-100232048D01*
X177072130Y-100232048D01*
X177863511Y-98570148D01*
X177867589Y-98554049D01*
X177876816Y-98540239D01*
X177897775Y-98434872D01*
X177924154Y-98330724D01*
X177921760Y-98314288D01*
X177925000Y-98298000D01*
X177925000Y-91796178D01*
X179048284Y-90448237D01*
X179093850Y-90364508D01*
X179146816Y-90285239D01*
X179152477Y-90256780D01*
X179166345Y-90231297D01*
X179176402Y-90136499D01*
X179195000Y-90043000D01*
X179195000Y-85598000D01*
X179146816Y-85355761D01*
X179009599Y-85150401D01*
X179009596Y-85150399D01*
X178628599Y-84769401D01*
X178423239Y-84632184D01*
X178181000Y-84583999D01*
X178180995Y-84584000D01*
X158847952Y-84584000D01*
X158847952Y-82970000D01*
X158812530Y-82781747D01*
X158701272Y-82608847D01*
X158531512Y-82492855D01*
X158330000Y-82452048D01*
X157643494Y-82452048D01*
X157573776Y-82312612D01*
X157550428Y-82265917D01*
X157577952Y-82130000D01*
X157577952Y-81253395D01*
X158662000Y-81253395D01*
X158662000Y-81306605D01*
X158765372Y-81826289D01*
X159059749Y-82266856D01*
X159500316Y-82561233D01*
X160020000Y-82664605D01*
X160539684Y-82561233D01*
X160980251Y-82266856D01*
X161274628Y-81826289D01*
X161290000Y-81749009D01*
X161305372Y-81826289D01*
X161599749Y-82266856D01*
X162040316Y-82561233D01*
X162560000Y-82664605D01*
X163079684Y-82561233D01*
X163520251Y-82266856D01*
X163814628Y-81826289D01*
X163830000Y-81749009D01*
X163845372Y-81826289D01*
X164139749Y-82266856D01*
X164580316Y-82561233D01*
X165100000Y-82664605D01*
X165619684Y-82561233D01*
X166060251Y-82266856D01*
X166354628Y-81826289D01*
X166370000Y-81749009D01*
X166385372Y-81826289D01*
X166679749Y-82266856D01*
X167120316Y-82561233D01*
X167640000Y-82664605D01*
X168159684Y-82561233D01*
X168600251Y-82266856D01*
X168894628Y-81826289D01*
X168910000Y-81749009D01*
X168925372Y-81826289D01*
X169219749Y-82266856D01*
X169660316Y-82561233D01*
X170180000Y-82664605D01*
X170699684Y-82561233D01*
X171140251Y-82266856D01*
X171434628Y-81826289D01*
X171450000Y-81749009D01*
X171465372Y-81826289D01*
X171759749Y-82266856D01*
X172200316Y-82561233D01*
X172720000Y-82664605D01*
X173239684Y-82561233D01*
X173680251Y-82266856D01*
X173974628Y-81826289D01*
X173990000Y-81749009D01*
X174005372Y-81826289D01*
X174299749Y-82266856D01*
X174740316Y-82561233D01*
X175260000Y-82664605D01*
X175779684Y-82561233D01*
X176220251Y-82266856D01*
X176432048Y-81949879D01*
X176432048Y-82130000D01*
X176467470Y-82318253D01*
X176578728Y-82491153D01*
X176748488Y-82607145D01*
X176950000Y-82647952D01*
X178650000Y-82647952D01*
X178838253Y-82612530D01*
X179011153Y-82501272D01*
X179127145Y-82331512D01*
X179167952Y-82130000D01*
X179167952Y-80430000D01*
X179132530Y-80241747D01*
X179021272Y-80068847D01*
X178851512Y-79952855D01*
X178650000Y-79912048D01*
X176950000Y-79912048D01*
X176761747Y-79947470D01*
X176588847Y-80058728D01*
X176472855Y-80228488D01*
X176432048Y-80430000D01*
X176432048Y-80610121D01*
X176220251Y-80293144D01*
X175779684Y-79998767D01*
X175260000Y-79895395D01*
X174740316Y-79998767D01*
X174299749Y-80293144D01*
X174005372Y-80733711D01*
X173990000Y-80810991D01*
X173974628Y-80733711D01*
X173680251Y-80293144D01*
X173239684Y-79998767D01*
X172720000Y-79895395D01*
X172200316Y-79998767D01*
X171759749Y-80293144D01*
X171465372Y-80733711D01*
X171450000Y-80810991D01*
X171434628Y-80733711D01*
X171140251Y-80293144D01*
X170699684Y-79998767D01*
X170180000Y-79895395D01*
X169660316Y-79998767D01*
X169219749Y-80293144D01*
X168925372Y-80733711D01*
X168910000Y-80810991D01*
X168894628Y-80733711D01*
X168600251Y-80293144D01*
X168159684Y-79998767D01*
X167640000Y-79895395D01*
X167120316Y-79998767D01*
X166679749Y-80293144D01*
X166385372Y-80733711D01*
X166370000Y-80810991D01*
X166354628Y-80733711D01*
X166060251Y-80293144D01*
X165619684Y-79998767D01*
X165100000Y-79895395D01*
X164580316Y-79998767D01*
X164139749Y-80293144D01*
X163845372Y-80733711D01*
X163830000Y-80810991D01*
X163814628Y-80733711D01*
X163520251Y-80293144D01*
X163079684Y-79998767D01*
X162560000Y-79895395D01*
X162040316Y-79998767D01*
X161599749Y-80293144D01*
X161305372Y-80733711D01*
X161290000Y-80810991D01*
X161274628Y-80733711D01*
X160980251Y-80293144D01*
X160539684Y-79998767D01*
X160020000Y-79895395D01*
X159500316Y-79998767D01*
X159059749Y-80293144D01*
X158765372Y-80733711D01*
X158662000Y-81253395D01*
X157577952Y-81253395D01*
X157577952Y-80430000D01*
X157542530Y-80241747D01*
X157431272Y-80068847D01*
X157261512Y-79952855D01*
X157060000Y-79912048D01*
X155360000Y-79912048D01*
X155171747Y-79947470D01*
X154998847Y-80058728D01*
X154882855Y-80228488D01*
X154842048Y-80430000D01*
X154842048Y-80610121D01*
X154630251Y-80293144D01*
X154189684Y-79998767D01*
X153670000Y-79895395D01*
X153150316Y-79998767D01*
X152709749Y-80293144D01*
X152415372Y-80733711D01*
X152400000Y-80810991D01*
X152384628Y-80733711D01*
X152090251Y-80293144D01*
X151649684Y-79998767D01*
X151130000Y-79895395D01*
X150610316Y-79998767D01*
X150169749Y-80293144D01*
X149875372Y-80733711D01*
X149860000Y-80810991D01*
X149844628Y-80733711D01*
X149550251Y-80293144D01*
X149109684Y-79998767D01*
X148590000Y-79895395D01*
X148070316Y-79998767D01*
X147629749Y-80293144D01*
X147335372Y-80733711D01*
X147320000Y-80810991D01*
X147304628Y-80733711D01*
X147010251Y-80293144D01*
X146569684Y-79998767D01*
X146050000Y-79895395D01*
X145530316Y-79998767D01*
X145089749Y-80293144D01*
X144795372Y-80733711D01*
X144780000Y-80810991D01*
X144764628Y-80733711D01*
X144470251Y-80293144D01*
X144029684Y-79998767D01*
X143510000Y-79895395D01*
X142990316Y-79998767D01*
X142549749Y-80293144D01*
X142279189Y-80698066D01*
X142128092Y-80391581D01*
X141699954Y-80016025D01*
X141347607Y-79870090D01*
X141122400Y-79981714D01*
X141122400Y-81127600D01*
X141142400Y-81127600D01*
X141142400Y-81432400D01*
X141122400Y-81432400D01*
X141122400Y-82578286D01*
X141347607Y-82689910D01*
X141366190Y-82682213D01*
X141081908Y-82931581D01*
X140930811Y-83238066D01*
X140660251Y-82833144D01*
X140219684Y-82538767D01*
X139923471Y-82479846D01*
X139755058Y-82109337D01*
X139737048Y-82084268D01*
X139727611Y-82054883D01*
X139638755Y-81894943D01*
X139660811Y-81861934D01*
X139811908Y-82168419D01*
X140240046Y-82543975D01*
X140592393Y-82689910D01*
X140817600Y-82578286D01*
X140817600Y-81432400D01*
X140797600Y-81432400D01*
X140797600Y-81127600D01*
X140817600Y-81127600D01*
X140817600Y-79981714D01*
X140592393Y-79870090D01*
X140240046Y-80016025D01*
X139811908Y-80391581D01*
X139660811Y-80698066D01*
X139390251Y-80293144D01*
X138949684Y-79998767D01*
X138430000Y-79895395D01*
X137910316Y-79998767D01*
X137469749Y-80293144D01*
X137175372Y-80733711D01*
X137160000Y-80810991D01*
X137144628Y-80733711D01*
X136850251Y-80293144D01*
X136409684Y-79998767D01*
X135890000Y-79895395D01*
X135370316Y-79998767D01*
X134929749Y-80293144D01*
X134635372Y-80733711D01*
X134620000Y-80810991D01*
X134604628Y-80733711D01*
X134310251Y-80293144D01*
X133869684Y-79998767D01*
X133350000Y-79895395D01*
X132830316Y-79998767D01*
X132389749Y-80293144D01*
X132095372Y-80733711D01*
X131992000Y-81253395D01*
X131992000Y-81306605D01*
X132095372Y-81826289D01*
X132389749Y-82266856D01*
X132830316Y-82561233D01*
X133177696Y-82630331D01*
X133307024Y-82888988D01*
X133442025Y-83158991D01*
X133365372Y-83273711D01*
X133262000Y-83793395D01*
X133262000Y-83846605D01*
X133365372Y-84366289D01*
X133659749Y-84806856D01*
X134100316Y-85101233D01*
X134620000Y-85204605D01*
X134876000Y-85153683D01*
X134876000Y-85257482D01*
X134870747Y-85258470D01*
X134787559Y-85312000D01*
X134218388Y-85312000D01*
X134200272Y-85283847D01*
X134030512Y-85167855D01*
X133829000Y-85127048D01*
X133379000Y-85127048D01*
X133190747Y-85162470D01*
X133017847Y-85273728D01*
X132901855Y-85443488D01*
X132861048Y-85645000D01*
X132861048Y-86245000D01*
X132896470Y-86433253D01*
X132932342Y-86489000D01*
X132458793Y-86489000D01*
X132510590Y-86437293D01*
X132633860Y-86140426D01*
X132634140Y-85818984D01*
X132511389Y-85521903D01*
X132284293Y-85294410D01*
X131987426Y-85171140D01*
X131665984Y-85170860D01*
X131368903Y-85293611D01*
X131304401Y-85358000D01*
X130329298Y-85358000D01*
X130191512Y-85263855D01*
X129990000Y-85223048D01*
X129090000Y-85223048D01*
X128901747Y-85258470D01*
X128728847Y-85369728D01*
X128612855Y-85539488D01*
X128572048Y-85741000D01*
X128572048Y-86108000D01*
X126246197Y-86108000D01*
X126000000Y-85861802D01*
X126000000Y-85137952D01*
X126457000Y-85137952D01*
X126645253Y-85102530D01*
X126818153Y-84991272D01*
X126934145Y-84821512D01*
X126974952Y-84620000D01*
X126974952Y-83020000D01*
X126939530Y-82831747D01*
X126828272Y-82658847D01*
X126658512Y-82542855D01*
X126457000Y-82502048D01*
X124277000Y-82502048D01*
X124088747Y-82537470D01*
X123915847Y-82648728D01*
X123799855Y-82818488D01*
X123759048Y-83020000D01*
X123759048Y-83187000D01*
X118880197Y-83187000D01*
X118741544Y-83048347D01*
X118735599Y-81978777D01*
X118859153Y-81899272D01*
X118975145Y-81729512D01*
X119015952Y-81528000D01*
X119015952Y-80778000D01*
X118980530Y-80589747D01*
X118869272Y-80416847D01*
X118699512Y-80300855D01*
X118498000Y-80260048D01*
X117698000Y-80260048D01*
X117509747Y-80295470D01*
X117429325Y-80347220D01*
X117343311Y-80261206D01*
X117119257Y-80168400D01*
X116902800Y-80168400D01*
X116750400Y-80320800D01*
X116750400Y-81000600D01*
X116770400Y-81000600D01*
X116770400Y-81305400D01*
X116750400Y-81305400D01*
X116750400Y-81985200D01*
X116902800Y-82137600D01*
X117119257Y-82137600D01*
X117343311Y-82044794D01*
X117429043Y-81959062D01*
X117469625Y-81986790D01*
X117472149Y-82441007D01*
X117398257Y-82410400D01*
X116491800Y-82410400D01*
X116339400Y-82562800D01*
X116339400Y-83667600D01*
X116359400Y-83667600D01*
X116359400Y-83972400D01*
X116339400Y-83972400D01*
X116339400Y-85077200D01*
X116491800Y-85229600D01*
X117398257Y-85229600D01*
X117622311Y-85136794D01*
X117793794Y-84965311D01*
X117886600Y-84741257D01*
X117886600Y-84124800D01*
X117734202Y-83972402D01*
X117875204Y-83972402D01*
X118170399Y-84267596D01*
X118170401Y-84267599D01*
X118375761Y-84404816D01*
X118618000Y-84453000D01*
X123759048Y-84453000D01*
X123759048Y-84620000D01*
X123794470Y-84808253D01*
X123905728Y-84981153D01*
X124075488Y-85097145D01*
X124277000Y-85137952D01*
X124734000Y-85137952D01*
X124734000Y-85483700D01*
X115163600Y-85483700D01*
X115163600Y-85229600D01*
X115882200Y-85229600D01*
X116034600Y-85077200D01*
X116034600Y-83972400D01*
X116014600Y-83972400D01*
X116014600Y-83667600D01*
X116034600Y-83667600D01*
X116034600Y-82562800D01*
X115882200Y-82410400D01*
X115163600Y-82410400D01*
X115163600Y-81457800D01*
X115588400Y-81457800D01*
X115588400Y-81649257D01*
X115681206Y-81873311D01*
X115852689Y-82044794D01*
X116076743Y-82137600D01*
X116293200Y-82137600D01*
X116445600Y-81985200D01*
X116445600Y-81305400D01*
X115740800Y-81305400D01*
X115588400Y-81457800D01*
X115163600Y-81457800D01*
X115163600Y-80656743D01*
X115588400Y-80656743D01*
X115588400Y-80848200D01*
X115740800Y-81000600D01*
X116445600Y-81000600D01*
X116445600Y-80320800D01*
X116293200Y-80168400D01*
X116076743Y-80168400D01*
X115852689Y-80261206D01*
X115681206Y-80432689D01*
X115588400Y-80656743D01*
X115163600Y-80656743D01*
X115163600Y-79970886D01*
X115797586Y-79336900D01*
X128722561Y-79336900D01*
X128347474Y-79491883D01*
X128347474Y-79491883D01*
G37*
X128347474Y-79491883D02*
X127753967Y-80084355D01*
X127432367Y-80858853D01*
X127431635Y-81697468D01*
X127751883Y-82472526D01*
X128344355Y-83066033D01*
X129118853Y-83387633D01*
X129957468Y-83388365D01*
X130732526Y-83068117D01*
X131326033Y-82475645D01*
X131647633Y-81701147D01*
X131648365Y-80862532D01*
X131328117Y-80087474D01*
X130735645Y-79493967D01*
X130357386Y-79336900D01*
X178842414Y-79336900D01*
X179757000Y-80251486D01*
X179757000Y-91440000D01*
X179801378Y-91663105D01*
X179927757Y-91852243D01*
X182267860Y-94192347D01*
X182267860Y-95665677D01*
X182128117Y-95327474D01*
X181535645Y-94733967D01*
X180761147Y-94412367D01*
X179922532Y-94411635D01*
X179147474Y-94731883D01*
X178553967Y-95324355D01*
X178232367Y-96098853D01*
X178231635Y-96937468D01*
X178551883Y-97712526D01*
X179144355Y-98306033D01*
X179918853Y-98627633D01*
X180757468Y-98628365D01*
X181532526Y-98308117D01*
X182126033Y-97715645D01*
X182267860Y-97374088D01*
X182267860Y-123605677D01*
X182128117Y-123267474D01*
X181535645Y-122673967D01*
X180761147Y-122352367D01*
X179922532Y-122351635D01*
X179147474Y-122671883D01*
X178553967Y-123264355D01*
X178232367Y-124038853D01*
X178231635Y-124877468D01*
X178551883Y-125652526D01*
X179144355Y-126246033D01*
X179918853Y-126567633D01*
X180757468Y-126568365D01*
X181532526Y-126248117D01*
X182126033Y-125655645D01*
X182267860Y-125314088D01*
X182267860Y-126787653D01*
X179927757Y-129127757D01*
X179801378Y-129316895D01*
X179801378Y-129316896D01*
X179757000Y-129540000D01*
X179757000Y-130568514D01*
X179121814Y-131203700D01*
X129587160Y-131203700D01*
X130056033Y-130735645D01*
X130377633Y-129961147D01*
X130378365Y-129122532D01*
X130058117Y-128347474D01*
X129465645Y-127753967D01*
X128691147Y-127432367D01*
X127852532Y-127431635D01*
X127077474Y-127751883D01*
X126483967Y-128344355D01*
X126162367Y-129118853D01*
X126161635Y-129957468D01*
X126481883Y-130732526D01*
X126952235Y-131203700D01*
X115518186Y-131203700D01*
X115161651Y-130847165D01*
X115143336Y-126542800D01*
X129854400Y-126542800D01*
X129854400Y-127159257D01*
X129947206Y-127383311D01*
X130118689Y-127554794D01*
X130342743Y-127647600D01*
X131249200Y-127647600D01*
X131401600Y-127495200D01*
X131401600Y-126390400D01*
X131706400Y-126390400D01*
X131706400Y-127495200D01*
X131858800Y-127647600D01*
X132765257Y-127647600D01*
X132989311Y-127554794D01*
X133160794Y-127383311D01*
X133253600Y-127159257D01*
X133253600Y-126542800D01*
X133101200Y-126390400D01*
X131706400Y-126390400D01*
X131401600Y-126390400D01*
X130006800Y-126390400D01*
X129854400Y-126542800D01*
X115143336Y-126542800D01*
X115137931Y-125272800D01*
X116650400Y-125272800D01*
X116650400Y-125939257D01*
X116743206Y-126163311D01*
X116914689Y-126334794D01*
X117138743Y-126427600D01*
X117805200Y-126427600D01*
X117957600Y-126275200D01*
X117957600Y-125120400D01*
X118262400Y-125120400D01*
X118262400Y-126275200D01*
X118414800Y-126427600D01*
X119081257Y-126427600D01*
X119305311Y-126334794D01*
X119476794Y-126163311D01*
X119569600Y-125939257D01*
X119569600Y-125272800D01*
X119417200Y-125120400D01*
X118262400Y-125120400D01*
X117957600Y-125120400D01*
X116802800Y-125120400D01*
X116650400Y-125272800D01*
X115137931Y-125272800D01*
X115132501Y-123996743D01*
X116650400Y-123996743D01*
X116650400Y-124663200D01*
X116802800Y-124815600D01*
X117957600Y-124815600D01*
X117957600Y-123660800D01*
X118262400Y-123660800D01*
X118262400Y-124815600D01*
X119417200Y-124815600D01*
X119468000Y-124764800D01*
X120460400Y-124764800D01*
X120460400Y-125431257D01*
X120553206Y-125655311D01*
X120724689Y-125826794D01*
X120948743Y-125919600D01*
X121615200Y-125919600D01*
X121767600Y-125767200D01*
X121767600Y-124612400D01*
X122072400Y-124612400D01*
X122072400Y-125767200D01*
X122224800Y-125919600D01*
X122891257Y-125919600D01*
X123115311Y-125826794D01*
X123286794Y-125655311D01*
X123379600Y-125431257D01*
X123379600Y-125316743D01*
X129854400Y-125316743D01*
X129854400Y-125933200D01*
X130006800Y-126085600D01*
X131401600Y-126085600D01*
X131401600Y-124980800D01*
X131706400Y-124980800D01*
X131706400Y-126085600D01*
X133101200Y-126085600D01*
X133253600Y-125933200D01*
X133253600Y-125316743D01*
X133160794Y-125092689D01*
X132989311Y-124921206D01*
X132765257Y-124828400D01*
X131858800Y-124828400D01*
X131706400Y-124980800D01*
X131401600Y-124980800D01*
X131249200Y-124828400D01*
X130342743Y-124828400D01*
X130118689Y-124921206D01*
X129947206Y-125092689D01*
X129854400Y-125316743D01*
X123379600Y-125316743D01*
X123379600Y-124764800D01*
X123227200Y-124612400D01*
X122072400Y-124612400D01*
X121767600Y-124612400D01*
X120612800Y-124612400D01*
X120460400Y-124764800D01*
X119468000Y-124764800D01*
X119569600Y-124663200D01*
X119569600Y-124542400D01*
X123371400Y-124542400D01*
X123371400Y-124661257D01*
X123464206Y-124885311D01*
X123635689Y-125056794D01*
X123859743Y-125149600D01*
X123941100Y-125149600D01*
X124093500Y-124997200D01*
X124093500Y-124390000D01*
X124318500Y-124390000D01*
X124318500Y-124997200D01*
X124470900Y-125149600D01*
X124552257Y-125149600D01*
X124776311Y-125056794D01*
X124947794Y-124885311D01*
X125040600Y-124661257D01*
X125040600Y-124542400D01*
X124888200Y-124390000D01*
X124318500Y-124390000D01*
X124093500Y-124390000D01*
X123523800Y-124390000D01*
X123371400Y-124542400D01*
X119569600Y-124542400D01*
X119569600Y-123996743D01*
X119476794Y-123772689D01*
X119305311Y-123601206D01*
X119081257Y-123508400D01*
X118414800Y-123508400D01*
X118262400Y-123660800D01*
X117957600Y-123660800D01*
X117805200Y-123508400D01*
X117138743Y-123508400D01*
X116914689Y-123601206D01*
X116743206Y-123772689D01*
X116650400Y-123996743D01*
X115132501Y-123996743D01*
X115103344Y-117144800D01*
X117832400Y-117144800D01*
X117832400Y-117561257D01*
X117925206Y-117785311D01*
X118096689Y-117956794D01*
X118320743Y-118049600D01*
X118737200Y-118049600D01*
X118889600Y-117897200D01*
X118889600Y-116992400D01*
X117984800Y-116992400D01*
X117832400Y-117144800D01*
X115103344Y-117144800D01*
X115098978Y-116118743D01*
X117832400Y-116118743D01*
X117832400Y-116535200D01*
X117984800Y-116687600D01*
X118889600Y-116687600D01*
X118889600Y-115782800D01*
X118737200Y-115630400D01*
X118320743Y-115630400D01*
X118096689Y-115723206D01*
X117925206Y-115894689D01*
X117832400Y-116118743D01*
X115098978Y-116118743D01*
X115037033Y-101561900D01*
X117383182Y-101561900D01*
X117442327Y-101681278D01*
X118173126Y-101952703D01*
X118952167Y-101923802D01*
X119537673Y-101681278D01*
X119596818Y-101561900D01*
X120088072Y-101561900D01*
X119695236Y-101954736D01*
X119476729Y-102281755D01*
X119399999Y-102667500D01*
X119400000Y-102667505D01*
X119400000Y-104402000D01*
X118364000Y-104402000D01*
X117978255Y-104478729D01*
X117651236Y-104697236D01*
X117432729Y-105024255D01*
X117356000Y-105410000D01*
X117432729Y-105795745D01*
X117651236Y-106122764D01*
X117978255Y-106341271D01*
X118364000Y-106418000D01*
X119400000Y-106418000D01*
X119400000Y-106647620D01*
X119270847Y-106730728D01*
X119154855Y-106900488D01*
X119114048Y-107102000D01*
X119114048Y-107344000D01*
X118212000Y-107344000D01*
X117921926Y-107401699D01*
X117676013Y-107566013D01*
X117066013Y-108176013D01*
X116901699Y-108421926D01*
X116844000Y-108712000D01*
X116844000Y-110456000D01*
X116859048Y-110531652D01*
X116859048Y-110756000D01*
X116894470Y-110944253D01*
X117005728Y-111117153D01*
X117175488Y-111233145D01*
X117377000Y-111273952D01*
X117827000Y-111273952D01*
X118015253Y-111238530D01*
X118188153Y-111127272D01*
X118304145Y-110957512D01*
X118344952Y-110756000D01*
X118344952Y-110531652D01*
X118360000Y-110456000D01*
X118360000Y-109025974D01*
X118525974Y-108860000D01*
X119114048Y-108860000D01*
X119114048Y-109102000D01*
X119149470Y-109290253D01*
X119260728Y-109463153D01*
X119430488Y-109579145D01*
X119632000Y-109619952D01*
X119892149Y-109619952D01*
X119759199Y-109818926D01*
X119701500Y-110109000D01*
X119701500Y-113538000D01*
X119722585Y-113644000D01*
X118525974Y-113644000D01*
X118360000Y-113478026D01*
X118360000Y-112556000D01*
X118344952Y-112480348D01*
X118344952Y-112256000D01*
X118309530Y-112067747D01*
X118198272Y-111894847D01*
X118028512Y-111778855D01*
X117827000Y-111738048D01*
X117377000Y-111738048D01*
X117188747Y-111773470D01*
X117015847Y-111884728D01*
X116899855Y-112054488D01*
X116859048Y-112256000D01*
X116859048Y-112480348D01*
X116844000Y-112556000D01*
X116844000Y-113792000D01*
X116901699Y-114082074D01*
X117066013Y-114327987D01*
X117676013Y-114937987D01*
X117921926Y-115102301D01*
X118212000Y-115160000D01*
X120264048Y-115160000D01*
X120264048Y-115402000D01*
X120299470Y-115590253D01*
X120410728Y-115763153D01*
X120427309Y-115774482D01*
X120280847Y-115868728D01*
X120198164Y-115989738D01*
X120158794Y-115894689D01*
X119987311Y-115723206D01*
X119763257Y-115630400D01*
X119346800Y-115630400D01*
X119194400Y-115782800D01*
X119194400Y-116687600D01*
X119214400Y-116687600D01*
X119214400Y-116992400D01*
X119194400Y-116992400D01*
X119194400Y-117897200D01*
X119346800Y-118049600D01*
X119763257Y-118049600D01*
X119987311Y-117956794D01*
X120158794Y-117785311D01*
X120198637Y-117689121D01*
X120270728Y-117801153D01*
X120440488Y-117917145D01*
X120642000Y-117957952D01*
X121842000Y-117957952D01*
X122030253Y-117922530D01*
X122203153Y-117811272D01*
X122236227Y-117762867D01*
X122242488Y-117767145D01*
X122444000Y-117807952D01*
X122944000Y-117807952D01*
X123132253Y-117772530D01*
X123305153Y-117661272D01*
X123349081Y-117596981D01*
X123481236Y-117794764D01*
X123862234Y-118175761D01*
X123862236Y-118175764D01*
X124136850Y-118359255D01*
X124189255Y-118394271D01*
X124575000Y-118471000D01*
X130945000Y-118471000D01*
X130945000Y-121668621D01*
X130687745Y-121496729D01*
X130302000Y-121419999D01*
X130241667Y-121432000D01*
X126909528Y-121432000D01*
X126904764Y-121427236D01*
X126577745Y-121208729D01*
X126192000Y-121131999D01*
X126191995Y-121132000D01*
X123021950Y-121132000D01*
X122906856Y-120959749D01*
X122466289Y-120665372D01*
X121946605Y-120562000D01*
X121893395Y-120562000D01*
X121891985Y-120562280D01*
X121853745Y-120536729D01*
X121468000Y-120459999D01*
X121467995Y-120460000D01*
X119025394Y-120460000D01*
X118656289Y-120213372D01*
X118136605Y-120110000D01*
X118083395Y-120110000D01*
X117563711Y-120213372D01*
X117123144Y-120507749D01*
X116828767Y-120948316D01*
X116725395Y-121468000D01*
X116828767Y-121987684D01*
X117123144Y-122428251D01*
X117563711Y-122722628D01*
X118083395Y-122826000D01*
X118136605Y-122826000D01*
X118656289Y-122722628D01*
X119025394Y-122476000D01*
X120663033Y-122476000D01*
X120933144Y-122880251D01*
X121112960Y-123000400D01*
X120948743Y-123000400D01*
X120724689Y-123093206D01*
X120553206Y-123264689D01*
X120460400Y-123488743D01*
X120460400Y-124155200D01*
X120612800Y-124307600D01*
X121767600Y-124307600D01*
X121767600Y-124287600D01*
X122072400Y-124287600D01*
X122072400Y-124307600D01*
X123227200Y-124307600D01*
X123290000Y-124244800D01*
X125507400Y-124244800D01*
X125507400Y-124461257D01*
X125600206Y-124685311D01*
X125771689Y-124856794D01*
X125995743Y-124949600D01*
X126187200Y-124949600D01*
X126339600Y-124797200D01*
X126339600Y-124092400D01*
X126644400Y-124092400D01*
X126644400Y-124797200D01*
X126796800Y-124949600D01*
X126988257Y-124949600D01*
X127212311Y-124856794D01*
X127383794Y-124685311D01*
X127476600Y-124461257D01*
X127476600Y-124244800D01*
X127324200Y-124092400D01*
X126644400Y-124092400D01*
X126339600Y-124092400D01*
X125659800Y-124092400D01*
X125507400Y-124244800D01*
X123290000Y-124244800D01*
X123379600Y-124155200D01*
X123379600Y-123945800D01*
X123523800Y-124090000D01*
X124093500Y-124090000D01*
X124093500Y-123482800D01*
X124318500Y-123482800D01*
X124318500Y-124090000D01*
X124888200Y-124090000D01*
X125040600Y-123937600D01*
X125040600Y-123818743D01*
X124947794Y-123594689D01*
X124776311Y-123423206D01*
X124552257Y-123330400D01*
X124470900Y-123330400D01*
X124318500Y-123482800D01*
X124093500Y-123482800D01*
X123941100Y-123330400D01*
X123859743Y-123330400D01*
X123635689Y-123423206D01*
X123464206Y-123594689D01*
X123379600Y-123798946D01*
X123379600Y-123488743D01*
X123286794Y-123264689D01*
X123170105Y-123148000D01*
X125646895Y-123148000D01*
X125600206Y-123194689D01*
X125507400Y-123418743D01*
X125507400Y-123635200D01*
X125659800Y-123787600D01*
X126339600Y-123787600D01*
X126339600Y-123767600D01*
X126644400Y-123767600D01*
X126644400Y-123787600D01*
X127324200Y-123787600D01*
X127476600Y-123635200D01*
X127476600Y-123448000D01*
X130289995Y-123448000D01*
X130290000Y-123448001D01*
X130675745Y-123371271D01*
X130945000Y-123191361D01*
X130945000Y-123253500D01*
X131021729Y-123639245D01*
X131240236Y-123966264D01*
X131567255Y-124184771D01*
X131953000Y-124261500D01*
X132338745Y-124184771D01*
X132512252Y-124068837D01*
X132648401Y-124272599D01*
X135061399Y-126685596D01*
X135061401Y-126685599D01*
X135208485Y-126783877D01*
X135266761Y-126822816D01*
X135509000Y-126871000D01*
X139126048Y-126871000D01*
X139126048Y-127038000D01*
X139161470Y-127226253D01*
X139272728Y-127399153D01*
X139442488Y-127515145D01*
X139644000Y-127555952D01*
X141824000Y-127555952D01*
X142012253Y-127520530D01*
X142185153Y-127409272D01*
X142243826Y-127323401D01*
X142296807Y-127358962D01*
X142682391Y-127436498D01*
X143068296Y-127360576D01*
X143963409Y-126992000D01*
X146512006Y-126992000D01*
X146511860Y-127160016D01*
X146634611Y-127457097D01*
X146687000Y-127509578D01*
X146687000Y-128334482D01*
X146359749Y-128553144D01*
X146065372Y-128993711D01*
X146050000Y-129070991D01*
X146034628Y-128993711D01*
X145740251Y-128553144D01*
X145299684Y-128258767D01*
X144780000Y-128155395D01*
X144260316Y-128258767D01*
X143819749Y-128553144D01*
X143607952Y-128870121D01*
X143607952Y-128690000D01*
X143572530Y-128501747D01*
X143461272Y-128328847D01*
X143291512Y-128212855D01*
X143090000Y-128172048D01*
X141390000Y-128172048D01*
X141201747Y-128207470D01*
X141028847Y-128318728D01*
X140912855Y-128488488D01*
X140872048Y-128690000D01*
X140872048Y-130390000D01*
X140907470Y-130578253D01*
X141018728Y-130751153D01*
X141188488Y-130867145D01*
X141390000Y-130907952D01*
X143090000Y-130907952D01*
X143278253Y-130872530D01*
X143451153Y-130761272D01*
X143567145Y-130591512D01*
X143607952Y-130390000D01*
X143607952Y-130209879D01*
X143819749Y-130526856D01*
X144260316Y-130821233D01*
X144780000Y-130924605D01*
X145299684Y-130821233D01*
X145740251Y-130526856D01*
X146034628Y-130086289D01*
X146050000Y-130009009D01*
X146065372Y-130086289D01*
X146359749Y-130526856D01*
X146800316Y-130821233D01*
X147320000Y-130924605D01*
X147839684Y-130821233D01*
X148280251Y-130526856D01*
X148574628Y-130086289D01*
X148590000Y-130009009D01*
X148605372Y-130086289D01*
X148899749Y-130526856D01*
X149340316Y-130821233D01*
X149860000Y-130924605D01*
X150379684Y-130821233D01*
X150820251Y-130526856D01*
X151114628Y-130086289D01*
X151130000Y-130009009D01*
X151145372Y-130086289D01*
X151439749Y-130526856D01*
X151880316Y-130821233D01*
X152400000Y-130924605D01*
X152919684Y-130821233D01*
X153360251Y-130526856D01*
X153630811Y-130121934D01*
X153781908Y-130428419D01*
X154210046Y-130803975D01*
X154562393Y-130949910D01*
X154787600Y-130838286D01*
X154787600Y-129692400D01*
X155092400Y-129692400D01*
X155092400Y-130838286D01*
X155317607Y-130949910D01*
X155669954Y-130803975D01*
X156098092Y-130428419D01*
X156210000Y-130201425D01*
X156321908Y-130428419D01*
X156750046Y-130803975D01*
X157102393Y-130949910D01*
X157327600Y-130838286D01*
X157327600Y-129692400D01*
X155092400Y-129692400D01*
X154787600Y-129692400D01*
X154767600Y-129692400D01*
X154767600Y-129387600D01*
X154787600Y-129387600D01*
X154787600Y-129367600D01*
X155092400Y-129367600D01*
X155092400Y-129387600D01*
X157327600Y-129387600D01*
X157327600Y-129367600D01*
X157632400Y-129367600D01*
X157632400Y-129387600D01*
X157652400Y-129387600D01*
X157652400Y-129692400D01*
X157632400Y-129692400D01*
X157632400Y-130838286D01*
X157857607Y-130949910D01*
X158209954Y-130803975D01*
X158638092Y-130428419D01*
X158789189Y-130121934D01*
X159059749Y-130526856D01*
X159500316Y-130821233D01*
X160020000Y-130924605D01*
X160539684Y-130821233D01*
X160980251Y-130526856D01*
X161274628Y-130086289D01*
X161378000Y-129566605D01*
X161378000Y-129513395D01*
X161274628Y-128993711D01*
X161234334Y-128933407D01*
X161480838Y-128933281D01*
X161600434Y-128909428D01*
X161720468Y-128886039D01*
X161721657Y-128885252D01*
X161723053Y-128884973D01*
X161824510Y-128817106D01*
X161926363Y-128749624D01*
X161986454Y-128690000D01*
X163732048Y-128690000D01*
X163732048Y-130390000D01*
X163767470Y-130578253D01*
X163878728Y-130751153D01*
X164048488Y-130867145D01*
X164250000Y-130907952D01*
X165950000Y-130907952D01*
X166138253Y-130872530D01*
X166311153Y-130761272D01*
X166427145Y-130591512D01*
X166467952Y-130390000D01*
X166467952Y-130209879D01*
X166679749Y-130526856D01*
X167120316Y-130821233D01*
X167640000Y-130924605D01*
X168159684Y-130821233D01*
X168600251Y-130526856D01*
X168894628Y-130086289D01*
X168910000Y-130009009D01*
X168925372Y-130086289D01*
X169219749Y-130526856D01*
X169660316Y-130821233D01*
X170180000Y-130924605D01*
X170699684Y-130821233D01*
X171140251Y-130526856D01*
X171434628Y-130086289D01*
X171450000Y-130009009D01*
X171465372Y-130086289D01*
X171759749Y-130526856D01*
X172200316Y-130821233D01*
X172720000Y-130924605D01*
X173239684Y-130821233D01*
X173680251Y-130526856D01*
X173974628Y-130086289D01*
X173990000Y-130009009D01*
X174005372Y-130086289D01*
X174299749Y-130526856D01*
X174740316Y-130821233D01*
X175260000Y-130924605D01*
X175779684Y-130821233D01*
X176220251Y-130526856D01*
X176514628Y-130086289D01*
X176530000Y-130009009D01*
X176545372Y-130086289D01*
X176839749Y-130526856D01*
X177280316Y-130821233D01*
X177800000Y-130924605D01*
X178319684Y-130821233D01*
X178760251Y-130526856D01*
X179054628Y-130086289D01*
X179158000Y-129566605D01*
X179158000Y-129513395D01*
X179054628Y-128993711D01*
X178760251Y-128553144D01*
X178319684Y-128258767D01*
X177800000Y-128155395D01*
X177280316Y-128258767D01*
X176839749Y-128553144D01*
X176545372Y-128993711D01*
X176530000Y-129070991D01*
X176514628Y-128993711D01*
X176220251Y-128553144D01*
X175779684Y-128258767D01*
X175260000Y-128155395D01*
X174740316Y-128258767D01*
X174299749Y-128553144D01*
X174005372Y-128993711D01*
X173990000Y-129070991D01*
X173974628Y-128993711D01*
X173680251Y-128553144D01*
X173239684Y-128258767D01*
X172720000Y-128155395D01*
X172200316Y-128258767D01*
X171759749Y-128553144D01*
X171465372Y-128993711D01*
X171450000Y-129070991D01*
X171434628Y-128993711D01*
X171140251Y-128553144D01*
X170699684Y-128258767D01*
X170180000Y-128155395D01*
X169660316Y-128258767D01*
X169219749Y-128553144D01*
X168925372Y-128993711D01*
X168910000Y-129070991D01*
X168894628Y-128993711D01*
X168600251Y-128553144D01*
X168159684Y-128258767D01*
X167640000Y-128155395D01*
X167120316Y-128258767D01*
X166679749Y-128553144D01*
X166467952Y-128870121D01*
X166467952Y-128690000D01*
X166432530Y-128501747D01*
X166321272Y-128328847D01*
X166151512Y-128212855D01*
X165950000Y-128172048D01*
X164250000Y-128172048D01*
X164061747Y-128207470D01*
X163888847Y-128318728D01*
X163772855Y-128488488D01*
X163732048Y-128690000D01*
X161986454Y-128690000D01*
X162929648Y-127754143D01*
X162930352Y-127753099D01*
X162931399Y-127752399D01*
X162999346Y-127650709D01*
X163067666Y-127549320D01*
X163067916Y-127548086D01*
X163068616Y-127547039D01*
X163092450Y-127427216D01*
X163116796Y-127307271D01*
X163116555Y-127306033D01*
X163116800Y-127304800D01*
X163116800Y-125397681D01*
X163117707Y-125398590D01*
X163414574Y-125521860D01*
X163736016Y-125522140D01*
X164033097Y-125399389D01*
X164260590Y-125172293D01*
X164352303Y-124951423D01*
X164478710Y-125109432D01*
X164505757Y-125132200D01*
X164525401Y-125161599D01*
X164599492Y-125211105D01*
X164667661Y-125268489D01*
X164701365Y-125279174D01*
X164730761Y-125298816D01*
X164818152Y-125316199D01*
X164903097Y-125343129D01*
X164938325Y-125340103D01*
X164973000Y-125347000D01*
X165225207Y-125347000D01*
X165276707Y-125398590D01*
X165573574Y-125521860D01*
X165895016Y-125522140D01*
X166192097Y-125399389D01*
X166419590Y-125172293D01*
X166542860Y-124875426D01*
X166543002Y-124712000D01*
X167283822Y-124712000D01*
X167466868Y-124864538D01*
X167466860Y-124874016D01*
X167589611Y-125171097D01*
X167816707Y-125398590D01*
X168113574Y-125521860D01*
X168435016Y-125522140D01*
X168732097Y-125399389D01*
X168959590Y-125172293D01*
X169082860Y-124875426D01*
X169083066Y-124639263D01*
X169097399Y-124653596D01*
X169097401Y-124653599D01*
X169302761Y-124790816D01*
X169334856Y-124797200D01*
X169545000Y-124839001D01*
X169545005Y-124839000D01*
X169879891Y-124839000D01*
X169879860Y-124874016D01*
X170002611Y-125171097D01*
X170229707Y-125398590D01*
X170526574Y-125521860D01*
X170848016Y-125522140D01*
X171145097Y-125399389D01*
X171372590Y-125172293D01*
X171495860Y-124875426D01*
X171496140Y-124553984D01*
X171466815Y-124483013D01*
X171637399Y-124653596D01*
X171637401Y-124653599D01*
X171842761Y-124790816D01*
X172085000Y-124839000D01*
X172165891Y-124839000D01*
X172165860Y-124874016D01*
X172288611Y-125171097D01*
X172515707Y-125398590D01*
X172812574Y-125521860D01*
X173134016Y-125522140D01*
X173431097Y-125399389D01*
X173658590Y-125172293D01*
X173781860Y-124875426D01*
X173782140Y-124553984D01*
X173690005Y-124331000D01*
X174308500Y-124331000D01*
X174579019Y-124691692D01*
X174578860Y-124874016D01*
X174701611Y-125171097D01*
X174928707Y-125398590D01*
X175225574Y-125521860D01*
X175547016Y-125522140D01*
X175844097Y-125399389D01*
X176071590Y-125172293D01*
X176194860Y-124875426D01*
X176195140Y-124553984D01*
X176072389Y-124256903D01*
X175845293Y-124029410D01*
X175583178Y-123920570D01*
X175131400Y-123318200D01*
X175097727Y-123288008D01*
X175072599Y-123250401D01*
X175006602Y-123206304D01*
X174947509Y-123153319D01*
X174904844Y-123138311D01*
X174867239Y-123113184D01*
X174789397Y-123097700D01*
X174714520Y-123071361D01*
X174669356Y-123073823D01*
X174625000Y-123065000D01*
X172543199Y-123065000D01*
X172220601Y-122742401D01*
X172015241Y-122605184D01*
X171773002Y-122556999D01*
X171772997Y-122557000D01*
X170315197Y-122557000D01*
X170223720Y-122465522D01*
X170223720Y-116375371D01*
X170356707Y-116508590D01*
X170653574Y-116631860D01*
X170975016Y-116632140D01*
X171272097Y-116509389D01*
X171481917Y-116299936D01*
X171690207Y-116508590D01*
X171987074Y-116631860D01*
X172308516Y-116632140D01*
X172605597Y-116509389D01*
X172751806Y-116363435D01*
X172896707Y-116508590D01*
X173193574Y-116631860D01*
X173515016Y-116632140D01*
X173812097Y-116509389D01*
X174039590Y-116282293D01*
X174162860Y-115985426D01*
X174163140Y-115663984D01*
X174129486Y-115582536D01*
X174188832Y-115544348D01*
X174257111Y-115709597D01*
X174484207Y-115937090D01*
X174781074Y-116060360D01*
X175102516Y-116060640D01*
X175399597Y-115937889D01*
X175452078Y-115885500D01*
X177421000Y-115885500D01*
X177421000Y-118935495D01*
X177420999Y-118935500D01*
X177469184Y-119177739D01*
X177606401Y-119383099D01*
X178050901Y-119827599D01*
X178256261Y-119964816D01*
X178296452Y-119972810D01*
X178498500Y-120013001D01*
X178498505Y-120013000D01*
X179134482Y-120013000D01*
X179353144Y-120340251D01*
X179793711Y-120634628D01*
X180313395Y-120738000D01*
X180366605Y-120738000D01*
X180886289Y-120634628D01*
X181326856Y-120340251D01*
X181621233Y-119899684D01*
X181724605Y-119380000D01*
X181621233Y-118860316D01*
X181326856Y-118419749D01*
X180886289Y-118125372D01*
X180809009Y-118110000D01*
X180886289Y-118094628D01*
X181326856Y-117800251D01*
X181621233Y-117359684D01*
X181724605Y-116840000D01*
X181621233Y-116320316D01*
X181326856Y-115879749D01*
X181009879Y-115667952D01*
X181190000Y-115667952D01*
X181378253Y-115632530D01*
X181551153Y-115521272D01*
X181667145Y-115351512D01*
X181707952Y-115150000D01*
X181707952Y-113450000D01*
X181672530Y-113261747D01*
X181561272Y-113088847D01*
X181391512Y-112972855D01*
X181190000Y-112932048D01*
X179490000Y-112932048D01*
X179301747Y-112967470D01*
X179128847Y-113078728D01*
X179013262Y-113247892D01*
X178938250Y-113066348D01*
X179492196Y-112512401D01*
X179492199Y-112512399D01*
X179629416Y-112307039D01*
X179648221Y-112212499D01*
X179677601Y-112064800D01*
X179677600Y-112064795D01*
X179677600Y-107949519D01*
X179962391Y-108089921D01*
X180187600Y-107979234D01*
X180187600Y-106832400D01*
X180492400Y-106832400D01*
X180492400Y-107979234D01*
X180717609Y-108089921D01*
X181228419Y-107838092D01*
X181603975Y-107409954D01*
X181749910Y-107057607D01*
X181638286Y-106832400D01*
X180492400Y-106832400D01*
X180187600Y-106832400D01*
X180167600Y-106832400D01*
X180167600Y-106527600D01*
X180187600Y-106527600D01*
X180187600Y-106507600D01*
X180492400Y-106507600D01*
X180492400Y-106527600D01*
X181638286Y-106527600D01*
X181749910Y-106302393D01*
X181603975Y-105950046D01*
X181228419Y-105521908D01*
X180921934Y-105370811D01*
X181326856Y-105100251D01*
X181621233Y-104659684D01*
X181724605Y-104140000D01*
X181621233Y-103620316D01*
X181326856Y-103179749D01*
X180886289Y-102885372D01*
X180809009Y-102870000D01*
X180886289Y-102854628D01*
X181326856Y-102560251D01*
X181621233Y-102119684D01*
X181724605Y-101600000D01*
X181621233Y-101080316D01*
X181326856Y-100639749D01*
X180886289Y-100345372D01*
X180366605Y-100242000D01*
X180313395Y-100242000D01*
X179793711Y-100345372D01*
X179353144Y-100639749D01*
X179167952Y-100916909D01*
X179167952Y-100750000D01*
X179132530Y-100561747D01*
X179021272Y-100388847D01*
X178851512Y-100272855D01*
X178650000Y-100232048D01*
X177072130Y-100232048D01*
X177863511Y-98570148D01*
X177867589Y-98554049D01*
X177876816Y-98540239D01*
X177897775Y-98434872D01*
X177924154Y-98330724D01*
X177921760Y-98314288D01*
X177925000Y-98298000D01*
X177925000Y-91796178D01*
X179048284Y-90448237D01*
X179093850Y-90364508D01*
X179146816Y-90285239D01*
X179152477Y-90256780D01*
X179166345Y-90231297D01*
X179176402Y-90136499D01*
X179195000Y-90043000D01*
X179195000Y-85598000D01*
X179146816Y-85355761D01*
X179009599Y-85150401D01*
X179009596Y-85150399D01*
X178628599Y-84769401D01*
X178423239Y-84632184D01*
X178181000Y-84583999D01*
X178180995Y-84584000D01*
X158847952Y-84584000D01*
X158847952Y-82970000D01*
X158812530Y-82781747D01*
X158701272Y-82608847D01*
X158531512Y-82492855D01*
X158330000Y-82452048D01*
X157643494Y-82452048D01*
X157573776Y-82312612D01*
X157550428Y-82265917D01*
X157577952Y-82130000D01*
X157577952Y-81253395D01*
X158662000Y-81253395D01*
X158662000Y-81306605D01*
X158765372Y-81826289D01*
X159059749Y-82266856D01*
X159500316Y-82561233D01*
X160020000Y-82664605D01*
X160539684Y-82561233D01*
X160980251Y-82266856D01*
X161274628Y-81826289D01*
X161290000Y-81749009D01*
X161305372Y-81826289D01*
X161599749Y-82266856D01*
X162040316Y-82561233D01*
X162560000Y-82664605D01*
X163079684Y-82561233D01*
X163520251Y-82266856D01*
X163814628Y-81826289D01*
X163830000Y-81749009D01*
X163845372Y-81826289D01*
X164139749Y-82266856D01*
X164580316Y-82561233D01*
X165100000Y-82664605D01*
X165619684Y-82561233D01*
X166060251Y-82266856D01*
X166354628Y-81826289D01*
X166370000Y-81749009D01*
X166385372Y-81826289D01*
X166679749Y-82266856D01*
X167120316Y-82561233D01*
X167640000Y-82664605D01*
X168159684Y-82561233D01*
X168600251Y-82266856D01*
X168894628Y-81826289D01*
X168910000Y-81749009D01*
X168925372Y-81826289D01*
X169219749Y-82266856D01*
X169660316Y-82561233D01*
X170180000Y-82664605D01*
X170699684Y-82561233D01*
X171140251Y-82266856D01*
X171434628Y-81826289D01*
X171450000Y-81749009D01*
X171465372Y-81826289D01*
X171759749Y-82266856D01*
X172200316Y-82561233D01*
X172720000Y-82664605D01*
X173239684Y-82561233D01*
X173680251Y-82266856D01*
X173974628Y-81826289D01*
X173990000Y-81749009D01*
X174005372Y-81826289D01*
X174299749Y-82266856D01*
X174740316Y-82561233D01*
X175260000Y-82664605D01*
X175779684Y-82561233D01*
X176220251Y-82266856D01*
X176432048Y-81949879D01*
X176432048Y-82130000D01*
X176467470Y-82318253D01*
X176578728Y-82491153D01*
X176748488Y-82607145D01*
X176950000Y-82647952D01*
X178650000Y-82647952D01*
X178838253Y-82612530D01*
X179011153Y-82501272D01*
X179127145Y-82331512D01*
X179167952Y-82130000D01*
X179167952Y-80430000D01*
X179132530Y-80241747D01*
X179021272Y-80068847D01*
X178851512Y-79952855D01*
X178650000Y-79912048D01*
X176950000Y-79912048D01*
X176761747Y-79947470D01*
X176588847Y-80058728D01*
X176472855Y-80228488D01*
X176432048Y-80430000D01*
X176432048Y-80610121D01*
X176220251Y-80293144D01*
X175779684Y-79998767D01*
X175260000Y-79895395D01*
X174740316Y-79998767D01*
X174299749Y-80293144D01*
X174005372Y-80733711D01*
X173990000Y-80810991D01*
X173974628Y-80733711D01*
X173680251Y-80293144D01*
X173239684Y-79998767D01*
X172720000Y-79895395D01*
X172200316Y-79998767D01*
X171759749Y-80293144D01*
X171465372Y-80733711D01*
X171450000Y-80810991D01*
X171434628Y-80733711D01*
X171140251Y-80293144D01*
X170699684Y-79998767D01*
X170180000Y-79895395D01*
X169660316Y-79998767D01*
X169219749Y-80293144D01*
X168925372Y-80733711D01*
X168910000Y-80810991D01*
X168894628Y-80733711D01*
X168600251Y-80293144D01*
X168159684Y-79998767D01*
X167640000Y-79895395D01*
X167120316Y-79998767D01*
X166679749Y-80293144D01*
X166385372Y-80733711D01*
X166370000Y-80810991D01*
X166354628Y-80733711D01*
X166060251Y-80293144D01*
X165619684Y-79998767D01*
X165100000Y-79895395D01*
X164580316Y-79998767D01*
X164139749Y-80293144D01*
X163845372Y-80733711D01*
X163830000Y-80810991D01*
X163814628Y-80733711D01*
X163520251Y-80293144D01*
X163079684Y-79998767D01*
X162560000Y-79895395D01*
X162040316Y-79998767D01*
X161599749Y-80293144D01*
X161305372Y-80733711D01*
X161290000Y-80810991D01*
X161274628Y-80733711D01*
X160980251Y-80293144D01*
X160539684Y-79998767D01*
X160020000Y-79895395D01*
X159500316Y-79998767D01*
X159059749Y-80293144D01*
X158765372Y-80733711D01*
X158662000Y-81253395D01*
X157577952Y-81253395D01*
X157577952Y-80430000D01*
X157542530Y-80241747D01*
X157431272Y-80068847D01*
X157261512Y-79952855D01*
X157060000Y-79912048D01*
X155360000Y-79912048D01*
X155171747Y-79947470D01*
X154998847Y-80058728D01*
X154882855Y-80228488D01*
X154842048Y-80430000D01*
X154842048Y-80610121D01*
X154630251Y-80293144D01*
X154189684Y-79998767D01*
X153670000Y-79895395D01*
X153150316Y-79998767D01*
X152709749Y-80293144D01*
X152415372Y-80733711D01*
X152400000Y-80810991D01*
X152384628Y-80733711D01*
X152090251Y-80293144D01*
X151649684Y-79998767D01*
X151130000Y-79895395D01*
X150610316Y-79998767D01*
X150169749Y-80293144D01*
X149875372Y-80733711D01*
X149860000Y-80810991D01*
X149844628Y-80733711D01*
X149550251Y-80293144D01*
X149109684Y-79998767D01*
X148590000Y-79895395D01*
X148070316Y-79998767D01*
X147629749Y-80293144D01*
X147335372Y-80733711D01*
X147320000Y-80810991D01*
X147304628Y-80733711D01*
X147010251Y-80293144D01*
X146569684Y-79998767D01*
X146050000Y-79895395D01*
X145530316Y-79998767D01*
X145089749Y-80293144D01*
X144795372Y-80733711D01*
X144780000Y-80810991D01*
X144764628Y-80733711D01*
X144470251Y-80293144D01*
X144029684Y-79998767D01*
X143510000Y-79895395D01*
X142990316Y-79998767D01*
X142549749Y-80293144D01*
X142279189Y-80698066D01*
X142128092Y-80391581D01*
X141699954Y-80016025D01*
X141347607Y-79870090D01*
X141122400Y-79981714D01*
X141122400Y-81127600D01*
X141142400Y-81127600D01*
X141142400Y-81432400D01*
X141122400Y-81432400D01*
X141122400Y-82578286D01*
X141347607Y-82689910D01*
X141366190Y-82682213D01*
X141081908Y-82931581D01*
X140930811Y-83238066D01*
X140660251Y-82833144D01*
X140219684Y-82538767D01*
X139923471Y-82479846D01*
X139755058Y-82109337D01*
X139737048Y-82084268D01*
X139727611Y-82054883D01*
X139638755Y-81894943D01*
X139660811Y-81861934D01*
X139811908Y-82168419D01*
X140240046Y-82543975D01*
X140592393Y-82689910D01*
X140817600Y-82578286D01*
X140817600Y-81432400D01*
X140797600Y-81432400D01*
X140797600Y-81127600D01*
X140817600Y-81127600D01*
X140817600Y-79981714D01*
X140592393Y-79870090D01*
X140240046Y-80016025D01*
X139811908Y-80391581D01*
X139660811Y-80698066D01*
X139390251Y-80293144D01*
X138949684Y-79998767D01*
X138430000Y-79895395D01*
X137910316Y-79998767D01*
X137469749Y-80293144D01*
X137175372Y-80733711D01*
X137160000Y-80810991D01*
X137144628Y-80733711D01*
X136850251Y-80293144D01*
X136409684Y-79998767D01*
X135890000Y-79895395D01*
X135370316Y-79998767D01*
X134929749Y-80293144D01*
X134635372Y-80733711D01*
X134620000Y-80810991D01*
X134604628Y-80733711D01*
X134310251Y-80293144D01*
X133869684Y-79998767D01*
X133350000Y-79895395D01*
X132830316Y-79998767D01*
X132389749Y-80293144D01*
X132095372Y-80733711D01*
X131992000Y-81253395D01*
X131992000Y-81306605D01*
X132095372Y-81826289D01*
X132389749Y-82266856D01*
X132830316Y-82561233D01*
X133177696Y-82630331D01*
X133307024Y-82888988D01*
X133442025Y-83158991D01*
X133365372Y-83273711D01*
X133262000Y-83793395D01*
X133262000Y-83846605D01*
X133365372Y-84366289D01*
X133659749Y-84806856D01*
X134100316Y-85101233D01*
X134620000Y-85204605D01*
X134876000Y-85153683D01*
X134876000Y-85257482D01*
X134870747Y-85258470D01*
X134787559Y-85312000D01*
X134218388Y-85312000D01*
X134200272Y-85283847D01*
X134030512Y-85167855D01*
X133829000Y-85127048D01*
X133379000Y-85127048D01*
X133190747Y-85162470D01*
X133017847Y-85273728D01*
X132901855Y-85443488D01*
X132861048Y-85645000D01*
X132861048Y-86245000D01*
X132896470Y-86433253D01*
X132932342Y-86489000D01*
X132458793Y-86489000D01*
X132510590Y-86437293D01*
X132633860Y-86140426D01*
X132634140Y-85818984D01*
X132511389Y-85521903D01*
X132284293Y-85294410D01*
X131987426Y-85171140D01*
X131665984Y-85170860D01*
X131368903Y-85293611D01*
X131304401Y-85358000D01*
X130329298Y-85358000D01*
X130191512Y-85263855D01*
X129990000Y-85223048D01*
X129090000Y-85223048D01*
X128901747Y-85258470D01*
X128728847Y-85369728D01*
X128612855Y-85539488D01*
X128572048Y-85741000D01*
X128572048Y-86108000D01*
X126246197Y-86108000D01*
X126000000Y-85861802D01*
X126000000Y-85137952D01*
X126457000Y-85137952D01*
X126645253Y-85102530D01*
X126818153Y-84991272D01*
X126934145Y-84821512D01*
X126974952Y-84620000D01*
X126974952Y-83020000D01*
X126939530Y-82831747D01*
X126828272Y-82658847D01*
X126658512Y-82542855D01*
X126457000Y-82502048D01*
X124277000Y-82502048D01*
X124088747Y-82537470D01*
X123915847Y-82648728D01*
X123799855Y-82818488D01*
X123759048Y-83020000D01*
X123759048Y-83187000D01*
X118880197Y-83187000D01*
X118741544Y-83048347D01*
X118735599Y-81978777D01*
X118859153Y-81899272D01*
X118975145Y-81729512D01*
X119015952Y-81528000D01*
X119015952Y-80778000D01*
X118980530Y-80589747D01*
X118869272Y-80416847D01*
X118699512Y-80300855D01*
X118498000Y-80260048D01*
X117698000Y-80260048D01*
X117509747Y-80295470D01*
X117429325Y-80347220D01*
X117343311Y-80261206D01*
X117119257Y-80168400D01*
X116902800Y-80168400D01*
X116750400Y-80320800D01*
X116750400Y-81000600D01*
X116770400Y-81000600D01*
X116770400Y-81305400D01*
X116750400Y-81305400D01*
X116750400Y-81985200D01*
X116902800Y-82137600D01*
X117119257Y-82137600D01*
X117343311Y-82044794D01*
X117429043Y-81959062D01*
X117469625Y-81986790D01*
X117472149Y-82441007D01*
X117398257Y-82410400D01*
X116491800Y-82410400D01*
X116339400Y-82562800D01*
X116339400Y-83667600D01*
X116359400Y-83667600D01*
X116359400Y-83972400D01*
X116339400Y-83972400D01*
X116339400Y-85077200D01*
X116491800Y-85229600D01*
X117398257Y-85229600D01*
X117622311Y-85136794D01*
X117793794Y-84965311D01*
X117886600Y-84741257D01*
X117886600Y-84124800D01*
X117734202Y-83972402D01*
X117875204Y-83972402D01*
X118170399Y-84267596D01*
X118170401Y-84267599D01*
X118375761Y-84404816D01*
X118618000Y-84453000D01*
X123759048Y-84453000D01*
X123759048Y-84620000D01*
X123794470Y-84808253D01*
X123905728Y-84981153D01*
X124075488Y-85097145D01*
X124277000Y-85137952D01*
X124734000Y-85137952D01*
X124734000Y-85483700D01*
X115163600Y-85483700D01*
X115163600Y-85229600D01*
X115882200Y-85229600D01*
X116034600Y-85077200D01*
X116034600Y-83972400D01*
X116014600Y-83972400D01*
X116014600Y-83667600D01*
X116034600Y-83667600D01*
X116034600Y-82562800D01*
X115882200Y-82410400D01*
X115163600Y-82410400D01*
X115163600Y-81457800D01*
X115588400Y-81457800D01*
X115588400Y-81649257D01*
X115681206Y-81873311D01*
X115852689Y-82044794D01*
X116076743Y-82137600D01*
X116293200Y-82137600D01*
X116445600Y-81985200D01*
X116445600Y-81305400D01*
X115740800Y-81305400D01*
X115588400Y-81457800D01*
X115163600Y-81457800D01*
X115163600Y-80656743D01*
X115588400Y-80656743D01*
X115588400Y-80848200D01*
X115740800Y-81000600D01*
X116445600Y-81000600D01*
X116445600Y-80320800D01*
X116293200Y-80168400D01*
X116076743Y-80168400D01*
X115852689Y-80261206D01*
X115681206Y-80432689D01*
X115588400Y-80656743D01*
X115163600Y-80656743D01*
X115163600Y-79970886D01*
X115797586Y-79336900D01*
X128722561Y-79336900D01*
X128347474Y-79491883D01*
G36*
X161850800Y-127041154D02*
X161351605Y-127536466D01*
X161429921Y-127377609D01*
X161319234Y-127152400D01*
X160172400Y-127152400D01*
X160172400Y-127172400D01*
X159867600Y-127172400D01*
X159867600Y-127152400D01*
X159847600Y-127152400D01*
X159847600Y-126847600D01*
X159867600Y-126847600D01*
X159867600Y-126827600D01*
X160172400Y-126827600D01*
X160172400Y-126847600D01*
X161319234Y-126847600D01*
X161429921Y-126622391D01*
X161215506Y-126187471D01*
X161222676Y-126183220D01*
X161850800Y-125619416D01*
X161850800Y-127041154D01*
X161850800Y-127041154D01*
G37*
X161850800Y-127041154D02*
X161351605Y-127536466D01*
X161429921Y-127377609D01*
X161319234Y-127152400D01*
X160172400Y-127152400D01*
X160172400Y-127172400D01*
X159867600Y-127172400D01*
X159867600Y-127152400D01*
X159847600Y-127152400D01*
X159847600Y-126847600D01*
X159867600Y-126847600D01*
X159867600Y-126827600D01*
X160172400Y-126827600D01*
X160172400Y-126847600D01*
X161319234Y-126847600D01*
X161429921Y-126622391D01*
X161215506Y-126187471D01*
X161222676Y-126183220D01*
X161850800Y-125619416D01*
X161850800Y-127041154D01*
G36*
X135003000Y-108584995D02*
X135002999Y-108585000D01*
X135051184Y-108827239D01*
X135188401Y-109032599D01*
X135823399Y-109667596D01*
X135823401Y-109667599D01*
X135870717Y-109699215D01*
X135878767Y-109739684D01*
X136173144Y-110180251D01*
X136578066Y-110450811D01*
X136271581Y-110601908D01*
X135896025Y-111030046D01*
X135750090Y-111382393D01*
X135861714Y-111607600D01*
X137007600Y-111607600D01*
X137007600Y-111587600D01*
X137312400Y-111587600D01*
X137312400Y-111607600D01*
X137332400Y-111607600D01*
X137332400Y-111912400D01*
X137312400Y-111912400D01*
X137312400Y-111932400D01*
X137007600Y-111932400D01*
X137007600Y-111912400D01*
X135861714Y-111912400D01*
X135750090Y-112137607D01*
X135896025Y-112489954D01*
X136271581Y-112918092D01*
X136578066Y-113069189D01*
X136173144Y-113339749D01*
X135878767Y-113780316D01*
X135775395Y-114300000D01*
X135878767Y-114819684D01*
X136173144Y-115260251D01*
X136613711Y-115554628D01*
X137133395Y-115658000D01*
X137186605Y-115658000D01*
X137706289Y-115554628D01*
X138010900Y-115351094D01*
X138010900Y-123444000D01*
X138017848Y-123480927D01*
X138036234Y-123509500D01*
X134945697Y-123509500D01*
X134364000Y-122927802D01*
X134364000Y-115952793D01*
X134415590Y-115901293D01*
X134538860Y-115604426D01*
X134539140Y-115282984D01*
X134416389Y-114985903D01*
X134364000Y-114933422D01*
X134364000Y-106307198D01*
X134453121Y-106218077D01*
X134526016Y-106218140D01*
X134823097Y-106095389D01*
X135003000Y-105915800D01*
X135003000Y-108584995D01*
X135003000Y-108584995D01*
G37*
X135003000Y-108584995D02*
X135002999Y-108585000D01*
X135051184Y-108827239D01*
X135188401Y-109032599D01*
X135823399Y-109667596D01*
X135823401Y-109667599D01*
X135870717Y-109699215D01*
X135878767Y-109739684D01*
X136173144Y-110180251D01*
X136578066Y-110450811D01*
X136271581Y-110601908D01*
X135896025Y-111030046D01*
X135750090Y-111382393D01*
X135861714Y-111607600D01*
X137007600Y-111607600D01*
X137007600Y-111587600D01*
X137312400Y-111587600D01*
X137312400Y-111607600D01*
X137332400Y-111607600D01*
X137332400Y-111912400D01*
X137312400Y-111912400D01*
X137312400Y-111932400D01*
X137007600Y-111932400D01*
X137007600Y-111912400D01*
X135861714Y-111912400D01*
X135750090Y-112137607D01*
X135896025Y-112489954D01*
X136271581Y-112918092D01*
X136578066Y-113069189D01*
X136173144Y-113339749D01*
X135878767Y-113780316D01*
X135775395Y-114300000D01*
X135878767Y-114819684D01*
X136173144Y-115260251D01*
X136613711Y-115554628D01*
X137133395Y-115658000D01*
X137186605Y-115658000D01*
X137706289Y-115554628D01*
X138010900Y-115351094D01*
X138010900Y-123444000D01*
X138017848Y-123480927D01*
X138036234Y-123509500D01*
X134945697Y-123509500D01*
X134364000Y-122927802D01*
X134364000Y-115952793D01*
X134415590Y-115901293D01*
X134538860Y-115604426D01*
X134539140Y-115282984D01*
X134416389Y-114985903D01*
X134364000Y-114933422D01*
X134364000Y-106307198D01*
X134453121Y-106218077D01*
X134526016Y-106218140D01*
X134823097Y-106095389D01*
X135003000Y-105915800D01*
X135003000Y-108584995D01*
G36*
X157101000Y-92074995D02*
X157100999Y-92075000D01*
X157149184Y-92317239D01*
X157286401Y-92522599D01*
X157482000Y-92718197D01*
X157482000Y-95059296D01*
X157464097Y-95051880D01*
X157198060Y-95051880D01*
X157045660Y-95204280D01*
X157045660Y-96258380D01*
X157065660Y-96258380D01*
X157065660Y-96563180D01*
X157045660Y-96563180D01*
X157045660Y-97617280D01*
X157198060Y-97769680D01*
X157464097Y-97769680D01*
X157688151Y-97676874D01*
X157691487Y-97673538D01*
X157713680Y-97678032D01*
X158612840Y-97678032D01*
X158801093Y-97642610D01*
X158802928Y-97641429D01*
X158983680Y-97678032D01*
X159882840Y-97678032D01*
X160071093Y-97642610D01*
X160072928Y-97641429D01*
X160253680Y-97678032D01*
X161152840Y-97678032D01*
X161341093Y-97642610D01*
X161342928Y-97641429D01*
X161523680Y-97678032D01*
X162422840Y-97678032D01*
X162611093Y-97642610D01*
X162612928Y-97641429D01*
X162793680Y-97678032D01*
X163692840Y-97678032D01*
X163881093Y-97642610D01*
X163882928Y-97641429D01*
X164063680Y-97678032D01*
X164962840Y-97678032D01*
X165151093Y-97642610D01*
X165152320Y-97641820D01*
X165331140Y-97678032D01*
X166230300Y-97678032D01*
X166418553Y-97642610D01*
X166420388Y-97641429D01*
X166601140Y-97678032D01*
X167500300Y-97678032D01*
X167688553Y-97642610D01*
X167690388Y-97641429D01*
X167871140Y-97678032D01*
X168770300Y-97678032D01*
X168958553Y-97642610D01*
X168960388Y-97641429D01*
X169141140Y-97678032D01*
X170040300Y-97678032D01*
X170228553Y-97642610D01*
X170230388Y-97641429D01*
X170411140Y-97678032D01*
X171310300Y-97678032D01*
X171498553Y-97642610D01*
X171500388Y-97641429D01*
X171681140Y-97678032D01*
X172580300Y-97678032D01*
X172768553Y-97642610D01*
X172770388Y-97641429D01*
X172951140Y-97678032D01*
X173850300Y-97678032D01*
X174038553Y-97642610D01*
X174211453Y-97531352D01*
X174327445Y-97361592D01*
X174368252Y-97160080D01*
X174368252Y-95803998D01*
X174531016Y-95804140D01*
X174828097Y-95681389D01*
X174880578Y-95629000D01*
X175958495Y-95629000D01*
X175958500Y-95629001D01*
X176151000Y-95590710D01*
X176151000Y-97767568D01*
X175668288Y-98732994D01*
X175641000Y-98727468D01*
X174142400Y-98727468D01*
X173954147Y-98762890D01*
X173781247Y-98874148D01*
X173665255Y-99043908D01*
X173624448Y-99245420D01*
X173624448Y-100144580D01*
X173659870Y-100332833D01*
X173661051Y-100334668D01*
X173624448Y-100515420D01*
X173624448Y-101414580D01*
X173659870Y-101602833D01*
X173661051Y-101604668D01*
X173624448Y-101785420D01*
X173624448Y-102684580D01*
X173659870Y-102872833D01*
X173661051Y-102874668D01*
X173624448Y-103055420D01*
X173624448Y-103954580D01*
X173659870Y-104142833D01*
X173661051Y-104144668D01*
X173624448Y-104325420D01*
X173624448Y-105224580D01*
X173659870Y-105412833D01*
X173661051Y-105414668D01*
X173624448Y-105595420D01*
X173624448Y-106494580D01*
X173659870Y-106682833D01*
X173661051Y-106684668D01*
X173624448Y-106865420D01*
X173624448Y-107764580D01*
X173626809Y-107777126D01*
X173321984Y-107776860D01*
X173024903Y-107899611D01*
X172797410Y-108126707D01*
X172674140Y-108423574D01*
X172673860Y-108745016D01*
X172796611Y-109042097D01*
X173023707Y-109269590D01*
X173133360Y-109315122D01*
X172924410Y-109523707D01*
X172801140Y-109820574D01*
X172800860Y-110142016D01*
X172923611Y-110439097D01*
X173150707Y-110666590D01*
X173447574Y-110789860D01*
X173532800Y-110789934D01*
X173532800Y-110820200D01*
X173685200Y-110972600D01*
X174739300Y-110972600D01*
X174739300Y-110952600D01*
X175044100Y-110952600D01*
X175044100Y-110972600D01*
X176098200Y-110972600D01*
X176250600Y-110820200D01*
X176250600Y-110554163D01*
X176157794Y-110330109D01*
X176154458Y-110326773D01*
X176158952Y-110304580D01*
X176158952Y-109405420D01*
X176123530Y-109217167D01*
X176122349Y-109215332D01*
X176158952Y-109034580D01*
X176158952Y-108905949D01*
X176310598Y-109057595D01*
X176310598Y-111185804D01*
X176158601Y-111337801D01*
X176098200Y-111277400D01*
X175044100Y-111277400D01*
X175044100Y-111282166D01*
X174922184Y-111282060D01*
X174885058Y-111297400D01*
X174739300Y-111297400D01*
X174739300Y-111277400D01*
X173685200Y-111277400D01*
X173532800Y-111429800D01*
X173532800Y-111695837D01*
X173625606Y-111919891D01*
X173797089Y-112091374D01*
X173799083Y-112092200D01*
X158724605Y-112092200D01*
X158724600Y-112092199D01*
X158550919Y-112126747D01*
X158482361Y-112140384D01*
X158277001Y-112277601D01*
X158276999Y-112277604D01*
X157715661Y-112838941D01*
X157578444Y-113044301D01*
X157568634Y-113093620D01*
X157464097Y-113050320D01*
X157198060Y-113050320D01*
X157045660Y-113202720D01*
X157045660Y-114256820D01*
X157065660Y-114256820D01*
X157065660Y-114561620D01*
X157045660Y-114561620D01*
X157045660Y-115082540D01*
X157009400Y-115118800D01*
X157009400Y-115798600D01*
X157029400Y-115798600D01*
X157029400Y-116103400D01*
X157009400Y-116103400D01*
X157009400Y-117068600D01*
X157029400Y-117068600D01*
X157029400Y-117373400D01*
X157009400Y-117373400D01*
X157009400Y-118053200D01*
X157161800Y-118205600D01*
X157349000Y-118205600D01*
X157349000Y-122423971D01*
X156955970Y-122817000D01*
X156501380Y-122817000D01*
X156492478Y-118205600D01*
X156552200Y-118205600D01*
X156704600Y-118053200D01*
X156704600Y-117373400D01*
X156684600Y-117373400D01*
X156684600Y-117068600D01*
X156704600Y-117068600D01*
X156704600Y-116103400D01*
X156684600Y-116103400D01*
X156684600Y-115798600D01*
X156704600Y-115798600D01*
X156704600Y-115651980D01*
X156740860Y-115615720D01*
X156740860Y-114561620D01*
X156720860Y-114561620D01*
X156720860Y-114256820D01*
X156740860Y-114256820D01*
X156740860Y-113202720D01*
X156588460Y-113050320D01*
X156482526Y-113050320D01*
X156469591Y-106349800D01*
X161482400Y-106349800D01*
X161482400Y-108166257D01*
X161575206Y-108390311D01*
X161746689Y-108561794D01*
X161970743Y-108654600D01*
X163787200Y-108654600D01*
X163939600Y-108502200D01*
X163939600Y-106197400D01*
X164244400Y-106197400D01*
X164244400Y-108502200D01*
X164396800Y-108654600D01*
X166213257Y-108654600D01*
X166437311Y-108561794D01*
X166608794Y-108390311D01*
X166701600Y-108166257D01*
X166701600Y-106349800D01*
X166549200Y-106197400D01*
X164244400Y-106197400D01*
X163939600Y-106197400D01*
X161634800Y-106197400D01*
X161482400Y-106349800D01*
X156469591Y-106349800D01*
X156464908Y-103923743D01*
X161482400Y-103923743D01*
X161482400Y-105740200D01*
X161634800Y-105892600D01*
X163939600Y-105892600D01*
X163939600Y-103587800D01*
X164244400Y-103587800D01*
X164244400Y-105892600D01*
X166549200Y-105892600D01*
X166701600Y-105740200D01*
X166701600Y-103923743D01*
X166608794Y-103699689D01*
X166437311Y-103528206D01*
X166213257Y-103435400D01*
X164396800Y-103435400D01*
X164244400Y-103587800D01*
X163939600Y-103587800D01*
X163787200Y-103435400D01*
X161970743Y-103435400D01*
X161746689Y-103528206D01*
X161575206Y-103699689D01*
X161482400Y-103923743D01*
X156464908Y-103923743D01*
X156453026Y-97769680D01*
X156588460Y-97769680D01*
X156740860Y-97617280D01*
X156740860Y-96563180D01*
X156720860Y-96563180D01*
X156720860Y-96258380D01*
X156740860Y-96258380D01*
X156740860Y-95204280D01*
X156588460Y-95051880D01*
X156447780Y-95051880D01*
X156438600Y-90296804D01*
X156432409Y-90264073D01*
X156438600Y-90233500D01*
X156438600Y-90168000D01*
X157101000Y-90168000D01*
X157101000Y-92074995D01*
X157101000Y-92074995D01*
G37*
X157101000Y-92074995D02*
X157100999Y-92075000D01*
X157149184Y-92317239D01*
X157286401Y-92522599D01*
X157482000Y-92718197D01*
X157482000Y-95059296D01*
X157464097Y-95051880D01*
X157198060Y-95051880D01*
X157045660Y-95204280D01*
X157045660Y-96258380D01*
X157065660Y-96258380D01*
X157065660Y-96563180D01*
X157045660Y-96563180D01*
X157045660Y-97617280D01*
X157198060Y-97769680D01*
X157464097Y-97769680D01*
X157688151Y-97676874D01*
X157691487Y-97673538D01*
X157713680Y-97678032D01*
X158612840Y-97678032D01*
X158801093Y-97642610D01*
X158802928Y-97641429D01*
X158983680Y-97678032D01*
X159882840Y-97678032D01*
X160071093Y-97642610D01*
X160072928Y-97641429D01*
X160253680Y-97678032D01*
X161152840Y-97678032D01*
X161341093Y-97642610D01*
X161342928Y-97641429D01*
X161523680Y-97678032D01*
X162422840Y-97678032D01*
X162611093Y-97642610D01*
X162612928Y-97641429D01*
X162793680Y-97678032D01*
X163692840Y-97678032D01*
X163881093Y-97642610D01*
X163882928Y-97641429D01*
X164063680Y-97678032D01*
X164962840Y-97678032D01*
X165151093Y-97642610D01*
X165152320Y-97641820D01*
X165331140Y-97678032D01*
X166230300Y-97678032D01*
X166418553Y-97642610D01*
X166420388Y-97641429D01*
X166601140Y-97678032D01*
X167500300Y-97678032D01*
X167688553Y-97642610D01*
X167690388Y-97641429D01*
X167871140Y-97678032D01*
X168770300Y-97678032D01*
X168958553Y-97642610D01*
X168960388Y-97641429D01*
X169141140Y-97678032D01*
X170040300Y-97678032D01*
X170228553Y-97642610D01*
X170230388Y-97641429D01*
X170411140Y-97678032D01*
X171310300Y-97678032D01*
X171498553Y-97642610D01*
X171500388Y-97641429D01*
X171681140Y-97678032D01*
X172580300Y-97678032D01*
X172768553Y-97642610D01*
X172770388Y-97641429D01*
X172951140Y-97678032D01*
X173850300Y-97678032D01*
X174038553Y-97642610D01*
X174211453Y-97531352D01*
X174327445Y-97361592D01*
X174368252Y-97160080D01*
X174368252Y-95803998D01*
X174531016Y-95804140D01*
X174828097Y-95681389D01*
X174880578Y-95629000D01*
X175958495Y-95629000D01*
X175958500Y-95629001D01*
X176151000Y-95590710D01*
X176151000Y-97767568D01*
X175668288Y-98732994D01*
X175641000Y-98727468D01*
X174142400Y-98727468D01*
X173954147Y-98762890D01*
X173781247Y-98874148D01*
X173665255Y-99043908D01*
X173624448Y-99245420D01*
X173624448Y-100144580D01*
X173659870Y-100332833D01*
X173661051Y-100334668D01*
X173624448Y-100515420D01*
X173624448Y-101414580D01*
X173659870Y-101602833D01*
X173661051Y-101604668D01*
X173624448Y-101785420D01*
X173624448Y-102684580D01*
X173659870Y-102872833D01*
X173661051Y-102874668D01*
X173624448Y-103055420D01*
X173624448Y-103954580D01*
X173659870Y-104142833D01*
X173661051Y-104144668D01*
X173624448Y-104325420D01*
X173624448Y-105224580D01*
X173659870Y-105412833D01*
X173661051Y-105414668D01*
X173624448Y-105595420D01*
X173624448Y-106494580D01*
X173659870Y-106682833D01*
X173661051Y-106684668D01*
X173624448Y-106865420D01*
X173624448Y-107764580D01*
X173626809Y-107777126D01*
X173321984Y-107776860D01*
X173024903Y-107899611D01*
X172797410Y-108126707D01*
X172674140Y-108423574D01*
X172673860Y-108745016D01*
X172796611Y-109042097D01*
X173023707Y-109269590D01*
X173133360Y-109315122D01*
X172924410Y-109523707D01*
X172801140Y-109820574D01*
X172800860Y-110142016D01*
X172923611Y-110439097D01*
X173150707Y-110666590D01*
X173447574Y-110789860D01*
X173532800Y-110789934D01*
X173532800Y-110820200D01*
X173685200Y-110972600D01*
X174739300Y-110972600D01*
X174739300Y-110952600D01*
X175044100Y-110952600D01*
X175044100Y-110972600D01*
X176098200Y-110972600D01*
X176250600Y-110820200D01*
X176250600Y-110554163D01*
X176157794Y-110330109D01*
X176154458Y-110326773D01*
X176158952Y-110304580D01*
X176158952Y-109405420D01*
X176123530Y-109217167D01*
X176122349Y-109215332D01*
X176158952Y-109034580D01*
X176158952Y-108905949D01*
X176310598Y-109057595D01*
X176310598Y-111185804D01*
X176158601Y-111337801D01*
X176098200Y-111277400D01*
X175044100Y-111277400D01*
X175044100Y-111282166D01*
X174922184Y-111282060D01*
X174885058Y-111297400D01*
X174739300Y-111297400D01*
X174739300Y-111277400D01*
X173685200Y-111277400D01*
X173532800Y-111429800D01*
X173532800Y-111695837D01*
X173625606Y-111919891D01*
X173797089Y-112091374D01*
X173799083Y-112092200D01*
X158724605Y-112092200D01*
X158724600Y-112092199D01*
X158550919Y-112126747D01*
X158482361Y-112140384D01*
X158277001Y-112277601D01*
X158276999Y-112277604D01*
X157715661Y-112838941D01*
X157578444Y-113044301D01*
X157568634Y-113093620D01*
X157464097Y-113050320D01*
X157198060Y-113050320D01*
X157045660Y-113202720D01*
X157045660Y-114256820D01*
X157065660Y-114256820D01*
X157065660Y-114561620D01*
X157045660Y-114561620D01*
X157045660Y-115082540D01*
X157009400Y-115118800D01*
X157009400Y-115798600D01*
X157029400Y-115798600D01*
X157029400Y-116103400D01*
X157009400Y-116103400D01*
X157009400Y-117068600D01*
X157029400Y-117068600D01*
X157029400Y-117373400D01*
X157009400Y-117373400D01*
X157009400Y-118053200D01*
X157161800Y-118205600D01*
X157349000Y-118205600D01*
X157349000Y-122423971D01*
X156955970Y-122817000D01*
X156501380Y-122817000D01*
X156492478Y-118205600D01*
X156552200Y-118205600D01*
X156704600Y-118053200D01*
X156704600Y-117373400D01*
X156684600Y-117373400D01*
X156684600Y-117068600D01*
X156704600Y-117068600D01*
X156704600Y-116103400D01*
X156684600Y-116103400D01*
X156684600Y-115798600D01*
X156704600Y-115798600D01*
X156704600Y-115651980D01*
X156740860Y-115615720D01*
X156740860Y-114561620D01*
X156720860Y-114561620D01*
X156720860Y-114256820D01*
X156740860Y-114256820D01*
X156740860Y-113202720D01*
X156588460Y-113050320D01*
X156482526Y-113050320D01*
X156469591Y-106349800D01*
X161482400Y-106349800D01*
X161482400Y-108166257D01*
X161575206Y-108390311D01*
X161746689Y-108561794D01*
X161970743Y-108654600D01*
X163787200Y-108654600D01*
X163939600Y-108502200D01*
X163939600Y-106197400D01*
X164244400Y-106197400D01*
X164244400Y-108502200D01*
X164396800Y-108654600D01*
X166213257Y-108654600D01*
X166437311Y-108561794D01*
X166608794Y-108390311D01*
X166701600Y-108166257D01*
X166701600Y-106349800D01*
X166549200Y-106197400D01*
X164244400Y-106197400D01*
X163939600Y-106197400D01*
X161634800Y-106197400D01*
X161482400Y-106349800D01*
X156469591Y-106349800D01*
X156464908Y-103923743D01*
X161482400Y-103923743D01*
X161482400Y-105740200D01*
X161634800Y-105892600D01*
X163939600Y-105892600D01*
X163939600Y-103587800D01*
X164244400Y-103587800D01*
X164244400Y-105892600D01*
X166549200Y-105892600D01*
X166701600Y-105740200D01*
X166701600Y-103923743D01*
X166608794Y-103699689D01*
X166437311Y-103528206D01*
X166213257Y-103435400D01*
X164396800Y-103435400D01*
X164244400Y-103587800D01*
X163939600Y-103587800D01*
X163787200Y-103435400D01*
X161970743Y-103435400D01*
X161746689Y-103528206D01*
X161575206Y-103699689D01*
X161482400Y-103923743D01*
X156464908Y-103923743D01*
X156453026Y-97769680D01*
X156588460Y-97769680D01*
X156740860Y-97617280D01*
X156740860Y-96563180D01*
X156720860Y-96563180D01*
X156720860Y-96258380D01*
X156740860Y-96258380D01*
X156740860Y-95204280D01*
X156588460Y-95051880D01*
X156447780Y-95051880D01*
X156438600Y-90296804D01*
X156432409Y-90264073D01*
X156438600Y-90233500D01*
X156438600Y-90168000D01*
X157101000Y-90168000D01*
X157101000Y-92074995D01*
G36*
X124637903Y-101676611D02*
X124410410Y-101903707D01*
X124287140Y-102200574D01*
X124286860Y-102522016D01*
X124409611Y-102819097D01*
X124636707Y-103046590D01*
X124933574Y-103169860D01*
X125255016Y-103170140D01*
X125537590Y-103053383D01*
X125554199Y-103141653D01*
X125534628Y-103238300D01*
X125534628Y-103538020D01*
X125553952Y-103640717D01*
X125534628Y-103736140D01*
X125534628Y-104035860D01*
X125553952Y-104138557D01*
X125534628Y-104233980D01*
X125534628Y-104533700D01*
X125554199Y-104637713D01*
X125534628Y-104734360D01*
X125534628Y-105034080D01*
X125554199Y-105138093D01*
X125534628Y-105234740D01*
X125534628Y-105534460D01*
X125570050Y-105722713D01*
X125681308Y-105895613D01*
X125851068Y-106011605D01*
X126052580Y-106052412D01*
X126484588Y-106052412D01*
X126484588Y-106484420D01*
X126520010Y-106672673D01*
X126631268Y-106845573D01*
X126801028Y-106961565D01*
X127002540Y-107002372D01*
X127302260Y-107002372D01*
X127406273Y-106982801D01*
X127502920Y-107002372D01*
X127802640Y-107002372D01*
X127906653Y-106982801D01*
X128003300Y-107002372D01*
X128303020Y-107002372D01*
X128405717Y-106983048D01*
X128501140Y-107002372D01*
X128800860Y-107002372D01*
X128903557Y-106983048D01*
X128998980Y-107002372D01*
X129298700Y-107002372D01*
X129402713Y-106982801D01*
X129499360Y-107002372D01*
X129799080Y-107002372D01*
X129903093Y-106982801D01*
X129999740Y-107002372D01*
X130299460Y-107002372D01*
X130487713Y-106966950D01*
X130660613Y-106855692D01*
X130776605Y-106685932D01*
X130817412Y-106484420D01*
X130817412Y-106052412D01*
X130926502Y-106052412D01*
X130891140Y-106137574D01*
X130890860Y-106459016D01*
X131013611Y-106756097D01*
X131240707Y-106983590D01*
X131537574Y-107106860D01*
X131611727Y-107106925D01*
X132082000Y-107577198D01*
X132082000Y-109196343D01*
X132036909Y-109166214D01*
X131699000Y-109099000D01*
X131622971Y-109099000D01*
X131667600Y-108991257D01*
X131667600Y-108774800D01*
X131515200Y-108622400D01*
X130835400Y-108622400D01*
X130835400Y-108642400D01*
X130530600Y-108642400D01*
X130530600Y-108622400D01*
X129184400Y-108622400D01*
X129184400Y-108642400D01*
X128879600Y-108642400D01*
X128879600Y-108622400D01*
X128199800Y-108622400D01*
X128143000Y-108679200D01*
X128086200Y-108622400D01*
X127406400Y-108622400D01*
X127406400Y-108642400D01*
X127101600Y-108642400D01*
X127101600Y-108622400D01*
X127081600Y-108622400D01*
X127081600Y-108317600D01*
X127101600Y-108317600D01*
X127101600Y-107612800D01*
X127406400Y-107612800D01*
X127406400Y-108317600D01*
X128086200Y-108317600D01*
X128143000Y-108260800D01*
X128199800Y-108317600D01*
X128879600Y-108317600D01*
X128879600Y-107612800D01*
X129184400Y-107612800D01*
X129184400Y-108317600D01*
X130530600Y-108317600D01*
X130530600Y-107612800D01*
X130835400Y-107612800D01*
X130835400Y-108317600D01*
X131515200Y-108317600D01*
X131667600Y-108165200D01*
X131667600Y-107948743D01*
X131574794Y-107724689D01*
X131403311Y-107553206D01*
X131179257Y-107460400D01*
X130987800Y-107460400D01*
X130835400Y-107612800D01*
X130530600Y-107612800D01*
X130378200Y-107460400D01*
X130186743Y-107460400D01*
X129962689Y-107553206D01*
X129857500Y-107658395D01*
X129752311Y-107553206D01*
X129528257Y-107460400D01*
X129336800Y-107460400D01*
X129184400Y-107612800D01*
X128879600Y-107612800D01*
X128727200Y-107460400D01*
X128535743Y-107460400D01*
X128311689Y-107553206D01*
X128143000Y-107721895D01*
X127974311Y-107553206D01*
X127750257Y-107460400D01*
X127558800Y-107460400D01*
X127406400Y-107612800D01*
X127101600Y-107612800D01*
X126949200Y-107460400D01*
X126757743Y-107460400D01*
X126533689Y-107553206D01*
X126362206Y-107724689D01*
X126341600Y-107774436D01*
X126341600Y-106980743D01*
X126248794Y-106756689D01*
X126077311Y-106585206D01*
X125853257Y-106492400D01*
X125286800Y-106492400D01*
X125134400Y-106644800D01*
X125134400Y-107949600D01*
X125154400Y-107949600D01*
X125154400Y-108254400D01*
X125134400Y-108254400D01*
X125134400Y-108274400D01*
X124829600Y-108274400D01*
X124829600Y-108254400D01*
X124809600Y-108254400D01*
X124809600Y-107949600D01*
X124829600Y-107949600D01*
X124829600Y-106644800D01*
X124677200Y-106492400D01*
X124110743Y-106492400D01*
X123886689Y-106585206D01*
X123760365Y-106711530D01*
X123633512Y-106624855D01*
X123432000Y-106584048D01*
X121932000Y-106584048D01*
X121743747Y-106619470D01*
X121570847Y-106730728D01*
X121532693Y-106786568D01*
X121503272Y-106740847D01*
X121416000Y-106681217D01*
X121416000Y-106394600D01*
X121603200Y-106394600D01*
X121755600Y-106242200D01*
X121755600Y-105562400D01*
X122060400Y-105562400D01*
X122060400Y-106242200D01*
X122212800Y-106394600D01*
X122429257Y-106394600D01*
X122653311Y-106301794D01*
X122824794Y-106130311D01*
X122917600Y-105906257D01*
X122917600Y-105714800D01*
X122765200Y-105562400D01*
X122060400Y-105562400D01*
X121755600Y-105562400D01*
X121735600Y-105562400D01*
X121735600Y-105257600D01*
X121755600Y-105257600D01*
X121755600Y-104577800D01*
X122060400Y-104577800D01*
X122060400Y-105257600D01*
X122765200Y-105257600D01*
X122917600Y-105105200D01*
X122917600Y-104913743D01*
X122824794Y-104689689D01*
X122653311Y-104518206D01*
X122429257Y-104425400D01*
X122212800Y-104425400D01*
X122060400Y-104577800D01*
X121755600Y-104577800D01*
X121603200Y-104425400D01*
X121416000Y-104425400D01*
X121416000Y-104362600D01*
X121603200Y-104362600D01*
X121755600Y-104210200D01*
X121755600Y-103530400D01*
X122060400Y-103530400D01*
X122060400Y-104210200D01*
X122212800Y-104362600D01*
X122429257Y-104362600D01*
X122653311Y-104269794D01*
X122824794Y-104098311D01*
X122917600Y-103874257D01*
X122917600Y-103682800D01*
X122765200Y-103530400D01*
X122060400Y-103530400D01*
X121755600Y-103530400D01*
X121735600Y-103530400D01*
X121735600Y-103225600D01*
X121755600Y-103225600D01*
X121755600Y-103205600D01*
X122060400Y-103205600D01*
X122060400Y-103225600D01*
X122765200Y-103225600D01*
X122917600Y-103073200D01*
X122917600Y-102881743D01*
X122824794Y-102657689D01*
X122653311Y-102486206D01*
X122429257Y-102393400D01*
X122212800Y-102393400D01*
X122060402Y-102545798D01*
X122060402Y-102440625D01*
X122318433Y-102182594D01*
X122390764Y-102134264D01*
X122609271Y-101807245D01*
X122658074Y-101561900D01*
X124915526Y-101561900D01*
X124637903Y-101676611D01*
X124637903Y-101676611D01*
G37*
X124637903Y-101676611D02*
X124410410Y-101903707D01*
X124287140Y-102200574D01*
X124286860Y-102522016D01*
X124409611Y-102819097D01*
X124636707Y-103046590D01*
X124933574Y-103169860D01*
X125255016Y-103170140D01*
X125537590Y-103053383D01*
X125554199Y-103141653D01*
X125534628Y-103238300D01*
X125534628Y-103538020D01*
X125553952Y-103640717D01*
X125534628Y-103736140D01*
X125534628Y-104035860D01*
X125553952Y-104138557D01*
X125534628Y-104233980D01*
X125534628Y-104533700D01*
X125554199Y-104637713D01*
X125534628Y-104734360D01*
X125534628Y-105034080D01*
X125554199Y-105138093D01*
X125534628Y-105234740D01*
X125534628Y-105534460D01*
X125570050Y-105722713D01*
X125681308Y-105895613D01*
X125851068Y-106011605D01*
X126052580Y-106052412D01*
X126484588Y-106052412D01*
X126484588Y-106484420D01*
X126520010Y-106672673D01*
X126631268Y-106845573D01*
X126801028Y-106961565D01*
X127002540Y-107002372D01*
X127302260Y-107002372D01*
X127406273Y-106982801D01*
X127502920Y-107002372D01*
X127802640Y-107002372D01*
X127906653Y-106982801D01*
X128003300Y-107002372D01*
X128303020Y-107002372D01*
X128405717Y-106983048D01*
X128501140Y-107002372D01*
X128800860Y-107002372D01*
X128903557Y-106983048D01*
X128998980Y-107002372D01*
X129298700Y-107002372D01*
X129402713Y-106982801D01*
X129499360Y-107002372D01*
X129799080Y-107002372D01*
X129903093Y-106982801D01*
X129999740Y-107002372D01*
X130299460Y-107002372D01*
X130487713Y-106966950D01*
X130660613Y-106855692D01*
X130776605Y-106685932D01*
X130817412Y-106484420D01*
X130817412Y-106052412D01*
X130926502Y-106052412D01*
X130891140Y-106137574D01*
X130890860Y-106459016D01*
X131013611Y-106756097D01*
X131240707Y-106983590D01*
X131537574Y-107106860D01*
X131611727Y-107106925D01*
X132082000Y-107577198D01*
X132082000Y-109196343D01*
X132036909Y-109166214D01*
X131699000Y-109099000D01*
X131622971Y-109099000D01*
X131667600Y-108991257D01*
X131667600Y-108774800D01*
X131515200Y-108622400D01*
X130835400Y-108622400D01*
X130835400Y-108642400D01*
X130530600Y-108642400D01*
X130530600Y-108622400D01*
X129184400Y-108622400D01*
X129184400Y-108642400D01*
X128879600Y-108642400D01*
X128879600Y-108622400D01*
X128199800Y-108622400D01*
X128143000Y-108679200D01*
X128086200Y-108622400D01*
X127406400Y-108622400D01*
X127406400Y-108642400D01*
X127101600Y-108642400D01*
X127101600Y-108622400D01*
X127081600Y-108622400D01*
X127081600Y-108317600D01*
X127101600Y-108317600D01*
X127101600Y-107612800D01*
X127406400Y-107612800D01*
X127406400Y-108317600D01*
X128086200Y-108317600D01*
X128143000Y-108260800D01*
X128199800Y-108317600D01*
X128879600Y-108317600D01*
X128879600Y-107612800D01*
X129184400Y-107612800D01*
X129184400Y-108317600D01*
X130530600Y-108317600D01*
X130530600Y-107612800D01*
X130835400Y-107612800D01*
X130835400Y-108317600D01*
X131515200Y-108317600D01*
X131667600Y-108165200D01*
X131667600Y-107948743D01*
X131574794Y-107724689D01*
X131403311Y-107553206D01*
X131179257Y-107460400D01*
X130987800Y-107460400D01*
X130835400Y-107612800D01*
X130530600Y-107612800D01*
X130378200Y-107460400D01*
X130186743Y-107460400D01*
X129962689Y-107553206D01*
X129857500Y-107658395D01*
X129752311Y-107553206D01*
X129528257Y-107460400D01*
X129336800Y-107460400D01*
X129184400Y-107612800D01*
X128879600Y-107612800D01*
X128727200Y-107460400D01*
X128535743Y-107460400D01*
X128311689Y-107553206D01*
X128143000Y-107721895D01*
X127974311Y-107553206D01*
X127750257Y-107460400D01*
X127558800Y-107460400D01*
X127406400Y-107612800D01*
X127101600Y-107612800D01*
X126949200Y-107460400D01*
X126757743Y-107460400D01*
X126533689Y-107553206D01*
X126362206Y-107724689D01*
X126341600Y-107774436D01*
X126341600Y-106980743D01*
X126248794Y-106756689D01*
X126077311Y-106585206D01*
X125853257Y-106492400D01*
X125286800Y-106492400D01*
X125134400Y-106644800D01*
X125134400Y-107949600D01*
X125154400Y-107949600D01*
X125154400Y-108254400D01*
X125134400Y-108254400D01*
X125134400Y-108274400D01*
X124829600Y-108274400D01*
X124829600Y-108254400D01*
X124809600Y-108254400D01*
X124809600Y-107949600D01*
X124829600Y-107949600D01*
X124829600Y-106644800D01*
X124677200Y-106492400D01*
X124110743Y-106492400D01*
X123886689Y-106585206D01*
X123760365Y-106711530D01*
X123633512Y-106624855D01*
X123432000Y-106584048D01*
X121932000Y-106584048D01*
X121743747Y-106619470D01*
X121570847Y-106730728D01*
X121532693Y-106786568D01*
X121503272Y-106740847D01*
X121416000Y-106681217D01*
X121416000Y-106394600D01*
X121603200Y-106394600D01*
X121755600Y-106242200D01*
X121755600Y-105562400D01*
X122060400Y-105562400D01*
X122060400Y-106242200D01*
X122212800Y-106394600D01*
X122429257Y-106394600D01*
X122653311Y-106301794D01*
X122824794Y-106130311D01*
X122917600Y-105906257D01*
X122917600Y-105714800D01*
X122765200Y-105562400D01*
X122060400Y-105562400D01*
X121755600Y-105562400D01*
X121735600Y-105562400D01*
X121735600Y-105257600D01*
X121755600Y-105257600D01*
X121755600Y-104577800D01*
X122060400Y-104577800D01*
X122060400Y-105257600D01*
X122765200Y-105257600D01*
X122917600Y-105105200D01*
X122917600Y-104913743D01*
X122824794Y-104689689D01*
X122653311Y-104518206D01*
X122429257Y-104425400D01*
X122212800Y-104425400D01*
X122060400Y-104577800D01*
X121755600Y-104577800D01*
X121603200Y-104425400D01*
X121416000Y-104425400D01*
X121416000Y-104362600D01*
X121603200Y-104362600D01*
X121755600Y-104210200D01*
X121755600Y-103530400D01*
X122060400Y-103530400D01*
X122060400Y-104210200D01*
X122212800Y-104362600D01*
X122429257Y-104362600D01*
X122653311Y-104269794D01*
X122824794Y-104098311D01*
X122917600Y-103874257D01*
X122917600Y-103682800D01*
X122765200Y-103530400D01*
X122060400Y-103530400D01*
X121755600Y-103530400D01*
X121735600Y-103530400D01*
X121735600Y-103225600D01*
X121755600Y-103225600D01*
X121755600Y-103205600D01*
X122060400Y-103205600D01*
X122060400Y-103225600D01*
X122765200Y-103225600D01*
X122917600Y-103073200D01*
X122917600Y-102881743D01*
X122824794Y-102657689D01*
X122653311Y-102486206D01*
X122429257Y-102393400D01*
X122212800Y-102393400D01*
X122060402Y-102545798D01*
X122060402Y-102440625D01*
X122318433Y-102182594D01*
X122390764Y-102134264D01*
X122609271Y-101807245D01*
X122658074Y-101561900D01*
X124915526Y-101561900D01*
X124637903Y-101676611D01*
G36*
X128803400Y-103733600D02*
X128823400Y-103733600D01*
X128823400Y-104038400D01*
X128803400Y-104038400D01*
X128803400Y-104058400D01*
X128498600Y-104058400D01*
X128498600Y-104038400D01*
X128478600Y-104038400D01*
X128478600Y-103733600D01*
X128498600Y-103733600D01*
X128498600Y-103713600D01*
X128803400Y-103713600D01*
X128803400Y-103733600D01*
X128803400Y-103733600D01*
G37*
X128803400Y-103733600D02*
X128823400Y-103733600D01*
X128823400Y-104038400D01*
X128803400Y-104038400D01*
X128803400Y-104058400D01*
X128498600Y-104058400D01*
X128498600Y-104038400D01*
X128478600Y-104038400D01*
X128478600Y-103733600D01*
X128498600Y-103733600D01*
X128498600Y-103713600D01*
X128803400Y-103713600D01*
X128803400Y-103733600D01*
G36*
X130968509Y-101002706D02*
X130860165Y-101111050D01*
X130860165Y-101676835D01*
X130923980Y-101676835D01*
X130923980Y-101719588D01*
X130817412Y-101719588D01*
X130817412Y-101287580D01*
X130781990Y-101099327D01*
X130670732Y-100926427D01*
X130500972Y-100810435D01*
X130299460Y-100769628D01*
X129999740Y-100769628D01*
X129895727Y-100789199D01*
X129799080Y-100769628D01*
X129641215Y-100769628D01*
X129532571Y-100724626D01*
X130111500Y-100145698D01*
X130968509Y-101002706D01*
X130968509Y-101002706D01*
G37*
X130968509Y-101002706D02*
X130860165Y-101111050D01*
X130860165Y-101676835D01*
X130923980Y-101676835D01*
X130923980Y-101719588D01*
X130817412Y-101719588D01*
X130817412Y-101287580D01*
X130781990Y-101099327D01*
X130670732Y-100926427D01*
X130500972Y-100810435D01*
X130299460Y-100769628D01*
X129999740Y-100769628D01*
X129895727Y-100789199D01*
X129799080Y-100769628D01*
X129641215Y-100769628D01*
X129532571Y-100724626D01*
X130111500Y-100145698D01*
X130968509Y-101002706D01*
G36*
X126763400Y-94927600D02*
X126783400Y-94927600D01*
X126783400Y-95232400D01*
X126763400Y-95232400D01*
X126763400Y-96237200D01*
X126908825Y-96382625D01*
X126881045Y-96529535D01*
X126935922Y-96792400D01*
X126796800Y-96792400D01*
X126644400Y-96944800D01*
X126644400Y-97649600D01*
X127736600Y-97649600D01*
X127736600Y-97629600D01*
X128041400Y-97629600D01*
X128041400Y-97649600D01*
X128061400Y-97649600D01*
X128061400Y-97954400D01*
X128041400Y-97954400D01*
X128041400Y-97974400D01*
X127736600Y-97974400D01*
X127736600Y-97954400D01*
X126644400Y-97954400D01*
X126644400Y-97974400D01*
X126339600Y-97974400D01*
X126339600Y-97954400D01*
X126319600Y-97954400D01*
X126319600Y-97649600D01*
X126339600Y-97649600D01*
X126339600Y-96944800D01*
X126187200Y-96792400D01*
X125995743Y-96792400D01*
X125958600Y-96807785D01*
X125958600Y-96389600D01*
X126306200Y-96389600D01*
X126458600Y-96237200D01*
X126458600Y-95232400D01*
X126438600Y-95232400D01*
X126438600Y-94927600D01*
X126458600Y-94927600D01*
X126458600Y-94907600D01*
X126763400Y-94907600D01*
X126763400Y-94927600D01*
X126763400Y-94927600D01*
G37*
X126763400Y-94927600D02*
X126783400Y-94927600D01*
X126783400Y-95232400D01*
X126763400Y-95232400D01*
X126763400Y-96237200D01*
X126908825Y-96382625D01*
X126881045Y-96529535D01*
X126935922Y-96792400D01*
X126796800Y-96792400D01*
X126644400Y-96944800D01*
X126644400Y-97649600D01*
X127736600Y-97649600D01*
X127736600Y-97629600D01*
X128041400Y-97629600D01*
X128041400Y-97649600D01*
X128061400Y-97649600D01*
X128061400Y-97954400D01*
X128041400Y-97954400D01*
X128041400Y-97974400D01*
X127736600Y-97974400D01*
X127736600Y-97954400D01*
X126644400Y-97954400D01*
X126644400Y-97974400D01*
X126339600Y-97974400D01*
X126339600Y-97954400D01*
X126319600Y-97954400D01*
X126319600Y-97649600D01*
X126339600Y-97649600D01*
X126339600Y-96944800D01*
X126187200Y-96792400D01*
X125995743Y-96792400D01*
X125958600Y-96807785D01*
X125958600Y-96389600D01*
X126306200Y-96389600D01*
X126458600Y-96237200D01*
X126458600Y-95232400D01*
X126438600Y-95232400D01*
X126438600Y-94927600D01*
X126458600Y-94927600D01*
X126458600Y-94907600D01*
X126763400Y-94907600D01*
X126763400Y-94927600D01*
G36*
X138998399Y-87950596D02*
X138998401Y-87950599D01*
X139110400Y-88025434D01*
X139110400Y-88195000D01*
X139050500Y-88195000D01*
X139050500Y-88802200D01*
X139202900Y-88954600D01*
X139284257Y-88954600D01*
X139508311Y-88861794D01*
X139679794Y-88690311D01*
X139702000Y-88636701D01*
X139702000Y-91177803D01*
X139564802Y-91315000D01*
X137205888Y-91315000D01*
X137205909Y-91290705D01*
X137865913Y-90662131D01*
X138014574Y-90723860D01*
X138336016Y-90724140D01*
X138633097Y-90601389D01*
X138860590Y-90374293D01*
X138983860Y-90077426D01*
X138984140Y-89755984D01*
X138861389Y-89458903D01*
X138809000Y-89406422D01*
X138809000Y-88818700D01*
X138825500Y-88802200D01*
X138825500Y-88195000D01*
X138809000Y-88195000D01*
X138809000Y-87895000D01*
X138825500Y-87895000D01*
X138825500Y-87872600D01*
X138920403Y-87872600D01*
X138998399Y-87950596D01*
X138998399Y-87950596D01*
G37*
X138998399Y-87950596D02*
X138998401Y-87950599D01*
X139110400Y-88025434D01*
X139110400Y-88195000D01*
X139050500Y-88195000D01*
X139050500Y-88802200D01*
X139202900Y-88954600D01*
X139284257Y-88954600D01*
X139508311Y-88861794D01*
X139679794Y-88690311D01*
X139702000Y-88636701D01*
X139702000Y-91177803D01*
X139564802Y-91315000D01*
X137205888Y-91315000D01*
X137205909Y-91290705D01*
X137865913Y-90662131D01*
X138014574Y-90723860D01*
X138336016Y-90724140D01*
X138633097Y-90601389D01*
X138860590Y-90374293D01*
X138983860Y-90077426D01*
X138984140Y-89755984D01*
X138861389Y-89458903D01*
X138809000Y-89406422D01*
X138809000Y-88818700D01*
X138825500Y-88802200D01*
X138825500Y-88195000D01*
X138809000Y-88195000D01*
X138809000Y-87895000D01*
X138825500Y-87895000D01*
X138825500Y-87872600D01*
X138920403Y-87872600D01*
X138998399Y-87950596D01*
G36*
X125984000Y-87374001D02*
X125984005Y-87374000D01*
X128572048Y-87374000D01*
X128572048Y-87741000D01*
X128607470Y-87929253D01*
X128718728Y-88102153D01*
X128888488Y-88218145D01*
X128907000Y-88221894D01*
X128907000Y-89153995D01*
X128906999Y-89154000D01*
X128955184Y-89396239D01*
X129092401Y-89601599D01*
X129796000Y-90305197D01*
X129796000Y-91054802D01*
X129225599Y-90484401D01*
X129020239Y-90347184D01*
X128778000Y-90298999D01*
X128777995Y-90299000D01*
X127762000Y-90299000D01*
X127519761Y-90347184D01*
X127314401Y-90484401D01*
X127314399Y-90484404D01*
X126933401Y-90865401D01*
X126928173Y-90873225D01*
X126653426Y-90759140D01*
X126331984Y-90758860D01*
X126034903Y-90881611D01*
X125958600Y-90957781D01*
X125958600Y-87368948D01*
X125984000Y-87374001D01*
X125984000Y-87374001D01*
G37*
X125984000Y-87374001D02*
X125984005Y-87374000D01*
X128572048Y-87374000D01*
X128572048Y-87741000D01*
X128607470Y-87929253D01*
X128718728Y-88102153D01*
X128888488Y-88218145D01*
X128907000Y-88221894D01*
X128907000Y-89153995D01*
X128906999Y-89154000D01*
X128955184Y-89396239D01*
X129092401Y-89601599D01*
X129796000Y-90305197D01*
X129796000Y-91054802D01*
X129225599Y-90484401D01*
X129020239Y-90347184D01*
X128778000Y-90298999D01*
X128777995Y-90299000D01*
X127762000Y-90299000D01*
X127519761Y-90347184D01*
X127314401Y-90484401D01*
X127314399Y-90484404D01*
X126933401Y-90865401D01*
X126928173Y-90873225D01*
X126653426Y-90759140D01*
X126331984Y-90758860D01*
X126034903Y-90881611D01*
X125958600Y-90957781D01*
X125958600Y-87368948D01*
X125984000Y-87374001D01*
G36*
X132921800Y-87895000D02*
X133491500Y-87895000D01*
X133491500Y-87872600D01*
X133716500Y-87872600D01*
X133716500Y-87895000D01*
X133776400Y-87895000D01*
X133776400Y-88195000D01*
X133716500Y-88195000D01*
X133716500Y-88802200D01*
X133868900Y-88954600D01*
X133950257Y-88954600D01*
X134174311Y-88861794D01*
X134345794Y-88690311D01*
X134361417Y-88652593D01*
X134442611Y-88849097D01*
X134495000Y-88901578D01*
X134495000Y-90549207D01*
X134443410Y-90600707D01*
X134345165Y-90837308D01*
X134315816Y-90689761D01*
X134178599Y-90484401D01*
X134178596Y-90484399D01*
X133099000Y-89404802D01*
X133145590Y-89358293D01*
X133268860Y-89061426D01*
X133268953Y-88954600D01*
X133339100Y-88954600D01*
X133491500Y-88802200D01*
X133491500Y-88195000D01*
X132921800Y-88195000D01*
X132906643Y-88210157D01*
X132622426Y-88092140D01*
X132455000Y-88091994D01*
X132455000Y-87755000D01*
X132781800Y-87755000D01*
X132921800Y-87895000D01*
X132921800Y-87895000D01*
G37*
X132921800Y-87895000D02*
X133491500Y-87895000D01*
X133491500Y-87872600D01*
X133716500Y-87872600D01*
X133716500Y-87895000D01*
X133776400Y-87895000D01*
X133776400Y-88195000D01*
X133716500Y-88195000D01*
X133716500Y-88802200D01*
X133868900Y-88954600D01*
X133950257Y-88954600D01*
X134174311Y-88861794D01*
X134345794Y-88690311D01*
X134361417Y-88652593D01*
X134442611Y-88849097D01*
X134495000Y-88901578D01*
X134495000Y-90549207D01*
X134443410Y-90600707D01*
X134345165Y-90837308D01*
X134315816Y-90689761D01*
X134178599Y-90484401D01*
X134178596Y-90484399D01*
X133099000Y-89404802D01*
X133145590Y-89358293D01*
X133268860Y-89061426D01*
X133268953Y-88954600D01*
X133339100Y-88954600D01*
X133491500Y-88802200D01*
X133491500Y-88195000D01*
X132921800Y-88195000D01*
X132906643Y-88210157D01*
X132622426Y-88092140D01*
X132455000Y-88091994D01*
X132455000Y-87755000D01*
X132781800Y-87755000D01*
X132921800Y-87895000D01*
G36*
X142549749Y-82266856D02*
X142990316Y-82561233D01*
X143337696Y-82630331D01*
X143441624Y-82838188D01*
X143602025Y-83158991D01*
X143549189Y-83238066D01*
X143398092Y-82931581D01*
X142969954Y-82556025D01*
X142617607Y-82410090D01*
X142392400Y-82521714D01*
X142392400Y-83667600D01*
X142412400Y-83667600D01*
X142412400Y-83972400D01*
X142392400Y-83972400D01*
X142392400Y-85118286D01*
X142617607Y-85229910D01*
X142969954Y-85083975D01*
X143398092Y-84708419D01*
X143549189Y-84401934D01*
X143819749Y-84806856D01*
X144260316Y-85101233D01*
X144780000Y-85204605D01*
X145299684Y-85101233D01*
X145740251Y-84806856D01*
X146034628Y-84366289D01*
X146050000Y-84289009D01*
X146065372Y-84366289D01*
X146359749Y-84806856D01*
X146800316Y-85101233D01*
X147320000Y-85204605D01*
X147839684Y-85101233D01*
X148280251Y-84806856D01*
X148574628Y-84366289D01*
X148590000Y-84289009D01*
X148605372Y-84366289D01*
X148899749Y-84806856D01*
X149340316Y-85101233D01*
X149860000Y-85204605D01*
X150379684Y-85101233D01*
X150820251Y-84806856D01*
X151114628Y-84366289D01*
X151130000Y-84289009D01*
X151145372Y-84366289D01*
X151439749Y-84806856D01*
X151880316Y-85101233D01*
X152400000Y-85204605D01*
X152919684Y-85101233D01*
X152925604Y-85097278D01*
X152925498Y-85219000D01*
X149099793Y-85219000D01*
X149048293Y-85167410D01*
X148751426Y-85044140D01*
X148429984Y-85043860D01*
X148132903Y-85166611D01*
X147905410Y-85393707D01*
X147782140Y-85690574D01*
X147781860Y-86012016D01*
X147901642Y-86301910D01*
X144616145Y-86298527D01*
X144381161Y-86278945D01*
X144285793Y-86183410D01*
X143988926Y-86060140D01*
X143667484Y-86059860D01*
X143370403Y-86182611D01*
X143142910Y-86409707D01*
X143019640Y-86706574D01*
X143019498Y-86870000D01*
X139708197Y-86870000D01*
X139571000Y-86732802D01*
X139571000Y-86578000D01*
X139791156Y-86578000D01*
X139813207Y-86600090D01*
X140110074Y-86723360D01*
X140431516Y-86723640D01*
X140728597Y-86600889D01*
X140956090Y-86373793D01*
X141079360Y-86076926D01*
X141079640Y-85755484D01*
X140956889Y-85458403D01*
X140729793Y-85230910D01*
X140432926Y-85107640D01*
X140188544Y-85107427D01*
X140219684Y-85101233D01*
X140660251Y-84806856D01*
X140930811Y-84401934D01*
X141081908Y-84708419D01*
X141510046Y-85083975D01*
X141862393Y-85229910D01*
X142087600Y-85118286D01*
X142087600Y-83972400D01*
X142067600Y-83972400D01*
X142067600Y-83667600D01*
X142087600Y-83667600D01*
X142087600Y-82521714D01*
X141862393Y-82410090D01*
X141843810Y-82417787D01*
X142128092Y-82168419D01*
X142279189Y-81861934D01*
X142549749Y-82266856D01*
X142549749Y-82266856D01*
G37*
X142549749Y-82266856D02*
X142990316Y-82561233D01*
X143337696Y-82630331D01*
X143441624Y-82838188D01*
X143602025Y-83158991D01*
X143549189Y-83238066D01*
X143398092Y-82931581D01*
X142969954Y-82556025D01*
X142617607Y-82410090D01*
X142392400Y-82521714D01*
X142392400Y-83667600D01*
X142412400Y-83667600D01*
X142412400Y-83972400D01*
X142392400Y-83972400D01*
X142392400Y-85118286D01*
X142617607Y-85229910D01*
X142969954Y-85083975D01*
X143398092Y-84708419D01*
X143549189Y-84401934D01*
X143819749Y-84806856D01*
X144260316Y-85101233D01*
X144780000Y-85204605D01*
X145299684Y-85101233D01*
X145740251Y-84806856D01*
X146034628Y-84366289D01*
X146050000Y-84289009D01*
X146065372Y-84366289D01*
X146359749Y-84806856D01*
X146800316Y-85101233D01*
X147320000Y-85204605D01*
X147839684Y-85101233D01*
X148280251Y-84806856D01*
X148574628Y-84366289D01*
X148590000Y-84289009D01*
X148605372Y-84366289D01*
X148899749Y-84806856D01*
X149340316Y-85101233D01*
X149860000Y-85204605D01*
X150379684Y-85101233D01*
X150820251Y-84806856D01*
X151114628Y-84366289D01*
X151130000Y-84289009D01*
X151145372Y-84366289D01*
X151439749Y-84806856D01*
X151880316Y-85101233D01*
X152400000Y-85204605D01*
X152919684Y-85101233D01*
X152925604Y-85097278D01*
X152925498Y-85219000D01*
X149099793Y-85219000D01*
X149048293Y-85167410D01*
X148751426Y-85044140D01*
X148429984Y-85043860D01*
X148132903Y-85166611D01*
X147905410Y-85393707D01*
X147782140Y-85690574D01*
X147781860Y-86012016D01*
X147901642Y-86301910D01*
X144616145Y-86298527D01*
X144381161Y-86278945D01*
X144285793Y-86183410D01*
X143988926Y-86060140D01*
X143667484Y-86059860D01*
X143370403Y-86182611D01*
X143142910Y-86409707D01*
X143019640Y-86706574D01*
X143019498Y-86870000D01*
X139708197Y-86870000D01*
X139571000Y-86732802D01*
X139571000Y-86578000D01*
X139791156Y-86578000D01*
X139813207Y-86600090D01*
X140110074Y-86723360D01*
X140431516Y-86723640D01*
X140728597Y-86600889D01*
X140956090Y-86373793D01*
X141079360Y-86076926D01*
X141079640Y-85755484D01*
X140956889Y-85458403D01*
X140729793Y-85230910D01*
X140432926Y-85107640D01*
X140188544Y-85107427D01*
X140219684Y-85101233D01*
X140660251Y-84806856D01*
X140930811Y-84401934D01*
X141081908Y-84708419D01*
X141510046Y-85083975D01*
X141862393Y-85229910D01*
X142087600Y-85118286D01*
X142087600Y-83972400D01*
X142067600Y-83972400D01*
X142067600Y-83667600D01*
X142087600Y-83667600D01*
X142087600Y-82521714D01*
X141862393Y-82410090D01*
X141843810Y-82417787D01*
X142128092Y-82168419D01*
X142279189Y-81861934D01*
X142549749Y-82266856D01*
M02*
