M48
;DRILL file {KiCad 4.0.6} date 06/05/17 08:14:30
;FORMAT={3:3/ absolute / metric / suppress trailing zeros}
FMAT,2
METRIC,LZ
T1C0.400
T2C0.810
T3C1.000
T4C2.300
%
G90
G05
M71
T1
X115824Y-11684
X118364Y-10541
X119951Y-115506
X121666Y-101409
X124206Y-080772
X125095Y-102362
X125984Y-09652
X125984Y-114554
X126111Y-101219
X126492Y-091567
X127635Y-104902
X127889Y-09652
X128143Y-107315
X128397Y-091567
X128651Y-103886
X128651Y-125286
X129413Y-09017
X129794Y-105029
X129794Y-107188
X130048Y-100584
X130302Y-114935
X130302Y-122428
X130683Y-0889
X131572Y-087122
X131572Y-099695
X131699Y-102108
X131699Y-106299
X131699Y-109982
X131826Y-085979
X131953Y-118745
X131953Y-123253
X132461Y-0889
X132588Y-104394
X132969Y-100584
X13335Y-10541
X133604Y-089154
X133731Y-115443
X134112Y-100584
X134366Y-10541
X135128Y-088392
X135128Y-091059
X135128Y-100584
X135509Y-103632
X136398Y-091186
X136652Y-093726
X138176Y-089916
X139446Y-129985
X139675Y-089129
X1397Y-091059
X140272Y-085916
X142684Y-126429
X143827Y-086868
X14732Y-127
X14859Y-085852
X14859Y-089916
X148717Y-124968
X149161Y-124143
X150876Y-125984
X150876Y-12681
X153734Y-085217
X155753Y-086309
X156845Y-122682
X156909Y-092583
X156972Y-098171
X156972Y-112903
X157734Y-087313
X15875Y-094742
X159004Y-087757
X159004Y-089154
X159004Y-091313
X159131Y-092964
X160274Y-094742
X161163Y-088265
X161417Y-089154
X161417Y-093345
X161925Y-094742
X162484Y-120459
X162814Y-104648
X162814Y-106172
X162814Y-107442
X163576Y-124714
X163957Y-089154
X164084Y-104648
X164084Y-106045
X164084Y-107442
X165481Y-104648
X165481Y-106172
X165481Y-107442
X165735Y-124714
X166497Y-089154
X168275Y-124714
X169037Y-089154
X170307Y-094742
X170688Y-124714
X170815Y-115824
X171323Y-089916
X17145Y-091504
X171704Y-089154
X172085Y-118491
X172149Y-092774
X172149Y-115824
X172974Y-124714
X173355Y-094996
X173355Y-115824
X173482Y-108585
X173609Y-109982
X174244Y-089154
X174371Y-094996
X174943Y-115253
X175082Y-11209
X175082Y-114224
X175387Y-124714
X176047Y-105029
X176047Y-111404
X176124Y-102235
X176149Y-103073
X176403Y-11811
X176784Y-089154
X177394Y-111989
X178206Y-111963
X178206Y-113411
X179324Y-092075
T2
X12119Y-09271
X12119Y-09525
X12319Y-09271
X12319Y-09525
T3
X11811Y-121468
X11811Y-124968
X12192Y-12192
X12192Y-12446
X13335Y-08128
X13462Y-08382
X13589Y-08128
X13716Y-08382
X13716Y-10668
X13716Y-10922
X13716Y-11176
X13716Y-1143
X13843Y-08128
X1397Y-08382
X14097Y-08128
X14224Y-08382
X14224Y-12954
X14351Y-08128
X14478Y-08382
X14478Y-12954
X14605Y-08128
X14732Y-08382
X14732Y-12954
X14859Y-08128
X14986Y-08382
X14986Y-12954
X15113Y-08128
X1524Y-08382
X1524Y-12954
X15367Y-08128
X15494Y-08382
X15494Y-127
X15494Y-12954
X15621Y-08128
X15748Y-08382
X15748Y-127
X15748Y-12954
X16002Y-08128
X16002Y-127
X16002Y-12954
X16256Y-08128
X1651Y-08128
X1651Y-12954
X16764Y-08128
X16764Y-12954
X17018Y-08128
X17018Y-12954
X17272Y-08128
X17272Y-12954
X17526Y-08128
X17526Y-12954
X1778Y-08128
X1778Y-1016
X1778Y-10414
X1778Y-10668
X1778Y-12954
X18034Y-1016
X18034Y-10414
X18034Y-10668
X18034Y-1143
X18034Y-11684
X18034Y-11938
T4
X11849Y-08798
X11849Y-09998
T0
M30
