G04 #@! TF.FileFunction,Copper,L2,Bot,Signal*
%FSLAX46Y46*%
G04 Gerber Fmt 4.6, Leading zero omitted, Abs format (unit mm)*
G04 Created by KiCad (PCBNEW 4.0.6) date 06/05/17 08:14:13*
%MOMM*%
%LPD*%
G01*
G04 APERTURE LIST*
%ADD10C,0.100000*%
%ADD11R,1.700000X1.700000*%
%ADD12O,1.700000X1.700000*%
%ADD13C,1.520000*%
%ADD14C,2.700000*%
%ADD15R,0.900000X1.200000*%
%ADD16R,1.200000X0.900000*%
%ADD17C,0.600000*%
%ADD18C,1.000000*%
%ADD19C,0.250000*%
%ADD20C,0.750000*%
%ADD21C,0.500000*%
%ADD22C,0.406400*%
%ADD23C,0.203200*%
G04 APERTURE END LIST*
D10*
D11*
X165100000Y-129540000D03*
D12*
X167640000Y-129540000D03*
X170180000Y-129540000D03*
X172720000Y-129540000D03*
X175260000Y-129540000D03*
X177800000Y-129540000D03*
D11*
X156210000Y-81280000D03*
D12*
X153670000Y-81280000D03*
X151130000Y-81280000D03*
X148590000Y-81280000D03*
X146050000Y-81280000D03*
X143510000Y-81280000D03*
X140970000Y-81280000D03*
X138430000Y-81280000D03*
X135890000Y-81280000D03*
X133350000Y-81280000D03*
D11*
X177800000Y-81280000D03*
D12*
X175260000Y-81280000D03*
X172720000Y-81280000D03*
X170180000Y-81280000D03*
X167640000Y-81280000D03*
X165100000Y-81280000D03*
X162560000Y-81280000D03*
X160020000Y-81280000D03*
D11*
X142240000Y-129540000D03*
D12*
X144780000Y-129540000D03*
X147320000Y-129540000D03*
X149860000Y-129540000D03*
X152400000Y-129540000D03*
X154940000Y-129540000D03*
X157480000Y-129540000D03*
X160020000Y-129540000D03*
D11*
X154940000Y-127000000D03*
D12*
X157480000Y-127000000D03*
X160020000Y-127000000D03*
D13*
X123190000Y-92710000D03*
X123190000Y-95250000D03*
X121190000Y-95250000D03*
X121190000Y-92710000D03*
D14*
X118490000Y-87980000D03*
X118490000Y-99980000D03*
D11*
X121920000Y-124460000D03*
D12*
X121920000Y-121920000D03*
D11*
X180340000Y-114300000D03*
D12*
X180340000Y-116840000D03*
X180340000Y-119380000D03*
D11*
X177800000Y-101600000D03*
D12*
X180340000Y-101600000D03*
X177800000Y-104140000D03*
X180340000Y-104140000D03*
X177800000Y-106680000D03*
X180340000Y-106680000D03*
D15*
X173786800Y-102954000D03*
X173786800Y-100754000D03*
X176911000Y-98636000D03*
X176911000Y-96436000D03*
D16*
X176573000Y-100076000D03*
X178773000Y-100076000D03*
D15*
X173786800Y-103192400D03*
X173786800Y-105392400D03*
X164465000Y-123909000D03*
X164465000Y-121709000D03*
X166878000Y-123909000D03*
X166878000Y-121709000D03*
X169291000Y-123909000D03*
X169291000Y-121709000D03*
X171704000Y-123909000D03*
X171704000Y-121709000D03*
X174117000Y-123909000D03*
X174117000Y-121709000D03*
X176403000Y-123909000D03*
X176403000Y-121709000D03*
X164465000Y-125519000D03*
X164465000Y-127719000D03*
X166878000Y-125519000D03*
X166878000Y-127719000D03*
X169291000Y-125519000D03*
X169291000Y-127719000D03*
X171704000Y-125519000D03*
X171704000Y-127719000D03*
X174117000Y-125519000D03*
X174117000Y-127719000D03*
X176403000Y-125519000D03*
X176403000Y-127719000D03*
X160020000Y-85006000D03*
X160020000Y-87206000D03*
X162560000Y-85006000D03*
X162560000Y-87206000D03*
X165100000Y-85006000D03*
X165100000Y-87206000D03*
X167640000Y-85006000D03*
X167640000Y-87206000D03*
X170180000Y-85006000D03*
X170180000Y-87206000D03*
X172720000Y-85006000D03*
X172720000Y-87206000D03*
X175260000Y-85006000D03*
X175260000Y-87206000D03*
X177800000Y-85006000D03*
X177800000Y-87206000D03*
X144843500Y-85323500D03*
X144843500Y-87523500D03*
X147320000Y-85323500D03*
X147320000Y-87523500D03*
X149860000Y-85323500D03*
X149860000Y-87523500D03*
X152400000Y-85323500D03*
X152400000Y-87523500D03*
X154749500Y-85323500D03*
X154749500Y-87523500D03*
X156718000Y-85323500D03*
X156718000Y-87523500D03*
X160020000Y-88816000D03*
X160020000Y-91016000D03*
X144843500Y-88816000D03*
X144843500Y-91016000D03*
X162560000Y-88816000D03*
X162560000Y-91016000D03*
X147320000Y-88816000D03*
X147320000Y-91016000D03*
X165100000Y-88816000D03*
X165100000Y-91016000D03*
X149860000Y-88816000D03*
X149860000Y-91016000D03*
X167640000Y-88816000D03*
X167640000Y-91016000D03*
X152400000Y-88816000D03*
X152400000Y-91016000D03*
X170180000Y-88816000D03*
X170180000Y-91016000D03*
X154749500Y-88816000D03*
X154749500Y-91016000D03*
X172720000Y-88816000D03*
X172720000Y-91016000D03*
X156718000Y-88816000D03*
X156718000Y-91016000D03*
X175260000Y-88816000D03*
X175260000Y-91016000D03*
X177800000Y-88816000D03*
X177800000Y-91016000D03*
D16*
X179382600Y-108788200D03*
X177182600Y-108788200D03*
X177182600Y-110159800D03*
X179382600Y-110159800D03*
D11*
X157480000Y-83820000D03*
D12*
X154940000Y-83820000D03*
X152400000Y-83820000D03*
X149860000Y-83820000D03*
X147320000Y-83820000D03*
X144780000Y-83820000D03*
X142240000Y-83820000D03*
X139700000Y-83820000D03*
X137160000Y-83820000D03*
X134620000Y-83820000D03*
D11*
X137160000Y-106680000D03*
D12*
X137160000Y-109220000D03*
X137160000Y-111760000D03*
X137160000Y-114300000D03*
D11*
X118110000Y-124968000D03*
D12*
X118110000Y-121468000D03*
D17*
X130302000Y-122428000D03*
X125095000Y-102362000D03*
X118364000Y-105410000D03*
X127889000Y-96520000D03*
X121666000Y-101409500D03*
X156908500Y-92583000D03*
X119951500Y-115506500D03*
X115824000Y-116840000D03*
X139446000Y-129984500D03*
X128651000Y-125285500D03*
X125984000Y-96520000D03*
X129794000Y-105029000D03*
X128651000Y-103886000D03*
X129794000Y-107188000D03*
X128143000Y-107315000D03*
X127635000Y-104902000D03*
X124206000Y-80772000D03*
X179324000Y-92075000D03*
X172085000Y-118491000D03*
X176403000Y-118110000D03*
X139700000Y-91059000D03*
X129413000Y-90170000D03*
X130048000Y-100584000D03*
X133604000Y-89154000D03*
X176047400Y-111404400D03*
X156845000Y-122682000D03*
X139674600Y-89128600D03*
X156972000Y-112903000D03*
X156972000Y-98171000D03*
X165481000Y-107442000D03*
X165481000Y-106172000D03*
X165481000Y-104648000D03*
X164084000Y-104648000D03*
X164084000Y-106045000D03*
X162814000Y-107442000D03*
X162814000Y-106172000D03*
X162814000Y-104648000D03*
X164084000Y-107442000D03*
X131953000Y-118745000D03*
X142684500Y-126428500D03*
X131953000Y-123253500D03*
X131572000Y-87122000D03*
X131572000Y-99695000D03*
X126111000Y-101219000D03*
X131699000Y-109982000D03*
X176047400Y-105029000D03*
X135128000Y-91059000D03*
X135128000Y-88392000D03*
X140271500Y-85915500D03*
X131826000Y-85979000D03*
X157734000Y-87312500D03*
X159004000Y-87757000D03*
X136652000Y-93726000D03*
X136398000Y-91186000D03*
X138176000Y-89916000D03*
X148590000Y-89916000D03*
X148590000Y-85852000D03*
X171450000Y-91503500D03*
X172148500Y-92773500D03*
X143827500Y-86868000D03*
X169037000Y-89154000D03*
X174244000Y-89154000D03*
X174942500Y-115252500D03*
X173482000Y-108585000D03*
X175082200Y-114223800D03*
X175082200Y-112090200D03*
X177393600Y-111988600D03*
X176149000Y-103073200D03*
X176123600Y-102235000D03*
X149161500Y-124142500D03*
X147320000Y-127000000D03*
X150876000Y-125984000D03*
X132461000Y-88900000D03*
X130683000Y-88900000D03*
X134112000Y-100584000D03*
X134366000Y-105410000D03*
X133731000Y-115443000D03*
X130302000Y-114935000D03*
X178206400Y-111963200D03*
X178206400Y-113411000D03*
X162483800Y-120459500D03*
X150876000Y-126809500D03*
X173355000Y-94996000D03*
X148717000Y-124968000D03*
X176784000Y-89154000D03*
X163957000Y-89154000D03*
X168275000Y-124714000D03*
X170688000Y-124714000D03*
X163576000Y-124714000D03*
X165735000Y-124714000D03*
X172974000Y-124714000D03*
X175387000Y-124714000D03*
X170815000Y-115824000D03*
X161163000Y-88265000D03*
X161417000Y-93345000D03*
X161417000Y-89154000D03*
X166497000Y-89154000D03*
X171704000Y-89154000D03*
X172148500Y-115824000D03*
X171323000Y-89916000D03*
X170307000Y-94742000D03*
X153733500Y-85217000D03*
X173609000Y-109982000D03*
X155752800Y-86309200D03*
X174371000Y-94996000D03*
X159004000Y-89154000D03*
X159004000Y-91313000D03*
X173355000Y-115824000D03*
X135509000Y-103632000D03*
X135128000Y-100584000D03*
X158750000Y-94742000D03*
X160274000Y-94742000D03*
X161925000Y-94742000D03*
X159131000Y-92964000D03*
X126492000Y-91567000D03*
X128397000Y-91567000D03*
X131699000Y-102108000D03*
X131699000Y-106299000D03*
X132588000Y-104394000D03*
X125984000Y-114554000D03*
X133350000Y-105410000D03*
X132969000Y-100584000D03*
D18*
X130302000Y-122428000D02*
X130302000Y-118745000D01*
X118364000Y-105410000D02*
X118364000Y-116014500D01*
X118364000Y-116014500D02*
X119888000Y-117602000D01*
X119888000Y-117602000D02*
X129159000Y-117602000D01*
X129159000Y-117602000D02*
X130302000Y-118745000D01*
X144780000Y-129540000D02*
X144780000Y-128638300D01*
X130302000Y-122999500D02*
X130302000Y-122428000D01*
X130302000Y-123761500D02*
X130302000Y-122999500D01*
X135255000Y-127889000D02*
X130302000Y-123761500D01*
X144081500Y-127889000D02*
X135255000Y-127889000D01*
X144780000Y-128638300D02*
X144081500Y-127889000D01*
D19*
X118364000Y-105410000D02*
X123952000Y-105410000D01*
X124587000Y-102870000D02*
X125095000Y-102362000D01*
X124587000Y-104775000D02*
X124587000Y-102870000D01*
X123952000Y-105410000D02*
X124587000Y-104775000D01*
D18*
X127889000Y-96520000D02*
X127889000Y-98425000D01*
X127889000Y-98425000D02*
X127254000Y-99060000D01*
X127254000Y-99060000D02*
X123190000Y-99060000D01*
X123190000Y-95250000D02*
X126365000Y-95250000D01*
X126365000Y-95250000D02*
X127889000Y-96520000D01*
D20*
X152400000Y-129540000D02*
X152400000Y-128422400D01*
X152400000Y-128422400D02*
X151892000Y-127914400D01*
X151892000Y-127914400D02*
X145110200Y-127914400D01*
X145110200Y-127914400D02*
X144780000Y-128244600D01*
X144780000Y-128244600D02*
X144780000Y-128625600D01*
X144780000Y-128625600D02*
X144780000Y-129540000D01*
D18*
X123190000Y-99060000D02*
X121666000Y-101409500D01*
D19*
X156718000Y-92392500D02*
X156718000Y-91016000D01*
X156908500Y-92583000D02*
X156718000Y-92392500D01*
D18*
X137160000Y-111760000D02*
X130302000Y-111760000D01*
X120396000Y-115951000D02*
X119951500Y-115506500D01*
X127698500Y-115951000D02*
X120396000Y-115951000D01*
X128524000Y-115125500D02*
X127698500Y-115951000D01*
X128524000Y-113284000D02*
X128524000Y-115125500D01*
X130302000Y-111760000D02*
X128524000Y-113284000D01*
X128651000Y-125285500D02*
X122745500Y-125285500D01*
X122745500Y-125285500D02*
X121920000Y-124460000D01*
X118110000Y-124968000D02*
X121412000Y-124968000D01*
X121412000Y-124968000D02*
X121920000Y-124460000D01*
D21*
X134873939Y-129989310D02*
X132524500Y-127889000D01*
X140525500Y-131064000D02*
X139446000Y-129984500D01*
X154051000Y-131064000D02*
X140525500Y-131064000D01*
X154940000Y-130175000D02*
X154051000Y-131064000D01*
X139446000Y-129984500D02*
X134873939Y-129989310D01*
X129921000Y-125285500D02*
X128651000Y-125285500D01*
X132524500Y-127889000D02*
X129921000Y-125285500D01*
D18*
X125984000Y-96520000D02*
X125095000Y-97409000D01*
X125095000Y-97409000D02*
X121666000Y-97409000D01*
X121666000Y-97409000D02*
X121190000Y-96933000D01*
X121190000Y-96933000D02*
X121190000Y-95250000D01*
D19*
X129794000Y-107188000D02*
X129794000Y-105029000D01*
X129794000Y-105029000D02*
X129794000Y-107188000D01*
X128143000Y-107315000D02*
X127635000Y-106807000D01*
X127635000Y-106807000D02*
X127635000Y-104902000D01*
X118490000Y-87980000D02*
X120681000Y-87980000D01*
X120681000Y-87980000D02*
X121412000Y-87249000D01*
X121412000Y-87249000D02*
X121412000Y-83566000D01*
X121412000Y-83566000D02*
X124206000Y-80772000D01*
X179324000Y-92075000D02*
X179324000Y-94023000D01*
X179324000Y-94023000D02*
X176911000Y-96436000D01*
X177800000Y-91016000D02*
X178265000Y-91016000D01*
X178265000Y-91016000D02*
X179324000Y-92075000D01*
X172085000Y-118491000D02*
X171831000Y-118237000D01*
X171831000Y-118237000D02*
X157734000Y-118237000D01*
X157734000Y-118237000D02*
X156845000Y-119126000D01*
X156845000Y-119126000D02*
X156845000Y-122682000D01*
X176047400Y-111404400D02*
X176047400Y-117754400D01*
X176047400Y-117754400D02*
X176403000Y-118110000D01*
X176403000Y-121709000D02*
X176403000Y-118110000D01*
D18*
X154940000Y-129540000D02*
X154940000Y-130175000D01*
D21*
X139700000Y-91059000D02*
X137795000Y-91059000D01*
X137795000Y-91059000D02*
X136906000Y-90170000D01*
X136906000Y-90170000D02*
X129413000Y-90170000D01*
X139700000Y-91059000D02*
X139743000Y-91016000D01*
X139743000Y-91016000D02*
X144843500Y-91016000D01*
X120396000Y-90170000D02*
X129413000Y-90170000D01*
X130048000Y-100584000D02*
X130048000Y-100457000D01*
X129413000Y-99822000D02*
X129413000Y-90170000D01*
X130048000Y-100457000D02*
X129413000Y-99822000D01*
X139674600Y-89128600D02*
X133629400Y-89128600D01*
X133629400Y-89128600D02*
X133604000Y-89154000D01*
D19*
X179382600Y-110159800D02*
X180289200Y-110159800D01*
X180848000Y-109601000D02*
X180848000Y-107188000D01*
X180289200Y-110159800D02*
X180848000Y-109601000D01*
X180848000Y-107188000D02*
X180340000Y-106680000D01*
X178790600Y-111150400D02*
X176301400Y-111150400D01*
X178790600Y-111150400D02*
X179032600Y-110908400D01*
X179032600Y-110159800D02*
X179032600Y-110908400D01*
X176301400Y-111150400D02*
X176047400Y-111404400D01*
X176047400Y-121703400D02*
X176403000Y-122059000D01*
X179032600Y-110159800D02*
X179806600Y-110159800D01*
X176047400Y-111404400D02*
X176072800Y-111379000D01*
X173786800Y-101104000D02*
X173786800Y-98171000D01*
X175196500Y-96774000D02*
X176911000Y-96786000D01*
X173786800Y-98171000D02*
X175196500Y-96774000D01*
X176911000Y-96786000D02*
X176911000Y-90666000D01*
X176911000Y-90666000D02*
X176911000Y-90703400D01*
X176911000Y-90703400D02*
X176911000Y-90666000D01*
D20*
X156845000Y-122682000D02*
X156895800Y-122732800D01*
X156895800Y-122732800D02*
X156908500Y-124714000D01*
D19*
X164465000Y-122059000D02*
X162560000Y-122047000D01*
X161925000Y-122682000D02*
X156845000Y-122682000D01*
X162560000Y-122047000D02*
X161925000Y-122682000D01*
D20*
X160020000Y-126085600D02*
X160020000Y-127000000D01*
X156908500Y-124714000D02*
X157480000Y-125425200D01*
X157480000Y-125425200D02*
X159359600Y-125425200D01*
X159359600Y-125425200D02*
X160020000Y-126085600D01*
D19*
X154940000Y-129540000D02*
X154940000Y-129628900D01*
D21*
X160020000Y-127000000D02*
X157480000Y-129540000D01*
D19*
X141141623Y-88264830D02*
X139674600Y-89128600D01*
X141167023Y-85445430D02*
X141141623Y-88264830D01*
X142240000Y-83820000D02*
X141167023Y-85445430D01*
X142265400Y-83845400D02*
X142240000Y-83820000D01*
X156972000Y-112903000D02*
X157099000Y-112776000D01*
X157099000Y-112776000D02*
X163195000Y-112776000D01*
X163195000Y-112776000D02*
X164084000Y-111887000D01*
X164084000Y-111887000D02*
X164084000Y-107442000D01*
X164084000Y-99060000D02*
X164084000Y-104648000D01*
X163068000Y-98044000D02*
X164084000Y-99060000D01*
X157099000Y-98044000D02*
X163068000Y-98044000D01*
X156972000Y-98171000D02*
X157099000Y-98044000D01*
X166878000Y-122059000D02*
X164465000Y-122059000D01*
X169291000Y-122059000D02*
X166878000Y-122059000D01*
X171704000Y-122059000D02*
X169291000Y-122059000D01*
X174117000Y-122059000D02*
X171704000Y-122059000D01*
X176403000Y-122059000D02*
X174117000Y-122059000D01*
X156718000Y-90666000D02*
X160020000Y-90666000D01*
X152400000Y-90666000D02*
X154749500Y-90666000D01*
X162560000Y-90666000D02*
X160020000Y-90666000D01*
X165100000Y-90666000D02*
X162560000Y-90666000D01*
X167640000Y-90666000D02*
X165100000Y-90666000D01*
X170180000Y-90666000D02*
X167640000Y-90666000D01*
X172720000Y-90666000D02*
X170180000Y-90666000D01*
X175260000Y-90666000D02*
X172720000Y-90666000D01*
X177800000Y-90666000D02*
X176911000Y-90666000D01*
X176911000Y-90666000D02*
X175260000Y-90666000D01*
X152400000Y-90666000D02*
X149860000Y-90666000D01*
X149860000Y-90666000D02*
X147320000Y-90666000D01*
X147320000Y-90666000D02*
X144843500Y-90666000D01*
X154749500Y-90666000D02*
X156718000Y-90666000D01*
X164084000Y-107442000D02*
X164076000Y-106053000D01*
X164076000Y-106053000D02*
X164084000Y-106045000D01*
X165481000Y-106172000D02*
X164211000Y-106172000D01*
X164211000Y-106172000D02*
X164084000Y-106045000D01*
X165481000Y-107442000D02*
X164084000Y-107442000D01*
X165481000Y-106172000D02*
X165481000Y-107442000D01*
X165481000Y-104648000D02*
X165481000Y-106172000D01*
X164084000Y-104648000D02*
X165481000Y-104648000D01*
X164084000Y-104648000D02*
X164076000Y-106037000D01*
X164076000Y-106037000D02*
X164084000Y-106045000D01*
X162814000Y-106172000D02*
X163957000Y-106172000D01*
X163957000Y-106172000D02*
X164084000Y-106045000D01*
X162814000Y-104648000D02*
X164084000Y-104648000D01*
X164084000Y-106045000D02*
X164076000Y-106045000D01*
X162814000Y-107442000D02*
X164084000Y-107442000D01*
X162814000Y-106172000D02*
X162814000Y-107442000D01*
X162814000Y-104648000D02*
X162814000Y-106172000D01*
D21*
X120396000Y-95250000D02*
X121190000Y-95250000D01*
X119634000Y-94488000D02*
X120396000Y-95250000D01*
X119634000Y-90932000D02*
X119634000Y-94488000D01*
X120396000Y-90170000D02*
X119634000Y-90932000D01*
D18*
X137160000Y-114300000D02*
X135382000Y-114300000D01*
X133985000Y-118745000D02*
X131953000Y-118745000D01*
X134874000Y-117856000D02*
X133985000Y-118745000D01*
X134874000Y-114808000D02*
X134874000Y-117856000D01*
X135382000Y-114300000D02*
X134874000Y-114808000D01*
X135699500Y-126428500D02*
X142684500Y-126428500D01*
X131953000Y-123253500D02*
X135699500Y-126428500D01*
D20*
X131572000Y-99695000D02*
X131572000Y-100457000D01*
X131572000Y-100457000D02*
X130302000Y-101727000D01*
X131572000Y-87122000D02*
X138303000Y-87122000D01*
X138303000Y-87122000D02*
X138938000Y-86487000D01*
X138938000Y-86487000D02*
X138938000Y-84582000D01*
X138938000Y-84582000D02*
X139700000Y-83820000D01*
X126111000Y-101219000D02*
X127889000Y-101219000D01*
X128397000Y-101727000D02*
X130302000Y-101727000D01*
X127889000Y-101219000D02*
X128397000Y-101727000D01*
X131699000Y-109982000D02*
X126873000Y-109982000D01*
X126873000Y-109982000D02*
X126111000Y-109220000D01*
X126111000Y-109220000D02*
X126111000Y-101219000D01*
D19*
X177368200Y-108229400D02*
X177532600Y-108788200D01*
X176580800Y-107645200D02*
X177368200Y-108229400D01*
X176606200Y-105460800D02*
X176580800Y-107645200D01*
X176047400Y-105029000D02*
X176606200Y-105460800D01*
X177532600Y-110159800D02*
X177532600Y-108788200D01*
X135128000Y-91059000D02*
X135128000Y-91249500D01*
X137160000Y-105537000D02*
X136271000Y-105029000D01*
X135128000Y-88392000D02*
X135191500Y-88328500D01*
X135191500Y-88328500D02*
X138874500Y-88328500D01*
X138874500Y-88328500D02*
X140271500Y-86931500D01*
X140271500Y-86931500D02*
X140271500Y-85915500D01*
X137160000Y-105537000D02*
X137160000Y-106680000D01*
X136271000Y-100457000D02*
X136271000Y-105029000D01*
X135572500Y-99822000D02*
X136271000Y-100457000D01*
X135572500Y-91694000D02*
X135572500Y-99822000D01*
X135128000Y-91249500D02*
X135572500Y-91694000D01*
X137160000Y-83820000D02*
X137160000Y-84836000D01*
X137160000Y-84836000D02*
X136017000Y-85979000D01*
X136017000Y-85979000D02*
X131826000Y-85979000D01*
X157734000Y-87312500D02*
X158305500Y-87503000D01*
X158305500Y-87503000D02*
X159004000Y-87757000D01*
X137160000Y-83820000D02*
X137160000Y-83794600D01*
X136398000Y-93472000D02*
X136652000Y-93726000D01*
X136398000Y-91186000D02*
X136398000Y-93472000D01*
X148590000Y-89916000D02*
X138176000Y-89916000D01*
X148590000Y-85852000D02*
X148590000Y-86995000D01*
X148590000Y-86995000D02*
X147320000Y-87173500D01*
X148578000Y-85864000D02*
X148590000Y-85852000D01*
X147320000Y-87173500D02*
X147320000Y-89166000D01*
X171450000Y-91503500D02*
X172148500Y-92773500D01*
X144843500Y-87173500D02*
X143815500Y-86856000D01*
X143815500Y-86856000D02*
X143827500Y-86868000D01*
X144843500Y-87173500D02*
X144843500Y-89166000D01*
X170180000Y-89166000D02*
X169049000Y-89166000D01*
X169049000Y-89166000D02*
X169037000Y-89154000D01*
X170180000Y-86856000D02*
X170180000Y-89166000D01*
X174256000Y-89166000D02*
X174244000Y-89154000D01*
X175260000Y-89166000D02*
X174256000Y-89166000D01*
X175260000Y-86856000D02*
X175260000Y-89166000D01*
X174752000Y-110744000D02*
X174307500Y-111188500D01*
X173482000Y-108585000D02*
X174180500Y-108585000D01*
X174180500Y-108585000D02*
X174752000Y-109156500D01*
X174752000Y-109156500D02*
X174752000Y-110744000D01*
X174307500Y-111188500D02*
X174307500Y-114617500D01*
X174307500Y-114617500D02*
X174942500Y-115252500D01*
X175082200Y-112090200D02*
X175082200Y-114223800D01*
X177774600Y-114300000D02*
X180340000Y-114300000D01*
X177419000Y-113944400D02*
X177774600Y-114300000D01*
X177419000Y-112014000D02*
X177419000Y-113944400D01*
X177393600Y-111988600D02*
X177419000Y-112014000D01*
X176149000Y-103073200D02*
X173906000Y-103073200D01*
X173906000Y-103073200D02*
X173786800Y-102954000D01*
X173786800Y-103542400D02*
X173786800Y-102604000D01*
X176135600Y-103059800D02*
X176149000Y-103073200D01*
X176149000Y-100850000D02*
X176923000Y-100076000D01*
X176149000Y-102209600D02*
X176149000Y-100850000D01*
X176123600Y-102235000D02*
X176149000Y-102209600D01*
X176923000Y-100076000D02*
X176923000Y-98298000D01*
X176923000Y-98298000D02*
X176911000Y-98286000D01*
X149161500Y-124142500D02*
X147955000Y-124142500D01*
X147320000Y-124777500D02*
X147320000Y-127000000D01*
X147955000Y-124142500D02*
X147320000Y-124777500D01*
X150876000Y-125984000D02*
X150876000Y-125857000D01*
X150876000Y-125857000D02*
X149161500Y-124142500D01*
X132461000Y-88900000D02*
X130683000Y-88900000D01*
X134366000Y-105410000D02*
X134112000Y-104775000D01*
X134112000Y-104775000D02*
X134112000Y-100584000D01*
X133731000Y-115443000D02*
X133223000Y-114935000D01*
X133223000Y-114935000D02*
X130302000Y-114935000D01*
X178206400Y-111963200D02*
X178181000Y-111988600D01*
X178181000Y-111988600D02*
X178206400Y-113411000D01*
X173990000Y-119570500D02*
X173990000Y-115366800D01*
X162483800Y-120459500D02*
X173101000Y-120459500D01*
X173101000Y-120459500D02*
X173990000Y-119570500D01*
X172516800Y-94996000D02*
X172281002Y-95231798D01*
X172281002Y-95231798D02*
X172281002Y-113657802D01*
X172281002Y-113657802D02*
X173990000Y-115366800D01*
X173355000Y-94996000D02*
X172516800Y-94996000D01*
X149987000Y-126047500D02*
X150876000Y-126809500D01*
X148717000Y-124968000D02*
X149987000Y-126047500D01*
X176796000Y-89166000D02*
X176784000Y-89154000D01*
X176796000Y-89166000D02*
X177800000Y-89166000D01*
X177800000Y-86856000D02*
X177800000Y-89166000D01*
X165100000Y-89166000D02*
X163969000Y-89166000D01*
X163969000Y-89166000D02*
X163957000Y-89154000D01*
X165100000Y-86856000D02*
X165100000Y-89166000D01*
X168287000Y-124702000D02*
X169291000Y-123559000D01*
X168287000Y-124702000D02*
X168275000Y-124714000D01*
X169291000Y-123559000D02*
X169291000Y-125869000D01*
X171692000Y-123571000D02*
X170688000Y-124714000D01*
X171692000Y-123571000D02*
X171704000Y-123559000D01*
X171704000Y-123559000D02*
X171704000Y-125869000D01*
X163588000Y-124702000D02*
X163576000Y-124714000D01*
X164465000Y-123559000D02*
X163588000Y-124702000D01*
X164465000Y-123559000D02*
X164465000Y-125869000D01*
X165747000Y-124702000D02*
X165735000Y-124714000D01*
X166878000Y-123559000D02*
X165747000Y-124702000D01*
X166878000Y-123559000D02*
X166878000Y-125869000D01*
X174117000Y-123559000D02*
X172974000Y-124714000D01*
X172974000Y-124714000D02*
X172962000Y-124726000D01*
X174117000Y-123559000D02*
X174117000Y-125869000D01*
X175399000Y-124702000D02*
X176403000Y-123559000D01*
X175399000Y-124702000D02*
X175387000Y-124714000D01*
X176403000Y-123559000D02*
X176403000Y-125869000D01*
X170815000Y-115824000D02*
X170815000Y-96647000D01*
X160020000Y-89166000D02*
X161175000Y-88277000D01*
X161175000Y-88277000D02*
X161163000Y-88265000D01*
X162687000Y-94234000D02*
X161417000Y-93345000D01*
X162687000Y-95885000D02*
X162687000Y-94234000D01*
X163195000Y-96393000D02*
X162687000Y-95885000D01*
X170561000Y-96393000D02*
X163195000Y-96393000D01*
X170815000Y-96647000D02*
X170561000Y-96393000D01*
X160020000Y-86856000D02*
X160020000Y-89166000D01*
X162560000Y-89166000D02*
X161429000Y-89166000D01*
X161429000Y-89166000D02*
X161417000Y-89154000D01*
X162560000Y-86856000D02*
X162560000Y-89166000D01*
X167640000Y-89166000D02*
X166509000Y-89166000D01*
X166509000Y-89166000D02*
X166497000Y-89154000D01*
X167640000Y-86856000D02*
X167640000Y-89166000D01*
X171716000Y-89166000D02*
X171704000Y-89154000D01*
X172720000Y-89166000D02*
X171716000Y-89166000D01*
X172720000Y-86856000D02*
X172720000Y-89166000D01*
X150241000Y-89916000D02*
X171323000Y-89916000D01*
X149860000Y-89598500D02*
X150241000Y-89916000D01*
X171323000Y-114998500D02*
X172148500Y-115824000D01*
X171323000Y-95758000D02*
X171323000Y-114998500D01*
X170307000Y-94742000D02*
X171323000Y-95758000D01*
X149860000Y-89166000D02*
X149860000Y-89598500D01*
X149860000Y-87173500D02*
X149860000Y-89166000D01*
X152400000Y-87173500D02*
X153416000Y-87185500D01*
X153733500Y-86931500D02*
X153733500Y-85217000D01*
X153416000Y-87185500D02*
X153733500Y-86931500D01*
X152400000Y-87173500D02*
X152400000Y-89166000D01*
X173609000Y-109982000D02*
X173532800Y-109905800D01*
X173532800Y-109905800D02*
X173086604Y-109855000D01*
X173086604Y-109855000D02*
X172731004Y-109499400D01*
X172731004Y-109499400D02*
X172731004Y-96051796D01*
X172731004Y-96051796D02*
X173126400Y-95656400D01*
X173126400Y-95656400D02*
X173710600Y-95656400D01*
X173710600Y-95656400D02*
X174371000Y-94996000D01*
X155752800Y-86309200D02*
X155765500Y-86868000D01*
X155765500Y-86868000D02*
X154749500Y-87173500D01*
X155752800Y-86309200D02*
X155740800Y-86321200D01*
X154749500Y-87173500D02*
X154749500Y-89166000D01*
X159004000Y-91313000D02*
X159004000Y-91948000D01*
X158992000Y-89166000D02*
X159004000Y-89154000D01*
X160274000Y-92583000D02*
X162306000Y-92583000D01*
X162306000Y-92583000D02*
X163703000Y-93980000D01*
X163703000Y-93980000D02*
X170561000Y-93980000D01*
X170561000Y-93980000D02*
X171831000Y-95250000D01*
X171831000Y-95250000D02*
X171831000Y-114300000D01*
X173355000Y-115824000D02*
X171831000Y-114300000D01*
X158992000Y-89166000D02*
X156718000Y-89166000D01*
X159893000Y-92202000D02*
X160274000Y-92583000D01*
X159258000Y-92202000D02*
X159893000Y-92202000D01*
X159004000Y-91948000D02*
X159258000Y-92202000D01*
X156718000Y-87173500D02*
X156718000Y-89166000D01*
X164465000Y-127369000D02*
X164465000Y-128905000D01*
X164465000Y-128905000D02*
X165100000Y-129540000D01*
X166878000Y-127369000D02*
X166878000Y-128778000D01*
X166878000Y-128778000D02*
X167640000Y-129540000D01*
X169291000Y-127369000D02*
X169291000Y-128651000D01*
X169291000Y-128651000D02*
X170180000Y-129540000D01*
X171704000Y-127369000D02*
X171704000Y-128524000D01*
X171704000Y-128524000D02*
X172720000Y-129540000D01*
X174117000Y-127369000D02*
X174117000Y-128397000D01*
X174117000Y-128397000D02*
X175260000Y-129540000D01*
X174244000Y-127496000D02*
X174117000Y-127369000D01*
X176403000Y-127369000D02*
X176403000Y-128143000D01*
X176403000Y-128143000D02*
X177800000Y-129540000D01*
X157480000Y-83820000D02*
X156718000Y-85673500D01*
X154940000Y-83820000D02*
X154749500Y-85673500D01*
D22*
X153543000Y-81394300D02*
X153543000Y-81140300D01*
D19*
X152400000Y-83820000D02*
X152400000Y-85673500D01*
X149860000Y-83820000D02*
X149860000Y-85673500D01*
X147320000Y-83820000D02*
X147320000Y-85673500D01*
X144780000Y-83820000D02*
X144843500Y-85673500D01*
X144843500Y-85673500D02*
X144843500Y-85534500D01*
X177800000Y-85356000D02*
X177800000Y-81280000D01*
X175260000Y-85356000D02*
X175260000Y-81280000D01*
X172720000Y-85356000D02*
X172720000Y-81280000D01*
X170180000Y-85356000D02*
X170180000Y-81280000D01*
X167640000Y-85356000D02*
X167640000Y-81280000D01*
X165100000Y-85356000D02*
X165100000Y-81280000D01*
X162560000Y-85356000D02*
X162560000Y-81280000D01*
X160020000Y-85356000D02*
X160020000Y-81280000D01*
X135128000Y-100584000D02*
X135128000Y-103251000D01*
X135128000Y-103251000D02*
X135509000Y-103632000D01*
X160274000Y-94742000D02*
X158750000Y-94742000D01*
X161925000Y-94742000D02*
X161925000Y-94488000D01*
X159131000Y-93980000D02*
X159131000Y-92964000D01*
X159258000Y-94107000D02*
X159131000Y-93980000D01*
X161544000Y-94107000D02*
X159258000Y-94107000D01*
X161925000Y-94488000D02*
X161544000Y-94107000D01*
X122301000Y-91567000D02*
X126492000Y-91567000D01*
X121190000Y-92678000D02*
X122301000Y-91567000D01*
X121190000Y-92710000D02*
X121190000Y-92678000D01*
X121190000Y-92710000D02*
X121190000Y-92678000D01*
X128016000Y-92710000D02*
X128397000Y-92329000D01*
X128397000Y-92329000D02*
X128397000Y-91567000D01*
X123190000Y-92710000D02*
X128016000Y-92710000D01*
X177800000Y-101600000D02*
X177800000Y-100699000D01*
X177800000Y-100699000D02*
X178423000Y-100076000D01*
X177800000Y-104140000D02*
X177800000Y-104165400D01*
X177800000Y-104165400D02*
X176758600Y-104267000D01*
X176758600Y-104267000D02*
X174853600Y-104267000D01*
X174853600Y-104267000D02*
X173786800Y-105042400D01*
X179032600Y-108788200D02*
X179032600Y-105447400D01*
X179032600Y-105447400D02*
X180340000Y-104140000D01*
X131699000Y-102108000D02*
X131699000Y-106299000D01*
X132588000Y-104394000D02*
X132588000Y-110363000D01*
X132588000Y-110363000D02*
X132080000Y-110871000D01*
X132080000Y-110871000D02*
X126365000Y-110871000D01*
X126365000Y-110871000D02*
X125984000Y-111252000D01*
X125984000Y-111252000D02*
X125984000Y-114554000D01*
X133350000Y-105410000D02*
X133350000Y-100838000D01*
X133350000Y-100838000D02*
X133096000Y-100584000D01*
X133096000Y-100584000D02*
X132969000Y-100584000D01*
D23*
G36*
X128347474Y-79491883D02*
X127753967Y-80084355D01*
X127432367Y-80858853D01*
X127431635Y-81697468D01*
X127751883Y-82472526D01*
X128344355Y-83066033D01*
X129118853Y-83387633D01*
X129957468Y-83388365D01*
X130732526Y-83068117D01*
X131326033Y-82475645D01*
X131647633Y-81701147D01*
X131648023Y-81253395D01*
X131992000Y-81253395D01*
X131992000Y-81306605D01*
X132095372Y-81826289D01*
X132389749Y-82266856D01*
X132830316Y-82561233D01*
X133350000Y-82664605D01*
X133869684Y-82561233D01*
X134310251Y-82266856D01*
X134604628Y-81826289D01*
X134620000Y-81749009D01*
X134635372Y-81826289D01*
X134929749Y-82266856D01*
X135370316Y-82561233D01*
X135890000Y-82664605D01*
X136409684Y-82561233D01*
X136850251Y-82266856D01*
X137144628Y-81826289D01*
X137160000Y-81749009D01*
X137175372Y-81826289D01*
X137469749Y-82266856D01*
X137910316Y-82561233D01*
X138430000Y-82664605D01*
X138949684Y-82561233D01*
X139390251Y-82266856D01*
X139660811Y-81861934D01*
X139811908Y-82168419D01*
X140240046Y-82543975D01*
X140592393Y-82689910D01*
X140817600Y-82578286D01*
X140817600Y-81432400D01*
X140797600Y-81432400D01*
X140797600Y-81127600D01*
X140817600Y-81127600D01*
X140817600Y-79981714D01*
X140592393Y-79870090D01*
X140240046Y-80016025D01*
X139811908Y-80391581D01*
X139660811Y-80698066D01*
X139390251Y-80293144D01*
X138949684Y-79998767D01*
X138430000Y-79895395D01*
X137910316Y-79998767D01*
X137469749Y-80293144D01*
X137175372Y-80733711D01*
X137160000Y-80810991D01*
X137144628Y-80733711D01*
X136850251Y-80293144D01*
X136409684Y-79998767D01*
X135890000Y-79895395D01*
X135370316Y-79998767D01*
X134929749Y-80293144D01*
X134635372Y-80733711D01*
X134620000Y-80810991D01*
X134604628Y-80733711D01*
X134310251Y-80293144D01*
X133869684Y-79998767D01*
X133350000Y-79895395D01*
X132830316Y-79998767D01*
X132389749Y-80293144D01*
X132095372Y-80733711D01*
X131992000Y-81253395D01*
X131648023Y-81253395D01*
X131648365Y-80862532D01*
X131328117Y-80087474D01*
X130735645Y-79493967D01*
X130357386Y-79336900D01*
X178842414Y-79336900D01*
X179757000Y-80251486D01*
X179757000Y-91440000D01*
X179801378Y-91663105D01*
X179927757Y-91852243D01*
X182267860Y-94192347D01*
X182267860Y-95665677D01*
X182128117Y-95327474D01*
X181535645Y-94733967D01*
X180761147Y-94412367D01*
X179922532Y-94411635D01*
X179147474Y-94731883D01*
X178553967Y-95324355D01*
X178232367Y-96098853D01*
X178231635Y-96937468D01*
X178551883Y-97712526D01*
X179144355Y-98306033D01*
X179918853Y-98627633D01*
X180757468Y-98628365D01*
X181532526Y-98308117D01*
X182126033Y-97715645D01*
X182267860Y-97374088D01*
X182267860Y-123605677D01*
X182128117Y-123267474D01*
X181535645Y-122673967D01*
X180761147Y-122352367D01*
X179922532Y-122351635D01*
X179147474Y-122671883D01*
X178553967Y-123264355D01*
X178232367Y-124038853D01*
X178231635Y-124877468D01*
X178551883Y-125652526D01*
X179144355Y-126246033D01*
X179918853Y-126567633D01*
X180757468Y-126568365D01*
X181532526Y-126248117D01*
X182126033Y-125655645D01*
X182267860Y-125314088D01*
X182267860Y-126787653D01*
X179927757Y-129127757D01*
X179801378Y-129316895D01*
X179776615Y-129441386D01*
X179757000Y-129540000D01*
X179757000Y-130568514D01*
X179121814Y-131203700D01*
X129587160Y-131203700D01*
X130056033Y-130735645D01*
X130377633Y-129961147D01*
X130378365Y-129122532D01*
X130058117Y-128347474D01*
X129465645Y-127753967D01*
X128691147Y-127432367D01*
X127852532Y-127431635D01*
X127077474Y-127751883D01*
X126483967Y-128344355D01*
X126162367Y-129118853D01*
X126161635Y-129957468D01*
X126481883Y-130732526D01*
X126952235Y-131203700D01*
X115518186Y-131203700D01*
X115163600Y-130849114D01*
X115163600Y-125272800D01*
X116650400Y-125272800D01*
X116650400Y-125939257D01*
X116743206Y-126163311D01*
X116914689Y-126334794D01*
X117138743Y-126427600D01*
X117805200Y-126427600D01*
X117957600Y-126275200D01*
X117957600Y-125120400D01*
X118262400Y-125120400D01*
X118262400Y-126275200D01*
X118414800Y-126427600D01*
X119081257Y-126427600D01*
X119305311Y-126334794D01*
X119476794Y-126163311D01*
X119569600Y-125939257D01*
X119569600Y-125272800D01*
X119417200Y-125120400D01*
X118262400Y-125120400D01*
X117957600Y-125120400D01*
X116802800Y-125120400D01*
X116650400Y-125272800D01*
X115163600Y-125272800D01*
X115163600Y-123996743D01*
X116650400Y-123996743D01*
X116650400Y-124663200D01*
X116802800Y-124815600D01*
X117957600Y-124815600D01*
X117957600Y-123660800D01*
X118262400Y-123660800D01*
X118262400Y-124815600D01*
X119417200Y-124815600D01*
X119468000Y-124764800D01*
X120460400Y-124764800D01*
X120460400Y-125431257D01*
X120553206Y-125655311D01*
X120724689Y-125826794D01*
X120948743Y-125919600D01*
X121615200Y-125919600D01*
X121767600Y-125767200D01*
X121767600Y-124612400D01*
X122072400Y-124612400D01*
X122072400Y-125767200D01*
X122224800Y-125919600D01*
X122891257Y-125919600D01*
X123115311Y-125826794D01*
X123286794Y-125655311D01*
X123379600Y-125431257D01*
X123379600Y-124764800D01*
X123227200Y-124612400D01*
X122072400Y-124612400D01*
X121767600Y-124612400D01*
X120612800Y-124612400D01*
X120460400Y-124764800D01*
X119468000Y-124764800D01*
X119569600Y-124663200D01*
X119569600Y-123996743D01*
X119476794Y-123772689D01*
X119305311Y-123601206D01*
X119081257Y-123508400D01*
X118414800Y-123508400D01*
X118262400Y-123660800D01*
X117957600Y-123660800D01*
X117805200Y-123508400D01*
X117138743Y-123508400D01*
X116914689Y-123601206D01*
X116743206Y-123772689D01*
X116650400Y-123996743D01*
X115163600Y-123996743D01*
X115163600Y-123488743D01*
X120460400Y-123488743D01*
X120460400Y-124155200D01*
X120612800Y-124307600D01*
X121767600Y-124307600D01*
X121767600Y-124287600D01*
X122072400Y-124287600D01*
X122072400Y-124307600D01*
X123227200Y-124307600D01*
X123379600Y-124155200D01*
X123379600Y-123488743D01*
X123286794Y-123264689D01*
X123115311Y-123093206D01*
X122891257Y-123000400D01*
X122727040Y-123000400D01*
X122906856Y-122880251D01*
X123201233Y-122439684D01*
X123304605Y-121920000D01*
X123201233Y-121400316D01*
X122906856Y-120959749D01*
X122466289Y-120665372D01*
X121946605Y-120562000D01*
X121893395Y-120562000D01*
X121373711Y-120665372D01*
X120933144Y-120959749D01*
X120638767Y-121400316D01*
X120535395Y-121920000D01*
X120638767Y-122439684D01*
X120933144Y-122880251D01*
X121112960Y-123000400D01*
X120948743Y-123000400D01*
X120724689Y-123093206D01*
X120553206Y-123264689D01*
X120460400Y-123488743D01*
X115163600Y-123488743D01*
X115163600Y-121468000D01*
X116725395Y-121468000D01*
X116828767Y-121987684D01*
X117123144Y-122428251D01*
X117563711Y-122722628D01*
X118083395Y-122826000D01*
X118136605Y-122826000D01*
X118656289Y-122722628D01*
X119096856Y-122428251D01*
X119391233Y-121987684D01*
X119494605Y-121468000D01*
X119391233Y-120948316D01*
X119096856Y-120507749D01*
X118656289Y-120213372D01*
X118136605Y-120110000D01*
X118083395Y-120110000D01*
X117563711Y-120213372D01*
X117123144Y-120507749D01*
X116828767Y-120948316D01*
X116725395Y-121468000D01*
X115163600Y-121468000D01*
X115163600Y-105410000D01*
X117356000Y-105410000D01*
X117356000Y-116014500D01*
X117392392Y-116197455D01*
X117425052Y-116381163D01*
X117430687Y-116389981D01*
X117432729Y-116400245D01*
X117536390Y-116555385D01*
X117636842Y-116712572D01*
X119160842Y-118300072D01*
X119169421Y-118306061D01*
X119175236Y-118314764D01*
X119330385Y-118418431D01*
X119483334Y-118525206D01*
X119493553Y-118527456D01*
X119502255Y-118533271D01*
X119685226Y-118569666D01*
X119867433Y-118609791D01*
X119877738Y-118607959D01*
X119888000Y-118610000D01*
X128741472Y-118610000D01*
X129294000Y-119162528D01*
X129294000Y-123761500D01*
X129303013Y-123806813D01*
X129298139Y-123852760D01*
X129341114Y-123998360D01*
X129370729Y-124147245D01*
X129396398Y-124185661D01*
X129409477Y-124229974D01*
X129504896Y-124348041D01*
X129589236Y-124474264D01*
X129627653Y-124499934D01*
X129656694Y-124535867D01*
X134609694Y-128663367D01*
X134743031Y-128735931D01*
X134869255Y-128820271D01*
X134914570Y-128829285D01*
X134955152Y-128851370D01*
X135106114Y-128867385D01*
X135255000Y-128897000D01*
X140872048Y-128897000D01*
X140872048Y-130390000D01*
X140907470Y-130578253D01*
X141018728Y-130751153D01*
X141188488Y-130867145D01*
X141390000Y-130907952D01*
X143090000Y-130907952D01*
X143278253Y-130872530D01*
X143451153Y-130761272D01*
X143567145Y-130591512D01*
X143607952Y-130390000D01*
X143607952Y-130209879D01*
X143819749Y-130526856D01*
X144260316Y-130821233D01*
X144780000Y-130924605D01*
X145299684Y-130821233D01*
X145740251Y-130526856D01*
X146034628Y-130086289D01*
X146050000Y-130009009D01*
X146065372Y-130086289D01*
X146359749Y-130526856D01*
X146800316Y-130821233D01*
X147320000Y-130924605D01*
X147839684Y-130821233D01*
X148280251Y-130526856D01*
X148574628Y-130086289D01*
X148590000Y-130009009D01*
X148605372Y-130086289D01*
X148899749Y-130526856D01*
X149340316Y-130821233D01*
X149860000Y-130924605D01*
X150379684Y-130821233D01*
X150820251Y-130526856D01*
X151114628Y-130086289D01*
X151130000Y-130009009D01*
X151145372Y-130086289D01*
X151439749Y-130526856D01*
X151880316Y-130821233D01*
X152400000Y-130924605D01*
X152919684Y-130821233D01*
X153360251Y-130526856D01*
X153630811Y-130121934D01*
X153781908Y-130428419D01*
X154210046Y-130803975D01*
X154562393Y-130949910D01*
X154787600Y-130838286D01*
X154787600Y-129692400D01*
X155092400Y-129692400D01*
X155092400Y-130838286D01*
X155317607Y-130949910D01*
X155669954Y-130803975D01*
X156098092Y-130428419D01*
X156210000Y-130201425D01*
X156321908Y-130428419D01*
X156750046Y-130803975D01*
X157102393Y-130949910D01*
X157327600Y-130838286D01*
X157327600Y-129692400D01*
X155092400Y-129692400D01*
X154787600Y-129692400D01*
X154767600Y-129692400D01*
X154767600Y-129387600D01*
X154787600Y-129387600D01*
X154787600Y-129367600D01*
X155092400Y-129367600D01*
X155092400Y-129387600D01*
X157327600Y-129387600D01*
X157327600Y-129367600D01*
X157632400Y-129367600D01*
X157632400Y-129387600D01*
X157652400Y-129387600D01*
X157652400Y-129692400D01*
X157632400Y-129692400D01*
X157632400Y-130838286D01*
X157857607Y-130949910D01*
X158209954Y-130803975D01*
X158638092Y-130428419D01*
X158789189Y-130121934D01*
X159059749Y-130526856D01*
X159500316Y-130821233D01*
X160020000Y-130924605D01*
X160539684Y-130821233D01*
X160980251Y-130526856D01*
X161274628Y-130086289D01*
X161378000Y-129566605D01*
X161378000Y-129513395D01*
X161274628Y-128993711D01*
X160980251Y-128553144D01*
X160624959Y-128315746D01*
X160749954Y-128263975D01*
X161178092Y-127888419D01*
X161429921Y-127377609D01*
X161319234Y-127152400D01*
X160172400Y-127152400D01*
X160172400Y-127172400D01*
X159867600Y-127172400D01*
X159867600Y-127152400D01*
X159847600Y-127152400D01*
X159847600Y-126847600D01*
X159867600Y-126847600D01*
X159867600Y-125701714D01*
X160172400Y-125701714D01*
X160172400Y-126847600D01*
X161319234Y-126847600D01*
X161429921Y-126622391D01*
X161178092Y-126111581D01*
X160749954Y-125736025D01*
X160397607Y-125590090D01*
X160172400Y-125701714D01*
X159867600Y-125701714D01*
X159642393Y-125590090D01*
X159290046Y-125736025D01*
X158861908Y-126111581D01*
X158710811Y-126418066D01*
X158440251Y-126013144D01*
X157999684Y-125718767D01*
X157480000Y-125615395D01*
X156960316Y-125718767D01*
X156519749Y-126013144D01*
X156307952Y-126330121D01*
X156307952Y-126150000D01*
X156272530Y-125961747D01*
X156161272Y-125788847D01*
X155991512Y-125672855D01*
X155790000Y-125632048D01*
X154090000Y-125632048D01*
X153901747Y-125667470D01*
X153728847Y-125778728D01*
X153612855Y-125948488D01*
X153572048Y-126150000D01*
X153572048Y-127850000D01*
X153607470Y-128038253D01*
X153718728Y-128211153D01*
X153888488Y-128327145D01*
X154090000Y-128367952D01*
X154105248Y-128367952D01*
X153781908Y-128651581D01*
X153630811Y-128958066D01*
X153360251Y-128553144D01*
X153283000Y-128501527D01*
X153283000Y-128422400D01*
X153215786Y-128084491D01*
X153126569Y-127950968D01*
X153024375Y-127798024D01*
X152516375Y-127290025D01*
X152229910Y-127098614D01*
X151892000Y-127031400D01*
X151658749Y-127031400D01*
X151683860Y-126970926D01*
X151684140Y-126649484D01*
X151579607Y-126396495D01*
X151683860Y-126145426D01*
X151684140Y-125823984D01*
X151561389Y-125526903D01*
X151334293Y-125299410D01*
X151127909Y-125213712D01*
X150788214Y-124874016D01*
X162767860Y-124874016D01*
X162890611Y-125171097D01*
X163117707Y-125398590D01*
X163414574Y-125521860D01*
X163497048Y-125521932D01*
X163497048Y-126119000D01*
X163532470Y-126307253D01*
X163643728Y-126480153D01*
X163813488Y-126596145D01*
X163923095Y-126618341D01*
X163826747Y-126636470D01*
X163653847Y-126747728D01*
X163537855Y-126917488D01*
X163497048Y-127119000D01*
X163497048Y-128319000D01*
X163532470Y-128507253D01*
X163643728Y-128680153D01*
X163732048Y-128740499D01*
X163732048Y-130390000D01*
X163767470Y-130578253D01*
X163878728Y-130751153D01*
X164048488Y-130867145D01*
X164250000Y-130907952D01*
X165950000Y-130907952D01*
X166138253Y-130872530D01*
X166311153Y-130761272D01*
X166427145Y-130591512D01*
X166467952Y-130390000D01*
X166467952Y-130209879D01*
X166679749Y-130526856D01*
X167120316Y-130821233D01*
X167640000Y-130924605D01*
X168159684Y-130821233D01*
X168600251Y-130526856D01*
X168894628Y-130086289D01*
X168910000Y-130009009D01*
X168925372Y-130086289D01*
X169219749Y-130526856D01*
X169660316Y-130821233D01*
X170180000Y-130924605D01*
X170699684Y-130821233D01*
X171140251Y-130526856D01*
X171434628Y-130086289D01*
X171450000Y-130009009D01*
X171465372Y-130086289D01*
X171759749Y-130526856D01*
X172200316Y-130821233D01*
X172720000Y-130924605D01*
X173239684Y-130821233D01*
X173680251Y-130526856D01*
X173974628Y-130086289D01*
X173990000Y-130009009D01*
X174005372Y-130086289D01*
X174299749Y-130526856D01*
X174740316Y-130821233D01*
X175260000Y-130924605D01*
X175779684Y-130821233D01*
X176220251Y-130526856D01*
X176514628Y-130086289D01*
X176530000Y-130009009D01*
X176545372Y-130086289D01*
X176839749Y-130526856D01*
X177280316Y-130821233D01*
X177800000Y-130924605D01*
X178319684Y-130821233D01*
X178760251Y-130526856D01*
X179054628Y-130086289D01*
X179158000Y-129566605D01*
X179158000Y-129513395D01*
X179054628Y-128993711D01*
X178760251Y-128553144D01*
X178319684Y-128258767D01*
X177800000Y-128155395D01*
X177391791Y-128236593D01*
X177370952Y-128215754D01*
X177370952Y-127119000D01*
X177335530Y-126930747D01*
X177224272Y-126757847D01*
X177054512Y-126641855D01*
X176944905Y-126619659D01*
X177041253Y-126601530D01*
X177214153Y-126490272D01*
X177330145Y-126320512D01*
X177370952Y-126119000D01*
X177370952Y-124919000D01*
X177335530Y-124730747D01*
X177326213Y-124716267D01*
X177330145Y-124710512D01*
X177370952Y-124509000D01*
X177370952Y-123309000D01*
X177335530Y-123120747D01*
X177224272Y-122947847D01*
X177103262Y-122865164D01*
X177198311Y-122825794D01*
X177369794Y-122654311D01*
X177462600Y-122430257D01*
X177462600Y-122013800D01*
X177310200Y-121861400D01*
X176555400Y-121861400D01*
X176555400Y-121881400D01*
X176250600Y-121881400D01*
X176250600Y-121861400D01*
X175495800Y-121861400D01*
X175343400Y-122013800D01*
X175343400Y-122430257D01*
X175436206Y-122654311D01*
X175607689Y-122825794D01*
X175703879Y-122865637D01*
X175591847Y-122937728D01*
X175475855Y-123107488D01*
X175435048Y-123309000D01*
X175435048Y-123701792D01*
X175255775Y-123905885D01*
X175226984Y-123905860D01*
X175084952Y-123964546D01*
X175084952Y-123309000D01*
X175049530Y-123120747D01*
X174938272Y-122947847D01*
X174817262Y-122865164D01*
X174912311Y-122825794D01*
X175083794Y-122654311D01*
X175176600Y-122430257D01*
X175176600Y-122013800D01*
X175024200Y-121861400D01*
X174269400Y-121861400D01*
X174269400Y-121881400D01*
X173964600Y-121881400D01*
X173964600Y-121861400D01*
X173209800Y-121861400D01*
X173057400Y-122013800D01*
X173057400Y-122430257D01*
X173150206Y-122654311D01*
X173321689Y-122825794D01*
X173417879Y-122865637D01*
X173305847Y-122937728D01*
X173189855Y-123107488D01*
X173149048Y-123309000D01*
X173149048Y-123637206D01*
X172883125Y-123905920D01*
X172813984Y-123905860D01*
X172671952Y-123964546D01*
X172671952Y-123309000D01*
X172636530Y-123120747D01*
X172525272Y-122947847D01*
X172404262Y-122865164D01*
X172499311Y-122825794D01*
X172670794Y-122654311D01*
X172763600Y-122430257D01*
X172763600Y-122013800D01*
X172611200Y-121861400D01*
X171856400Y-121861400D01*
X171856400Y-121881400D01*
X171551600Y-121881400D01*
X171551600Y-121861400D01*
X170796800Y-121861400D01*
X170644400Y-122013800D01*
X170644400Y-122430257D01*
X170737206Y-122654311D01*
X170908689Y-122825794D01*
X171004879Y-122865637D01*
X170892847Y-122937728D01*
X170776855Y-123107488D01*
X170736048Y-123309000D01*
X170736048Y-123700131D01*
X170555316Y-123905884D01*
X170527984Y-123905860D01*
X170258952Y-124017021D01*
X170258952Y-123309000D01*
X170223530Y-123120747D01*
X170112272Y-122947847D01*
X169991262Y-122865164D01*
X170086311Y-122825794D01*
X170257794Y-122654311D01*
X170350600Y-122430257D01*
X170350600Y-122013800D01*
X170198200Y-121861400D01*
X169443400Y-121861400D01*
X169443400Y-121881400D01*
X169138600Y-121881400D01*
X169138600Y-121861400D01*
X168383800Y-121861400D01*
X168231400Y-122013800D01*
X168231400Y-122430257D01*
X168324206Y-122654311D01*
X168495689Y-122825794D01*
X168591879Y-122865637D01*
X168479847Y-122937728D01*
X168363855Y-123107488D01*
X168323048Y-123309000D01*
X168323048Y-123701792D01*
X168143775Y-123905885D01*
X168114984Y-123905860D01*
X167845952Y-124017021D01*
X167845952Y-123309000D01*
X167810530Y-123120747D01*
X167699272Y-122947847D01*
X167578262Y-122865164D01*
X167673311Y-122825794D01*
X167844794Y-122654311D01*
X167937600Y-122430257D01*
X167937600Y-122013800D01*
X167785200Y-121861400D01*
X167030400Y-121861400D01*
X167030400Y-121881400D01*
X166725600Y-121881400D01*
X166725600Y-121861400D01*
X165970800Y-121861400D01*
X165818400Y-122013800D01*
X165818400Y-122430257D01*
X165911206Y-122654311D01*
X166082689Y-122825794D01*
X166178879Y-122865637D01*
X166066847Y-122937728D01*
X165950855Y-123107488D01*
X165910048Y-123309000D01*
X165910048Y-123637264D01*
X165644212Y-123905920D01*
X165574984Y-123905860D01*
X165432952Y-123964546D01*
X165432952Y-123309000D01*
X165397530Y-123120747D01*
X165286272Y-122947847D01*
X165165262Y-122865164D01*
X165260311Y-122825794D01*
X165431794Y-122654311D01*
X165524600Y-122430257D01*
X165524600Y-122013800D01*
X165372200Y-121861400D01*
X164617400Y-121861400D01*
X164617400Y-121881400D01*
X164312600Y-121881400D01*
X164312600Y-121861400D01*
X163557800Y-121861400D01*
X163405400Y-122013800D01*
X163405400Y-122430257D01*
X163498206Y-122654311D01*
X163669689Y-122825794D01*
X163765879Y-122865637D01*
X163653847Y-122937728D01*
X163537855Y-123107488D01*
X163497048Y-123309000D01*
X163497048Y-123780682D01*
X163394046Y-123914925D01*
X163118903Y-124028611D01*
X162891410Y-124255707D01*
X162768140Y-124552574D01*
X162767860Y-124874016D01*
X150788214Y-124874016D01*
X149969577Y-124055379D01*
X149969640Y-123982484D01*
X149846889Y-123685403D01*
X149619793Y-123457910D01*
X149372199Y-123355100D01*
X156400500Y-123355100D01*
X156437427Y-123348152D01*
X156471343Y-123326328D01*
X156494095Y-123293028D01*
X156502100Y-123253500D01*
X156502100Y-92136700D01*
X156565600Y-92073200D01*
X156565600Y-91168400D01*
X156870400Y-91168400D01*
X156870400Y-92073200D01*
X157022800Y-92225600D01*
X157289257Y-92225600D01*
X157513311Y-92132794D01*
X157684794Y-91961311D01*
X157777600Y-91737257D01*
X157777600Y-91320800D01*
X157625200Y-91168400D01*
X156870400Y-91168400D01*
X156565600Y-91168400D01*
X155810800Y-91168400D01*
X155733750Y-91245450D01*
X155656700Y-91168400D01*
X154901900Y-91168400D01*
X154901900Y-91188400D01*
X154597100Y-91188400D01*
X154597100Y-91168400D01*
X153842300Y-91168400D01*
X153689900Y-91320800D01*
X153689900Y-91528900D01*
X153459600Y-91528900D01*
X153459600Y-91320800D01*
X153307200Y-91168400D01*
X152552400Y-91168400D01*
X152552400Y-91188400D01*
X152247600Y-91188400D01*
X152247600Y-91168400D01*
X151492800Y-91168400D01*
X151340400Y-91320800D01*
X151340400Y-91528900D01*
X150919600Y-91528900D01*
X150919600Y-91320800D01*
X150767200Y-91168400D01*
X150012400Y-91168400D01*
X150012400Y-91188400D01*
X149707600Y-91188400D01*
X149707600Y-91168400D01*
X148952800Y-91168400D01*
X148800400Y-91320800D01*
X148800400Y-91528900D01*
X148379600Y-91528900D01*
X148379600Y-91320800D01*
X148227200Y-91168400D01*
X147472400Y-91168400D01*
X147472400Y-91188400D01*
X147167600Y-91188400D01*
X147167600Y-91168400D01*
X146412800Y-91168400D01*
X146260400Y-91320800D01*
X146260400Y-91528900D01*
X145903100Y-91528900D01*
X145903100Y-91320800D01*
X145750700Y-91168400D01*
X144995900Y-91168400D01*
X144995900Y-91188400D01*
X144691100Y-91188400D01*
X144691100Y-91168400D01*
X143936300Y-91168400D01*
X143783900Y-91320800D01*
X143783900Y-91528900D01*
X141668500Y-91528900D01*
X141631573Y-91535848D01*
X141597657Y-91557672D01*
X141574905Y-91590972D01*
X141566900Y-91630500D01*
X141566900Y-93497400D01*
X138112500Y-93497400D01*
X138075573Y-93504348D01*
X138041657Y-93526172D01*
X138018905Y-93559472D01*
X138010900Y-93599000D01*
X138010900Y-105312230D01*
X138010000Y-105312048D01*
X137748255Y-105312048D01*
X137744816Y-105294761D01*
X137698045Y-105224763D01*
X137660473Y-105149422D01*
X137630017Y-105122952D01*
X137607599Y-105089401D01*
X137537597Y-105042627D01*
X137474056Y-104987402D01*
X136904000Y-104661656D01*
X136904000Y-100457000D01*
X136901018Y-100442009D01*
X136903284Y-100426891D01*
X136877025Y-100321387D01*
X136855816Y-100214761D01*
X136847324Y-100202051D01*
X136843632Y-100187219D01*
X136779005Y-100099805D01*
X136718599Y-100009401D01*
X136705888Y-100000908D01*
X136696802Y-99988618D01*
X136205500Y-99541980D01*
X136205500Y-94415487D01*
X136490574Y-94533860D01*
X136812016Y-94534140D01*
X137109097Y-94411389D01*
X137336590Y-94184293D01*
X137459860Y-93887426D01*
X137460140Y-93565984D01*
X137337389Y-93268903D01*
X137110293Y-93041410D01*
X137031000Y-93008485D01*
X137031000Y-91695793D01*
X137082590Y-91644293D01*
X137205860Y-91347426D01*
X137206140Y-91025984D01*
X137083389Y-90728903D01*
X136856293Y-90501410D01*
X136559426Y-90378140D01*
X136237984Y-90377860D01*
X135940903Y-90500611D01*
X135820995Y-90620310D01*
X135813389Y-90601903D01*
X135586293Y-90374410D01*
X135289426Y-90251140D01*
X134967984Y-90250860D01*
X134670903Y-90373611D01*
X134443410Y-90600707D01*
X134320140Y-90897574D01*
X134319860Y-91219016D01*
X134442611Y-91516097D01*
X134669707Y-91743590D01*
X134767499Y-91784197D01*
X134939500Y-91956198D01*
X134939500Y-99787629D01*
X134670903Y-99898611D01*
X134620111Y-99949315D01*
X134570293Y-99899410D01*
X134273426Y-99776140D01*
X133951984Y-99775860D01*
X133654903Y-99898611D01*
X133540500Y-100012815D01*
X133427293Y-99899410D01*
X133130426Y-99776140D01*
X132808984Y-99775860D01*
X132511903Y-99898611D01*
X132455000Y-99955415D01*
X132455000Y-99695000D01*
X132387786Y-99357091D01*
X132196375Y-99070625D01*
X131909909Y-98879214D01*
X131572000Y-98812000D01*
X131234091Y-98879214D01*
X130947625Y-99070625D01*
X130756214Y-99357091D01*
X130689000Y-99695000D01*
X130689000Y-100091250D01*
X129936250Y-100844000D01*
X128762750Y-100844000D01*
X128513375Y-100594625D01*
X128226910Y-100403214D01*
X127889000Y-100336000D01*
X126111000Y-100336000D01*
X125773091Y-100403214D01*
X125486625Y-100594625D01*
X125295214Y-100881091D01*
X125228000Y-101219000D01*
X125228000Y-101554115D01*
X124934984Y-101553860D01*
X124637903Y-101676611D01*
X124410410Y-101903707D01*
X124287140Y-102200574D01*
X124287075Y-102274727D01*
X124139401Y-102422401D01*
X124002184Y-102627761D01*
X123953999Y-102870000D01*
X123954000Y-102870005D01*
X123954000Y-104512803D01*
X123689802Y-104777000D01*
X119130061Y-104777000D01*
X119076764Y-104697236D01*
X118749745Y-104478729D01*
X118364000Y-104402000D01*
X117978255Y-104478729D01*
X117651236Y-104697236D01*
X117432729Y-105024255D01*
X117356000Y-105410000D01*
X115163600Y-105410000D01*
X115163600Y-101388336D01*
X117297190Y-101388336D01*
X117442327Y-101681278D01*
X118173126Y-101952703D01*
X118952167Y-101923802D01*
X119537673Y-101681278D01*
X119682810Y-101388336D01*
X119520810Y-101226336D01*
X120674781Y-101226336D01*
X120680139Y-101619602D01*
X120835585Y-101980881D01*
X121117455Y-102255173D01*
X121482836Y-102400719D01*
X121876102Y-102395361D01*
X122237381Y-102239915D01*
X122511673Y-101958045D01*
X123737648Y-100068000D01*
X127253995Y-100068000D01*
X127254000Y-100068001D01*
X127639745Y-99991271D01*
X127966764Y-99772764D01*
X128601761Y-99137766D01*
X128601764Y-99137764D01*
X128820271Y-98810745D01*
X128835616Y-98733599D01*
X128897001Y-98425000D01*
X128897000Y-98424995D01*
X128897000Y-96520000D01*
X128887987Y-96474687D01*
X128892861Y-96428740D01*
X128849886Y-96283143D01*
X128820271Y-96134255D01*
X128794601Y-96095838D01*
X128781522Y-96051525D01*
X128686104Y-95933460D01*
X128601764Y-95807236D01*
X128563347Y-95781566D01*
X128534306Y-95745633D01*
X127010306Y-94475633D01*
X126876969Y-94403069D01*
X126750745Y-94318729D01*
X126705430Y-94309715D01*
X126664848Y-94287630D01*
X126513886Y-94271615D01*
X126365000Y-94242000D01*
X123975418Y-94242000D01*
X123909202Y-94175668D01*
X123443327Y-93982220D01*
X122938886Y-93981780D01*
X122472674Y-94174415D01*
X122115668Y-94530798D01*
X122109235Y-94546291D01*
X121405526Y-95250000D01*
X122108474Y-95952948D01*
X122114415Y-95967326D01*
X122470798Y-96324332D01*
X122936673Y-96517780D01*
X123441114Y-96518220D01*
X123907326Y-96325585D01*
X123975029Y-96258000D01*
X126000054Y-96258000D01*
X126881000Y-96992122D01*
X126881000Y-98007473D01*
X126836472Y-98052000D01*
X123190000Y-98052000D01*
X123085964Y-98072694D01*
X122979899Y-98074139D01*
X122894953Y-98110688D01*
X122804255Y-98128729D01*
X122716057Y-98187661D01*
X122618619Y-98229585D01*
X122554126Y-98295860D01*
X122477236Y-98347236D01*
X122418304Y-98435435D01*
X122344327Y-98511455D01*
X120820327Y-100860955D01*
X120674781Y-101226336D01*
X119520810Y-101226336D01*
X118490000Y-100195526D01*
X117297190Y-101388336D01*
X115163600Y-101388336D01*
X115163600Y-99663126D01*
X116517297Y-99663126D01*
X116546198Y-100442167D01*
X116788722Y-101027673D01*
X117081664Y-101172810D01*
X118274474Y-99980000D01*
X118705526Y-99980000D01*
X119898336Y-101172810D01*
X120191278Y-101027673D01*
X120462703Y-100296874D01*
X120433802Y-99517833D01*
X120191278Y-98932327D01*
X119898336Y-98787190D01*
X118705526Y-99980000D01*
X118274474Y-99980000D01*
X117081664Y-98787190D01*
X116788722Y-98932327D01*
X116517297Y-99663126D01*
X115163600Y-99663126D01*
X115163600Y-98571664D01*
X117297190Y-98571664D01*
X118490000Y-99764474D01*
X119682810Y-98571664D01*
X119537673Y-98278722D01*
X118806874Y-98007297D01*
X118027833Y-98036198D01*
X117442327Y-98278722D01*
X117297190Y-98571664D01*
X115163600Y-98571664D01*
X115163600Y-96230801D01*
X120424725Y-96230801D01*
X120497395Y-96462568D01*
X121014145Y-96635316D01*
X121557669Y-96597161D01*
X121882605Y-96462568D01*
X121955275Y-96230801D01*
X121190000Y-95465526D01*
X120424725Y-96230801D01*
X115163600Y-96230801D01*
X115163600Y-95074145D01*
X119804684Y-95074145D01*
X119842839Y-95617669D01*
X119977432Y-95942605D01*
X120209199Y-96015275D01*
X120974474Y-95250000D01*
X120209199Y-94484725D01*
X119977432Y-94557395D01*
X119804684Y-95074145D01*
X115163600Y-95074145D01*
X115163600Y-92961114D01*
X119921780Y-92961114D01*
X120114415Y-93427326D01*
X120470798Y-93784332D01*
X120789222Y-93916553D01*
X120497395Y-94037432D01*
X120424725Y-94269199D01*
X121190000Y-95034474D01*
X121955275Y-94269199D01*
X121882605Y-94037432D01*
X121559346Y-93929367D01*
X121907326Y-93785585D01*
X122190181Y-93503224D01*
X122470798Y-93784332D01*
X122936673Y-93977780D01*
X123441114Y-93978220D01*
X123907326Y-93785585D01*
X124264332Y-93429202D01*
X124300126Y-93343000D01*
X128015995Y-93343000D01*
X128016000Y-93343001D01*
X128258239Y-93294816D01*
X128463599Y-93157599D01*
X128844596Y-92776601D01*
X128844599Y-92776599D01*
X128981816Y-92571239D01*
X129030000Y-92329000D01*
X129030000Y-92076793D01*
X129081590Y-92025293D01*
X129204860Y-91728426D01*
X129205140Y-91406984D01*
X129082389Y-91109903D01*
X128855293Y-90882410D01*
X128558426Y-90759140D01*
X128236984Y-90758860D01*
X127939903Y-90881611D01*
X127712410Y-91108707D01*
X127589140Y-91405574D01*
X127588860Y-91727016D01*
X127711611Y-92024097D01*
X127759117Y-92071686D01*
X127753802Y-92077000D01*
X127124793Y-92077000D01*
X127176590Y-92025293D01*
X127299860Y-91728426D01*
X127300140Y-91406984D01*
X127177389Y-91109903D01*
X126950293Y-90882410D01*
X126653426Y-90759140D01*
X126331984Y-90758860D01*
X126034903Y-90881611D01*
X125982422Y-90934000D01*
X122301000Y-90934000D01*
X122058761Y-90982184D01*
X121853401Y-91119401D01*
X121853399Y-91119404D01*
X121504982Y-91467821D01*
X121443327Y-91442220D01*
X120938886Y-91441780D01*
X120472674Y-91634415D01*
X120115668Y-91990798D01*
X119922220Y-92456673D01*
X119921780Y-92961114D01*
X115163600Y-92961114D01*
X115163600Y-89388336D01*
X117297190Y-89388336D01*
X117442327Y-89681278D01*
X118173126Y-89952703D01*
X118952167Y-89923802D01*
X119537673Y-89681278D01*
X119682810Y-89388336D01*
X118490000Y-88195526D01*
X117297190Y-89388336D01*
X115163600Y-89388336D01*
X115163600Y-87663126D01*
X116517297Y-87663126D01*
X116546198Y-88442167D01*
X116788722Y-89027673D01*
X117081664Y-89172810D01*
X118274474Y-87980000D01*
X118705526Y-87980000D01*
X119898336Y-89172810D01*
X120125997Y-89060016D01*
X129874860Y-89060016D01*
X129997611Y-89357097D01*
X130224707Y-89584590D01*
X130521574Y-89707860D01*
X130843016Y-89708140D01*
X131140097Y-89585389D01*
X131192578Y-89533000D01*
X131951207Y-89533000D01*
X132002707Y-89584590D01*
X132299574Y-89707860D01*
X132621016Y-89708140D01*
X132918097Y-89585389D01*
X133145590Y-89358293D01*
X133268860Y-89061426D01*
X133269140Y-88739984D01*
X133146389Y-88442903D01*
X132919293Y-88215410D01*
X132622426Y-88092140D01*
X132300984Y-88091860D01*
X132003903Y-88214611D01*
X131951422Y-88267000D01*
X131192793Y-88267000D01*
X131141293Y-88215410D01*
X130844426Y-88092140D01*
X130522984Y-88091860D01*
X130225903Y-88214611D01*
X129998410Y-88441707D01*
X129875140Y-88738574D01*
X129874860Y-89060016D01*
X120125997Y-89060016D01*
X120191278Y-89027673D01*
X120462703Y-88296874D01*
X120433802Y-87517833D01*
X120269843Y-87122000D01*
X130689000Y-87122000D01*
X130756214Y-87459909D01*
X130947625Y-87746375D01*
X131234091Y-87937786D01*
X131572000Y-88005000D01*
X134413807Y-88005000D01*
X134320140Y-88230574D01*
X134319860Y-88552016D01*
X134442611Y-88849097D01*
X134669707Y-89076590D01*
X134966574Y-89199860D01*
X135288016Y-89200140D01*
X135585097Y-89077389D01*
X135701189Y-88961500D01*
X138874495Y-88961500D01*
X138874500Y-88961501D01*
X139116739Y-88913316D01*
X139322099Y-88776099D01*
X140719096Y-87379101D01*
X140719099Y-87379099D01*
X140856316Y-87173739D01*
X140904500Y-86931500D01*
X140904500Y-86425293D01*
X140956090Y-86373793D01*
X141079360Y-86076926D01*
X141079640Y-85755484D01*
X140956889Y-85458403D01*
X140729793Y-85230910D01*
X140432926Y-85107640D01*
X140188544Y-85107427D01*
X140219684Y-85101233D01*
X140660251Y-84806856D01*
X140930811Y-84401934D01*
X141081908Y-84708419D01*
X141510046Y-85083975D01*
X141862393Y-85229910D01*
X142087600Y-85118286D01*
X142087600Y-83972400D01*
X142067600Y-83972400D01*
X142067600Y-83667600D01*
X142087600Y-83667600D01*
X142087600Y-82521714D01*
X141862393Y-82410090D01*
X141843810Y-82417787D01*
X142128092Y-82168419D01*
X142279189Y-81861934D01*
X142549749Y-82266856D01*
X142990316Y-82561233D01*
X143510000Y-82664605D01*
X144029684Y-82561233D01*
X144470251Y-82266856D01*
X144764628Y-81826289D01*
X144780000Y-81749009D01*
X144795372Y-81826289D01*
X145089749Y-82266856D01*
X145530316Y-82561233D01*
X146050000Y-82664605D01*
X146569684Y-82561233D01*
X147010251Y-82266856D01*
X147304628Y-81826289D01*
X147320000Y-81749009D01*
X147335372Y-81826289D01*
X147629749Y-82266856D01*
X148070316Y-82561233D01*
X148590000Y-82664605D01*
X149109684Y-82561233D01*
X149550251Y-82266856D01*
X149844628Y-81826289D01*
X149860000Y-81749009D01*
X149875372Y-81826289D01*
X150169749Y-82266856D01*
X150610316Y-82561233D01*
X151130000Y-82664605D01*
X151649684Y-82561233D01*
X152090251Y-82266856D01*
X152384628Y-81826289D01*
X152400000Y-81749009D01*
X152415372Y-81826289D01*
X152709749Y-82266856D01*
X153150316Y-82561233D01*
X153670000Y-82664605D01*
X154189684Y-82561233D01*
X154630251Y-82266856D01*
X154842048Y-81949879D01*
X154842048Y-82130000D01*
X154877470Y-82318253D01*
X154954735Y-82438326D01*
X154940000Y-82435395D01*
X154420316Y-82538767D01*
X153979749Y-82833144D01*
X153685372Y-83273711D01*
X153670000Y-83350991D01*
X153654628Y-83273711D01*
X153360251Y-82833144D01*
X152919684Y-82538767D01*
X152400000Y-82435395D01*
X151880316Y-82538767D01*
X151439749Y-82833144D01*
X151145372Y-83273711D01*
X151130000Y-83350991D01*
X151114628Y-83273711D01*
X150820251Y-82833144D01*
X150379684Y-82538767D01*
X149860000Y-82435395D01*
X149340316Y-82538767D01*
X148899749Y-82833144D01*
X148605372Y-83273711D01*
X148590000Y-83350991D01*
X148574628Y-83273711D01*
X148280251Y-82833144D01*
X147839684Y-82538767D01*
X147320000Y-82435395D01*
X146800316Y-82538767D01*
X146359749Y-82833144D01*
X146065372Y-83273711D01*
X146050000Y-83350991D01*
X146034628Y-83273711D01*
X145740251Y-82833144D01*
X145299684Y-82538767D01*
X144780000Y-82435395D01*
X144260316Y-82538767D01*
X143819749Y-82833144D01*
X143549189Y-83238066D01*
X143398092Y-82931581D01*
X142969954Y-82556025D01*
X142617607Y-82410090D01*
X142392400Y-82521714D01*
X142392400Y-83667600D01*
X142412400Y-83667600D01*
X142412400Y-83972400D01*
X142392400Y-83972400D01*
X142392400Y-85118286D01*
X142617607Y-85229910D01*
X142969954Y-85083975D01*
X143398092Y-84708419D01*
X143549189Y-84401934D01*
X143819749Y-84806856D01*
X143875548Y-84844140D01*
X143875548Y-85923500D01*
X143901244Y-86060064D01*
X143667484Y-86059860D01*
X143370403Y-86182611D01*
X143142910Y-86409707D01*
X143019640Y-86706574D01*
X143019360Y-87028016D01*
X143142111Y-87325097D01*
X143369207Y-87552590D01*
X143666074Y-87675860D01*
X143875548Y-87676042D01*
X143875548Y-88123500D01*
X143884570Y-88171448D01*
X143875548Y-88216000D01*
X143875548Y-89283000D01*
X138685793Y-89283000D01*
X138634293Y-89231410D01*
X138337426Y-89108140D01*
X138015984Y-89107860D01*
X137718903Y-89230611D01*
X137491410Y-89457707D01*
X137368140Y-89754574D01*
X137367860Y-90076016D01*
X137490611Y-90373097D01*
X137717707Y-90600590D01*
X138014574Y-90723860D01*
X138336016Y-90724140D01*
X138633097Y-90601389D01*
X138685578Y-90549000D01*
X143783900Y-90549000D01*
X143783900Y-90711200D01*
X143936300Y-90863600D01*
X144691100Y-90863600D01*
X144691100Y-90843600D01*
X144995900Y-90843600D01*
X144995900Y-90863600D01*
X145750700Y-90863600D01*
X145903100Y-90711200D01*
X145903100Y-90549000D01*
X146260400Y-90549000D01*
X146260400Y-90711200D01*
X146412800Y-90863600D01*
X147167600Y-90863600D01*
X147167600Y-90843600D01*
X147472400Y-90843600D01*
X147472400Y-90863600D01*
X148227200Y-90863600D01*
X148379600Y-90711200D01*
X148379600Y-90703524D01*
X148428574Y-90723860D01*
X148750016Y-90724140D01*
X148800400Y-90703322D01*
X148800400Y-90711200D01*
X148952800Y-90863600D01*
X149707600Y-90863600D01*
X149707600Y-90843600D01*
X150012400Y-90843600D01*
X150012400Y-90863600D01*
X150767200Y-90863600D01*
X150919600Y-90711200D01*
X150919600Y-90549000D01*
X151340400Y-90549000D01*
X151340400Y-90711200D01*
X151492800Y-90863600D01*
X152247600Y-90863600D01*
X152247600Y-90843600D01*
X152552400Y-90843600D01*
X152552400Y-90863600D01*
X153307200Y-90863600D01*
X153459600Y-90711200D01*
X153459600Y-90549000D01*
X153689900Y-90549000D01*
X153689900Y-90711200D01*
X153842300Y-90863600D01*
X154597100Y-90863600D01*
X154597100Y-90843600D01*
X154901900Y-90843600D01*
X154901900Y-90863600D01*
X155656700Y-90863600D01*
X155733750Y-90786550D01*
X155810800Y-90863600D01*
X156565600Y-90863600D01*
X156565600Y-90843600D01*
X156870400Y-90843600D01*
X156870400Y-90863600D01*
X157625200Y-90863600D01*
X157777600Y-90711200D01*
X157777600Y-90549000D01*
X158737157Y-90549000D01*
X158546903Y-90627611D01*
X158319410Y-90854707D01*
X158196140Y-91151574D01*
X158195860Y-91473016D01*
X158318611Y-91770097D01*
X158371000Y-91822578D01*
X158371000Y-91947995D01*
X158370999Y-91948000D01*
X158419184Y-92190239D01*
X158556401Y-92395599D01*
X158556556Y-92395754D01*
X158446410Y-92505707D01*
X158323140Y-92802574D01*
X158322860Y-93124016D01*
X158445611Y-93421097D01*
X158498000Y-93473578D01*
X158498000Y-93971867D01*
X158292903Y-94056611D01*
X158065410Y-94283707D01*
X157942140Y-94580574D01*
X157941860Y-94902016D01*
X158064611Y-95199097D01*
X158291707Y-95426590D01*
X158588574Y-95549860D01*
X158910016Y-95550140D01*
X159207097Y-95427389D01*
X159259578Y-95375000D01*
X159764207Y-95375000D01*
X159815707Y-95426590D01*
X160112574Y-95549860D01*
X160434016Y-95550140D01*
X160731097Y-95427389D01*
X160958590Y-95200293D01*
X161081860Y-94903426D01*
X161082002Y-94740000D01*
X161117001Y-94740000D01*
X161116860Y-94902016D01*
X161239611Y-95199097D01*
X161466707Y-95426590D01*
X161763574Y-95549860D01*
X162054000Y-95550113D01*
X162054000Y-95884995D01*
X162053999Y-95885000D01*
X162102184Y-96127239D01*
X162239401Y-96332599D01*
X162747399Y-96840596D01*
X162747401Y-96840599D01*
X162892376Y-96937468D01*
X162952761Y-96977816D01*
X163195000Y-97026000D01*
X170182000Y-97026000D01*
X170182000Y-115314207D01*
X170130410Y-115365707D01*
X170007140Y-115662574D01*
X170006860Y-115984016D01*
X170129611Y-116281097D01*
X170356707Y-116508590D01*
X170653574Y-116631860D01*
X170975016Y-116632140D01*
X171272097Y-116509389D01*
X171481917Y-116299936D01*
X171690207Y-116508590D01*
X171987074Y-116631860D01*
X172308516Y-116632140D01*
X172605597Y-116509389D01*
X172751806Y-116363435D01*
X172896707Y-116508590D01*
X173193574Y-116631860D01*
X173357000Y-116632002D01*
X173357000Y-119308303D01*
X172838802Y-119826500D01*
X162993593Y-119826500D01*
X162942093Y-119774910D01*
X162645226Y-119651640D01*
X162323784Y-119651360D01*
X162026703Y-119774111D01*
X161799210Y-120001207D01*
X161675940Y-120298074D01*
X161675660Y-120619516D01*
X161798411Y-120916597D01*
X162025507Y-121144090D01*
X162322374Y-121267360D01*
X162643816Y-121267640D01*
X162940897Y-121144889D01*
X162993378Y-121092500D01*
X163405400Y-121092500D01*
X163405400Y-121404200D01*
X163557800Y-121556600D01*
X164312600Y-121556600D01*
X164312600Y-121536600D01*
X164617400Y-121536600D01*
X164617400Y-121556600D01*
X165372200Y-121556600D01*
X165524600Y-121404200D01*
X165524600Y-121092500D01*
X165818400Y-121092500D01*
X165818400Y-121404200D01*
X165970800Y-121556600D01*
X166725600Y-121556600D01*
X166725600Y-121536600D01*
X167030400Y-121536600D01*
X167030400Y-121556600D01*
X167785200Y-121556600D01*
X167937600Y-121404200D01*
X167937600Y-121092500D01*
X168231400Y-121092500D01*
X168231400Y-121404200D01*
X168383800Y-121556600D01*
X169138600Y-121556600D01*
X169138600Y-121536600D01*
X169443400Y-121536600D01*
X169443400Y-121556600D01*
X170198200Y-121556600D01*
X170350600Y-121404200D01*
X170350600Y-121092500D01*
X170644400Y-121092500D01*
X170644400Y-121404200D01*
X170796800Y-121556600D01*
X171551600Y-121556600D01*
X171551600Y-121536600D01*
X171856400Y-121536600D01*
X171856400Y-121556600D01*
X172611200Y-121556600D01*
X172763600Y-121404200D01*
X172763600Y-121092500D01*
X173057400Y-121092500D01*
X173057400Y-121404200D01*
X173209800Y-121556600D01*
X173964600Y-121556600D01*
X173964600Y-120651800D01*
X174269400Y-120651800D01*
X174269400Y-121556600D01*
X175024200Y-121556600D01*
X175176600Y-121404200D01*
X175176600Y-120987743D01*
X175343400Y-120987743D01*
X175343400Y-121404200D01*
X175495800Y-121556600D01*
X176250600Y-121556600D01*
X176250600Y-120651800D01*
X176555400Y-120651800D01*
X176555400Y-121556600D01*
X177310200Y-121556600D01*
X177462600Y-121404200D01*
X177462600Y-120987743D01*
X177369794Y-120763689D01*
X177198311Y-120592206D01*
X176974257Y-120499400D01*
X176707800Y-120499400D01*
X176555400Y-120651800D01*
X176250600Y-120651800D01*
X176098200Y-120499400D01*
X175831743Y-120499400D01*
X175607689Y-120592206D01*
X175436206Y-120763689D01*
X175343400Y-120987743D01*
X175176600Y-120987743D01*
X175083794Y-120763689D01*
X174912311Y-120592206D01*
X174688257Y-120499400D01*
X174421800Y-120499400D01*
X174269400Y-120651800D01*
X173964600Y-120651800D01*
X173884249Y-120571449D01*
X174437596Y-120018101D01*
X174437599Y-120018099D01*
X174574816Y-119812739D01*
X174601961Y-119676271D01*
X174623001Y-119570500D01*
X174623000Y-119570495D01*
X174623000Y-115994722D01*
X174781074Y-116060360D01*
X175102516Y-116060640D01*
X175399597Y-115937889D01*
X175627090Y-115710793D01*
X175750360Y-115413926D01*
X175750640Y-115092484D01*
X175635304Y-114813349D01*
X175766790Y-114682093D01*
X175890060Y-114385226D01*
X175890340Y-114063784D01*
X175767589Y-113766703D01*
X175715200Y-113714222D01*
X175715200Y-112599993D01*
X175766790Y-112548493D01*
X175890060Y-112251626D01*
X175890149Y-112148616D01*
X176585460Y-112148616D01*
X176708211Y-112445697D01*
X176786000Y-112523622D01*
X176786000Y-113944395D01*
X176785999Y-113944400D01*
X176834184Y-114186639D01*
X176971401Y-114391999D01*
X177326999Y-114747596D01*
X177327001Y-114747599D01*
X177532361Y-114884816D01*
X177774600Y-114933000D01*
X178972048Y-114933000D01*
X178972048Y-115150000D01*
X179007470Y-115338253D01*
X179118728Y-115511153D01*
X179288488Y-115627145D01*
X179490000Y-115667952D01*
X179670121Y-115667952D01*
X179353144Y-115879749D01*
X179058767Y-116320316D01*
X178955395Y-116840000D01*
X179058767Y-117359684D01*
X179353144Y-117800251D01*
X179793711Y-118094628D01*
X179870991Y-118110000D01*
X179793711Y-118125372D01*
X179353144Y-118419749D01*
X179058767Y-118860316D01*
X178955395Y-119380000D01*
X179058767Y-119899684D01*
X179353144Y-120340251D01*
X179793711Y-120634628D01*
X180313395Y-120738000D01*
X180366605Y-120738000D01*
X180886289Y-120634628D01*
X181326856Y-120340251D01*
X181621233Y-119899684D01*
X181724605Y-119380000D01*
X181621233Y-118860316D01*
X181326856Y-118419749D01*
X180886289Y-118125372D01*
X180809009Y-118110000D01*
X180886289Y-118094628D01*
X181326856Y-117800251D01*
X181621233Y-117359684D01*
X181724605Y-116840000D01*
X181621233Y-116320316D01*
X181326856Y-115879749D01*
X181009879Y-115667952D01*
X181190000Y-115667952D01*
X181378253Y-115632530D01*
X181551153Y-115521272D01*
X181667145Y-115351512D01*
X181707952Y-115150000D01*
X181707952Y-113450000D01*
X181672530Y-113261747D01*
X181561272Y-113088847D01*
X181391512Y-112972855D01*
X181190000Y-112932048D01*
X179490000Y-112932048D01*
X179301747Y-112967470D01*
X179128847Y-113078728D01*
X179013262Y-113247892D01*
X178891789Y-112953903D01*
X178830237Y-112892244D01*
X178823042Y-112489322D01*
X178890990Y-112421493D01*
X179014260Y-112124626D01*
X179014540Y-111803184D01*
X178891789Y-111506103D01*
X178664693Y-111278610D01*
X178367826Y-111155340D01*
X178046384Y-111155060D01*
X177769100Y-111269631D01*
X177555026Y-111180740D01*
X177233584Y-111180460D01*
X176936503Y-111303211D01*
X176709010Y-111530307D01*
X176585740Y-111827174D01*
X176585460Y-112148616D01*
X175890149Y-112148616D01*
X175890340Y-111930184D01*
X175767589Y-111633103D01*
X175540493Y-111405610D01*
X175243626Y-111282340D01*
X175108975Y-111282223D01*
X175199599Y-111191599D01*
X175223826Y-111155340D01*
X175336816Y-110986239D01*
X175344810Y-110946048D01*
X175385001Y-110744000D01*
X175385000Y-110743995D01*
X175385000Y-109156505D01*
X175385001Y-109156500D01*
X175336816Y-108914261D01*
X175199599Y-108708901D01*
X174628099Y-108137401D01*
X174422739Y-108000184D01*
X174180500Y-107951999D01*
X174180495Y-107952000D01*
X173991793Y-107952000D01*
X173940293Y-107900410D01*
X173643426Y-107777140D01*
X173364004Y-107776897D01*
X173364004Y-106510352D01*
X174236800Y-106510352D01*
X174425053Y-106474930D01*
X174597953Y-106363672D01*
X174713945Y-106193912D01*
X174754752Y-105992400D01*
X174754752Y-105121392D01*
X175059344Y-104900000D01*
X175239512Y-104900000D01*
X175239260Y-105189016D01*
X175362011Y-105486097D01*
X175589107Y-105713590D01*
X175885974Y-105836860D01*
X175968784Y-105836932D01*
X175947843Y-107637840D01*
X175957122Y-107687502D01*
X175954634Y-107737965D01*
X175979592Y-107807759D01*
X175993207Y-107880623D01*
X176020787Y-107922956D01*
X176037798Y-107970527D01*
X176087564Y-108025456D01*
X176128027Y-108087564D01*
X176135515Y-108092694D01*
X176105455Y-108136688D01*
X176064648Y-108338200D01*
X176064648Y-109238200D01*
X176100070Y-109426453D01*
X176129801Y-109472656D01*
X176105455Y-109508288D01*
X176064648Y-109709800D01*
X176064648Y-110609800D01*
X176100070Y-110798053D01*
X176211328Y-110970953D01*
X176381088Y-111086945D01*
X176582600Y-111127752D01*
X177782600Y-111127752D01*
X177970853Y-111092330D01*
X178143753Y-110981072D01*
X178226436Y-110860062D01*
X178265806Y-110955111D01*
X178437289Y-111126594D01*
X178661343Y-111219400D01*
X179077800Y-111219400D01*
X179230200Y-111067000D01*
X179230200Y-110312200D01*
X179535000Y-110312200D01*
X179535000Y-111067000D01*
X179687400Y-111219400D01*
X180103857Y-111219400D01*
X180327911Y-111126594D01*
X180499394Y-110955111D01*
X180592200Y-110731057D01*
X180592200Y-110464600D01*
X180439800Y-110312200D01*
X179535000Y-110312200D01*
X179230200Y-110312200D01*
X179210200Y-110312200D01*
X179210200Y-110007400D01*
X179230200Y-110007400D01*
X179230200Y-109987400D01*
X179535000Y-109987400D01*
X179535000Y-110007400D01*
X180439800Y-110007400D01*
X180592200Y-109855000D01*
X180592200Y-109588543D01*
X180499394Y-109364489D01*
X180479090Y-109344185D01*
X180500552Y-109238200D01*
X180500552Y-108338200D01*
X180465130Y-108149947D01*
X180458472Y-108139600D01*
X180492402Y-108139600D01*
X180492402Y-107979235D01*
X180717609Y-108089921D01*
X181228419Y-107838092D01*
X181603975Y-107409954D01*
X181749910Y-107057607D01*
X181638286Y-106832400D01*
X180492400Y-106832400D01*
X180492400Y-106852400D01*
X180187600Y-106852400D01*
X180187600Y-106832400D01*
X180167600Y-106832400D01*
X180167600Y-106527600D01*
X180187600Y-106527600D01*
X180187600Y-106507600D01*
X180492400Y-106507600D01*
X180492400Y-106527600D01*
X181638286Y-106527600D01*
X181749910Y-106302393D01*
X181603975Y-105950046D01*
X181228419Y-105521908D01*
X180921934Y-105370811D01*
X181326856Y-105100251D01*
X181621233Y-104659684D01*
X181724605Y-104140000D01*
X181621233Y-103620316D01*
X181326856Y-103179749D01*
X180886289Y-102885372D01*
X180809009Y-102870000D01*
X180886289Y-102854628D01*
X181326856Y-102560251D01*
X181621233Y-102119684D01*
X181724605Y-101600000D01*
X181621233Y-101080316D01*
X181326856Y-100639749D01*
X180886289Y-100345372D01*
X180366605Y-100242000D01*
X180313395Y-100242000D01*
X179890952Y-100326029D01*
X179890952Y-99626000D01*
X179855530Y-99437747D01*
X179744272Y-99264847D01*
X179574512Y-99148855D01*
X179373000Y-99108048D01*
X178173000Y-99108048D01*
X177984747Y-99143470D01*
X177878952Y-99211547D01*
X177878952Y-98036000D01*
X177843530Y-97847747D01*
X177732272Y-97674847D01*
X177611262Y-97592164D01*
X177706311Y-97552794D01*
X177877794Y-97381311D01*
X177970600Y-97157257D01*
X177970600Y-96740800D01*
X177818200Y-96588400D01*
X177063400Y-96588400D01*
X177063400Y-96608400D01*
X176758600Y-96608400D01*
X176758600Y-96588400D01*
X176003800Y-96588400D01*
X175851400Y-96740800D01*
X175851400Y-97157257D01*
X175944206Y-97381311D01*
X176115689Y-97552794D01*
X176211879Y-97592637D01*
X176099847Y-97664728D01*
X175983855Y-97834488D01*
X175943048Y-98036000D01*
X175943048Y-99113684D01*
X175784747Y-99143470D01*
X175611847Y-99254728D01*
X175495855Y-99424488D01*
X175455048Y-99626000D01*
X175455048Y-100526000D01*
X175490470Y-100714253D01*
X175530597Y-100776612D01*
X175515999Y-100850000D01*
X175516000Y-100850005D01*
X175516000Y-101699851D01*
X175439010Y-101776707D01*
X175315740Y-102073574D01*
X175315460Y-102395016D01*
X175334130Y-102440200D01*
X174754752Y-102440200D01*
X174754752Y-102354000D01*
X174719330Y-102165747D01*
X174608072Y-101992847D01*
X174487062Y-101910164D01*
X174582111Y-101870794D01*
X174753594Y-101699311D01*
X174846400Y-101475257D01*
X174846400Y-101058800D01*
X174694000Y-100906400D01*
X173939200Y-100906400D01*
X173939200Y-100926400D01*
X173634400Y-100926400D01*
X173634400Y-100906400D01*
X173614400Y-100906400D01*
X173614400Y-100601600D01*
X173634400Y-100601600D01*
X173634400Y-99696800D01*
X173939200Y-99696800D01*
X173939200Y-100601600D01*
X174694000Y-100601600D01*
X174846400Y-100449200D01*
X174846400Y-100032743D01*
X174753594Y-99808689D01*
X174582111Y-99637206D01*
X174358057Y-99544400D01*
X174091600Y-99544400D01*
X173939200Y-99696800D01*
X173634400Y-99696800D01*
X173482000Y-99544400D01*
X173364004Y-99544400D01*
X173364004Y-96313994D01*
X173388597Y-96289400D01*
X173710595Y-96289400D01*
X173710600Y-96289401D01*
X173952839Y-96241216D01*
X174158199Y-96103999D01*
X174458121Y-95804077D01*
X174531016Y-95804140D01*
X174747373Y-95714743D01*
X175851400Y-95714743D01*
X175851400Y-96131200D01*
X176003800Y-96283600D01*
X176758600Y-96283600D01*
X176758600Y-95378800D01*
X177063400Y-95378800D01*
X177063400Y-96283600D01*
X177818200Y-96283600D01*
X177970600Y-96131200D01*
X177970600Y-95714743D01*
X177877794Y-95490689D01*
X177706311Y-95319206D01*
X177482257Y-95226400D01*
X177215800Y-95226400D01*
X177063400Y-95378800D01*
X176758600Y-95378800D01*
X176606200Y-95226400D01*
X176339743Y-95226400D01*
X176115689Y-95319206D01*
X175944206Y-95490689D01*
X175851400Y-95714743D01*
X174747373Y-95714743D01*
X174828097Y-95681389D01*
X175055590Y-95454293D01*
X175178860Y-95157426D01*
X175179140Y-94835984D01*
X175056389Y-94538903D01*
X174829293Y-94311410D01*
X174532426Y-94188140D01*
X174210984Y-94187860D01*
X173913903Y-94310611D01*
X173863111Y-94361315D01*
X173813293Y-94311410D01*
X173516426Y-94188140D01*
X173194984Y-94187860D01*
X172897903Y-94310611D01*
X172845422Y-94363000D01*
X172516805Y-94363000D01*
X172516800Y-94362999D01*
X172314752Y-94403190D01*
X172274561Y-94411184D01*
X172069201Y-94548401D01*
X172069199Y-94548404D01*
X172046900Y-94570703D01*
X171008599Y-93532401D01*
X170803239Y-93395184D01*
X170561000Y-93346999D01*
X170560995Y-93347000D01*
X163965197Y-93347000D01*
X162753599Y-92135401D01*
X162712402Y-92107874D01*
X162712402Y-92073202D01*
X162864800Y-92225600D01*
X163131257Y-92225600D01*
X163355311Y-92132794D01*
X163526794Y-91961311D01*
X163619600Y-91737257D01*
X163619600Y-91320800D01*
X164040400Y-91320800D01*
X164040400Y-91737257D01*
X164133206Y-91961311D01*
X164304689Y-92132794D01*
X164528743Y-92225600D01*
X164795200Y-92225600D01*
X164947600Y-92073200D01*
X164947600Y-91168400D01*
X165252400Y-91168400D01*
X165252400Y-92073200D01*
X165404800Y-92225600D01*
X165671257Y-92225600D01*
X165895311Y-92132794D01*
X166066794Y-91961311D01*
X166159600Y-91737257D01*
X166159600Y-91320800D01*
X166580400Y-91320800D01*
X166580400Y-91737257D01*
X166673206Y-91961311D01*
X166844689Y-92132794D01*
X167068743Y-92225600D01*
X167335200Y-92225600D01*
X167487600Y-92073200D01*
X167487600Y-91168400D01*
X167792400Y-91168400D01*
X167792400Y-92073200D01*
X167944800Y-92225600D01*
X168211257Y-92225600D01*
X168435311Y-92132794D01*
X168606794Y-91961311D01*
X168699600Y-91737257D01*
X168699600Y-91320800D01*
X169120400Y-91320800D01*
X169120400Y-91737257D01*
X169213206Y-91961311D01*
X169384689Y-92132794D01*
X169608743Y-92225600D01*
X169875200Y-92225600D01*
X170027600Y-92073200D01*
X170027600Y-91168400D01*
X169272800Y-91168400D01*
X169120400Y-91320800D01*
X168699600Y-91320800D01*
X168547200Y-91168400D01*
X167792400Y-91168400D01*
X167487600Y-91168400D01*
X166732800Y-91168400D01*
X166580400Y-91320800D01*
X166159600Y-91320800D01*
X166007200Y-91168400D01*
X165252400Y-91168400D01*
X164947600Y-91168400D01*
X164192800Y-91168400D01*
X164040400Y-91320800D01*
X163619600Y-91320800D01*
X163467200Y-91168400D01*
X162712400Y-91168400D01*
X162712400Y-91188400D01*
X162407600Y-91188400D01*
X162407600Y-91168400D01*
X161652800Y-91168400D01*
X161500400Y-91320800D01*
X161500400Y-91737257D01*
X161588521Y-91950000D01*
X160991479Y-91950000D01*
X161079600Y-91737257D01*
X161079600Y-91320800D01*
X160927200Y-91168400D01*
X160172400Y-91168400D01*
X160172400Y-91188400D01*
X159867600Y-91188400D01*
X159867600Y-91168400D01*
X159847600Y-91168400D01*
X159847600Y-90863600D01*
X159867600Y-90863600D01*
X159867600Y-90843600D01*
X160172400Y-90843600D01*
X160172400Y-90863600D01*
X160927200Y-90863600D01*
X161079600Y-90711200D01*
X161079600Y-90549000D01*
X161500400Y-90549000D01*
X161500400Y-90711200D01*
X161652800Y-90863600D01*
X162407600Y-90863600D01*
X162407600Y-90843600D01*
X162712400Y-90843600D01*
X162712400Y-90863600D01*
X163467200Y-90863600D01*
X163619600Y-90711200D01*
X163619600Y-90549000D01*
X164040400Y-90549000D01*
X164040400Y-90711200D01*
X164192800Y-90863600D01*
X164947600Y-90863600D01*
X164947600Y-90843600D01*
X165252400Y-90843600D01*
X165252400Y-90863600D01*
X166007200Y-90863600D01*
X166159600Y-90711200D01*
X166159600Y-90549000D01*
X166580400Y-90549000D01*
X166580400Y-90711200D01*
X166732800Y-90863600D01*
X167487600Y-90863600D01*
X167487600Y-90843600D01*
X167792400Y-90843600D01*
X167792400Y-90863600D01*
X168547200Y-90863600D01*
X168699600Y-90711200D01*
X168699600Y-90549000D01*
X169120400Y-90549000D01*
X169120400Y-90711200D01*
X169272800Y-90863600D01*
X170027600Y-90863600D01*
X170027600Y-90843600D01*
X170332400Y-90843600D01*
X170332400Y-90863600D01*
X170352400Y-90863600D01*
X170352400Y-91168400D01*
X170332400Y-91168400D01*
X170332400Y-92073200D01*
X170484800Y-92225600D01*
X170751257Y-92225600D01*
X170947859Y-92144165D01*
X170991707Y-92188090D01*
X171137365Y-92248572D01*
X171340635Y-92618154D01*
X171340360Y-92933516D01*
X171463111Y-93230597D01*
X171690207Y-93458090D01*
X171987074Y-93581360D01*
X172308516Y-93581640D01*
X172605597Y-93458889D01*
X172833090Y-93231793D01*
X172956360Y-92934926D01*
X172956640Y-92613484D01*
X172833889Y-92316403D01*
X172743244Y-92225600D01*
X172872402Y-92225600D01*
X172872402Y-92073202D01*
X173024800Y-92225600D01*
X173291257Y-92225600D01*
X173515311Y-92132794D01*
X173686794Y-91961311D01*
X173779600Y-91737257D01*
X173779600Y-91320800D01*
X174200400Y-91320800D01*
X174200400Y-91737257D01*
X174293206Y-91961311D01*
X174464689Y-92132794D01*
X174688743Y-92225600D01*
X174955200Y-92225600D01*
X175107600Y-92073200D01*
X175107600Y-91168400D01*
X175412400Y-91168400D01*
X175412400Y-92073200D01*
X175564800Y-92225600D01*
X175831257Y-92225600D01*
X176055311Y-92132794D01*
X176226794Y-91961311D01*
X176319600Y-91737257D01*
X176319600Y-91320800D01*
X176740400Y-91320800D01*
X176740400Y-91737257D01*
X176833206Y-91961311D01*
X177004689Y-92132794D01*
X177228743Y-92225600D01*
X177495200Y-92225600D01*
X177647600Y-92073200D01*
X177647600Y-91168400D01*
X177952400Y-91168400D01*
X177952400Y-92073200D01*
X178104800Y-92225600D01*
X178371257Y-92225600D01*
X178595311Y-92132794D01*
X178766794Y-91961311D01*
X178859600Y-91737257D01*
X178859600Y-91320800D01*
X178707200Y-91168400D01*
X177952400Y-91168400D01*
X177647600Y-91168400D01*
X176892800Y-91168400D01*
X176740400Y-91320800D01*
X176319600Y-91320800D01*
X176167200Y-91168400D01*
X175412400Y-91168400D01*
X175107600Y-91168400D01*
X174352800Y-91168400D01*
X174200400Y-91320800D01*
X173779600Y-91320800D01*
X173627200Y-91168400D01*
X172872400Y-91168400D01*
X172872400Y-91188400D01*
X172567600Y-91188400D01*
X172567600Y-91168400D01*
X172547600Y-91168400D01*
X172547600Y-90863600D01*
X172567600Y-90863600D01*
X172567600Y-90843600D01*
X172872400Y-90843600D01*
X172872400Y-90863600D01*
X173627200Y-90863600D01*
X173779600Y-90711200D01*
X173779600Y-90294743D01*
X173686794Y-90070689D01*
X173515311Y-89899206D01*
X173419121Y-89859363D01*
X173531153Y-89787272D01*
X173613772Y-89666355D01*
X173785707Y-89838590D01*
X174082574Y-89961860D01*
X174401757Y-89962138D01*
X174293206Y-90070689D01*
X174200400Y-90294743D01*
X174200400Y-90711200D01*
X174352800Y-90863600D01*
X175107600Y-90863600D01*
X175107600Y-90843600D01*
X175412400Y-90843600D01*
X175412400Y-90863600D01*
X176167200Y-90863600D01*
X176319600Y-90711200D01*
X176319600Y-90294743D01*
X176226794Y-90070689D01*
X176055311Y-89899206D01*
X175959121Y-89859363D01*
X176071153Y-89787272D01*
X176153772Y-89666355D01*
X176325707Y-89838590D01*
X176622574Y-89961860D01*
X176941757Y-89962138D01*
X176833206Y-90070689D01*
X176740400Y-90294743D01*
X176740400Y-90711200D01*
X176892800Y-90863600D01*
X177647600Y-90863600D01*
X177647600Y-90843600D01*
X177952400Y-90843600D01*
X177952400Y-90863600D01*
X178707200Y-90863600D01*
X178859600Y-90711200D01*
X178859600Y-90294743D01*
X178766794Y-90070689D01*
X178595311Y-89899206D01*
X178499121Y-89859363D01*
X178611153Y-89787272D01*
X178727145Y-89617512D01*
X178767952Y-89416000D01*
X178767952Y-88216000D01*
X178732530Y-88027747D01*
X178723213Y-88013267D01*
X178727145Y-88007512D01*
X178767952Y-87806000D01*
X178767952Y-86606000D01*
X178732530Y-86417747D01*
X178621272Y-86244847D01*
X178451512Y-86128855D01*
X178341905Y-86106659D01*
X178438253Y-86088530D01*
X178611153Y-85977272D01*
X178727145Y-85807512D01*
X178767952Y-85606000D01*
X178767952Y-84406000D01*
X178732530Y-84217747D01*
X178621272Y-84044847D01*
X178451512Y-83928855D01*
X178433000Y-83925106D01*
X178433000Y-82647952D01*
X178650000Y-82647952D01*
X178838253Y-82612530D01*
X179011153Y-82501272D01*
X179127145Y-82331512D01*
X179167952Y-82130000D01*
X179167952Y-80430000D01*
X179132530Y-80241747D01*
X179021272Y-80068847D01*
X178851512Y-79952855D01*
X178650000Y-79912048D01*
X176950000Y-79912048D01*
X176761747Y-79947470D01*
X176588847Y-80058728D01*
X176472855Y-80228488D01*
X176432048Y-80430000D01*
X176432048Y-80610121D01*
X176220251Y-80293144D01*
X175779684Y-79998767D01*
X175260000Y-79895395D01*
X174740316Y-79998767D01*
X174299749Y-80293144D01*
X174005372Y-80733711D01*
X173990000Y-80810991D01*
X173974628Y-80733711D01*
X173680251Y-80293144D01*
X173239684Y-79998767D01*
X172720000Y-79895395D01*
X172200316Y-79998767D01*
X171759749Y-80293144D01*
X171465372Y-80733711D01*
X171450000Y-80810991D01*
X171434628Y-80733711D01*
X171140251Y-80293144D01*
X170699684Y-79998767D01*
X170180000Y-79895395D01*
X169660316Y-79998767D01*
X169219749Y-80293144D01*
X168925372Y-80733711D01*
X168910000Y-80810991D01*
X168894628Y-80733711D01*
X168600251Y-80293144D01*
X168159684Y-79998767D01*
X167640000Y-79895395D01*
X167120316Y-79998767D01*
X166679749Y-80293144D01*
X166385372Y-80733711D01*
X166370000Y-80810991D01*
X166354628Y-80733711D01*
X166060251Y-80293144D01*
X165619684Y-79998767D01*
X165100000Y-79895395D01*
X164580316Y-79998767D01*
X164139749Y-80293144D01*
X163845372Y-80733711D01*
X163830000Y-80810991D01*
X163814628Y-80733711D01*
X163520251Y-80293144D01*
X163079684Y-79998767D01*
X162560000Y-79895395D01*
X162040316Y-79998767D01*
X161599749Y-80293144D01*
X161305372Y-80733711D01*
X161290000Y-80810991D01*
X161274628Y-80733711D01*
X160980251Y-80293144D01*
X160539684Y-79998767D01*
X160020000Y-79895395D01*
X159500316Y-79998767D01*
X159059749Y-80293144D01*
X158765372Y-80733711D01*
X158662000Y-81253395D01*
X158662000Y-81306605D01*
X158765372Y-81826289D01*
X159059749Y-82266856D01*
X159387000Y-82485518D01*
X159387000Y-83922482D01*
X159381747Y-83923470D01*
X159208847Y-84034728D01*
X159092855Y-84204488D01*
X159052048Y-84406000D01*
X159052048Y-85606000D01*
X159087470Y-85794253D01*
X159198728Y-85967153D01*
X159368488Y-86083145D01*
X159478095Y-86105341D01*
X159381747Y-86123470D01*
X159208847Y-86234728D01*
X159092855Y-86404488D01*
X159052048Y-86606000D01*
X159052048Y-86949041D01*
X158843984Y-86948860D01*
X158745635Y-86989497D01*
X158521823Y-86908111D01*
X158513227Y-86906790D01*
X158505672Y-86902484D01*
X158428168Y-86876649D01*
X158419389Y-86855403D01*
X158192293Y-86627910D01*
X157895426Y-86504640D01*
X157573984Y-86504360D01*
X157499467Y-86535150D01*
X157369512Y-86446355D01*
X157259905Y-86424159D01*
X157356253Y-86406030D01*
X157529153Y-86294772D01*
X157645145Y-86125012D01*
X157685952Y-85923500D01*
X157685952Y-85187952D01*
X158330000Y-85187952D01*
X158518253Y-85152530D01*
X158691153Y-85041272D01*
X158807145Y-84871512D01*
X158847952Y-84670000D01*
X158847952Y-82970000D01*
X158812530Y-82781747D01*
X158701272Y-82608847D01*
X158531512Y-82492855D01*
X158330000Y-82452048D01*
X157454786Y-82452048D01*
X157537145Y-82331512D01*
X157577952Y-82130000D01*
X157577952Y-80430000D01*
X157542530Y-80241747D01*
X157431272Y-80068847D01*
X157261512Y-79952855D01*
X157060000Y-79912048D01*
X155360000Y-79912048D01*
X155171747Y-79947470D01*
X154998847Y-80058728D01*
X154882855Y-80228488D01*
X154842048Y-80430000D01*
X154842048Y-80610121D01*
X154630251Y-80293144D01*
X154189684Y-79998767D01*
X153670000Y-79895395D01*
X153150316Y-79998767D01*
X152709749Y-80293144D01*
X152415372Y-80733711D01*
X152400000Y-80810991D01*
X152384628Y-80733711D01*
X152090251Y-80293144D01*
X151649684Y-79998767D01*
X151130000Y-79895395D01*
X150610316Y-79998767D01*
X150169749Y-80293144D01*
X149875372Y-80733711D01*
X149860000Y-80810991D01*
X149844628Y-80733711D01*
X149550251Y-80293144D01*
X149109684Y-79998767D01*
X148590000Y-79895395D01*
X148070316Y-79998767D01*
X147629749Y-80293144D01*
X147335372Y-80733711D01*
X147320000Y-80810991D01*
X147304628Y-80733711D01*
X147010251Y-80293144D01*
X146569684Y-79998767D01*
X146050000Y-79895395D01*
X145530316Y-79998767D01*
X145089749Y-80293144D01*
X144795372Y-80733711D01*
X144780000Y-80810991D01*
X144764628Y-80733711D01*
X144470251Y-80293144D01*
X144029684Y-79998767D01*
X143510000Y-79895395D01*
X142990316Y-79998767D01*
X142549749Y-80293144D01*
X142279189Y-80698066D01*
X142128092Y-80391581D01*
X141699954Y-80016025D01*
X141347607Y-79870090D01*
X141122400Y-79981714D01*
X141122400Y-81127600D01*
X141142400Y-81127600D01*
X141142400Y-81432400D01*
X141122400Y-81432400D01*
X141122400Y-82578286D01*
X141347607Y-82689910D01*
X141366190Y-82682213D01*
X141081908Y-82931581D01*
X140930811Y-83238066D01*
X140660251Y-82833144D01*
X140219684Y-82538767D01*
X139700000Y-82435395D01*
X139180316Y-82538767D01*
X138739749Y-82833144D01*
X138445372Y-83273711D01*
X138430000Y-83350991D01*
X138414628Y-83273711D01*
X138120251Y-82833144D01*
X137679684Y-82538767D01*
X137160000Y-82435395D01*
X136640316Y-82538767D01*
X136199749Y-82833144D01*
X135905372Y-83273711D01*
X135890000Y-83350991D01*
X135874628Y-83273711D01*
X135580251Y-82833144D01*
X135139684Y-82538767D01*
X134620000Y-82435395D01*
X134100316Y-82538767D01*
X133659749Y-82833144D01*
X133365372Y-83273711D01*
X133262000Y-83793395D01*
X133262000Y-83846605D01*
X133365372Y-84366289D01*
X133659749Y-84806856D01*
X134100316Y-85101233D01*
X134620000Y-85204605D01*
X135139684Y-85101233D01*
X135580251Y-84806856D01*
X135874628Y-84366289D01*
X135890000Y-84289009D01*
X135905372Y-84366289D01*
X136199749Y-84806856D01*
X136256216Y-84844586D01*
X135754802Y-85346000D01*
X132335793Y-85346000D01*
X132284293Y-85294410D01*
X131987426Y-85171140D01*
X131665984Y-85170860D01*
X131368903Y-85293611D01*
X131141410Y-85520707D01*
X131018140Y-85817574D01*
X131017860Y-86139016D01*
X131118780Y-86383262D01*
X130947625Y-86497625D01*
X130756214Y-86784091D01*
X130689000Y-87122000D01*
X120269843Y-87122000D01*
X120191278Y-86932327D01*
X119898336Y-86787190D01*
X118705526Y-87980000D01*
X118274474Y-87980000D01*
X117081664Y-86787190D01*
X116788722Y-86932327D01*
X116517297Y-87663126D01*
X115163600Y-87663126D01*
X115163600Y-86571664D01*
X117297190Y-86571664D01*
X118490000Y-87764474D01*
X119682810Y-86571664D01*
X119537673Y-86278722D01*
X118806874Y-86007297D01*
X118027833Y-86036198D01*
X117442327Y-86278722D01*
X117297190Y-86571664D01*
X115163600Y-86571664D01*
X115163600Y-79970886D01*
X115797586Y-79336900D01*
X128722561Y-79336900D01*
X128347474Y-79491883D01*
X128347474Y-79491883D01*
G37*
X128347474Y-79491883D02*
X127753967Y-80084355D01*
X127432367Y-80858853D01*
X127431635Y-81697468D01*
X127751883Y-82472526D01*
X128344355Y-83066033D01*
X129118853Y-83387633D01*
X129957468Y-83388365D01*
X130732526Y-83068117D01*
X131326033Y-82475645D01*
X131647633Y-81701147D01*
X131648023Y-81253395D01*
X131992000Y-81253395D01*
X131992000Y-81306605D01*
X132095372Y-81826289D01*
X132389749Y-82266856D01*
X132830316Y-82561233D01*
X133350000Y-82664605D01*
X133869684Y-82561233D01*
X134310251Y-82266856D01*
X134604628Y-81826289D01*
X134620000Y-81749009D01*
X134635372Y-81826289D01*
X134929749Y-82266856D01*
X135370316Y-82561233D01*
X135890000Y-82664605D01*
X136409684Y-82561233D01*
X136850251Y-82266856D01*
X137144628Y-81826289D01*
X137160000Y-81749009D01*
X137175372Y-81826289D01*
X137469749Y-82266856D01*
X137910316Y-82561233D01*
X138430000Y-82664605D01*
X138949684Y-82561233D01*
X139390251Y-82266856D01*
X139660811Y-81861934D01*
X139811908Y-82168419D01*
X140240046Y-82543975D01*
X140592393Y-82689910D01*
X140817600Y-82578286D01*
X140817600Y-81432400D01*
X140797600Y-81432400D01*
X140797600Y-81127600D01*
X140817600Y-81127600D01*
X140817600Y-79981714D01*
X140592393Y-79870090D01*
X140240046Y-80016025D01*
X139811908Y-80391581D01*
X139660811Y-80698066D01*
X139390251Y-80293144D01*
X138949684Y-79998767D01*
X138430000Y-79895395D01*
X137910316Y-79998767D01*
X137469749Y-80293144D01*
X137175372Y-80733711D01*
X137160000Y-80810991D01*
X137144628Y-80733711D01*
X136850251Y-80293144D01*
X136409684Y-79998767D01*
X135890000Y-79895395D01*
X135370316Y-79998767D01*
X134929749Y-80293144D01*
X134635372Y-80733711D01*
X134620000Y-80810991D01*
X134604628Y-80733711D01*
X134310251Y-80293144D01*
X133869684Y-79998767D01*
X133350000Y-79895395D01*
X132830316Y-79998767D01*
X132389749Y-80293144D01*
X132095372Y-80733711D01*
X131992000Y-81253395D01*
X131648023Y-81253395D01*
X131648365Y-80862532D01*
X131328117Y-80087474D01*
X130735645Y-79493967D01*
X130357386Y-79336900D01*
X178842414Y-79336900D01*
X179757000Y-80251486D01*
X179757000Y-91440000D01*
X179801378Y-91663105D01*
X179927757Y-91852243D01*
X182267860Y-94192347D01*
X182267860Y-95665677D01*
X182128117Y-95327474D01*
X181535645Y-94733967D01*
X180761147Y-94412367D01*
X179922532Y-94411635D01*
X179147474Y-94731883D01*
X178553967Y-95324355D01*
X178232367Y-96098853D01*
X178231635Y-96937468D01*
X178551883Y-97712526D01*
X179144355Y-98306033D01*
X179918853Y-98627633D01*
X180757468Y-98628365D01*
X181532526Y-98308117D01*
X182126033Y-97715645D01*
X182267860Y-97374088D01*
X182267860Y-123605677D01*
X182128117Y-123267474D01*
X181535645Y-122673967D01*
X180761147Y-122352367D01*
X179922532Y-122351635D01*
X179147474Y-122671883D01*
X178553967Y-123264355D01*
X178232367Y-124038853D01*
X178231635Y-124877468D01*
X178551883Y-125652526D01*
X179144355Y-126246033D01*
X179918853Y-126567633D01*
X180757468Y-126568365D01*
X181532526Y-126248117D01*
X182126033Y-125655645D01*
X182267860Y-125314088D01*
X182267860Y-126787653D01*
X179927757Y-129127757D01*
X179801378Y-129316895D01*
X179776615Y-129441386D01*
X179757000Y-129540000D01*
X179757000Y-130568514D01*
X179121814Y-131203700D01*
X129587160Y-131203700D01*
X130056033Y-130735645D01*
X130377633Y-129961147D01*
X130378365Y-129122532D01*
X130058117Y-128347474D01*
X129465645Y-127753967D01*
X128691147Y-127432367D01*
X127852532Y-127431635D01*
X127077474Y-127751883D01*
X126483967Y-128344355D01*
X126162367Y-129118853D01*
X126161635Y-129957468D01*
X126481883Y-130732526D01*
X126952235Y-131203700D01*
X115518186Y-131203700D01*
X115163600Y-130849114D01*
X115163600Y-125272800D01*
X116650400Y-125272800D01*
X116650400Y-125939257D01*
X116743206Y-126163311D01*
X116914689Y-126334794D01*
X117138743Y-126427600D01*
X117805200Y-126427600D01*
X117957600Y-126275200D01*
X117957600Y-125120400D01*
X118262400Y-125120400D01*
X118262400Y-126275200D01*
X118414800Y-126427600D01*
X119081257Y-126427600D01*
X119305311Y-126334794D01*
X119476794Y-126163311D01*
X119569600Y-125939257D01*
X119569600Y-125272800D01*
X119417200Y-125120400D01*
X118262400Y-125120400D01*
X117957600Y-125120400D01*
X116802800Y-125120400D01*
X116650400Y-125272800D01*
X115163600Y-125272800D01*
X115163600Y-123996743D01*
X116650400Y-123996743D01*
X116650400Y-124663200D01*
X116802800Y-124815600D01*
X117957600Y-124815600D01*
X117957600Y-123660800D01*
X118262400Y-123660800D01*
X118262400Y-124815600D01*
X119417200Y-124815600D01*
X119468000Y-124764800D01*
X120460400Y-124764800D01*
X120460400Y-125431257D01*
X120553206Y-125655311D01*
X120724689Y-125826794D01*
X120948743Y-125919600D01*
X121615200Y-125919600D01*
X121767600Y-125767200D01*
X121767600Y-124612400D01*
X122072400Y-124612400D01*
X122072400Y-125767200D01*
X122224800Y-125919600D01*
X122891257Y-125919600D01*
X123115311Y-125826794D01*
X123286794Y-125655311D01*
X123379600Y-125431257D01*
X123379600Y-124764800D01*
X123227200Y-124612400D01*
X122072400Y-124612400D01*
X121767600Y-124612400D01*
X120612800Y-124612400D01*
X120460400Y-124764800D01*
X119468000Y-124764800D01*
X119569600Y-124663200D01*
X119569600Y-123996743D01*
X119476794Y-123772689D01*
X119305311Y-123601206D01*
X119081257Y-123508400D01*
X118414800Y-123508400D01*
X118262400Y-123660800D01*
X117957600Y-123660800D01*
X117805200Y-123508400D01*
X117138743Y-123508400D01*
X116914689Y-123601206D01*
X116743206Y-123772689D01*
X116650400Y-123996743D01*
X115163600Y-123996743D01*
X115163600Y-123488743D01*
X120460400Y-123488743D01*
X120460400Y-124155200D01*
X120612800Y-124307600D01*
X121767600Y-124307600D01*
X121767600Y-124287600D01*
X122072400Y-124287600D01*
X122072400Y-124307600D01*
X123227200Y-124307600D01*
X123379600Y-124155200D01*
X123379600Y-123488743D01*
X123286794Y-123264689D01*
X123115311Y-123093206D01*
X122891257Y-123000400D01*
X122727040Y-123000400D01*
X122906856Y-122880251D01*
X123201233Y-122439684D01*
X123304605Y-121920000D01*
X123201233Y-121400316D01*
X122906856Y-120959749D01*
X122466289Y-120665372D01*
X121946605Y-120562000D01*
X121893395Y-120562000D01*
X121373711Y-120665372D01*
X120933144Y-120959749D01*
X120638767Y-121400316D01*
X120535395Y-121920000D01*
X120638767Y-122439684D01*
X120933144Y-122880251D01*
X121112960Y-123000400D01*
X120948743Y-123000400D01*
X120724689Y-123093206D01*
X120553206Y-123264689D01*
X120460400Y-123488743D01*
X115163600Y-123488743D01*
X115163600Y-121468000D01*
X116725395Y-121468000D01*
X116828767Y-121987684D01*
X117123144Y-122428251D01*
X117563711Y-122722628D01*
X118083395Y-122826000D01*
X118136605Y-122826000D01*
X118656289Y-122722628D01*
X119096856Y-122428251D01*
X119391233Y-121987684D01*
X119494605Y-121468000D01*
X119391233Y-120948316D01*
X119096856Y-120507749D01*
X118656289Y-120213372D01*
X118136605Y-120110000D01*
X118083395Y-120110000D01*
X117563711Y-120213372D01*
X117123144Y-120507749D01*
X116828767Y-120948316D01*
X116725395Y-121468000D01*
X115163600Y-121468000D01*
X115163600Y-105410000D01*
X117356000Y-105410000D01*
X117356000Y-116014500D01*
X117392392Y-116197455D01*
X117425052Y-116381163D01*
X117430687Y-116389981D01*
X117432729Y-116400245D01*
X117536390Y-116555385D01*
X117636842Y-116712572D01*
X119160842Y-118300072D01*
X119169421Y-118306061D01*
X119175236Y-118314764D01*
X119330385Y-118418431D01*
X119483334Y-118525206D01*
X119493553Y-118527456D01*
X119502255Y-118533271D01*
X119685226Y-118569666D01*
X119867433Y-118609791D01*
X119877738Y-118607959D01*
X119888000Y-118610000D01*
X128741472Y-118610000D01*
X129294000Y-119162528D01*
X129294000Y-123761500D01*
X129303013Y-123806813D01*
X129298139Y-123852760D01*
X129341114Y-123998360D01*
X129370729Y-124147245D01*
X129396398Y-124185661D01*
X129409477Y-124229974D01*
X129504896Y-124348041D01*
X129589236Y-124474264D01*
X129627653Y-124499934D01*
X129656694Y-124535867D01*
X134609694Y-128663367D01*
X134743031Y-128735931D01*
X134869255Y-128820271D01*
X134914570Y-128829285D01*
X134955152Y-128851370D01*
X135106114Y-128867385D01*
X135255000Y-128897000D01*
X140872048Y-128897000D01*
X140872048Y-130390000D01*
X140907470Y-130578253D01*
X141018728Y-130751153D01*
X141188488Y-130867145D01*
X141390000Y-130907952D01*
X143090000Y-130907952D01*
X143278253Y-130872530D01*
X143451153Y-130761272D01*
X143567145Y-130591512D01*
X143607952Y-130390000D01*
X143607952Y-130209879D01*
X143819749Y-130526856D01*
X144260316Y-130821233D01*
X144780000Y-130924605D01*
X145299684Y-130821233D01*
X145740251Y-130526856D01*
X146034628Y-130086289D01*
X146050000Y-130009009D01*
X146065372Y-130086289D01*
X146359749Y-130526856D01*
X146800316Y-130821233D01*
X147320000Y-130924605D01*
X147839684Y-130821233D01*
X148280251Y-130526856D01*
X148574628Y-130086289D01*
X148590000Y-130009009D01*
X148605372Y-130086289D01*
X148899749Y-130526856D01*
X149340316Y-130821233D01*
X149860000Y-130924605D01*
X150379684Y-130821233D01*
X150820251Y-130526856D01*
X151114628Y-130086289D01*
X151130000Y-130009009D01*
X151145372Y-130086289D01*
X151439749Y-130526856D01*
X151880316Y-130821233D01*
X152400000Y-130924605D01*
X152919684Y-130821233D01*
X153360251Y-130526856D01*
X153630811Y-130121934D01*
X153781908Y-130428419D01*
X154210046Y-130803975D01*
X154562393Y-130949910D01*
X154787600Y-130838286D01*
X154787600Y-129692400D01*
X155092400Y-129692400D01*
X155092400Y-130838286D01*
X155317607Y-130949910D01*
X155669954Y-130803975D01*
X156098092Y-130428419D01*
X156210000Y-130201425D01*
X156321908Y-130428419D01*
X156750046Y-130803975D01*
X157102393Y-130949910D01*
X157327600Y-130838286D01*
X157327600Y-129692400D01*
X155092400Y-129692400D01*
X154787600Y-129692400D01*
X154767600Y-129692400D01*
X154767600Y-129387600D01*
X154787600Y-129387600D01*
X154787600Y-129367600D01*
X155092400Y-129367600D01*
X155092400Y-129387600D01*
X157327600Y-129387600D01*
X157327600Y-129367600D01*
X157632400Y-129367600D01*
X157632400Y-129387600D01*
X157652400Y-129387600D01*
X157652400Y-129692400D01*
X157632400Y-129692400D01*
X157632400Y-130838286D01*
X157857607Y-130949910D01*
X158209954Y-130803975D01*
X158638092Y-130428419D01*
X158789189Y-130121934D01*
X159059749Y-130526856D01*
X159500316Y-130821233D01*
X160020000Y-130924605D01*
X160539684Y-130821233D01*
X160980251Y-130526856D01*
X161274628Y-130086289D01*
X161378000Y-129566605D01*
X161378000Y-129513395D01*
X161274628Y-128993711D01*
X160980251Y-128553144D01*
X160624959Y-128315746D01*
X160749954Y-128263975D01*
X161178092Y-127888419D01*
X161429921Y-127377609D01*
X161319234Y-127152400D01*
X160172400Y-127152400D01*
X160172400Y-127172400D01*
X159867600Y-127172400D01*
X159867600Y-127152400D01*
X159847600Y-127152400D01*
X159847600Y-126847600D01*
X159867600Y-126847600D01*
X159867600Y-125701714D01*
X160172400Y-125701714D01*
X160172400Y-126847600D01*
X161319234Y-126847600D01*
X161429921Y-126622391D01*
X161178092Y-126111581D01*
X160749954Y-125736025D01*
X160397607Y-125590090D01*
X160172400Y-125701714D01*
X159867600Y-125701714D01*
X159642393Y-125590090D01*
X159290046Y-125736025D01*
X158861908Y-126111581D01*
X158710811Y-126418066D01*
X158440251Y-126013144D01*
X157999684Y-125718767D01*
X157480000Y-125615395D01*
X156960316Y-125718767D01*
X156519749Y-126013144D01*
X156307952Y-126330121D01*
X156307952Y-126150000D01*
X156272530Y-125961747D01*
X156161272Y-125788847D01*
X155991512Y-125672855D01*
X155790000Y-125632048D01*
X154090000Y-125632048D01*
X153901747Y-125667470D01*
X153728847Y-125778728D01*
X153612855Y-125948488D01*
X153572048Y-126150000D01*
X153572048Y-127850000D01*
X153607470Y-128038253D01*
X153718728Y-128211153D01*
X153888488Y-128327145D01*
X154090000Y-128367952D01*
X154105248Y-128367952D01*
X153781908Y-128651581D01*
X153630811Y-128958066D01*
X153360251Y-128553144D01*
X153283000Y-128501527D01*
X153283000Y-128422400D01*
X153215786Y-128084491D01*
X153126569Y-127950968D01*
X153024375Y-127798024D01*
X152516375Y-127290025D01*
X152229910Y-127098614D01*
X151892000Y-127031400D01*
X151658749Y-127031400D01*
X151683860Y-126970926D01*
X151684140Y-126649484D01*
X151579607Y-126396495D01*
X151683860Y-126145426D01*
X151684140Y-125823984D01*
X151561389Y-125526903D01*
X151334293Y-125299410D01*
X151127909Y-125213712D01*
X150788214Y-124874016D01*
X162767860Y-124874016D01*
X162890611Y-125171097D01*
X163117707Y-125398590D01*
X163414574Y-125521860D01*
X163497048Y-125521932D01*
X163497048Y-126119000D01*
X163532470Y-126307253D01*
X163643728Y-126480153D01*
X163813488Y-126596145D01*
X163923095Y-126618341D01*
X163826747Y-126636470D01*
X163653847Y-126747728D01*
X163537855Y-126917488D01*
X163497048Y-127119000D01*
X163497048Y-128319000D01*
X163532470Y-128507253D01*
X163643728Y-128680153D01*
X163732048Y-128740499D01*
X163732048Y-130390000D01*
X163767470Y-130578253D01*
X163878728Y-130751153D01*
X164048488Y-130867145D01*
X164250000Y-130907952D01*
X165950000Y-130907952D01*
X166138253Y-130872530D01*
X166311153Y-130761272D01*
X166427145Y-130591512D01*
X166467952Y-130390000D01*
X166467952Y-130209879D01*
X166679749Y-130526856D01*
X167120316Y-130821233D01*
X167640000Y-130924605D01*
X168159684Y-130821233D01*
X168600251Y-130526856D01*
X168894628Y-130086289D01*
X168910000Y-130009009D01*
X168925372Y-130086289D01*
X169219749Y-130526856D01*
X169660316Y-130821233D01*
X170180000Y-130924605D01*
X170699684Y-130821233D01*
X171140251Y-130526856D01*
X171434628Y-130086289D01*
X171450000Y-130009009D01*
X171465372Y-130086289D01*
X171759749Y-130526856D01*
X172200316Y-130821233D01*
X172720000Y-130924605D01*
X173239684Y-130821233D01*
X173680251Y-130526856D01*
X173974628Y-130086289D01*
X173990000Y-130009009D01*
X174005372Y-130086289D01*
X174299749Y-130526856D01*
X174740316Y-130821233D01*
X175260000Y-130924605D01*
X175779684Y-130821233D01*
X176220251Y-130526856D01*
X176514628Y-130086289D01*
X176530000Y-130009009D01*
X176545372Y-130086289D01*
X176839749Y-130526856D01*
X177280316Y-130821233D01*
X177800000Y-130924605D01*
X178319684Y-130821233D01*
X178760251Y-130526856D01*
X179054628Y-130086289D01*
X179158000Y-129566605D01*
X179158000Y-129513395D01*
X179054628Y-128993711D01*
X178760251Y-128553144D01*
X178319684Y-128258767D01*
X177800000Y-128155395D01*
X177391791Y-128236593D01*
X177370952Y-128215754D01*
X177370952Y-127119000D01*
X177335530Y-126930747D01*
X177224272Y-126757847D01*
X177054512Y-126641855D01*
X176944905Y-126619659D01*
X177041253Y-126601530D01*
X177214153Y-126490272D01*
X177330145Y-126320512D01*
X177370952Y-126119000D01*
X177370952Y-124919000D01*
X177335530Y-124730747D01*
X177326213Y-124716267D01*
X177330145Y-124710512D01*
X177370952Y-124509000D01*
X177370952Y-123309000D01*
X177335530Y-123120747D01*
X177224272Y-122947847D01*
X177103262Y-122865164D01*
X177198311Y-122825794D01*
X177369794Y-122654311D01*
X177462600Y-122430257D01*
X177462600Y-122013800D01*
X177310200Y-121861400D01*
X176555400Y-121861400D01*
X176555400Y-121881400D01*
X176250600Y-121881400D01*
X176250600Y-121861400D01*
X175495800Y-121861400D01*
X175343400Y-122013800D01*
X175343400Y-122430257D01*
X175436206Y-122654311D01*
X175607689Y-122825794D01*
X175703879Y-122865637D01*
X175591847Y-122937728D01*
X175475855Y-123107488D01*
X175435048Y-123309000D01*
X175435048Y-123701792D01*
X175255775Y-123905885D01*
X175226984Y-123905860D01*
X175084952Y-123964546D01*
X175084952Y-123309000D01*
X175049530Y-123120747D01*
X174938272Y-122947847D01*
X174817262Y-122865164D01*
X174912311Y-122825794D01*
X175083794Y-122654311D01*
X175176600Y-122430257D01*
X175176600Y-122013800D01*
X175024200Y-121861400D01*
X174269400Y-121861400D01*
X174269400Y-121881400D01*
X173964600Y-121881400D01*
X173964600Y-121861400D01*
X173209800Y-121861400D01*
X173057400Y-122013800D01*
X173057400Y-122430257D01*
X173150206Y-122654311D01*
X173321689Y-122825794D01*
X173417879Y-122865637D01*
X173305847Y-122937728D01*
X173189855Y-123107488D01*
X173149048Y-123309000D01*
X173149048Y-123637206D01*
X172883125Y-123905920D01*
X172813984Y-123905860D01*
X172671952Y-123964546D01*
X172671952Y-123309000D01*
X172636530Y-123120747D01*
X172525272Y-122947847D01*
X172404262Y-122865164D01*
X172499311Y-122825794D01*
X172670794Y-122654311D01*
X172763600Y-122430257D01*
X172763600Y-122013800D01*
X172611200Y-121861400D01*
X171856400Y-121861400D01*
X171856400Y-121881400D01*
X171551600Y-121881400D01*
X171551600Y-121861400D01*
X170796800Y-121861400D01*
X170644400Y-122013800D01*
X170644400Y-122430257D01*
X170737206Y-122654311D01*
X170908689Y-122825794D01*
X171004879Y-122865637D01*
X170892847Y-122937728D01*
X170776855Y-123107488D01*
X170736048Y-123309000D01*
X170736048Y-123700131D01*
X170555316Y-123905884D01*
X170527984Y-123905860D01*
X170258952Y-124017021D01*
X170258952Y-123309000D01*
X170223530Y-123120747D01*
X170112272Y-122947847D01*
X169991262Y-122865164D01*
X170086311Y-122825794D01*
X170257794Y-122654311D01*
X170350600Y-122430257D01*
X170350600Y-122013800D01*
X170198200Y-121861400D01*
X169443400Y-121861400D01*
X169443400Y-121881400D01*
X169138600Y-121881400D01*
X169138600Y-121861400D01*
X168383800Y-121861400D01*
X168231400Y-122013800D01*
X168231400Y-122430257D01*
X168324206Y-122654311D01*
X168495689Y-122825794D01*
X168591879Y-122865637D01*
X168479847Y-122937728D01*
X168363855Y-123107488D01*
X168323048Y-123309000D01*
X168323048Y-123701792D01*
X168143775Y-123905885D01*
X168114984Y-123905860D01*
X167845952Y-124017021D01*
X167845952Y-123309000D01*
X167810530Y-123120747D01*
X167699272Y-122947847D01*
X167578262Y-122865164D01*
X167673311Y-122825794D01*
X167844794Y-122654311D01*
X167937600Y-122430257D01*
X167937600Y-122013800D01*
X167785200Y-121861400D01*
X167030400Y-121861400D01*
X167030400Y-121881400D01*
X166725600Y-121881400D01*
X166725600Y-121861400D01*
X165970800Y-121861400D01*
X165818400Y-122013800D01*
X165818400Y-122430257D01*
X165911206Y-122654311D01*
X166082689Y-122825794D01*
X166178879Y-122865637D01*
X166066847Y-122937728D01*
X165950855Y-123107488D01*
X165910048Y-123309000D01*
X165910048Y-123637264D01*
X165644212Y-123905920D01*
X165574984Y-123905860D01*
X165432952Y-123964546D01*
X165432952Y-123309000D01*
X165397530Y-123120747D01*
X165286272Y-122947847D01*
X165165262Y-122865164D01*
X165260311Y-122825794D01*
X165431794Y-122654311D01*
X165524600Y-122430257D01*
X165524600Y-122013800D01*
X165372200Y-121861400D01*
X164617400Y-121861400D01*
X164617400Y-121881400D01*
X164312600Y-121881400D01*
X164312600Y-121861400D01*
X163557800Y-121861400D01*
X163405400Y-122013800D01*
X163405400Y-122430257D01*
X163498206Y-122654311D01*
X163669689Y-122825794D01*
X163765879Y-122865637D01*
X163653847Y-122937728D01*
X163537855Y-123107488D01*
X163497048Y-123309000D01*
X163497048Y-123780682D01*
X163394046Y-123914925D01*
X163118903Y-124028611D01*
X162891410Y-124255707D01*
X162768140Y-124552574D01*
X162767860Y-124874016D01*
X150788214Y-124874016D01*
X149969577Y-124055379D01*
X149969640Y-123982484D01*
X149846889Y-123685403D01*
X149619793Y-123457910D01*
X149372199Y-123355100D01*
X156400500Y-123355100D01*
X156437427Y-123348152D01*
X156471343Y-123326328D01*
X156494095Y-123293028D01*
X156502100Y-123253500D01*
X156502100Y-92136700D01*
X156565600Y-92073200D01*
X156565600Y-91168400D01*
X156870400Y-91168400D01*
X156870400Y-92073200D01*
X157022800Y-92225600D01*
X157289257Y-92225600D01*
X157513311Y-92132794D01*
X157684794Y-91961311D01*
X157777600Y-91737257D01*
X157777600Y-91320800D01*
X157625200Y-91168400D01*
X156870400Y-91168400D01*
X156565600Y-91168400D01*
X155810800Y-91168400D01*
X155733750Y-91245450D01*
X155656700Y-91168400D01*
X154901900Y-91168400D01*
X154901900Y-91188400D01*
X154597100Y-91188400D01*
X154597100Y-91168400D01*
X153842300Y-91168400D01*
X153689900Y-91320800D01*
X153689900Y-91528900D01*
X153459600Y-91528900D01*
X153459600Y-91320800D01*
X153307200Y-91168400D01*
X152552400Y-91168400D01*
X152552400Y-91188400D01*
X152247600Y-91188400D01*
X152247600Y-91168400D01*
X151492800Y-91168400D01*
X151340400Y-91320800D01*
X151340400Y-91528900D01*
X150919600Y-91528900D01*
X150919600Y-91320800D01*
X150767200Y-91168400D01*
X150012400Y-91168400D01*
X150012400Y-91188400D01*
X149707600Y-91188400D01*
X149707600Y-91168400D01*
X148952800Y-91168400D01*
X148800400Y-91320800D01*
X148800400Y-91528900D01*
X148379600Y-91528900D01*
X148379600Y-91320800D01*
X148227200Y-91168400D01*
X147472400Y-91168400D01*
X147472400Y-91188400D01*
X147167600Y-91188400D01*
X147167600Y-91168400D01*
X146412800Y-91168400D01*
X146260400Y-91320800D01*
X146260400Y-91528900D01*
X145903100Y-91528900D01*
X145903100Y-91320800D01*
X145750700Y-91168400D01*
X144995900Y-91168400D01*
X144995900Y-91188400D01*
X144691100Y-91188400D01*
X144691100Y-91168400D01*
X143936300Y-91168400D01*
X143783900Y-91320800D01*
X143783900Y-91528900D01*
X141668500Y-91528900D01*
X141631573Y-91535848D01*
X141597657Y-91557672D01*
X141574905Y-91590972D01*
X141566900Y-91630500D01*
X141566900Y-93497400D01*
X138112500Y-93497400D01*
X138075573Y-93504348D01*
X138041657Y-93526172D01*
X138018905Y-93559472D01*
X138010900Y-93599000D01*
X138010900Y-105312230D01*
X138010000Y-105312048D01*
X137748255Y-105312048D01*
X137744816Y-105294761D01*
X137698045Y-105224763D01*
X137660473Y-105149422D01*
X137630017Y-105122952D01*
X137607599Y-105089401D01*
X137537597Y-105042627D01*
X137474056Y-104987402D01*
X136904000Y-104661656D01*
X136904000Y-100457000D01*
X136901018Y-100442009D01*
X136903284Y-100426891D01*
X136877025Y-100321387D01*
X136855816Y-100214761D01*
X136847324Y-100202051D01*
X136843632Y-100187219D01*
X136779005Y-100099805D01*
X136718599Y-100009401D01*
X136705888Y-100000908D01*
X136696802Y-99988618D01*
X136205500Y-99541980D01*
X136205500Y-94415487D01*
X136490574Y-94533860D01*
X136812016Y-94534140D01*
X137109097Y-94411389D01*
X137336590Y-94184293D01*
X137459860Y-93887426D01*
X137460140Y-93565984D01*
X137337389Y-93268903D01*
X137110293Y-93041410D01*
X137031000Y-93008485D01*
X137031000Y-91695793D01*
X137082590Y-91644293D01*
X137205860Y-91347426D01*
X137206140Y-91025984D01*
X137083389Y-90728903D01*
X136856293Y-90501410D01*
X136559426Y-90378140D01*
X136237984Y-90377860D01*
X135940903Y-90500611D01*
X135820995Y-90620310D01*
X135813389Y-90601903D01*
X135586293Y-90374410D01*
X135289426Y-90251140D01*
X134967984Y-90250860D01*
X134670903Y-90373611D01*
X134443410Y-90600707D01*
X134320140Y-90897574D01*
X134319860Y-91219016D01*
X134442611Y-91516097D01*
X134669707Y-91743590D01*
X134767499Y-91784197D01*
X134939500Y-91956198D01*
X134939500Y-99787629D01*
X134670903Y-99898611D01*
X134620111Y-99949315D01*
X134570293Y-99899410D01*
X134273426Y-99776140D01*
X133951984Y-99775860D01*
X133654903Y-99898611D01*
X133540500Y-100012815D01*
X133427293Y-99899410D01*
X133130426Y-99776140D01*
X132808984Y-99775860D01*
X132511903Y-99898611D01*
X132455000Y-99955415D01*
X132455000Y-99695000D01*
X132387786Y-99357091D01*
X132196375Y-99070625D01*
X131909909Y-98879214D01*
X131572000Y-98812000D01*
X131234091Y-98879214D01*
X130947625Y-99070625D01*
X130756214Y-99357091D01*
X130689000Y-99695000D01*
X130689000Y-100091250D01*
X129936250Y-100844000D01*
X128762750Y-100844000D01*
X128513375Y-100594625D01*
X128226910Y-100403214D01*
X127889000Y-100336000D01*
X126111000Y-100336000D01*
X125773091Y-100403214D01*
X125486625Y-100594625D01*
X125295214Y-100881091D01*
X125228000Y-101219000D01*
X125228000Y-101554115D01*
X124934984Y-101553860D01*
X124637903Y-101676611D01*
X124410410Y-101903707D01*
X124287140Y-102200574D01*
X124287075Y-102274727D01*
X124139401Y-102422401D01*
X124002184Y-102627761D01*
X123953999Y-102870000D01*
X123954000Y-102870005D01*
X123954000Y-104512803D01*
X123689802Y-104777000D01*
X119130061Y-104777000D01*
X119076764Y-104697236D01*
X118749745Y-104478729D01*
X118364000Y-104402000D01*
X117978255Y-104478729D01*
X117651236Y-104697236D01*
X117432729Y-105024255D01*
X117356000Y-105410000D01*
X115163600Y-105410000D01*
X115163600Y-101388336D01*
X117297190Y-101388336D01*
X117442327Y-101681278D01*
X118173126Y-101952703D01*
X118952167Y-101923802D01*
X119537673Y-101681278D01*
X119682810Y-101388336D01*
X119520810Y-101226336D01*
X120674781Y-101226336D01*
X120680139Y-101619602D01*
X120835585Y-101980881D01*
X121117455Y-102255173D01*
X121482836Y-102400719D01*
X121876102Y-102395361D01*
X122237381Y-102239915D01*
X122511673Y-101958045D01*
X123737648Y-100068000D01*
X127253995Y-100068000D01*
X127254000Y-100068001D01*
X127639745Y-99991271D01*
X127966764Y-99772764D01*
X128601761Y-99137766D01*
X128601764Y-99137764D01*
X128820271Y-98810745D01*
X128835616Y-98733599D01*
X128897001Y-98425000D01*
X128897000Y-98424995D01*
X128897000Y-96520000D01*
X128887987Y-96474687D01*
X128892861Y-96428740D01*
X128849886Y-96283143D01*
X128820271Y-96134255D01*
X128794601Y-96095838D01*
X128781522Y-96051525D01*
X128686104Y-95933460D01*
X128601764Y-95807236D01*
X128563347Y-95781566D01*
X128534306Y-95745633D01*
X127010306Y-94475633D01*
X126876969Y-94403069D01*
X126750745Y-94318729D01*
X126705430Y-94309715D01*
X126664848Y-94287630D01*
X126513886Y-94271615D01*
X126365000Y-94242000D01*
X123975418Y-94242000D01*
X123909202Y-94175668D01*
X123443327Y-93982220D01*
X122938886Y-93981780D01*
X122472674Y-94174415D01*
X122115668Y-94530798D01*
X122109235Y-94546291D01*
X121405526Y-95250000D01*
X122108474Y-95952948D01*
X122114415Y-95967326D01*
X122470798Y-96324332D01*
X122936673Y-96517780D01*
X123441114Y-96518220D01*
X123907326Y-96325585D01*
X123975029Y-96258000D01*
X126000054Y-96258000D01*
X126881000Y-96992122D01*
X126881000Y-98007473D01*
X126836472Y-98052000D01*
X123190000Y-98052000D01*
X123085964Y-98072694D01*
X122979899Y-98074139D01*
X122894953Y-98110688D01*
X122804255Y-98128729D01*
X122716057Y-98187661D01*
X122618619Y-98229585D01*
X122554126Y-98295860D01*
X122477236Y-98347236D01*
X122418304Y-98435435D01*
X122344327Y-98511455D01*
X120820327Y-100860955D01*
X120674781Y-101226336D01*
X119520810Y-101226336D01*
X118490000Y-100195526D01*
X117297190Y-101388336D01*
X115163600Y-101388336D01*
X115163600Y-99663126D01*
X116517297Y-99663126D01*
X116546198Y-100442167D01*
X116788722Y-101027673D01*
X117081664Y-101172810D01*
X118274474Y-99980000D01*
X118705526Y-99980000D01*
X119898336Y-101172810D01*
X120191278Y-101027673D01*
X120462703Y-100296874D01*
X120433802Y-99517833D01*
X120191278Y-98932327D01*
X119898336Y-98787190D01*
X118705526Y-99980000D01*
X118274474Y-99980000D01*
X117081664Y-98787190D01*
X116788722Y-98932327D01*
X116517297Y-99663126D01*
X115163600Y-99663126D01*
X115163600Y-98571664D01*
X117297190Y-98571664D01*
X118490000Y-99764474D01*
X119682810Y-98571664D01*
X119537673Y-98278722D01*
X118806874Y-98007297D01*
X118027833Y-98036198D01*
X117442327Y-98278722D01*
X117297190Y-98571664D01*
X115163600Y-98571664D01*
X115163600Y-96230801D01*
X120424725Y-96230801D01*
X120497395Y-96462568D01*
X121014145Y-96635316D01*
X121557669Y-96597161D01*
X121882605Y-96462568D01*
X121955275Y-96230801D01*
X121190000Y-95465526D01*
X120424725Y-96230801D01*
X115163600Y-96230801D01*
X115163600Y-95074145D01*
X119804684Y-95074145D01*
X119842839Y-95617669D01*
X119977432Y-95942605D01*
X120209199Y-96015275D01*
X120974474Y-95250000D01*
X120209199Y-94484725D01*
X119977432Y-94557395D01*
X119804684Y-95074145D01*
X115163600Y-95074145D01*
X115163600Y-92961114D01*
X119921780Y-92961114D01*
X120114415Y-93427326D01*
X120470798Y-93784332D01*
X120789222Y-93916553D01*
X120497395Y-94037432D01*
X120424725Y-94269199D01*
X121190000Y-95034474D01*
X121955275Y-94269199D01*
X121882605Y-94037432D01*
X121559346Y-93929367D01*
X121907326Y-93785585D01*
X122190181Y-93503224D01*
X122470798Y-93784332D01*
X122936673Y-93977780D01*
X123441114Y-93978220D01*
X123907326Y-93785585D01*
X124264332Y-93429202D01*
X124300126Y-93343000D01*
X128015995Y-93343000D01*
X128016000Y-93343001D01*
X128258239Y-93294816D01*
X128463599Y-93157599D01*
X128844596Y-92776601D01*
X128844599Y-92776599D01*
X128981816Y-92571239D01*
X129030000Y-92329000D01*
X129030000Y-92076793D01*
X129081590Y-92025293D01*
X129204860Y-91728426D01*
X129205140Y-91406984D01*
X129082389Y-91109903D01*
X128855293Y-90882410D01*
X128558426Y-90759140D01*
X128236984Y-90758860D01*
X127939903Y-90881611D01*
X127712410Y-91108707D01*
X127589140Y-91405574D01*
X127588860Y-91727016D01*
X127711611Y-92024097D01*
X127759117Y-92071686D01*
X127753802Y-92077000D01*
X127124793Y-92077000D01*
X127176590Y-92025293D01*
X127299860Y-91728426D01*
X127300140Y-91406984D01*
X127177389Y-91109903D01*
X126950293Y-90882410D01*
X126653426Y-90759140D01*
X126331984Y-90758860D01*
X126034903Y-90881611D01*
X125982422Y-90934000D01*
X122301000Y-90934000D01*
X122058761Y-90982184D01*
X121853401Y-91119401D01*
X121853399Y-91119404D01*
X121504982Y-91467821D01*
X121443327Y-91442220D01*
X120938886Y-91441780D01*
X120472674Y-91634415D01*
X120115668Y-91990798D01*
X119922220Y-92456673D01*
X119921780Y-92961114D01*
X115163600Y-92961114D01*
X115163600Y-89388336D01*
X117297190Y-89388336D01*
X117442327Y-89681278D01*
X118173126Y-89952703D01*
X118952167Y-89923802D01*
X119537673Y-89681278D01*
X119682810Y-89388336D01*
X118490000Y-88195526D01*
X117297190Y-89388336D01*
X115163600Y-89388336D01*
X115163600Y-87663126D01*
X116517297Y-87663126D01*
X116546198Y-88442167D01*
X116788722Y-89027673D01*
X117081664Y-89172810D01*
X118274474Y-87980000D01*
X118705526Y-87980000D01*
X119898336Y-89172810D01*
X120125997Y-89060016D01*
X129874860Y-89060016D01*
X129997611Y-89357097D01*
X130224707Y-89584590D01*
X130521574Y-89707860D01*
X130843016Y-89708140D01*
X131140097Y-89585389D01*
X131192578Y-89533000D01*
X131951207Y-89533000D01*
X132002707Y-89584590D01*
X132299574Y-89707860D01*
X132621016Y-89708140D01*
X132918097Y-89585389D01*
X133145590Y-89358293D01*
X133268860Y-89061426D01*
X133269140Y-88739984D01*
X133146389Y-88442903D01*
X132919293Y-88215410D01*
X132622426Y-88092140D01*
X132300984Y-88091860D01*
X132003903Y-88214611D01*
X131951422Y-88267000D01*
X131192793Y-88267000D01*
X131141293Y-88215410D01*
X130844426Y-88092140D01*
X130522984Y-88091860D01*
X130225903Y-88214611D01*
X129998410Y-88441707D01*
X129875140Y-88738574D01*
X129874860Y-89060016D01*
X120125997Y-89060016D01*
X120191278Y-89027673D01*
X120462703Y-88296874D01*
X120433802Y-87517833D01*
X120269843Y-87122000D01*
X130689000Y-87122000D01*
X130756214Y-87459909D01*
X130947625Y-87746375D01*
X131234091Y-87937786D01*
X131572000Y-88005000D01*
X134413807Y-88005000D01*
X134320140Y-88230574D01*
X134319860Y-88552016D01*
X134442611Y-88849097D01*
X134669707Y-89076590D01*
X134966574Y-89199860D01*
X135288016Y-89200140D01*
X135585097Y-89077389D01*
X135701189Y-88961500D01*
X138874495Y-88961500D01*
X138874500Y-88961501D01*
X139116739Y-88913316D01*
X139322099Y-88776099D01*
X140719096Y-87379101D01*
X140719099Y-87379099D01*
X140856316Y-87173739D01*
X140904500Y-86931500D01*
X140904500Y-86425293D01*
X140956090Y-86373793D01*
X141079360Y-86076926D01*
X141079640Y-85755484D01*
X140956889Y-85458403D01*
X140729793Y-85230910D01*
X140432926Y-85107640D01*
X140188544Y-85107427D01*
X140219684Y-85101233D01*
X140660251Y-84806856D01*
X140930811Y-84401934D01*
X141081908Y-84708419D01*
X141510046Y-85083975D01*
X141862393Y-85229910D01*
X142087600Y-85118286D01*
X142087600Y-83972400D01*
X142067600Y-83972400D01*
X142067600Y-83667600D01*
X142087600Y-83667600D01*
X142087600Y-82521714D01*
X141862393Y-82410090D01*
X141843810Y-82417787D01*
X142128092Y-82168419D01*
X142279189Y-81861934D01*
X142549749Y-82266856D01*
X142990316Y-82561233D01*
X143510000Y-82664605D01*
X144029684Y-82561233D01*
X144470251Y-82266856D01*
X144764628Y-81826289D01*
X144780000Y-81749009D01*
X144795372Y-81826289D01*
X145089749Y-82266856D01*
X145530316Y-82561233D01*
X146050000Y-82664605D01*
X146569684Y-82561233D01*
X147010251Y-82266856D01*
X147304628Y-81826289D01*
X147320000Y-81749009D01*
X147335372Y-81826289D01*
X147629749Y-82266856D01*
X148070316Y-82561233D01*
X148590000Y-82664605D01*
X149109684Y-82561233D01*
X149550251Y-82266856D01*
X149844628Y-81826289D01*
X149860000Y-81749009D01*
X149875372Y-81826289D01*
X150169749Y-82266856D01*
X150610316Y-82561233D01*
X151130000Y-82664605D01*
X151649684Y-82561233D01*
X152090251Y-82266856D01*
X152384628Y-81826289D01*
X152400000Y-81749009D01*
X152415372Y-81826289D01*
X152709749Y-82266856D01*
X153150316Y-82561233D01*
X153670000Y-82664605D01*
X154189684Y-82561233D01*
X154630251Y-82266856D01*
X154842048Y-81949879D01*
X154842048Y-82130000D01*
X154877470Y-82318253D01*
X154954735Y-82438326D01*
X154940000Y-82435395D01*
X154420316Y-82538767D01*
X153979749Y-82833144D01*
X153685372Y-83273711D01*
X153670000Y-83350991D01*
X153654628Y-83273711D01*
X153360251Y-82833144D01*
X152919684Y-82538767D01*
X152400000Y-82435395D01*
X151880316Y-82538767D01*
X151439749Y-82833144D01*
X151145372Y-83273711D01*
X151130000Y-83350991D01*
X151114628Y-83273711D01*
X150820251Y-82833144D01*
X150379684Y-82538767D01*
X149860000Y-82435395D01*
X149340316Y-82538767D01*
X148899749Y-82833144D01*
X148605372Y-83273711D01*
X148590000Y-83350991D01*
X148574628Y-83273711D01*
X148280251Y-82833144D01*
X147839684Y-82538767D01*
X147320000Y-82435395D01*
X146800316Y-82538767D01*
X146359749Y-82833144D01*
X146065372Y-83273711D01*
X146050000Y-83350991D01*
X146034628Y-83273711D01*
X145740251Y-82833144D01*
X145299684Y-82538767D01*
X144780000Y-82435395D01*
X144260316Y-82538767D01*
X143819749Y-82833144D01*
X143549189Y-83238066D01*
X143398092Y-82931581D01*
X142969954Y-82556025D01*
X142617607Y-82410090D01*
X142392400Y-82521714D01*
X142392400Y-83667600D01*
X142412400Y-83667600D01*
X142412400Y-83972400D01*
X142392400Y-83972400D01*
X142392400Y-85118286D01*
X142617607Y-85229910D01*
X142969954Y-85083975D01*
X143398092Y-84708419D01*
X143549189Y-84401934D01*
X143819749Y-84806856D01*
X143875548Y-84844140D01*
X143875548Y-85923500D01*
X143901244Y-86060064D01*
X143667484Y-86059860D01*
X143370403Y-86182611D01*
X143142910Y-86409707D01*
X143019640Y-86706574D01*
X143019360Y-87028016D01*
X143142111Y-87325097D01*
X143369207Y-87552590D01*
X143666074Y-87675860D01*
X143875548Y-87676042D01*
X143875548Y-88123500D01*
X143884570Y-88171448D01*
X143875548Y-88216000D01*
X143875548Y-89283000D01*
X138685793Y-89283000D01*
X138634293Y-89231410D01*
X138337426Y-89108140D01*
X138015984Y-89107860D01*
X137718903Y-89230611D01*
X137491410Y-89457707D01*
X137368140Y-89754574D01*
X137367860Y-90076016D01*
X137490611Y-90373097D01*
X137717707Y-90600590D01*
X138014574Y-90723860D01*
X138336016Y-90724140D01*
X138633097Y-90601389D01*
X138685578Y-90549000D01*
X143783900Y-90549000D01*
X143783900Y-90711200D01*
X143936300Y-90863600D01*
X144691100Y-90863600D01*
X144691100Y-90843600D01*
X144995900Y-90843600D01*
X144995900Y-90863600D01*
X145750700Y-90863600D01*
X145903100Y-90711200D01*
X145903100Y-90549000D01*
X146260400Y-90549000D01*
X146260400Y-90711200D01*
X146412800Y-90863600D01*
X147167600Y-90863600D01*
X147167600Y-90843600D01*
X147472400Y-90843600D01*
X147472400Y-90863600D01*
X148227200Y-90863600D01*
X148379600Y-90711200D01*
X148379600Y-90703524D01*
X148428574Y-90723860D01*
X148750016Y-90724140D01*
X148800400Y-90703322D01*
X148800400Y-90711200D01*
X148952800Y-90863600D01*
X149707600Y-90863600D01*
X149707600Y-90843600D01*
X150012400Y-90843600D01*
X150012400Y-90863600D01*
X150767200Y-90863600D01*
X150919600Y-90711200D01*
X150919600Y-90549000D01*
X151340400Y-90549000D01*
X151340400Y-90711200D01*
X151492800Y-90863600D01*
X152247600Y-90863600D01*
X152247600Y-90843600D01*
X152552400Y-90843600D01*
X152552400Y-90863600D01*
X153307200Y-90863600D01*
X153459600Y-90711200D01*
X153459600Y-90549000D01*
X153689900Y-90549000D01*
X153689900Y-90711200D01*
X153842300Y-90863600D01*
X154597100Y-90863600D01*
X154597100Y-90843600D01*
X154901900Y-90843600D01*
X154901900Y-90863600D01*
X155656700Y-90863600D01*
X155733750Y-90786550D01*
X155810800Y-90863600D01*
X156565600Y-90863600D01*
X156565600Y-90843600D01*
X156870400Y-90843600D01*
X156870400Y-90863600D01*
X157625200Y-90863600D01*
X157777600Y-90711200D01*
X157777600Y-90549000D01*
X158737157Y-90549000D01*
X158546903Y-90627611D01*
X158319410Y-90854707D01*
X158196140Y-91151574D01*
X158195860Y-91473016D01*
X158318611Y-91770097D01*
X158371000Y-91822578D01*
X158371000Y-91947995D01*
X158370999Y-91948000D01*
X158419184Y-92190239D01*
X158556401Y-92395599D01*
X158556556Y-92395754D01*
X158446410Y-92505707D01*
X158323140Y-92802574D01*
X158322860Y-93124016D01*
X158445611Y-93421097D01*
X158498000Y-93473578D01*
X158498000Y-93971867D01*
X158292903Y-94056611D01*
X158065410Y-94283707D01*
X157942140Y-94580574D01*
X157941860Y-94902016D01*
X158064611Y-95199097D01*
X158291707Y-95426590D01*
X158588574Y-95549860D01*
X158910016Y-95550140D01*
X159207097Y-95427389D01*
X159259578Y-95375000D01*
X159764207Y-95375000D01*
X159815707Y-95426590D01*
X160112574Y-95549860D01*
X160434016Y-95550140D01*
X160731097Y-95427389D01*
X160958590Y-95200293D01*
X161081860Y-94903426D01*
X161082002Y-94740000D01*
X161117001Y-94740000D01*
X161116860Y-94902016D01*
X161239611Y-95199097D01*
X161466707Y-95426590D01*
X161763574Y-95549860D01*
X162054000Y-95550113D01*
X162054000Y-95884995D01*
X162053999Y-95885000D01*
X162102184Y-96127239D01*
X162239401Y-96332599D01*
X162747399Y-96840596D01*
X162747401Y-96840599D01*
X162892376Y-96937468D01*
X162952761Y-96977816D01*
X163195000Y-97026000D01*
X170182000Y-97026000D01*
X170182000Y-115314207D01*
X170130410Y-115365707D01*
X170007140Y-115662574D01*
X170006860Y-115984016D01*
X170129611Y-116281097D01*
X170356707Y-116508590D01*
X170653574Y-116631860D01*
X170975016Y-116632140D01*
X171272097Y-116509389D01*
X171481917Y-116299936D01*
X171690207Y-116508590D01*
X171987074Y-116631860D01*
X172308516Y-116632140D01*
X172605597Y-116509389D01*
X172751806Y-116363435D01*
X172896707Y-116508590D01*
X173193574Y-116631860D01*
X173357000Y-116632002D01*
X173357000Y-119308303D01*
X172838802Y-119826500D01*
X162993593Y-119826500D01*
X162942093Y-119774910D01*
X162645226Y-119651640D01*
X162323784Y-119651360D01*
X162026703Y-119774111D01*
X161799210Y-120001207D01*
X161675940Y-120298074D01*
X161675660Y-120619516D01*
X161798411Y-120916597D01*
X162025507Y-121144090D01*
X162322374Y-121267360D01*
X162643816Y-121267640D01*
X162940897Y-121144889D01*
X162993378Y-121092500D01*
X163405400Y-121092500D01*
X163405400Y-121404200D01*
X163557800Y-121556600D01*
X164312600Y-121556600D01*
X164312600Y-121536600D01*
X164617400Y-121536600D01*
X164617400Y-121556600D01*
X165372200Y-121556600D01*
X165524600Y-121404200D01*
X165524600Y-121092500D01*
X165818400Y-121092500D01*
X165818400Y-121404200D01*
X165970800Y-121556600D01*
X166725600Y-121556600D01*
X166725600Y-121536600D01*
X167030400Y-121536600D01*
X167030400Y-121556600D01*
X167785200Y-121556600D01*
X167937600Y-121404200D01*
X167937600Y-121092500D01*
X168231400Y-121092500D01*
X168231400Y-121404200D01*
X168383800Y-121556600D01*
X169138600Y-121556600D01*
X169138600Y-121536600D01*
X169443400Y-121536600D01*
X169443400Y-121556600D01*
X170198200Y-121556600D01*
X170350600Y-121404200D01*
X170350600Y-121092500D01*
X170644400Y-121092500D01*
X170644400Y-121404200D01*
X170796800Y-121556600D01*
X171551600Y-121556600D01*
X171551600Y-121536600D01*
X171856400Y-121536600D01*
X171856400Y-121556600D01*
X172611200Y-121556600D01*
X172763600Y-121404200D01*
X172763600Y-121092500D01*
X173057400Y-121092500D01*
X173057400Y-121404200D01*
X173209800Y-121556600D01*
X173964600Y-121556600D01*
X173964600Y-120651800D01*
X174269400Y-120651800D01*
X174269400Y-121556600D01*
X175024200Y-121556600D01*
X175176600Y-121404200D01*
X175176600Y-120987743D01*
X175343400Y-120987743D01*
X175343400Y-121404200D01*
X175495800Y-121556600D01*
X176250600Y-121556600D01*
X176250600Y-120651800D01*
X176555400Y-120651800D01*
X176555400Y-121556600D01*
X177310200Y-121556600D01*
X177462600Y-121404200D01*
X177462600Y-120987743D01*
X177369794Y-120763689D01*
X177198311Y-120592206D01*
X176974257Y-120499400D01*
X176707800Y-120499400D01*
X176555400Y-120651800D01*
X176250600Y-120651800D01*
X176098200Y-120499400D01*
X175831743Y-120499400D01*
X175607689Y-120592206D01*
X175436206Y-120763689D01*
X175343400Y-120987743D01*
X175176600Y-120987743D01*
X175083794Y-120763689D01*
X174912311Y-120592206D01*
X174688257Y-120499400D01*
X174421800Y-120499400D01*
X174269400Y-120651800D01*
X173964600Y-120651800D01*
X173884249Y-120571449D01*
X174437596Y-120018101D01*
X174437599Y-120018099D01*
X174574816Y-119812739D01*
X174601961Y-119676271D01*
X174623001Y-119570500D01*
X174623000Y-119570495D01*
X174623000Y-115994722D01*
X174781074Y-116060360D01*
X175102516Y-116060640D01*
X175399597Y-115937889D01*
X175627090Y-115710793D01*
X175750360Y-115413926D01*
X175750640Y-115092484D01*
X175635304Y-114813349D01*
X175766790Y-114682093D01*
X175890060Y-114385226D01*
X175890340Y-114063784D01*
X175767589Y-113766703D01*
X175715200Y-113714222D01*
X175715200Y-112599993D01*
X175766790Y-112548493D01*
X175890060Y-112251626D01*
X175890149Y-112148616D01*
X176585460Y-112148616D01*
X176708211Y-112445697D01*
X176786000Y-112523622D01*
X176786000Y-113944395D01*
X176785999Y-113944400D01*
X176834184Y-114186639D01*
X176971401Y-114391999D01*
X177326999Y-114747596D01*
X177327001Y-114747599D01*
X177532361Y-114884816D01*
X177774600Y-114933000D01*
X178972048Y-114933000D01*
X178972048Y-115150000D01*
X179007470Y-115338253D01*
X179118728Y-115511153D01*
X179288488Y-115627145D01*
X179490000Y-115667952D01*
X179670121Y-115667952D01*
X179353144Y-115879749D01*
X179058767Y-116320316D01*
X178955395Y-116840000D01*
X179058767Y-117359684D01*
X179353144Y-117800251D01*
X179793711Y-118094628D01*
X179870991Y-118110000D01*
X179793711Y-118125372D01*
X179353144Y-118419749D01*
X179058767Y-118860316D01*
X178955395Y-119380000D01*
X179058767Y-119899684D01*
X179353144Y-120340251D01*
X179793711Y-120634628D01*
X180313395Y-120738000D01*
X180366605Y-120738000D01*
X180886289Y-120634628D01*
X181326856Y-120340251D01*
X181621233Y-119899684D01*
X181724605Y-119380000D01*
X181621233Y-118860316D01*
X181326856Y-118419749D01*
X180886289Y-118125372D01*
X180809009Y-118110000D01*
X180886289Y-118094628D01*
X181326856Y-117800251D01*
X181621233Y-117359684D01*
X181724605Y-116840000D01*
X181621233Y-116320316D01*
X181326856Y-115879749D01*
X181009879Y-115667952D01*
X181190000Y-115667952D01*
X181378253Y-115632530D01*
X181551153Y-115521272D01*
X181667145Y-115351512D01*
X181707952Y-115150000D01*
X181707952Y-113450000D01*
X181672530Y-113261747D01*
X181561272Y-113088847D01*
X181391512Y-112972855D01*
X181190000Y-112932048D01*
X179490000Y-112932048D01*
X179301747Y-112967470D01*
X179128847Y-113078728D01*
X179013262Y-113247892D01*
X178891789Y-112953903D01*
X178830237Y-112892244D01*
X178823042Y-112489322D01*
X178890990Y-112421493D01*
X179014260Y-112124626D01*
X179014540Y-111803184D01*
X178891789Y-111506103D01*
X178664693Y-111278610D01*
X178367826Y-111155340D01*
X178046384Y-111155060D01*
X177769100Y-111269631D01*
X177555026Y-111180740D01*
X177233584Y-111180460D01*
X176936503Y-111303211D01*
X176709010Y-111530307D01*
X176585740Y-111827174D01*
X176585460Y-112148616D01*
X175890149Y-112148616D01*
X175890340Y-111930184D01*
X175767589Y-111633103D01*
X175540493Y-111405610D01*
X175243626Y-111282340D01*
X175108975Y-111282223D01*
X175199599Y-111191599D01*
X175223826Y-111155340D01*
X175336816Y-110986239D01*
X175344810Y-110946048D01*
X175385001Y-110744000D01*
X175385000Y-110743995D01*
X175385000Y-109156505D01*
X175385001Y-109156500D01*
X175336816Y-108914261D01*
X175199599Y-108708901D01*
X174628099Y-108137401D01*
X174422739Y-108000184D01*
X174180500Y-107951999D01*
X174180495Y-107952000D01*
X173991793Y-107952000D01*
X173940293Y-107900410D01*
X173643426Y-107777140D01*
X173364004Y-107776897D01*
X173364004Y-106510352D01*
X174236800Y-106510352D01*
X174425053Y-106474930D01*
X174597953Y-106363672D01*
X174713945Y-106193912D01*
X174754752Y-105992400D01*
X174754752Y-105121392D01*
X175059344Y-104900000D01*
X175239512Y-104900000D01*
X175239260Y-105189016D01*
X175362011Y-105486097D01*
X175589107Y-105713590D01*
X175885974Y-105836860D01*
X175968784Y-105836932D01*
X175947843Y-107637840D01*
X175957122Y-107687502D01*
X175954634Y-107737965D01*
X175979592Y-107807759D01*
X175993207Y-107880623D01*
X176020787Y-107922956D01*
X176037798Y-107970527D01*
X176087564Y-108025456D01*
X176128027Y-108087564D01*
X176135515Y-108092694D01*
X176105455Y-108136688D01*
X176064648Y-108338200D01*
X176064648Y-109238200D01*
X176100070Y-109426453D01*
X176129801Y-109472656D01*
X176105455Y-109508288D01*
X176064648Y-109709800D01*
X176064648Y-110609800D01*
X176100070Y-110798053D01*
X176211328Y-110970953D01*
X176381088Y-111086945D01*
X176582600Y-111127752D01*
X177782600Y-111127752D01*
X177970853Y-111092330D01*
X178143753Y-110981072D01*
X178226436Y-110860062D01*
X178265806Y-110955111D01*
X178437289Y-111126594D01*
X178661343Y-111219400D01*
X179077800Y-111219400D01*
X179230200Y-111067000D01*
X179230200Y-110312200D01*
X179535000Y-110312200D01*
X179535000Y-111067000D01*
X179687400Y-111219400D01*
X180103857Y-111219400D01*
X180327911Y-111126594D01*
X180499394Y-110955111D01*
X180592200Y-110731057D01*
X180592200Y-110464600D01*
X180439800Y-110312200D01*
X179535000Y-110312200D01*
X179230200Y-110312200D01*
X179210200Y-110312200D01*
X179210200Y-110007400D01*
X179230200Y-110007400D01*
X179230200Y-109987400D01*
X179535000Y-109987400D01*
X179535000Y-110007400D01*
X180439800Y-110007400D01*
X180592200Y-109855000D01*
X180592200Y-109588543D01*
X180499394Y-109364489D01*
X180479090Y-109344185D01*
X180500552Y-109238200D01*
X180500552Y-108338200D01*
X180465130Y-108149947D01*
X180458472Y-108139600D01*
X180492402Y-108139600D01*
X180492402Y-107979235D01*
X180717609Y-108089921D01*
X181228419Y-107838092D01*
X181603975Y-107409954D01*
X181749910Y-107057607D01*
X181638286Y-106832400D01*
X180492400Y-106832400D01*
X180492400Y-106852400D01*
X180187600Y-106852400D01*
X180187600Y-106832400D01*
X180167600Y-106832400D01*
X180167600Y-106527600D01*
X180187600Y-106527600D01*
X180187600Y-106507600D01*
X180492400Y-106507600D01*
X180492400Y-106527600D01*
X181638286Y-106527600D01*
X181749910Y-106302393D01*
X181603975Y-105950046D01*
X181228419Y-105521908D01*
X180921934Y-105370811D01*
X181326856Y-105100251D01*
X181621233Y-104659684D01*
X181724605Y-104140000D01*
X181621233Y-103620316D01*
X181326856Y-103179749D01*
X180886289Y-102885372D01*
X180809009Y-102870000D01*
X180886289Y-102854628D01*
X181326856Y-102560251D01*
X181621233Y-102119684D01*
X181724605Y-101600000D01*
X181621233Y-101080316D01*
X181326856Y-100639749D01*
X180886289Y-100345372D01*
X180366605Y-100242000D01*
X180313395Y-100242000D01*
X179890952Y-100326029D01*
X179890952Y-99626000D01*
X179855530Y-99437747D01*
X179744272Y-99264847D01*
X179574512Y-99148855D01*
X179373000Y-99108048D01*
X178173000Y-99108048D01*
X177984747Y-99143470D01*
X177878952Y-99211547D01*
X177878952Y-98036000D01*
X177843530Y-97847747D01*
X177732272Y-97674847D01*
X177611262Y-97592164D01*
X177706311Y-97552794D01*
X177877794Y-97381311D01*
X177970600Y-97157257D01*
X177970600Y-96740800D01*
X177818200Y-96588400D01*
X177063400Y-96588400D01*
X177063400Y-96608400D01*
X176758600Y-96608400D01*
X176758600Y-96588400D01*
X176003800Y-96588400D01*
X175851400Y-96740800D01*
X175851400Y-97157257D01*
X175944206Y-97381311D01*
X176115689Y-97552794D01*
X176211879Y-97592637D01*
X176099847Y-97664728D01*
X175983855Y-97834488D01*
X175943048Y-98036000D01*
X175943048Y-99113684D01*
X175784747Y-99143470D01*
X175611847Y-99254728D01*
X175495855Y-99424488D01*
X175455048Y-99626000D01*
X175455048Y-100526000D01*
X175490470Y-100714253D01*
X175530597Y-100776612D01*
X175515999Y-100850000D01*
X175516000Y-100850005D01*
X175516000Y-101699851D01*
X175439010Y-101776707D01*
X175315740Y-102073574D01*
X175315460Y-102395016D01*
X175334130Y-102440200D01*
X174754752Y-102440200D01*
X174754752Y-102354000D01*
X174719330Y-102165747D01*
X174608072Y-101992847D01*
X174487062Y-101910164D01*
X174582111Y-101870794D01*
X174753594Y-101699311D01*
X174846400Y-101475257D01*
X174846400Y-101058800D01*
X174694000Y-100906400D01*
X173939200Y-100906400D01*
X173939200Y-100926400D01*
X173634400Y-100926400D01*
X173634400Y-100906400D01*
X173614400Y-100906400D01*
X173614400Y-100601600D01*
X173634400Y-100601600D01*
X173634400Y-99696800D01*
X173939200Y-99696800D01*
X173939200Y-100601600D01*
X174694000Y-100601600D01*
X174846400Y-100449200D01*
X174846400Y-100032743D01*
X174753594Y-99808689D01*
X174582111Y-99637206D01*
X174358057Y-99544400D01*
X174091600Y-99544400D01*
X173939200Y-99696800D01*
X173634400Y-99696800D01*
X173482000Y-99544400D01*
X173364004Y-99544400D01*
X173364004Y-96313994D01*
X173388597Y-96289400D01*
X173710595Y-96289400D01*
X173710600Y-96289401D01*
X173952839Y-96241216D01*
X174158199Y-96103999D01*
X174458121Y-95804077D01*
X174531016Y-95804140D01*
X174747373Y-95714743D01*
X175851400Y-95714743D01*
X175851400Y-96131200D01*
X176003800Y-96283600D01*
X176758600Y-96283600D01*
X176758600Y-95378800D01*
X177063400Y-95378800D01*
X177063400Y-96283600D01*
X177818200Y-96283600D01*
X177970600Y-96131200D01*
X177970600Y-95714743D01*
X177877794Y-95490689D01*
X177706311Y-95319206D01*
X177482257Y-95226400D01*
X177215800Y-95226400D01*
X177063400Y-95378800D01*
X176758600Y-95378800D01*
X176606200Y-95226400D01*
X176339743Y-95226400D01*
X176115689Y-95319206D01*
X175944206Y-95490689D01*
X175851400Y-95714743D01*
X174747373Y-95714743D01*
X174828097Y-95681389D01*
X175055590Y-95454293D01*
X175178860Y-95157426D01*
X175179140Y-94835984D01*
X175056389Y-94538903D01*
X174829293Y-94311410D01*
X174532426Y-94188140D01*
X174210984Y-94187860D01*
X173913903Y-94310611D01*
X173863111Y-94361315D01*
X173813293Y-94311410D01*
X173516426Y-94188140D01*
X173194984Y-94187860D01*
X172897903Y-94310611D01*
X172845422Y-94363000D01*
X172516805Y-94363000D01*
X172516800Y-94362999D01*
X172314752Y-94403190D01*
X172274561Y-94411184D01*
X172069201Y-94548401D01*
X172069199Y-94548404D01*
X172046900Y-94570703D01*
X171008599Y-93532401D01*
X170803239Y-93395184D01*
X170561000Y-93346999D01*
X170560995Y-93347000D01*
X163965197Y-93347000D01*
X162753599Y-92135401D01*
X162712402Y-92107874D01*
X162712402Y-92073202D01*
X162864800Y-92225600D01*
X163131257Y-92225600D01*
X163355311Y-92132794D01*
X163526794Y-91961311D01*
X163619600Y-91737257D01*
X163619600Y-91320800D01*
X164040400Y-91320800D01*
X164040400Y-91737257D01*
X164133206Y-91961311D01*
X164304689Y-92132794D01*
X164528743Y-92225600D01*
X164795200Y-92225600D01*
X164947600Y-92073200D01*
X164947600Y-91168400D01*
X165252400Y-91168400D01*
X165252400Y-92073200D01*
X165404800Y-92225600D01*
X165671257Y-92225600D01*
X165895311Y-92132794D01*
X166066794Y-91961311D01*
X166159600Y-91737257D01*
X166159600Y-91320800D01*
X166580400Y-91320800D01*
X166580400Y-91737257D01*
X166673206Y-91961311D01*
X166844689Y-92132794D01*
X167068743Y-92225600D01*
X167335200Y-92225600D01*
X167487600Y-92073200D01*
X167487600Y-91168400D01*
X167792400Y-91168400D01*
X167792400Y-92073200D01*
X167944800Y-92225600D01*
X168211257Y-92225600D01*
X168435311Y-92132794D01*
X168606794Y-91961311D01*
X168699600Y-91737257D01*
X168699600Y-91320800D01*
X169120400Y-91320800D01*
X169120400Y-91737257D01*
X169213206Y-91961311D01*
X169384689Y-92132794D01*
X169608743Y-92225600D01*
X169875200Y-92225600D01*
X170027600Y-92073200D01*
X170027600Y-91168400D01*
X169272800Y-91168400D01*
X169120400Y-91320800D01*
X168699600Y-91320800D01*
X168547200Y-91168400D01*
X167792400Y-91168400D01*
X167487600Y-91168400D01*
X166732800Y-91168400D01*
X166580400Y-91320800D01*
X166159600Y-91320800D01*
X166007200Y-91168400D01*
X165252400Y-91168400D01*
X164947600Y-91168400D01*
X164192800Y-91168400D01*
X164040400Y-91320800D01*
X163619600Y-91320800D01*
X163467200Y-91168400D01*
X162712400Y-91168400D01*
X162712400Y-91188400D01*
X162407600Y-91188400D01*
X162407600Y-91168400D01*
X161652800Y-91168400D01*
X161500400Y-91320800D01*
X161500400Y-91737257D01*
X161588521Y-91950000D01*
X160991479Y-91950000D01*
X161079600Y-91737257D01*
X161079600Y-91320800D01*
X160927200Y-91168400D01*
X160172400Y-91168400D01*
X160172400Y-91188400D01*
X159867600Y-91188400D01*
X159867600Y-91168400D01*
X159847600Y-91168400D01*
X159847600Y-90863600D01*
X159867600Y-90863600D01*
X159867600Y-90843600D01*
X160172400Y-90843600D01*
X160172400Y-90863600D01*
X160927200Y-90863600D01*
X161079600Y-90711200D01*
X161079600Y-90549000D01*
X161500400Y-90549000D01*
X161500400Y-90711200D01*
X161652800Y-90863600D01*
X162407600Y-90863600D01*
X162407600Y-90843600D01*
X162712400Y-90843600D01*
X162712400Y-90863600D01*
X163467200Y-90863600D01*
X163619600Y-90711200D01*
X163619600Y-90549000D01*
X164040400Y-90549000D01*
X164040400Y-90711200D01*
X164192800Y-90863600D01*
X164947600Y-90863600D01*
X164947600Y-90843600D01*
X165252400Y-90843600D01*
X165252400Y-90863600D01*
X166007200Y-90863600D01*
X166159600Y-90711200D01*
X166159600Y-90549000D01*
X166580400Y-90549000D01*
X166580400Y-90711200D01*
X166732800Y-90863600D01*
X167487600Y-90863600D01*
X167487600Y-90843600D01*
X167792400Y-90843600D01*
X167792400Y-90863600D01*
X168547200Y-90863600D01*
X168699600Y-90711200D01*
X168699600Y-90549000D01*
X169120400Y-90549000D01*
X169120400Y-90711200D01*
X169272800Y-90863600D01*
X170027600Y-90863600D01*
X170027600Y-90843600D01*
X170332400Y-90843600D01*
X170332400Y-90863600D01*
X170352400Y-90863600D01*
X170352400Y-91168400D01*
X170332400Y-91168400D01*
X170332400Y-92073200D01*
X170484800Y-92225600D01*
X170751257Y-92225600D01*
X170947859Y-92144165D01*
X170991707Y-92188090D01*
X171137365Y-92248572D01*
X171340635Y-92618154D01*
X171340360Y-92933516D01*
X171463111Y-93230597D01*
X171690207Y-93458090D01*
X171987074Y-93581360D01*
X172308516Y-93581640D01*
X172605597Y-93458889D01*
X172833090Y-93231793D01*
X172956360Y-92934926D01*
X172956640Y-92613484D01*
X172833889Y-92316403D01*
X172743244Y-92225600D01*
X172872402Y-92225600D01*
X172872402Y-92073202D01*
X173024800Y-92225600D01*
X173291257Y-92225600D01*
X173515311Y-92132794D01*
X173686794Y-91961311D01*
X173779600Y-91737257D01*
X173779600Y-91320800D01*
X174200400Y-91320800D01*
X174200400Y-91737257D01*
X174293206Y-91961311D01*
X174464689Y-92132794D01*
X174688743Y-92225600D01*
X174955200Y-92225600D01*
X175107600Y-92073200D01*
X175107600Y-91168400D01*
X175412400Y-91168400D01*
X175412400Y-92073200D01*
X175564800Y-92225600D01*
X175831257Y-92225600D01*
X176055311Y-92132794D01*
X176226794Y-91961311D01*
X176319600Y-91737257D01*
X176319600Y-91320800D01*
X176740400Y-91320800D01*
X176740400Y-91737257D01*
X176833206Y-91961311D01*
X177004689Y-92132794D01*
X177228743Y-92225600D01*
X177495200Y-92225600D01*
X177647600Y-92073200D01*
X177647600Y-91168400D01*
X177952400Y-91168400D01*
X177952400Y-92073200D01*
X178104800Y-92225600D01*
X178371257Y-92225600D01*
X178595311Y-92132794D01*
X178766794Y-91961311D01*
X178859600Y-91737257D01*
X178859600Y-91320800D01*
X178707200Y-91168400D01*
X177952400Y-91168400D01*
X177647600Y-91168400D01*
X176892800Y-91168400D01*
X176740400Y-91320800D01*
X176319600Y-91320800D01*
X176167200Y-91168400D01*
X175412400Y-91168400D01*
X175107600Y-91168400D01*
X174352800Y-91168400D01*
X174200400Y-91320800D01*
X173779600Y-91320800D01*
X173627200Y-91168400D01*
X172872400Y-91168400D01*
X172872400Y-91188400D01*
X172567600Y-91188400D01*
X172567600Y-91168400D01*
X172547600Y-91168400D01*
X172547600Y-90863600D01*
X172567600Y-90863600D01*
X172567600Y-90843600D01*
X172872400Y-90843600D01*
X172872400Y-90863600D01*
X173627200Y-90863600D01*
X173779600Y-90711200D01*
X173779600Y-90294743D01*
X173686794Y-90070689D01*
X173515311Y-89899206D01*
X173419121Y-89859363D01*
X173531153Y-89787272D01*
X173613772Y-89666355D01*
X173785707Y-89838590D01*
X174082574Y-89961860D01*
X174401757Y-89962138D01*
X174293206Y-90070689D01*
X174200400Y-90294743D01*
X174200400Y-90711200D01*
X174352800Y-90863600D01*
X175107600Y-90863600D01*
X175107600Y-90843600D01*
X175412400Y-90843600D01*
X175412400Y-90863600D01*
X176167200Y-90863600D01*
X176319600Y-90711200D01*
X176319600Y-90294743D01*
X176226794Y-90070689D01*
X176055311Y-89899206D01*
X175959121Y-89859363D01*
X176071153Y-89787272D01*
X176153772Y-89666355D01*
X176325707Y-89838590D01*
X176622574Y-89961860D01*
X176941757Y-89962138D01*
X176833206Y-90070689D01*
X176740400Y-90294743D01*
X176740400Y-90711200D01*
X176892800Y-90863600D01*
X177647600Y-90863600D01*
X177647600Y-90843600D01*
X177952400Y-90843600D01*
X177952400Y-90863600D01*
X178707200Y-90863600D01*
X178859600Y-90711200D01*
X178859600Y-90294743D01*
X178766794Y-90070689D01*
X178595311Y-89899206D01*
X178499121Y-89859363D01*
X178611153Y-89787272D01*
X178727145Y-89617512D01*
X178767952Y-89416000D01*
X178767952Y-88216000D01*
X178732530Y-88027747D01*
X178723213Y-88013267D01*
X178727145Y-88007512D01*
X178767952Y-87806000D01*
X178767952Y-86606000D01*
X178732530Y-86417747D01*
X178621272Y-86244847D01*
X178451512Y-86128855D01*
X178341905Y-86106659D01*
X178438253Y-86088530D01*
X178611153Y-85977272D01*
X178727145Y-85807512D01*
X178767952Y-85606000D01*
X178767952Y-84406000D01*
X178732530Y-84217747D01*
X178621272Y-84044847D01*
X178451512Y-83928855D01*
X178433000Y-83925106D01*
X178433000Y-82647952D01*
X178650000Y-82647952D01*
X178838253Y-82612530D01*
X179011153Y-82501272D01*
X179127145Y-82331512D01*
X179167952Y-82130000D01*
X179167952Y-80430000D01*
X179132530Y-80241747D01*
X179021272Y-80068847D01*
X178851512Y-79952855D01*
X178650000Y-79912048D01*
X176950000Y-79912048D01*
X176761747Y-79947470D01*
X176588847Y-80058728D01*
X176472855Y-80228488D01*
X176432048Y-80430000D01*
X176432048Y-80610121D01*
X176220251Y-80293144D01*
X175779684Y-79998767D01*
X175260000Y-79895395D01*
X174740316Y-79998767D01*
X174299749Y-80293144D01*
X174005372Y-80733711D01*
X173990000Y-80810991D01*
X173974628Y-80733711D01*
X173680251Y-80293144D01*
X173239684Y-79998767D01*
X172720000Y-79895395D01*
X172200316Y-79998767D01*
X171759749Y-80293144D01*
X171465372Y-80733711D01*
X171450000Y-80810991D01*
X171434628Y-80733711D01*
X171140251Y-80293144D01*
X170699684Y-79998767D01*
X170180000Y-79895395D01*
X169660316Y-79998767D01*
X169219749Y-80293144D01*
X168925372Y-80733711D01*
X168910000Y-80810991D01*
X168894628Y-80733711D01*
X168600251Y-80293144D01*
X168159684Y-79998767D01*
X167640000Y-79895395D01*
X167120316Y-79998767D01*
X166679749Y-80293144D01*
X166385372Y-80733711D01*
X166370000Y-80810991D01*
X166354628Y-80733711D01*
X166060251Y-80293144D01*
X165619684Y-79998767D01*
X165100000Y-79895395D01*
X164580316Y-79998767D01*
X164139749Y-80293144D01*
X163845372Y-80733711D01*
X163830000Y-80810991D01*
X163814628Y-80733711D01*
X163520251Y-80293144D01*
X163079684Y-79998767D01*
X162560000Y-79895395D01*
X162040316Y-79998767D01*
X161599749Y-80293144D01*
X161305372Y-80733711D01*
X161290000Y-80810991D01*
X161274628Y-80733711D01*
X160980251Y-80293144D01*
X160539684Y-79998767D01*
X160020000Y-79895395D01*
X159500316Y-79998767D01*
X159059749Y-80293144D01*
X158765372Y-80733711D01*
X158662000Y-81253395D01*
X158662000Y-81306605D01*
X158765372Y-81826289D01*
X159059749Y-82266856D01*
X159387000Y-82485518D01*
X159387000Y-83922482D01*
X159381747Y-83923470D01*
X159208847Y-84034728D01*
X159092855Y-84204488D01*
X159052048Y-84406000D01*
X159052048Y-85606000D01*
X159087470Y-85794253D01*
X159198728Y-85967153D01*
X159368488Y-86083145D01*
X159478095Y-86105341D01*
X159381747Y-86123470D01*
X159208847Y-86234728D01*
X159092855Y-86404488D01*
X159052048Y-86606000D01*
X159052048Y-86949041D01*
X158843984Y-86948860D01*
X158745635Y-86989497D01*
X158521823Y-86908111D01*
X158513227Y-86906790D01*
X158505672Y-86902484D01*
X158428168Y-86876649D01*
X158419389Y-86855403D01*
X158192293Y-86627910D01*
X157895426Y-86504640D01*
X157573984Y-86504360D01*
X157499467Y-86535150D01*
X157369512Y-86446355D01*
X157259905Y-86424159D01*
X157356253Y-86406030D01*
X157529153Y-86294772D01*
X157645145Y-86125012D01*
X157685952Y-85923500D01*
X157685952Y-85187952D01*
X158330000Y-85187952D01*
X158518253Y-85152530D01*
X158691153Y-85041272D01*
X158807145Y-84871512D01*
X158847952Y-84670000D01*
X158847952Y-82970000D01*
X158812530Y-82781747D01*
X158701272Y-82608847D01*
X158531512Y-82492855D01*
X158330000Y-82452048D01*
X157454786Y-82452048D01*
X157537145Y-82331512D01*
X157577952Y-82130000D01*
X157577952Y-80430000D01*
X157542530Y-80241747D01*
X157431272Y-80068847D01*
X157261512Y-79952855D01*
X157060000Y-79912048D01*
X155360000Y-79912048D01*
X155171747Y-79947470D01*
X154998847Y-80058728D01*
X154882855Y-80228488D01*
X154842048Y-80430000D01*
X154842048Y-80610121D01*
X154630251Y-80293144D01*
X154189684Y-79998767D01*
X153670000Y-79895395D01*
X153150316Y-79998767D01*
X152709749Y-80293144D01*
X152415372Y-80733711D01*
X152400000Y-80810991D01*
X152384628Y-80733711D01*
X152090251Y-80293144D01*
X151649684Y-79998767D01*
X151130000Y-79895395D01*
X150610316Y-79998767D01*
X150169749Y-80293144D01*
X149875372Y-80733711D01*
X149860000Y-80810991D01*
X149844628Y-80733711D01*
X149550251Y-80293144D01*
X149109684Y-79998767D01*
X148590000Y-79895395D01*
X148070316Y-79998767D01*
X147629749Y-80293144D01*
X147335372Y-80733711D01*
X147320000Y-80810991D01*
X147304628Y-80733711D01*
X147010251Y-80293144D01*
X146569684Y-79998767D01*
X146050000Y-79895395D01*
X145530316Y-79998767D01*
X145089749Y-80293144D01*
X144795372Y-80733711D01*
X144780000Y-80810991D01*
X144764628Y-80733711D01*
X144470251Y-80293144D01*
X144029684Y-79998767D01*
X143510000Y-79895395D01*
X142990316Y-79998767D01*
X142549749Y-80293144D01*
X142279189Y-80698066D01*
X142128092Y-80391581D01*
X141699954Y-80016025D01*
X141347607Y-79870090D01*
X141122400Y-79981714D01*
X141122400Y-81127600D01*
X141142400Y-81127600D01*
X141142400Y-81432400D01*
X141122400Y-81432400D01*
X141122400Y-82578286D01*
X141347607Y-82689910D01*
X141366190Y-82682213D01*
X141081908Y-82931581D01*
X140930811Y-83238066D01*
X140660251Y-82833144D01*
X140219684Y-82538767D01*
X139700000Y-82435395D01*
X139180316Y-82538767D01*
X138739749Y-82833144D01*
X138445372Y-83273711D01*
X138430000Y-83350991D01*
X138414628Y-83273711D01*
X138120251Y-82833144D01*
X137679684Y-82538767D01*
X137160000Y-82435395D01*
X136640316Y-82538767D01*
X136199749Y-82833144D01*
X135905372Y-83273711D01*
X135890000Y-83350991D01*
X135874628Y-83273711D01*
X135580251Y-82833144D01*
X135139684Y-82538767D01*
X134620000Y-82435395D01*
X134100316Y-82538767D01*
X133659749Y-82833144D01*
X133365372Y-83273711D01*
X133262000Y-83793395D01*
X133262000Y-83846605D01*
X133365372Y-84366289D01*
X133659749Y-84806856D01*
X134100316Y-85101233D01*
X134620000Y-85204605D01*
X135139684Y-85101233D01*
X135580251Y-84806856D01*
X135874628Y-84366289D01*
X135890000Y-84289009D01*
X135905372Y-84366289D01*
X136199749Y-84806856D01*
X136256216Y-84844586D01*
X135754802Y-85346000D01*
X132335793Y-85346000D01*
X132284293Y-85294410D01*
X131987426Y-85171140D01*
X131665984Y-85170860D01*
X131368903Y-85293611D01*
X131141410Y-85520707D01*
X131018140Y-85817574D01*
X131017860Y-86139016D01*
X131118780Y-86383262D01*
X130947625Y-86497625D01*
X130756214Y-86784091D01*
X130689000Y-87122000D01*
X120269843Y-87122000D01*
X120191278Y-86932327D01*
X119898336Y-86787190D01*
X118705526Y-87980000D01*
X118274474Y-87980000D01*
X117081664Y-86787190D01*
X116788722Y-86932327D01*
X116517297Y-87663126D01*
X115163600Y-87663126D01*
X115163600Y-86571664D01*
X117297190Y-86571664D01*
X118490000Y-87764474D01*
X119682810Y-86571664D01*
X119537673Y-86278722D01*
X118806874Y-86007297D01*
X118027833Y-86036198D01*
X117442327Y-86278722D01*
X117297190Y-86571664D01*
X115163600Y-86571664D01*
X115163600Y-79970886D01*
X115797586Y-79336900D01*
X128722561Y-79336900D01*
X128347474Y-79491883D01*
G36*
X125228000Y-103170116D02*
X125228000Y-109220000D01*
X125295214Y-109557910D01*
X125486625Y-109844375D01*
X126006270Y-110364020D01*
X125917401Y-110423401D01*
X125917399Y-110423404D01*
X125536401Y-110804401D01*
X125399184Y-111009761D01*
X125350999Y-111252000D01*
X125351000Y-111252005D01*
X125351000Y-114044207D01*
X125299410Y-114095707D01*
X125176140Y-114392574D01*
X125175860Y-114714016D01*
X125298611Y-115011097D01*
X125525707Y-115238590D01*
X125822574Y-115361860D01*
X126144016Y-115362140D01*
X126441097Y-115239389D01*
X126668590Y-115012293D01*
X126791860Y-114715426D01*
X126792140Y-114393984D01*
X126669389Y-114096903D01*
X126617000Y-114044422D01*
X126617000Y-111514198D01*
X126627197Y-111504000D01*
X132079995Y-111504000D01*
X132080000Y-111504001D01*
X132322239Y-111455816D01*
X132527599Y-111318599D01*
X133035596Y-110810601D01*
X133035599Y-110810599D01*
X133172816Y-110605239D01*
X133221000Y-110363000D01*
X133221000Y-106217888D01*
X133510016Y-106218140D01*
X133807097Y-106095389D01*
X133857889Y-106044685D01*
X133907707Y-106094590D01*
X134204574Y-106217860D01*
X134526016Y-106218140D01*
X134823097Y-106095389D01*
X135050590Y-105868293D01*
X135173860Y-105571426D01*
X135174140Y-105249984D01*
X135051389Y-104952903D01*
X134824293Y-104725410D01*
X134763894Y-104700330D01*
X134745000Y-104653095D01*
X134745000Y-103898843D01*
X134823611Y-104089097D01*
X135050707Y-104316590D01*
X135347574Y-104439860D01*
X135638000Y-104440113D01*
X135638000Y-105029000D01*
X135654424Y-105111567D01*
X135660304Y-105195553D01*
X135678312Y-105231663D01*
X135686184Y-105271239D01*
X135732958Y-105341241D01*
X135770528Y-105416578D01*
X135800982Y-105443046D01*
X135823401Y-105476599D01*
X135893404Y-105523374D01*
X135900477Y-105529520D01*
X135832855Y-105628488D01*
X135792048Y-105830000D01*
X135792048Y-107530000D01*
X135827470Y-107718253D01*
X135938728Y-107891153D01*
X136108488Y-108007145D01*
X136310000Y-108047952D01*
X136490121Y-108047952D01*
X136173144Y-108259749D01*
X135878767Y-108700316D01*
X135775395Y-109220000D01*
X135878767Y-109739684D01*
X136173144Y-110180251D01*
X136578066Y-110450811D01*
X136271581Y-110601908D01*
X135896025Y-111030046D01*
X135750090Y-111382393D01*
X135861714Y-111607600D01*
X137007600Y-111607600D01*
X137007600Y-111587600D01*
X137312400Y-111587600D01*
X137312400Y-111607600D01*
X137332400Y-111607600D01*
X137332400Y-111912400D01*
X137312400Y-111912400D01*
X137312400Y-111932400D01*
X137007600Y-111932400D01*
X137007600Y-111912400D01*
X135861714Y-111912400D01*
X135750090Y-112137607D01*
X135896025Y-112489954D01*
X136271581Y-112918092D01*
X136578066Y-113069189D01*
X136244606Y-113292000D01*
X135382000Y-113292000D01*
X134996255Y-113368729D01*
X134669236Y-113587236D01*
X134669234Y-113587239D01*
X134161236Y-114095236D01*
X133942729Y-114422255D01*
X133899776Y-114638192D01*
X133892426Y-114635140D01*
X133818273Y-114635075D01*
X133670599Y-114487401D01*
X133465239Y-114350184D01*
X133223000Y-114301999D01*
X133222995Y-114302000D01*
X130811793Y-114302000D01*
X130760293Y-114250410D01*
X130463426Y-114127140D01*
X130141984Y-114126860D01*
X129844903Y-114249611D01*
X129617410Y-114476707D01*
X129494140Y-114773574D01*
X129493860Y-115095016D01*
X129616611Y-115392097D01*
X129843707Y-115619590D01*
X130140574Y-115742860D01*
X130462016Y-115743140D01*
X130759097Y-115620389D01*
X130811578Y-115568000D01*
X132922891Y-115568000D01*
X132922860Y-115603016D01*
X133045611Y-115900097D01*
X133272707Y-116127590D01*
X133569574Y-116250860D01*
X133866000Y-116251118D01*
X133866000Y-117438472D01*
X133567472Y-117737000D01*
X131953000Y-117737000D01*
X131567255Y-117813729D01*
X131240236Y-118032236D01*
X131127500Y-118200957D01*
X131014764Y-118032236D01*
X129871764Y-116889236D01*
X129544745Y-116670729D01*
X129159000Y-116593999D01*
X129158995Y-116594000D01*
X120317628Y-116594000D01*
X119372000Y-115608972D01*
X119372000Y-106043000D01*
X123951995Y-106043000D01*
X123952000Y-106043001D01*
X124194239Y-105994816D01*
X124399599Y-105857599D01*
X125034596Y-105222601D01*
X125034599Y-105222599D01*
X125171816Y-105017239D01*
X125186483Y-104943501D01*
X125220001Y-104775000D01*
X125220000Y-104774995D01*
X125220000Y-103170109D01*
X125228000Y-103170116D01*
X125228000Y-103170116D01*
G37*
X125228000Y-103170116D02*
X125228000Y-109220000D01*
X125295214Y-109557910D01*
X125486625Y-109844375D01*
X126006270Y-110364020D01*
X125917401Y-110423401D01*
X125917399Y-110423404D01*
X125536401Y-110804401D01*
X125399184Y-111009761D01*
X125350999Y-111252000D01*
X125351000Y-111252005D01*
X125351000Y-114044207D01*
X125299410Y-114095707D01*
X125176140Y-114392574D01*
X125175860Y-114714016D01*
X125298611Y-115011097D01*
X125525707Y-115238590D01*
X125822574Y-115361860D01*
X126144016Y-115362140D01*
X126441097Y-115239389D01*
X126668590Y-115012293D01*
X126791860Y-114715426D01*
X126792140Y-114393984D01*
X126669389Y-114096903D01*
X126617000Y-114044422D01*
X126617000Y-111514198D01*
X126627197Y-111504000D01*
X132079995Y-111504000D01*
X132080000Y-111504001D01*
X132322239Y-111455816D01*
X132527599Y-111318599D01*
X133035596Y-110810601D01*
X133035599Y-110810599D01*
X133172816Y-110605239D01*
X133221000Y-110363000D01*
X133221000Y-106217888D01*
X133510016Y-106218140D01*
X133807097Y-106095389D01*
X133857889Y-106044685D01*
X133907707Y-106094590D01*
X134204574Y-106217860D01*
X134526016Y-106218140D01*
X134823097Y-106095389D01*
X135050590Y-105868293D01*
X135173860Y-105571426D01*
X135174140Y-105249984D01*
X135051389Y-104952903D01*
X134824293Y-104725410D01*
X134763894Y-104700330D01*
X134745000Y-104653095D01*
X134745000Y-103898843D01*
X134823611Y-104089097D01*
X135050707Y-104316590D01*
X135347574Y-104439860D01*
X135638000Y-104440113D01*
X135638000Y-105029000D01*
X135654424Y-105111567D01*
X135660304Y-105195553D01*
X135678312Y-105231663D01*
X135686184Y-105271239D01*
X135732958Y-105341241D01*
X135770528Y-105416578D01*
X135800982Y-105443046D01*
X135823401Y-105476599D01*
X135893404Y-105523374D01*
X135900477Y-105529520D01*
X135832855Y-105628488D01*
X135792048Y-105830000D01*
X135792048Y-107530000D01*
X135827470Y-107718253D01*
X135938728Y-107891153D01*
X136108488Y-108007145D01*
X136310000Y-108047952D01*
X136490121Y-108047952D01*
X136173144Y-108259749D01*
X135878767Y-108700316D01*
X135775395Y-109220000D01*
X135878767Y-109739684D01*
X136173144Y-110180251D01*
X136578066Y-110450811D01*
X136271581Y-110601908D01*
X135896025Y-111030046D01*
X135750090Y-111382393D01*
X135861714Y-111607600D01*
X137007600Y-111607600D01*
X137007600Y-111587600D01*
X137312400Y-111587600D01*
X137312400Y-111607600D01*
X137332400Y-111607600D01*
X137332400Y-111912400D01*
X137312400Y-111912400D01*
X137312400Y-111932400D01*
X137007600Y-111932400D01*
X137007600Y-111912400D01*
X135861714Y-111912400D01*
X135750090Y-112137607D01*
X135896025Y-112489954D01*
X136271581Y-112918092D01*
X136578066Y-113069189D01*
X136244606Y-113292000D01*
X135382000Y-113292000D01*
X134996255Y-113368729D01*
X134669236Y-113587236D01*
X134669234Y-113587239D01*
X134161236Y-114095236D01*
X133942729Y-114422255D01*
X133899776Y-114638192D01*
X133892426Y-114635140D01*
X133818273Y-114635075D01*
X133670599Y-114487401D01*
X133465239Y-114350184D01*
X133223000Y-114301999D01*
X133222995Y-114302000D01*
X130811793Y-114302000D01*
X130760293Y-114250410D01*
X130463426Y-114127140D01*
X130141984Y-114126860D01*
X129844903Y-114249611D01*
X129617410Y-114476707D01*
X129494140Y-114773574D01*
X129493860Y-115095016D01*
X129616611Y-115392097D01*
X129843707Y-115619590D01*
X130140574Y-115742860D01*
X130462016Y-115743140D01*
X130759097Y-115620389D01*
X130811578Y-115568000D01*
X132922891Y-115568000D01*
X132922860Y-115603016D01*
X133045611Y-115900097D01*
X133272707Y-116127590D01*
X133569574Y-116250860D01*
X133866000Y-116251118D01*
X133866000Y-117438472D01*
X133567472Y-117737000D01*
X131953000Y-117737000D01*
X131567255Y-117813729D01*
X131240236Y-118032236D01*
X131127500Y-118200957D01*
X131014764Y-118032236D01*
X129871764Y-116889236D01*
X129544745Y-116670729D01*
X129159000Y-116593999D01*
X129158995Y-116594000D01*
X120317628Y-116594000D01*
X119372000Y-115608972D01*
X119372000Y-106043000D01*
X123951995Y-106043000D01*
X123952000Y-106043001D01*
X124194239Y-105994816D01*
X124399599Y-105857599D01*
X125034596Y-105222601D01*
X125034599Y-105222599D01*
X125171816Y-105017239D01*
X125186483Y-104943501D01*
X125220001Y-104775000D01*
X125220000Y-104774995D01*
X125220000Y-103170109D01*
X125228000Y-103170116D01*
G36*
X127772624Y-102351375D02*
X127957618Y-102474984D01*
X128059091Y-102542786D01*
X128397000Y-102610000D01*
X130302000Y-102610000D01*
X130639910Y-102542786D01*
X130925535Y-102351936D01*
X131013611Y-102565097D01*
X131066000Y-102617578D01*
X131066000Y-105789207D01*
X131014410Y-105840707D01*
X130891140Y-106137574D01*
X130890860Y-106459016D01*
X131013611Y-106756097D01*
X131240707Y-106983590D01*
X131537574Y-107106860D01*
X131859016Y-107107140D01*
X131955000Y-107067480D01*
X131955000Y-109149921D01*
X131699000Y-109099000D01*
X127238750Y-109099000D01*
X126994000Y-108854250D01*
X126994000Y-102102000D01*
X127523249Y-102102000D01*
X127772624Y-102351375D01*
X127772624Y-102351375D01*
G37*
X127772624Y-102351375D02*
X127957618Y-102474984D01*
X128059091Y-102542786D01*
X128397000Y-102610000D01*
X130302000Y-102610000D01*
X130639910Y-102542786D01*
X130925535Y-102351936D01*
X131013611Y-102565097D01*
X131066000Y-102617578D01*
X131066000Y-105789207D01*
X131014410Y-105840707D01*
X130891140Y-106137574D01*
X130890860Y-106459016D01*
X131013611Y-106756097D01*
X131240707Y-106983590D01*
X131537574Y-107106860D01*
X131859016Y-107107140D01*
X131955000Y-107067480D01*
X131955000Y-109149921D01*
X131699000Y-109099000D01*
X127238750Y-109099000D01*
X126994000Y-108854250D01*
X126994000Y-102102000D01*
X127523249Y-102102000D01*
X127772624Y-102351375D01*
M02*
